0
SECTION
2
HEADER
9
$ACADVER
1
AC1009
9
$DWGCODEPAGE
3
ANSI_1253
9
$INSUNITS
70
6
0
ENDSEC
0
SECTION
2
TABLES
0
TABLE
2
LAYER
70
8
0
LAYER
2
OUTLINE
70
0
62
7
6
CONTINUOUS
0
LAYER
2
WALLS
70
0
62
8
6
CONTINUOUS
0
LAYER
2
ROOMS
70
0
62
3
6
CONTINUOUS
0
LAYER
2
OPENINGS
70
0
62
1
6
CONTINUOUS
0
LAYER
2
TEXT
70
0
62
7
6
CONTINUOUS
0
LAYER
2
DIMS
70
0
62
4
6
CONTINUOUS
0
LAYER
2
NORTH
70
0
62
2
6
CONTINUOUS
0
LAYER
2
TITLE
70
0
62
5
6
CONTINUOUS
0
ENDTAB
0
ENDSEC
0
SECTION
2
ENTITIES
0
POLYLINE
8
OUTLINE
66
1
70
1
10
0.0
20
0.0
30
0.0
0
VERTEX
8
OUTLINE
10
0.0000
20
0.0000
30
0.0
0
VERTEX
8
OUTLINE
10
13.0000
20
0.0000
30
0.0
0
VERTEX
8
OUTLINE
10
13.0000
20
8.9650
30
0.0
0
VERTEX
8
OUTLINE
10
0.0000
20
8.9650
30
0.0
0
SEQEND
8
OUTLINE
0
POLYLINE
8
WALLS
66
1
70
1
10
0.0
20
0.0
30
0.0
0
VERTEX
8
WALLS
10
0.3000
20
0.3000
30
0.0
0
VERTEX
8
WALLS
10
12.7000
20
0.3000
30
0.0
0
VERTEX
8
WALLS
10
12.7000
20
2.9000
30
0.0
0
VERTEX
8
WALLS
10
0.3000
20
2.9000
30
0.0
0
SEQEND
8
WALLS
0
POLYLINE
8
WALLS
66
1
70
1
10
0.0
20
0.0
30
0.0
0
VERTEX
8
WALLS
10
0.3000
20
3.5000
30
0.0
0
VERTEX
8
WALLS
10
12.7000
20
3.5000
30
0.0
0
VERTEX
8
WALLS
10
12.7000
20
8.6650
30
0.0
0
VERTEX
8
WALLS
10
0.3000
20
8.6650
30
0.0
0
SEQEND
8
WALLS
0
POLYLINE
8
ROOMS
66
1
70
1
10
0.0
20
0.0
30
0.0
0
VERTEX
8
ROOMS
10
0.3000
20
0.3000
30
0.0
0
VERTEX
8
ROOMS
10
12.7000
20
0.3000
30
0.0
0
VERTEX
8
ROOMS
10
12.7000
20
3.1500
30
0.0
0
VERTEX
8
ROOMS
10
0.3000
20
3.1500
30
0.0
0
SEQEND
8
ROOMS
0
TEXT
8
TEXT
10
6.5000
20
2.0050
30
0.0
40
0.2400
1
Κουζίνα
50
0.00
72
1
73
2
11
6.5000
21
2.0050
31
0.0
0
TEXT
8
TEXT
10
6.5000
20
1.7250
30
0.0
40
0.1700
1
35,34 m2  (kath.)
50
0.00
72
1
73
2
11
6.5000
21
1.7250
31
0.0
0
TEXT
8
TEXT
10
6.5000
20
1.4650
30
0.0
40
0.1500
1
esot. 12,40x2,85
50
0.00
72
1
73
2
11
6.5000
21
1.4650
31
0.0
0
TEXT
8
TEXT
10
6.5000
20
1.2250
30
0.0
40
0.1500
1
mikt. 13,00x3,20
50
0.00
72
1
73
2
11
6.5000
21
1.2250
31
0.0
0
LINE
8
OPENINGS
10
5.2379
20
0.3000
30
0.0
11
7.7621
21
0.3000
31
0.0
0
LINE
8
OPENINGS
10
6.0000
20
0.3000
30
0.0
11
6.0000
21
1.3000
31
0.0
0
ARC
8
OPENINGS
10
6.0000
20
0.3000
30
0.0
40
1.0000
50
0.00
51
90.00
0
POLYLINE
8
ROOMS
66
1
70
1
10
0.0
20
0.0
30
0.0
0
VERTEX
8
ROOMS
10
0.3000
20
5.9000
30
0.0
0
VERTEX
8
ROOMS
10
4.7947
20
5.9000
30
0.0
0
VERTEX
8
ROOMS
10
4.7947
20
8.6650
30
0.0
0
VERTEX
8
ROOMS
10
0.3000
20
8.6650
30
0.0
0
SEQEND
8
ROOMS
0
TEXT
8
TEXT
10
2.5474
20
7.5625
30
0.0
40
0.2400
1
Κύριο Υπνοδωμάτιο
50
0.00
72
1
73
2
11
2.5474
21
7.5625
31
0.0
0
TEXT
8
TEXT
10
2.5474
20
7.2825
30
0.0
40
0.1700
1
12,43 m2  (kath.)
50
0.00
72
1
73
2
11
2.5474
21
7.2825
31
0.0
0
TEXT
8
TEXT
10
2.5474
20
7.0225
30
0.0
40
0.1500
1
esot. 4,49x2,76
50
0.00
72
1
73
2
11
2.5474
21
7.0225
31
0.0
0
TEXT
8
TEXT
10
2.5474
20
6.7825
30
0.0
40
0.1500
1
mikt. 4,84x3,11
50
0.00
72
1
73
2
11
2.5474
21
6.7825
31
0.0
0
LINE
8
OPENINGS
10
2.0974
20
8.6650
30
0.0
11
2.9974
21
8.6650
31
0.0
0
LINE
8
OPENINGS
10
3.7947
20
5.9000
30
0.0
11
3.7947
21
6.8000
31
0.0
0
ARC
8
OPENINGS
10
3.7947
20
5.9000
30
0.0
40
0.9000
50
0.00
51
90.00
0
POLYLINE
8
ROOMS
66
1
70
1
10
0.0
20
0.0
30
0.0
0
VERTEX
8
ROOMS
10
4.8947
20
5.9000
30
0.0
0
VERTEX
8
ROOMS
10
8.7474
20
5.9000
30
0.0
0
VERTEX
8
ROOMS
10
8.7474
20
8.6650
30
0.0
0
VERTEX
8
ROOMS
10
4.8947
20
8.6650
30
0.0
0
SEQEND
8
ROOMS
0
TEXT
8
TEXT
10
6.8211
20
7.5625
30
0.0
40
0.2400
1
Υπνοδωμάτιο 2
50
0.00
72
1
73
2
11
6.8211
21
7.5625
31
0.0
0
TEXT
8
TEXT
10
6.8211
20
7.2825
30
0.0
40
0.1700
1
10,65 m2  (kath.)
50
0.00
72
1
73
2
11
6.8211
21
7.2825
31
0.0
0
TEXT
8
TEXT
10
6.8211
20
7.0225
30
0.0
40
0.1500
1
esot. 3,85x2,76
50
0.00
72
1
73
2
11
6.8211
21
7.0225
31
0.0
0
TEXT
8
TEXT
10
6.8211
20
6.7825
30
0.0
40
0.1500
1
mikt. 3,95x3,11
50
0.00
72
1
73
2
11
6.8211
21
6.7825
31
0.0
0
LINE
8
OPENINGS
10
6.3711
20
8.6650
30
0.0
11
7.2711
21
8.6650
31
0.0
0
LINE
8
OPENINGS
10
5.7500
20
5.9000
30
0.0
11
5.7500
21
6.8000
31
0.0
0
ARC
8
OPENINGS
10
5.7500
20
5.9000
30
0.0
40
0.9000
50
0.00
51
90.00
0
POLYLINE
8
ROOMS
66
1
70
1
10
0.0
20
0.0
30
0.0
0
VERTEX
8
ROOMS
10
8.8474
20
5.9000
30
0.0
0
VERTEX
8
ROOMS
10
12.7000
20
5.9000
30
0.0
0
VERTEX
8
ROOMS
10
12.7000
20
8.6650
30
0.0
0
VERTEX
8
ROOMS
10
8.8474
20
8.6650
30
0.0
0
SEQEND
8
ROOMS
0
TEXT
8
TEXT
10
10.7737
20
7.5625
30
0.0
40
0.2400
1
Υπνοδωμάτιο 3
50
0.00
72
1
73
2
11
10.7737
21
7.5625
31
0.0
0
TEXT
8
TEXT
10
10.7737
20
7.2825
30
0.0
40
0.1700
1
10,65 m2  (kath.)
50
0.00
72
1
73
2
11
10.7737
21
7.2825
31
0.0
0
TEXT
8
TEXT
10
10.7737
20
7.0225
30
0.0
40
0.1500
1
esot. 3,85x2,76
50
0.00
72
1
73
2
11
10.7737
21
7.0225
31
0.0
0
TEXT
8
TEXT
10
10.7737
20
6.7825
30
0.0
40
0.1500
1
mikt. 4,20x3,11
50
0.00
72
1
73
2
11
10.7737
21
6.7825
31
0.0
0
LINE
8
OPENINGS
10
12.7000
20
6.8325
30
0.0
11
12.7000
21
7.7325
31
0.0
0
LINE
8
OPENINGS
10
8.9474
20
5.9000
30
0.0
11
8.9474
21
6.8000
31
0.0
0
ARC
8
OPENINGS
10
8.9474
20
5.9000
30
0.0
40
0.9000
50
0.00
51
90.00
0
POLYLINE
8
ROOMS
66
1
70
1
10
0.0
20
0.0
30
0.0
0
VERTEX
8
ROOMS
10
0.3000
20
3.2500
30
0.0
0
VERTEX
8
ROOMS
10
1.5500
20
3.2500
30
0.0
0
VERTEX
8
ROOMS
10
1.5500
20
5.8000
30
0.0
0
VERTEX
8
ROOMS
10
0.3000
20
5.8000
30
0.0
0
SEQEND
8
ROOMS
0
TEXT
8
TEXT
10
0.9250
20
4.8050
30
0.0
40
0.2400
1
Χωλ
50
0.00
72
1
73
2
11
0.9250
21
4.8050
31
0.0
0
TEXT
8
TEXT
10
0.9250
20
4.5250
30
0.0
40
0.1700
1
3,19 m2  (kath.)
50
0.00
72
1
73
2
11
0.9250
21
4.5250
31
0.0
0
TEXT
8
TEXT
10
0.9250
20
4.2650
30
0.0
40
0.1500
1
esot. 1,25x2,55
50
0.00
72
1
73
2
11
0.9250
21
4.2650
31
0.0
0
TEXT
8
TEXT
10
0.9250
20
4.0250
30
0.0
40
0.1500
1
mikt. 1,60x2,65
50
0.00
72
1
73
2
11
0.9250
21
4.0250
31
0.0
0
LINE
8
OPENINGS
10
1.5500
20
4.9500
30
0.0
11
0.8000
21
4.9500
31
0.0
0
ARC
8
OPENINGS
10
1.5500
20
4.9500
30
0.0
40
0.7500
50
0.00
51
90.00
0
LINE
8
OPENINGS
10
0.4750
20
3.2500
30
0.0
11
0.4750
21
4.1500
31
0.0
0
ARC
8
OPENINGS
10
0.4750
20
3.2500
30
0.0
40
0.9000
50
0.00
51
90.00
0
POLYLINE
8
ROOMS
66
1
70
1
10
0.0
20
0.0
30
0.0
0
VERTEX
8
ROOMS
10
1.6500
20
3.2500
30
0.0
0
VERTEX
8
ROOMS
10
10.7500
20
3.2500
30
0.0
0
VERTEX
8
ROOMS
10
10.7500
20
4.7500
30
0.0
0
VERTEX
8
ROOMS
10
1.6500
20
4.7500
30
0.0
0
SEQEND
8
ROOMS
0
TEXT
8
TEXT
10
6.2000
20
4.2800
30
0.0
40
0.2400
1
WC
50
0.00
72
1
73
2
11
6.2000
21
4.2800
31
0.0
0
TEXT
8
TEXT
10
6.2000
20
4.0000
30
0.0
40
0.1700
1
13,65 m2  (kath.)
50
0.00
72
1
73
2
11
6.2000
21
4.0000
31
0.0
0
TEXT
8
TEXT
10
6.2000
20
3.7400
30
0.0
40
0.1500
1
esot. 9,10x1,50
50
0.00
72
1
73
2
11
6.2000
21
3.7400
31
0.0
0
TEXT
8
TEXT
10
6.2000
20
3.5000
30
0.0
40
0.1500
1
mikt. 9,20x1,60
50
0.00
72
1
73
2
11
6.2000
21
3.5000
31
0.0
0
LINE
8
OPENINGS
10
5.8500
20
4.7500
30
0.0
11
5.8500
21
4.0500
31
0.0
0
ARC
8
OPENINGS
10
5.8500
20
4.7500
30
0.0
40
0.7000
50
270.00
51
360.00
0
POLYLINE
8
ROOMS
66
1
70
1
10
0.0
20
0.0
30
0.0
0
VERTEX
8
ROOMS
10
10.8500
20
3.2500
30
0.0
0
VERTEX
8
ROOMS
10
12.7000
20
3.2500
30
0.0
0
VERTEX
8
ROOMS
10
12.7000
20
5.8000
30
0.0
0
VERTEX
8
ROOMS
10
10.8500
20
5.8000
30
0.0
0
SEQEND
8
ROOMS
0
TEXT
8
TEXT
10
11.7750
20
4.8050
30
0.0
40
0.2400
1
Λουτρό
50
0.00
72
1
73
2
11
11.7750
21
4.8050
31
0.0
0
TEXT
8
TEXT
10
11.7750
20
4.5250
30
0.0
40
0.1700
1
4,72 m2  (kath.)
50
0.00
72
1
73
2
11
11.7750
21
4.5250
31
0.0
0
TEXT
8
TEXT
10
11.7750
20
4.2650
30
0.0
40
0.1500
1
esot. 1,85x2,55
50
0.00
72
1
73
2
11
11.7750
21
4.2650
31
0.0
0
TEXT
8
TEXT
10
11.7750
20
4.0250
30
0.0
40
0.1500
1
mikt. 2,20x2,65
50
0.00
72
1
73
2
11
11.7750
21
4.0250
31
0.0
0
LINE
8
OPENINGS
10
12.7000
20
4.0750
30
0.0
11
12.7000
21
4.9750
31
0.0
0
LINE
8
OPENINGS
10
10.8500
20
4.9500
30
0.0
11
11.6000
21
4.9500
31
0.0
0
ARC
8
OPENINGS
10
10.8500
20
4.9500
30
0.0
40
0.7500
50
0.00
51
90.00
0
POLYLINE
8
ROOMS
66
1
70
1
10
0.0
20
0.0
30
0.0
0
VERTEX
8
ROOMS
10
1.6500
20
4.8500
30
0.0
0
VERTEX
8
ROOMS
10
10.7500
20
4.8500
30
0.0
0
VERTEX
8
ROOMS
10
10.7500
20
5.8000
30
0.0
0
VERTEX
8
ROOMS
10
1.6500
20
5.8000
30
0.0
0
SEQEND
8
ROOMS
0
TEXT
8
TEXT
10
6.2000
20
5.6050
30
0.0
40
0.2400
1
Διάδρομος
50
0.00
72
1
73
2
11
6.2000
21
5.6050
31
0.0
0
TEXT
8
TEXT
10
6.2000
20
5.3250
30
0.0
40
0.1700
1
8,64 m2  (kath.)
50
0.00
72
1
73
2
11
6.2000
21
5.3250
31
0.0
0
TEXT
8
TEXT
10
6.2000
20
5.0650
30
0.0
40
0.1500
1
esot. 9,10x0,95
50
0.00
72
1
73
2
11
6.2000
21
5.0650
31
0.0
0
TEXT
8
TEXT
10
6.2000
20
4.8250
30
0.0
40
0.1500
1
mikt. 9,20x1,05
50
0.00
72
1
73
2
11
6.2000
21
4.8250
31
0.0
0
LINE
8
DIMS
10
0.0000
20
-1.2000
30
0.0
11
13.0000
21
-1.2000
31
0.0
0
LINE
8
DIMS
10
0.0000
20
-1.0500
30
0.0
11
0.0000
21
-1.3500
31
0.0
0
LINE
8
DIMS
10
13.0000
20
-1.0500
30
0.0
11
13.0000
21
-1.3500
31
0.0
0
TEXT
8
DIMS
10
6.5000
20
-1.5500
30
0.0
40
0.2800
1
13,00 m (A-D)
50
0.00
72
1
73
2
11
6.5000
21
-1.5500
31
0.0
0
LINE
8
DIMS
10
-1.2000
20
0.0000
30
0.0
11
-1.2000
21
8.9600
31
0.0
0
LINE
8
DIMS
10
-1.0500
20
0.0000
30
0.0
11
-1.3500
21
0.0000
31
0.0
0
LINE
8
DIMS
10
-1.0500
20
8.9600
30
0.0
11
-1.3500
21
8.9600
31
0.0
0
TEXT
8
DIMS
10
-1.5500
20
4.4800
30
0.0
40
0.2800
1
8,96 m (B-N)
50
90.00
72
1
73
2
11
-1.5500
21
4.4800
31
0.0
0
TEXT
8
TITLE
10
6.5000
20
9.6600
30
0.0
40
0.4000
1
Ισόγειο  -  116,55 m2 (mikto)
50
0.00
72
1
73
2
11
6.5000
21
9.6600
31
0.0
0
POLYLINE
8
NORTH
66
1
70
1
10
0.0
20
0.0
30
0.0
0
VERTEX
8
NORTH
10
14.2000
20
8.9600
30
0.0
0
VERTEX
8
NORTH
10
13.8500
20
8.0600
30
0.0
0
VERTEX
8
NORTH
10
14.2000
20
8.3600
30
0.0
0
VERTEX
8
NORTH
10
14.5500
20
8.0600
30
0.0
0
SEQEND
8
NORTH
0
TEXT
8
NORTH
10
14.2000
20
9.3600
30
0.0
40
0.4500
1
B
50
0.00
72
1
73
2
11
14.2000
21
9.3600
31
0.0
0
TEXT
8
TITLE
10
0.0000
20
11.1600
30
0.0
40
0.5000
1
Κατοικία - Πρόταση 1
50
0.00
72
0
73
2
11
0.0000
21
11.1600
31
0.0
0
TEXT
8
TITLE
10
0.0000
20
10.4600
30
0.0
40
0.3000
1
Αμαλιάδα, Π.Ε. Ηλείας  |  Eisodos: Νότος  |  Orofoi: 1
50
0.00
72
0
73
2
11
0.0000
21
10.4600
31
0.0
0
ENDSEC
0
EOF
