0
SECTION
2
HEADER
9
$ACADVER
1
AC1009
9
$DWGCODEPAGE
3
ANSI_1253
9
$INSUNITS
70
6
0
ENDSEC
0
SECTION
2
TABLES
0
TABLE
2
LAYER
70
8
0
LAYER
2
OUTLINE
70
0
62
7
6
CONTINUOUS
0
LAYER
2
WALLS
70
0
62
8
6
CONTINUOUS
0
LAYER
2
ROOMS
70
0
62
3
6
CONTINUOUS
0
LAYER
2
OPENINGS
70
0
62
1
6
CONTINUOUS
0
LAYER
2
TEXT
70
0
62
7
6
CONTINUOUS
0
LAYER
2
DIMS
70
0
62
4
6
CONTINUOUS
0
LAYER
2
NORTH
70
0
62
2
6
CONTINUOUS
0
LAYER
2
TITLE
70
0
62
5
6
CONTINUOUS
0
ENDTAB
0
ENDSEC
0
SECTION
2
ENTITIES
0
POLYLINE
8
OUTLINE
66
1
70
1
10
0.0
20
0.0
30
0.0
0
VERTEX
8
OUTLINE
10
0.0000
20
0.0000
30
0.0
0
VERTEX
8
OUTLINE
10
13.0000
20
0.0000
30
0.0
0
VERTEX
8
OUTLINE
10
13.0000
20
8.8550
30
0.0
0
VERTEX
8
OUTLINE
10
0.0000
20
8.8550
30
0.0
0
SEQEND
8
OUTLINE
0
POLYLINE
8
WALLS
66
1
70
1
10
0.0
20
0.0
30
0.0
0
VERTEX
8
WALLS
10
0.3000
20
0.3000
30
0.0
0
VERTEX
8
WALLS
10
12.7000
20
0.3000
30
0.0
0
VERTEX
8
WALLS
10
12.7000
20
2.7400
30
0.0
0
VERTEX
8
WALLS
10
0.3000
20
2.7400
30
0.0
0
SEQEND
8
WALLS
0
POLYLINE
8
WALLS
66
1
70
1
10
0.0
20
0.0
30
0.0
0
VERTEX
8
WALLS
10
0.3000
20
3.3400
30
0.0
0
VERTEX
8
WALLS
10
12.7000
20
3.3400
30
0.0
0
VERTEX
8
WALLS
10
12.7000
20
8.5550
30
0.0
0
VERTEX
8
WALLS
10
0.3000
20
8.5550
30
0.0
0
SEQEND
8
WALLS
0
POLYLINE
8
ROOMS
66
1
70
1
10
0.0
20
0.0
30
0.0
0
VERTEX
8
ROOMS
10
0.3000
20
0.3000
30
0.0
0
VERTEX
8
ROOMS
10
12.7000
20
0.3000
30
0.0
0
VERTEX
8
ROOMS
10
12.7000
20
2.9900
30
0.0
0
VERTEX
8
ROOMS
10
0.3000
20
2.9900
30
0.0
0
SEQEND
8
ROOMS
0
TEXT
8
TEXT
10
6.5000
20
1.9250
30
0.0
40
0.2400
1
Κουζίνα
50
0.00
72
1
73
2
11
6.5000
21
1.9250
31
0.0
0
TEXT
8
TEXT
10
6.5000
20
1.6450
30
0.0
40
0.1700
1
33,36 m2  (kath.)
50
0.00
72
1
73
2
11
6.5000
21
1.6450
31
0.0
0
TEXT
8
TEXT
10
6.5000
20
1.3850
30
0.0
40
0.1500
1
esot. 12,40x2,69
50
0.00
72
1
73
2
11
6.5000
21
1.3850
31
0.0
0
TEXT
8
TEXT
10
6.5000
20
1.1450
30
0.0
40
0.1500
1
mikt. 13,00x3,04
50
0.00
72
1
73
2
11
6.5000
21
1.1450
31
0.0
0
LINE
8
OPENINGS
10
5.3087
20
0.3000
30
0.0
11
7.6913
21
0.3000
31
0.0
0
LINE
8
OPENINGS
10
6.0000
20
0.3000
30
0.0
11
6.0000
21
1.3000
31
0.0
0
ARC
8
OPENINGS
10
6.0000
20
0.3000
30
0.0
40
1.0000
50
0.00
51
90.00
0
POLYLINE
8
ROOMS
66
1
70
1
10
0.0
20
0.0
30
0.0
0
VERTEX
8
ROOMS
10
0.3000
20
5.7900
30
0.0
0
VERTEX
8
ROOMS
10
4.7947
20
5.7900
30
0.0
0
VERTEX
8
ROOMS
10
4.7947
20
8.5550
30
0.0
0
VERTEX
8
ROOMS
10
0.3000
20
8.5550
30
0.0
0
SEQEND
8
ROOMS
0
TEXT
8
TEXT
10
2.5474
20
7.4525
30
0.0
40
0.2400
1
Κύριο Υπνοδωμάτιο
50
0.00
72
1
73
2
11
2.5474
21
7.4525
31
0.0
0
TEXT
8
TEXT
10
2.5474
20
7.1725
30
0.0
40
0.1700
1
12,43 m2  (kath.)
50
0.00
72
1
73
2
11
2.5474
21
7.1725
31
0.0
0
TEXT
8
TEXT
10
2.5474
20
6.9125
30
0.0
40
0.1500
1
esot. 4,49x2,76
50
0.00
72
1
73
2
11
2.5474
21
6.9125
31
0.0
0
TEXT
8
TEXT
10
2.5474
20
6.6725
30
0.0
40
0.1500
1
mikt. 4,84x3,11
50
0.00
72
1
73
2
11
2.5474
21
6.6725
31
0.0
0
LINE
8
OPENINGS
10
2.0974
20
8.5550
30
0.0
11
2.9974
21
8.5550
31
0.0
0
LINE
8
OPENINGS
10
3.7947
20
5.7900
30
0.0
11
3.7947
21
6.6900
31
0.0
0
ARC
8
OPENINGS
10
3.7947
20
5.7900
30
0.0
40
0.9000
50
0.00
51
90.00
0
POLYLINE
8
ROOMS
66
1
70
1
10
0.0
20
0.0
30
0.0
0
VERTEX
8
ROOMS
10
4.8947
20
5.7900
30
0.0
0
VERTEX
8
ROOMS
10
8.7474
20
5.7900
30
0.0
0
VERTEX
8
ROOMS
10
8.7474
20
8.5550
30
0.0
0
VERTEX
8
ROOMS
10
4.8947
20
8.5550
30
0.0
0
SEQEND
8
ROOMS
0
TEXT
8
TEXT
10
6.8211
20
7.4525
30
0.0
40
0.2400
1
Υπνοδωμάτιο 2
50
0.00
72
1
73
2
11
6.8211
21
7.4525
31
0.0
0
TEXT
8
TEXT
10
6.8211
20
7.1725
30
0.0
40
0.1700
1
10,65 m2  (kath.)
50
0.00
72
1
73
2
11
6.8211
21
7.1725
31
0.0
0
TEXT
8
TEXT
10
6.8211
20
6.9125
30
0.0
40
0.1500
1
esot. 3,85x2,76
50
0.00
72
1
73
2
11
6.8211
21
6.9125
31
0.0
0
TEXT
8
TEXT
10
6.8211
20
6.6725
30
0.0
40
0.1500
1
mikt. 3,95x3,11
50
0.00
72
1
73
2
11
6.8211
21
6.6725
31
0.0
0
LINE
8
OPENINGS
10
6.3711
20
8.5550
30
0.0
11
7.2711
21
8.5550
31
0.0
0
LINE
8
OPENINGS
10
5.7500
20
5.7900
30
0.0
11
5.7500
21
6.6900
31
0.0
0
ARC
8
OPENINGS
10
5.7500
20
5.7900
30
0.0
40
0.9000
50
0.00
51
90.00
0
POLYLINE
8
ROOMS
66
1
70
1
10
0.0
20
0.0
30
0.0
0
VERTEX
8
ROOMS
10
8.8474
20
5.7900
30
0.0
0
VERTEX
8
ROOMS
10
12.7000
20
5.7900
30
0.0
0
VERTEX
8
ROOMS
10
12.7000
20
8.5550
30
0.0
0
VERTEX
8
ROOMS
10
8.8474
20
8.5550
30
0.0
0
SEQEND
8
ROOMS
0
TEXT
8
TEXT
10
10.7737
20
7.4525
30
0.0
40
0.2400
1
Υπνοδωμάτιο 3
50
0.00
72
1
73
2
11
10.7737
21
7.4525
31
0.0
0
TEXT
8
TEXT
10
10.7737
20
7.1725
30
0.0
40
0.1700
1
10,65 m2  (kath.)
50
0.00
72
1
73
2
11
10.7737
21
7.1725
31
0.0
0
TEXT
8
TEXT
10
10.7737
20
6.9125
30
0.0
40
0.1500
1
esot. 3,85x2,76
50
0.00
72
1
73
2
11
10.7737
21
6.9125
31
0.0
0
TEXT
8
TEXT
10
10.7737
20
6.6725
30
0.0
40
0.1500
1
mikt. 4,20x3,11
50
0.00
72
1
73
2
11
10.7737
21
6.6725
31
0.0
0
LINE
8
OPENINGS
10
12.7000
20
6.7225
30
0.0
11
12.7000
21
7.6225
31
0.0
0
LINE
8
OPENINGS
10
8.9474
20
5.7900
30
0.0
11
8.9474
21
6.6900
31
0.0
0
ARC
8
OPENINGS
10
8.9474
20
5.7900
30
0.0
40
0.9000
50
0.00
51
90.00
0
POLYLINE
8
ROOMS
66
1
70
1
10
0.0
20
0.0
30
0.0
0
VERTEX
8
ROOMS
10
0.3000
20
3.0900
30
0.0
0
VERTEX
8
ROOMS
10
1.5500
20
3.0900
30
0.0
0
VERTEX
8
ROOMS
10
1.5500
20
5.6900
30
0.0
0
VERTEX
8
ROOMS
10
0.3000
20
5.6900
30
0.0
0
SEQEND
8
ROOMS
0
TEXT
8
TEXT
10
0.9250
20
4.6700
30
0.0
40
0.2400
1
Χωλ
50
0.00
72
1
73
2
11
0.9250
21
4.6700
31
0.0
0
TEXT
8
TEXT
10
0.9250
20
4.3900
30
0.0
40
0.1700
1
3,25 m2  (kath.)
50
0.00
72
1
73
2
11
0.9250
21
4.3900
31
0.0
0
TEXT
8
TEXT
10
0.9250
20
4.1300
30
0.0
40
0.1500
1
esot. 1,25x2,60
50
0.00
72
1
73
2
11
0.9250
21
4.1300
31
0.0
0
TEXT
8
TEXT
10
0.9250
20
3.8900
30
0.0
40
0.1500
1
mikt. 1,60x2,70
50
0.00
72
1
73
2
11
0.9250
21
3.8900
31
0.0
0
LINE
8
OPENINGS
10
1.5500
20
4.7900
30
0.0
11
0.7500
21
4.7900
31
0.0
0
ARC
8
OPENINGS
10
1.5500
20
4.7900
30
0.0
40
0.8000
50
0.00
51
90.00
0
LINE
8
OPENINGS
10
0.4750
20
3.0900
30
0.0
11
0.4750
21
3.9900
31
0.0
0
ARC
8
OPENINGS
10
0.4750
20
3.0900
30
0.0
40
0.9000
50
0.00
51
90.00
0
POLYLINE
8
ROOMS
66
1
70
1
10
0.0
20
0.0
30
0.0
0
VERTEX
8
ROOMS
10
1.6500
20
3.0900
30
0.0
0
VERTEX
8
ROOMS
10
10.7500
20
3.0900
30
0.0
0
VERTEX
8
ROOMS
10
10.7500
20
4.5900
30
0.0
0
VERTEX
8
ROOMS
10
1.6500
20
4.5900
30
0.0
0
SEQEND
8
ROOMS
0
TEXT
8
TEXT
10
6.2000
20
4.1200
30
0.0
40
0.2400
1
WC
50
0.00
72
1
73
2
11
6.2000
21
4.1200
31
0.0
0
TEXT
8
TEXT
10
6.2000
20
3.8400
30
0.0
40
0.1700
1
13,65 m2  (kath.)
50
0.00
72
1
73
2
11
6.2000
21
3.8400
31
0.0
0
TEXT
8
TEXT
10
6.2000
20
3.5800
30
0.0
40
0.1500
1
esot. 9,10x1,50
50
0.00
72
1
73
2
11
6.2000
21
3.5800
31
0.0
0
TEXT
8
TEXT
10
6.2000
20
3.3400
30
0.0
40
0.1500
1
mikt. 9,20x1,60
50
0.00
72
1
73
2
11
6.2000
21
3.3400
31
0.0
0
LINE
8
OPENINGS
10
5.8500
20
4.5900
30
0.0
11
5.8500
21
3.8900
31
0.0
0
ARC
8
OPENINGS
10
5.8500
20
4.5900
30
0.0
40
0.7000
50
270.00
51
360.00
0
POLYLINE
8
ROOMS
66
1
70
1
10
0.0
20
0.0
30
0.0
0
VERTEX
8
ROOMS
10
10.8500
20
3.0900
30
0.0
0
VERTEX
8
ROOMS
10
12.7000
20
3.0900
30
0.0
0
VERTEX
8
ROOMS
10
12.7000
20
5.6900
30
0.0
0
VERTEX
8
ROOMS
10
10.8500
20
5.6900
30
0.0
0
SEQEND
8
ROOMS
0
TEXT
8
TEXT
10
11.7750
20
4.6700
30
0.0
40
0.2400
1
Λουτρό
50
0.00
72
1
73
2
11
11.7750
21
4.6700
31
0.0
0
TEXT
8
TEXT
10
11.7750
20
4.3900
30
0.0
40
0.1700
1
4,81 m2  (kath.)
50
0.00
72
1
73
2
11
11.7750
21
4.3900
31
0.0
0
TEXT
8
TEXT
10
11.7750
20
4.1300
30
0.0
40
0.1500
1
esot. 1,85x2,60
50
0.00
72
1
73
2
11
11.7750
21
4.1300
31
0.0
0
TEXT
8
TEXT
10
11.7750
20
3.8900
30
0.0
40
0.1500
1
mikt. 2,20x2,70
50
0.00
72
1
73
2
11
11.7750
21
3.8900
31
0.0
0
LINE
8
OPENINGS
10
12.7000
20
3.9400
30
0.0
11
12.7000
21
4.8400
31
0.0
0
LINE
8
OPENINGS
10
10.8500
20
4.7900
30
0.0
11
11.6500
21
4.7900
31
0.0
0
ARC
8
OPENINGS
10
10.8500
20
4.7900
30
0.0
40
0.8000
50
0.00
51
90.00
0
POLYLINE
8
ROOMS
66
1
70
1
10
0.0
20
0.0
30
0.0
0
VERTEX
8
ROOMS
10
1.6500
20
4.6900
30
0.0
0
VERTEX
8
ROOMS
10
10.7500
20
4.6900
30
0.0
0
VERTEX
8
ROOMS
10
10.7500
20
5.6900
30
0.0
0
VERTEX
8
ROOMS
10
1.6500
20
5.6900
30
0.0
0
SEQEND
8
ROOMS
0
TEXT
8
TEXT
10
6.2000
20
5.4700
30
0.0
40
0.2400
1
Διάδρομος
50
0.00
72
1
73
2
11
6.2000
21
5.4700
31
0.0
0
TEXT
8
TEXT
10
6.2000
20
5.1900
30
0.0
40
0.1700
1
9,10 m2  (kath.)
50
0.00
72
1
73
2
11
6.2000
21
5.1900
31
0.0
0
TEXT
8
TEXT
10
6.2000
20
4.9300
30
0.0
40
0.1500
1
esot. 9,10x1,00
50
0.00
72
1
73
2
11
6.2000
21
4.9300
31
0.0
0
TEXT
8
TEXT
10
6.2000
20
4.6900
30
0.0
40
0.1500
1
mikt. 9,20x1,10
50
0.00
72
1
73
2
11
6.2000
21
4.6900
31
0.0
0
LINE
8
DIMS
10
0.0000
20
-1.2000
30
0.0
11
13.0000
21
-1.2000
31
0.0
0
LINE
8
DIMS
10
0.0000
20
-1.0500
30
0.0
11
0.0000
21
-1.3500
31
0.0
0
LINE
8
DIMS
10
13.0000
20
-1.0500
30
0.0
11
13.0000
21
-1.3500
31
0.0
0
TEXT
8
DIMS
10
6.5000
20
-1.5500
30
0.0
40
0.2800
1
13,00 m (A-D)
50
0.00
72
1
73
2
11
6.5000
21
-1.5500
31
0.0
0
LINE
8
DIMS
10
-1.2000
20
0.0000
30
0.0
11
-1.2000
21
8.8600
31
0.0
0
LINE
8
DIMS
10
-1.0500
20
0.0000
30
0.0
11
-1.3500
21
0.0000
31
0.0
0
LINE
8
DIMS
10
-1.0500
20
8.8600
30
0.0
11
-1.3500
21
8.8600
31
0.0
0
TEXT
8
DIMS
10
-1.5500
20
4.4300
30
0.0
40
0.2800
1
8,86 m (B-N)
50
90.00
72
1
73
2
11
-1.5500
21
4.4300
31
0.0
0
TEXT
8
TITLE
10
6.5000
20
9.5600
30
0.0
40
0.4000
1
Ισόγειο  -  115,12 m2 (mikto)
50
0.00
72
1
73
2
11
6.5000
21
9.5600
31
0.0
0
POLYLINE
8
NORTH
66
1
70
1
10
0.0
20
0.0
30
0.0
0
VERTEX
8
NORTH
10
14.2000
20
8.8600
30
0.0
0
VERTEX
8
NORTH
10
13.8500
20
7.9600
30
0.0
0
VERTEX
8
NORTH
10
14.2000
20
8.2600
30
0.0
0
VERTEX
8
NORTH
10
14.5500
20
7.9600
30
0.0
0
SEQEND
8
NORTH
0
TEXT
8
NORTH
10
14.2000
20
9.2600
30
0.0
40
0.4500
1
B
50
0.00
72
1
73
2
11
14.2000
21
9.2600
31
0.0
0
TEXT
8
TITLE
10
0.0000
20
11.0600
30
0.0
40
0.5000
1
Κατοικία - Πρόταση 3
50
0.00
72
0
73
2
11
0.0000
21
11.0600
31
0.0
0
TEXT
8
TITLE
10
0.0000
20
10.3600
30
0.0
40
0.3000
1
Αμαλιάδα, Π.Ε. Ηλείας  |  Eisodos: Νότος  |  Orofoi: 1
50
0.00
72
0
73
2
11
0.0000
21
10.3600
31
0.0
0
ENDSEC
0
EOF
