0
SECTION
2
HEADER
9
$ACADVER
1
AC1009
9
$DWGCODEPAGE
3
ANSI_1253
9
$INSUNITS
70
6
0
ENDSEC
0
SECTION
2
TABLES
0
TABLE
2
LAYER
70
8
0
LAYER
2
OUTLINE
70
0
62
7
6
CONTINUOUS
0
LAYER
2
WALLS
70
0
62
8
6
CONTINUOUS
0
LAYER
2
ROOMS
70
0
62
3
6
CONTINUOUS
0
LAYER
2
OPENINGS
70
0
62
1
6
CONTINUOUS
0
LAYER
2
TEXT
70
0
62
7
6
CONTINUOUS
0
LAYER
2
DIMS
70
0
62
4
6
CONTINUOUS
0
LAYER
2
NORTH
70
0
62
2
6
CONTINUOUS
0
LAYER
2
TITLE
70
0
62
5
6
CONTINUOUS
0
ENDTAB
0
ENDSEC
0
SECTION
2
ENTITIES
0
POLYLINE
8
OUTLINE
66
1
70
1
10
0.0
20
0.0
30
0.0
0
VERTEX
8
OUTLINE
10
0.0000
20
0.0000
30
0.0
0
VERTEX
8
OUTLINE
10
13.0000
20
0.0000
30
0.0
0
VERTEX
8
OUTLINE
10
13.0000
20
10.4000
30
0.0
0
VERTEX
8
OUTLINE
10
1.6600
20
10.4000
30
0.0
0
VERTEX
8
OUTLINE
10
1.6600
20
3.8500
30
0.0
0
VERTEX
8
OUTLINE
10
0.0000
20
3.8500
30
0.0
0
SEQEND
8
OUTLINE
0
POLYLINE
8
WALLS
66
1
70
1
10
0.0
20
0.0
30
0.0
0
VERTEX
8
WALLS
10
0.3000
20
0.3000
30
0.0
0
VERTEX
8
WALLS
10
12.7000
20
0.3000
30
0.0
0
VERTEX
8
WALLS
10
12.7000
20
3.5500
30
0.0
0
VERTEX
8
WALLS
10
0.3000
20
3.5500
30
0.0
0
SEQEND
8
WALLS
0
POLYLINE
8
WALLS
66
1
70
1
10
0.0
20
0.0
30
0.0
0
VERTEX
8
WALLS
10
1.9600
20
4.1500
30
0.0
0
VERTEX
8
WALLS
10
12.7000
20
4.1500
30
0.0
0
VERTEX
8
WALLS
10
12.7000
20
10.1000
30
0.0
0
VERTEX
8
WALLS
10
1.9600
20
10.1000
30
0.0
0
SEQEND
8
WALLS
0
POLYLINE
8
ROOMS
66
1
70
1
10
0.0
20
0.0
30
0.0
0
VERTEX
8
ROOMS
10
0.3000
20
0.3000
30
0.0
0
VERTEX
8
ROOMS
10
4.5297
20
0.3000
30
0.0
0
VERTEX
8
ROOMS
10
4.5297
20
3.5500
30
0.0
0
VERTEX
8
ROOMS
10
0.3000
20
3.5500
30
0.0
0
SEQEND
8
ROOMS
0
TEXT
8
TEXT
10
2.4148
20
2.2050
30
0.0
40
0.2400
1
Καθιστικό
50
0.00
72
1
73
2
11
2.4148
21
2.2050
31
0.0
0
TEXT
8
TEXT
10
2.4148
20
1.9250
30
0.0
40
0.1700
1
13,75 m2  (kath.)
50
0.00
72
1
73
2
11
2.4148
21
1.9250
31
0.0
0
TEXT
8
TEXT
10
2.4148
20
1.6650
30
0.0
40
0.1500
1
esot. 4,23x3,25
50
0.00
72
1
73
2
11
2.4148
21
1.6650
31
0.0
0
TEXT
8
TEXT
10
2.4148
20
1.4250
30
0.0
40
0.1500
1
mikt. 4,58x3,85
50
0.00
72
1
73
2
11
2.4148
21
1.4250
31
0.0
0
LINE
8
OPENINGS
10
1.9239
20
0.3000
30
0.0
11
2.9058
21
0.3000
31
0.0
0
LINE
8
OPENINGS
10
1.9148
20
0.3000
30
0.0
11
1.9148
21
1.3000
31
0.0
0
ARC
8
OPENINGS
10
1.9148
20
0.3000
30
0.0
40
1.0000
50
0.00
51
90.00
0
POLYLINE
8
ROOMS
66
1
70
1
10
0.0
20
0.0
30
0.0
0
VERTEX
8
ROOMS
10
4.6297
20
0.3000
30
0.0
0
VERTEX
8
ROOMS
10
9.6742
20
0.3000
30
0.0
0
VERTEX
8
ROOMS
10
9.6742
20
3.8000
30
0.0
0
VERTEX
8
ROOMS
10
4.6297
20
3.8000
30
0.0
0
SEQEND
8
ROOMS
0
TEXT
8
TEXT
10
7.1519
20
2.3300
30
0.0
40
0.2400
1
Σαλόνι
50
0.00
72
1
73
2
11
7.1519
21
2.3300
31
0.0
0
TEXT
8
TEXT
10
7.1519
20
2.0500
30
0.0
40
0.1700
1
17,66 m2  (kath.)
50
0.00
72
1
73
2
11
7.1519
21
2.0500
31
0.0
0
TEXT
8
TEXT
10
7.1519
20
1.7900
30
0.0
40
0.1500
1
esot. 5,04x3,50
50
0.00
72
1
73
2
11
7.1519
21
1.7900
31
0.0
0
TEXT
8
TEXT
10
7.1519
20
1.5500
30
0.0
40
0.1500
1
mikt. 5,14x3,85
50
0.00
72
1
73
2
11
7.1519
21
1.5500
31
0.0
0
LINE
8
OPENINGS
10
6.5213
20
0.3000
30
0.0
11
7.7825
21
0.3000
31
0.0
0
POLYLINE
8
ROOMS
66
1
70
1
10
0.0
20
0.0
30
0.0
0
VERTEX
8
ROOMS
10
9.7742
20
0.3000
30
0.0
0
VERTEX
8
ROOMS
10
12.7000
20
0.3000
30
0.0
0
VERTEX
8
ROOMS
10
12.7000
20
3.8000
30
0.0
0
VERTEX
8
ROOMS
10
9.7742
20
3.8000
30
0.0
0
SEQEND
8
ROOMS
0
TEXT
8
TEXT
10
11.2371
20
2.3300
30
0.0
40
0.2400
1
Κουζίνα
50
0.00
72
1
73
2
11
11.2371
21
2.3300
31
0.0
0
TEXT
8
TEXT
10
11.2371
20
2.0500
30
0.0
40
0.1700
1
10,24 m2  (kath.)
50
0.00
72
1
73
2
11
11.2371
21
2.0500
31
0.0
0
TEXT
8
TEXT
10
11.2371
20
1.7900
30
0.0
40
0.1500
1
esot. 2,93x3,50
50
0.00
72
1
73
2
11
11.2371
21
1.7900
31
0.0
0
TEXT
8
TEXT
10
11.2371
20
1.5500
30
0.0
40
0.1500
1
mikt. 3,28x3,85
50
0.00
72
1
73
2
11
11.2371
21
1.5500
31
0.0
0
LINE
8
OPENINGS
10
10.7871
20
0.3000
30
0.0
11
11.6871
21
0.3000
31
0.0
0
POLYLINE
8
ROOMS
66
1
70
1
10
0.0
20
0.0
30
0.0
0
VERTEX
8
ROOMS
10
1.9600
20
6.6000
30
0.0
0
VERTEX
8
ROOMS
10
5.8432
20
6.6000
30
0.0
0
VERTEX
8
ROOMS
10
5.8432
20
10.1000
30
0.0
0
VERTEX
8
ROOMS
10
1.9600
20
10.1000
30
0.0
0
SEQEND
8
ROOMS
0
TEXT
8
TEXT
10
3.9016
20
8.6300
30
0.0
40
0.2400
1
Κύριο Υπνοδωμάτιο
50
0.00
72
1
73
2
11
3.9016
21
8.6300
31
0.0
0
TEXT
8
TEXT
10
3.9016
20
8.3500
30
0.0
40
0.1700
1
13,59 m2  (kath.)
50
0.00
72
1
73
2
11
3.9016
21
8.3500
31
0.0
0
TEXT
8
TEXT
10
3.9016
20
8.0900
30
0.0
40
0.1500
1
esot. 3,88x3,50
50
0.00
72
1
73
2
11
3.9016
21
8.0900
31
0.0
0
TEXT
8
TEXT
10
3.9016
20
7.8500
30
0.0
40
0.1500
1
mikt. 4,23x3,85
50
0.00
72
1
73
2
11
3.9016
21
7.8500
31
0.0
0
LINE
8
OPENINGS
10
3.4162
20
10.1000
30
0.0
11
4.3870
21
10.1000
31
0.0
0
LINE
8
OPENINGS
10
4.8432
20
6.6000
30
0.0
11
4.8432
21
7.5000
31
0.0
0
ARC
8
OPENINGS
10
4.8432
20
6.6000
30
0.0
40
0.9000
50
0.00
51
90.00
0
POLYLINE
8
ROOMS
66
1
70
1
10
0.0
20
0.0
30
0.0
0
VERTEX
8
ROOMS
10
5.9432
20
6.6000
30
0.0
0
VERTEX
8
ROOMS
10
9.2716
20
6.6000
30
0.0
0
VERTEX
8
ROOMS
10
9.2716
20
10.1000
30
0.0
0
VERTEX
8
ROOMS
10
5.9432
20
10.1000
30
0.0
0
SEQEND
8
ROOMS
0
TEXT
8
TEXT
10
7.6074
20
8.6300
30
0.0
40
0.2400
1
Υπνοδωμάτιο 2
50
0.00
72
1
73
2
11
7.6074
21
8.6300
31
0.0
0
TEXT
8
TEXT
10
7.6074
20
8.3500
30
0.0
40
0.1700
1
11,65 m2  (kath.)
50
0.00
72
1
73
2
11
7.6074
21
8.3500
31
0.0
0
TEXT
8
TEXT
10
7.6074
20
8.0900
30
0.0
40
0.1500
1
esot. 3,33x3,50
50
0.00
72
1
73
2
11
7.6074
21
8.0900
31
0.0
0
TEXT
8
TEXT
10
7.6074
20
7.8500
30
0.0
40
0.1500
1
mikt. 3,43x3,85
50
0.00
72
1
73
2
11
7.6074
21
7.8500
31
0.0
0
LINE
8
OPENINGS
10
7.1574
20
10.1000
30
0.0
11
8.0574
21
10.1000
31
0.0
0
LINE
8
OPENINGS
10
7.2300
20
6.6000
30
0.0
11
7.2300
21
7.5000
31
0.0
0
ARC
8
OPENINGS
10
7.2300
20
6.6000
30
0.0
40
0.9000
50
0.00
51
90.00
0
POLYLINE
8
ROOMS
66
1
70
1
10
0.0
20
0.0
30
0.0
0
VERTEX
8
ROOMS
10
9.3716
20
6.6000
30
0.0
0
VERTEX
8
ROOMS
10
12.7000
20
6.6000
30
0.0
0
VERTEX
8
ROOMS
10
12.7000
20
10.1000
30
0.0
0
VERTEX
8
ROOMS
10
9.3716
20
10.1000
30
0.0
0
SEQEND
8
ROOMS
0
TEXT
8
TEXT
10
11.0358
20
8.6300
30
0.0
40
0.2400
1
Υπνοδωμάτιο 3
50
0.00
72
1
73
2
11
11.0358
21
8.6300
31
0.0
0
TEXT
8
TEXT
10
11.0358
20
8.3500
30
0.0
40
0.1700
1
11,65 m2  (kath.)
50
0.00
72
1
73
2
11
11.0358
21
8.3500
31
0.0
0
TEXT
8
TEXT
10
11.0358
20
8.0900
30
0.0
40
0.1500
1
esot. 3,33x3,50
50
0.00
72
1
73
2
11
11.0358
21
8.0900
31
0.0
0
TEXT
8
TEXT
10
11.0358
20
7.8500
30
0.0
40
0.1500
1
mikt. 3,68x3,85
50
0.00
72
1
73
2
11
11.0358
21
7.8500
31
0.0
0
LINE
8
OPENINGS
10
12.7000
20
7.9000
30
0.0
11
12.7000
21
8.8000
31
0.0
0
LINE
8
OPENINGS
10
9.4716
20
6.6000
30
0.0
11
9.4716
21
7.5000
31
0.0
0
ARC
8
OPENINGS
10
9.4716
20
6.6000
30
0.0
40
0.9000
50
0.00
51
90.00
0
POLYLINE
8
ROOMS
66
1
70
1
10
0.0
20
0.0
30
0.0
0
VERTEX
8
ROOMS
10
1.9600
20
3.9000
30
0.0
0
VERTEX
8
ROOMS
10
3.8100
20
3.9000
30
0.0
0
VERTEX
8
ROOMS
10
3.8100
20
6.5000
30
0.0
0
VERTEX
8
ROOMS
10
1.9600
20
6.5000
30
0.0
0
SEQEND
8
ROOMS
0
TEXT
8
TEXT
10
2.8850
20
5.4800
30
0.0
40
0.2400
1
Λουτρό
50
0.00
72
1
73
2
11
2.8850
21
5.4800
31
0.0
0
TEXT
8
TEXT
10
2.8850
20
5.2000
30
0.0
40
0.1700
1
4,81 m2  (kath.)
50
0.00
72
1
73
2
11
2.8850
21
5.2000
31
0.0
0
TEXT
8
TEXT
10
2.8850
20
4.9400
30
0.0
40
0.1500
1
esot. 1,85x2,60
50
0.00
72
1
73
2
11
2.8850
21
4.9400
31
0.0
0
TEXT
8
TEXT
10
2.8850
20
4.7000
30
0.0
40
0.1500
1
mikt. 2,20x2,70
50
0.00
72
1
73
2
11
2.8850
21
4.7000
31
0.0
0
LINE
8
OPENINGS
10
1.9600
20
4.7500
30
0.0
11
1.9600
21
5.6500
31
0.0
0
LINE
8
OPENINGS
10
3.8100
20
5.6000
30
0.0
11
3.0100
21
5.6000
31
0.0
0
ARC
8
OPENINGS
10
3.8100
20
5.6000
30
0.0
40
0.8000
50
0.00
51
90.00
0
POLYLINE
8
ROOMS
66
1
70
1
10
0.0
20
0.0
30
0.0
0
VERTEX
8
ROOMS
10
3.9100
20
3.9000
30
0.0
0
VERTEX
8
ROOMS
10
9.3500
20
3.9000
30
0.0
0
VERTEX
8
ROOMS
10
9.3500
20
5.4000
30
0.0
0
VERTEX
8
ROOMS
10
3.9100
20
5.4000
30
0.0
0
SEQEND
8
ROOMS
0
TEXT
8
TEXT
10
6.6300
20
4.9300
30
0.0
40
0.2400
1
Χωλ
50
0.00
72
1
73
2
11
6.6300
21
4.9300
31
0.0
0
TEXT
8
TEXT
10
6.6300
20
4.6500
30
0.0
40
0.1700
1
8,16 m2  (kath.)
50
0.00
72
1
73
2
11
6.6300
21
4.6500
31
0.0
0
TEXT
8
TEXT
10
6.6300
20
4.3900
30
0.0
40
0.1500
1
esot. 5,44x1,50
50
0.00
72
1
73
2
11
6.6300
21
4.3900
31
0.0
0
TEXT
8
TEXT
10
6.6300
20
4.1500
30
0.0
40
0.1500
1
mikt. 5,54x1,60
50
0.00
72
1
73
2
11
6.6300
21
4.1500
31
0.0
0
LINE
8
OPENINGS
10
7.2300
20
5.4000
30
0.0
11
7.2300
21
4.5000
31
0.0
0
ARC
8
OPENINGS
10
7.2300
20
5.4000
30
0.0
40
0.9000
50
270.00
51
360.00
0
LINE
8
OPENINGS
10
6.1800
20
3.9000
30
0.0
11
6.1800
21
4.8000
31
0.0
0
ARC
8
OPENINGS
10
6.1800
20
3.9000
30
0.0
40
0.9000
50
0.00
51
90.00
0
POLYLINE
8
ROOMS
66
1
70
1
10
0.0
20
0.0
30
0.0
0
VERTEX
8
ROOMS
10
9.4500
20
3.9000
30
0.0
0
VERTEX
8
ROOMS
10
11.4500
20
3.9000
30
0.0
0
VERTEX
8
ROOMS
10
11.4500
20
5.4000
30
0.0
0
VERTEX
8
ROOMS
10
9.4500
20
5.4000
30
0.0
0
SEQEND
8
ROOMS
0
TEXT
8
TEXT
10
10.4500
20
4.9300
30
0.0
40
0.2400
1
Αποθήκη
50
0.00
72
1
73
2
11
10.4500
21
4.9300
31
0.0
0
TEXT
8
TEXT
10
10.4500
20
4.6500
30
0.0
40
0.1700
1
3,00 m2  (kath.)
50
0.00
72
1
73
2
11
10.4500
21
4.6500
31
0.0
0
TEXT
8
TEXT
10
10.4500
20
4.3900
30
0.0
40
0.1500
1
esot. 2,00x1,50
50
0.00
72
1
73
2
11
10.4500
21
4.3900
31
0.0
0
TEXT
8
TEXT
10
10.4500
20
4.1500
30
0.0
40
0.1500
1
mikt. 2,10x1,60
50
0.00
72
1
73
2
11
10.4500
21
4.1500
31
0.0
0
LINE
8
OPENINGS
10
9.5500
20
5.4000
30
0.0
11
9.5500
21
4.6000
31
0.0
0
ARC
8
OPENINGS
10
9.5500
20
5.4000
30
0.0
40
0.8000
50
270.00
51
360.00
0
POLYLINE
8
ROOMS
66
1
70
1
10
0.0
20
0.0
30
0.0
0
VERTEX
8
ROOMS
10
11.5500
20
3.9000
30
0.0
0
VERTEX
8
ROOMS
10
12.7000
20
3.9000
30
0.0
0
VERTEX
8
ROOMS
10
12.7000
20
6.5000
30
0.0
0
VERTEX
8
ROOMS
10
11.5500
20
6.5000
30
0.0
0
SEQEND
8
ROOMS
0
TEXT
8
TEXT
10
12.1250
20
5.4800
30
0.0
40
0.2400
1
WC
50
0.00
72
1
73
2
11
12.1250
21
5.4800
31
0.0
0
TEXT
8
TEXT
10
12.1250
20
5.2000
30
0.0
40
0.1700
1
2,99 m2  (kath.)
50
0.00
72
1
73
2
11
12.1250
21
5.2000
31
0.0
0
TEXT
8
TEXT
10
12.1250
20
4.9400
30
0.0
40
0.1500
1
esot. 1,15x2,60
50
0.00
72
1
73
2
11
12.1250
21
4.9400
31
0.0
0
TEXT
8
TEXT
10
12.1250
20
4.7000
30
0.0
40
0.1500
1
mikt. 1,50x2,70
50
0.00
72
1
73
2
11
12.1250
21
4.7000
31
0.0
0
LINE
8
OPENINGS
10
12.7000
20
4.7500
30
0.0
11
12.7000
21
5.6500
31
0.0
0
LINE
8
OPENINGS
10
11.5500
20
5.6500
30
0.0
11
12.2500
21
5.6500
31
0.0
0
ARC
8
OPENINGS
10
11.5500
20
5.6500
30
0.0
40
0.7000
50
0.00
51
90.00
0
POLYLINE
8
ROOMS
66
1
70
1
10
0.0
20
0.0
30
0.0
0
VERTEX
8
ROOMS
10
3.9100
20
5.5000
30
0.0
0
VERTEX
8
ROOMS
10
11.4500
20
5.5000
30
0.0
0
VERTEX
8
ROOMS
10
11.4500
20
6.5000
30
0.0
0
VERTEX
8
ROOMS
10
3.9100
20
6.5000
30
0.0
0
SEQEND
8
ROOMS
0
TEXT
8
TEXT
10
7.6800
20
6.2800
30
0.0
40
0.2400
1
Διάδρομος
50
0.00
72
1
73
2
11
7.6800
21
6.2800
31
0.0
0
TEXT
8
TEXT
10
7.6800
20
6.0000
30
0.0
40
0.1700
1
7,54 m2  (kath.)
50
0.00
72
1
73
2
11
7.6800
21
6.0000
31
0.0
0
TEXT
8
TEXT
10
7.6800
20
5.7400
30
0.0
40
0.1500
1
esot. 7,54x1,00
50
0.00
72
1
73
2
11
7.6800
21
5.7400
31
0.0
0
TEXT
8
TEXT
10
7.6800
20
5.5000
30
0.0
40
0.1500
1
mikt. 7,64x1,10
50
0.00
72
1
73
2
11
7.6800
21
5.5000
31
0.0
0
LINE
8
DIMS
10
0.0000
20
-1.2000
30
0.0
11
13.0000
21
-1.2000
31
0.0
0
LINE
8
DIMS
10
0.0000
20
-1.0500
30
0.0
11
0.0000
21
-1.3500
31
0.0
0
LINE
8
DIMS
10
13.0000
20
-1.0500
30
0.0
11
13.0000
21
-1.3500
31
0.0
0
TEXT
8
DIMS
10
6.5000
20
-1.5500
30
0.0
40
0.2800
1
13,00 m (A-D)
50
0.00
72
1
73
2
11
6.5000
21
-1.5500
31
0.0
0
LINE
8
DIMS
10
-1.2000
20
0.0000
30
0.0
11
-1.2000
21
10.4000
31
0.0
0
LINE
8
DIMS
10
-1.0500
20
0.0000
30
0.0
11
-1.3500
21
0.0000
31
0.0
0
LINE
8
DIMS
10
-1.0500
20
10.4000
30
0.0
11
-1.3500
21
10.4000
31
0.0
0
TEXT
8
DIMS
10
-1.5500
20
5.2000
30
0.0
40
0.2800
1
10,40 m (B-N)
50
90.00
72
1
73
2
11
-1.5500
21
5.2000
31
0.0
0
TEXT
8
TITLE
10
6.5000
20
11.1000
30
0.0
40
0.4000
1
Ισόγειο  -  124,33 m2 (mikto)
50
0.00
72
1
73
2
11
6.5000
21
11.1000
31
0.0
0
POLYLINE
8
NORTH
66
1
70
1
10
0.0
20
0.0
30
0.0
0
VERTEX
8
NORTH
10
14.2000
20
10.4000
30
0.0
0
VERTEX
8
NORTH
10
13.8500
20
9.5000
30
0.0
0
VERTEX
8
NORTH
10
14.2000
20
9.8000
30
0.0
0
VERTEX
8
NORTH
10
14.5500
20
9.5000
30
0.0
0
SEQEND
8
NORTH
0
TEXT
8
NORTH
10
14.2000
20
10.8000
30
0.0
40
0.4500
1
B
50
0.00
72
1
73
2
11
14.2000
21
10.8000
31
0.0
0
TEXT
8
TITLE
10
0.0000
20
12.6000
30
0.0
40
0.5000
1
Μονοκατοικία Αμαλιάδας - Πρόταση 3
50
0.00
72
0
73
2
11
0.0000
21
12.6000
31
0.0
0
TEXT
8
TITLE
10
0.0000
20
11.9000
30
0.0
40
0.3000
1
Αμαλιάδα, Π.Ε. Ηλείας  |  Eisodos: Νότος  |  Orofoi: 1
50
0.00
72
0
73
2
11
0.0000
21
11.9000
31
0.0
0
ENDSEC
0
EOF
