0
SECTION
2
HEADER
9
$ACADVER
1
AC1009
9
$DWGCODEPAGE
3
ANSI_1253
9
$INSUNITS
70
6
0
ENDSEC
0
SECTION
2
TABLES
0
TABLE
2
LAYER
70
8
0
LAYER
2
OUTLINE
70
0
62
7
6
CONTINUOUS
0
LAYER
2
WALLS
70
0
62
8
6
CONTINUOUS
0
LAYER
2
ROOMS
70
0
62
3
6
CONTINUOUS
0
LAYER
2
OPENINGS
70
0
62
1
6
CONTINUOUS
0
LAYER
2
TEXT
70
0
62
7
6
CONTINUOUS
0
LAYER
2
DIMS
70
0
62
4
6
CONTINUOUS
0
LAYER
2
NORTH
70
0
62
2
6
CONTINUOUS
0
LAYER
2
TITLE
70
0
62
5
6
CONTINUOUS
0
ENDTAB
0
ENDSEC
0
SECTION
2
ENTITIES
0
POLYLINE
8
OUTLINE
66
1
70
1
10
0.0
20
0.0
30
0.0
0
VERTEX
8
OUTLINE
10
0.0000
20
0.0000
30
0.0
0
VERTEX
8
OUTLINE
10
13.0000
20
0.0000
30
0.0
0
VERTEX
8
OUTLINE
10
13.0000
20
3.4970
30
0.0
0
VERTEX
8
OUTLINE
10
10.5000
20
3.4970
30
0.0
0
VERTEX
8
OUTLINE
10
10.5000
20
10.0000
30
0.0
0
VERTEX
8
OUTLINE
10
0.0000
20
10.0000
30
0.0
0
SEQEND
8
OUTLINE
0
POLYLINE
8
WALLS
66
1
70
1
10
0.0
20
0.0
30
0.0
0
VERTEX
8
WALLS
10
0.3000
20
0.3000
30
0.0
0
VERTEX
8
WALLS
10
12.7000
20
0.3000
30
0.0
0
VERTEX
8
WALLS
10
12.7000
20
3.1970
30
0.0
0
VERTEX
8
WALLS
10
0.3000
20
3.1970
30
0.0
0
SEQEND
8
WALLS
0
POLYLINE
8
WALLS
66
1
70
1
10
0.0
20
0.0
30
0.0
0
VERTEX
8
WALLS
10
0.3000
20
3.7970
30
0.0
0
VERTEX
8
WALLS
10
10.2000
20
3.7970
30
0.0
0
VERTEX
8
WALLS
10
10.2000
20
9.7000
30
0.0
0
VERTEX
8
WALLS
10
0.3000
20
9.7000
30
0.0
0
SEQEND
8
WALLS
0
POLYLINE
8
ROOMS
66
1
70
1
10
0.0
20
0.0
30
0.0
0
VERTEX
8
ROOMS
10
0.3000
20
0.3000
30
0.0
0
VERTEX
8
ROOMS
10
5.0739
20
0.3000
30
0.0
0
VERTEX
8
ROOMS
10
5.0739
20
3.4470
30
0.0
0
VERTEX
8
ROOMS
10
0.3000
20
3.4470
30
0.0
0
SEQEND
8
ROOMS
0
TEXT
8
TEXT
10
2.6870
20
2.1535
30
0.0
40
0.2400
1
Καθιστικό
50
0.00
72
1
73
2
11
2.6870
21
2.1535
31
0.0
0
TEXT
8
TEXT
10
2.6870
20
1.8735
30
0.0
40
0.1700
1
15,02 m2  (kath.)
50
0.00
72
1
73
2
11
2.6870
21
1.8735
31
0.0
0
TEXT
8
TEXT
10
2.6870
20
1.6135
30
0.0
40
0.1500
1
esot. 4,77x3,15
50
0.00
72
1
73
2
11
2.6870
21
1.6135
31
0.0
0
TEXT
8
TEXT
10
2.6870
20
1.3735
30
0.0
40
0.1500
1
mikt. 5,12x3,50
50
0.00
72
1
73
2
11
2.6870
21
1.3735
31
0.0
0
LINE
8
OPENINGS
10
2.1504
20
0.3000
30
0.0
11
3.2235
21
0.3000
31
0.0
0
LINE
8
OPENINGS
10
2.1870
20
0.3000
30
0.0
11
2.1870
21
1.3000
31
0.0
0
ARC
8
OPENINGS
10
2.1870
20
0.3000
30
0.0
40
1.0000
50
0.00
51
90.00
0
POLYLINE
8
ROOMS
66
1
70
1
10
0.0
20
0.0
30
0.0
0
VERTEX
8
ROOMS
10
5.1739
20
0.3000
30
0.0
0
VERTEX
8
ROOMS
10
9.4174
20
0.3000
30
0.0
0
VERTEX
8
ROOMS
10
9.4174
20
3.4470
30
0.0
0
VERTEX
8
ROOMS
10
5.1739
20
3.4470
30
0.0
0
SEQEND
8
ROOMS
0
TEXT
8
TEXT
10
7.2957
20
2.1535
30
0.0
40
0.2400
1
Σαλόνι
50
0.00
72
1
73
2
11
7.2957
21
2.1535
31
0.0
0
TEXT
8
TEXT
10
7.2957
20
1.8735
30
0.0
40
0.1700
1
13,35 m2  (kath.)
50
0.00
72
1
73
2
11
7.2957
21
1.8735
31
0.0
0
TEXT
8
TEXT
10
7.2957
20
1.6135
30
0.0
40
0.1500
1
esot. 4,24x3,15
50
0.00
72
1
73
2
11
7.2957
21
1.6135
31
0.0
0
TEXT
8
TEXT
10
7.2957
20
1.3735
30
0.0
40
0.1500
1
mikt. 4,34x3,50
50
0.00
72
1
73
2
11
7.2957
21
1.3735
31
0.0
0
LINE
8
OPENINGS
10
6.8187
20
0.3000
30
0.0
11
7.7726
21
0.3000
31
0.0
0
POLYLINE
8
ROOMS
66
1
70
1
10
0.0
20
0.0
30
0.0
0
VERTEX
8
ROOMS
10
9.5174
20
0.3000
30
0.0
0
VERTEX
8
ROOMS
10
12.7000
20
0.3000
30
0.0
0
VERTEX
8
ROOMS
10
12.7000
20
3.1970
30
0.0
0
VERTEX
8
ROOMS
10
9.5174
20
3.1970
30
0.0
0
SEQEND
8
ROOMS
0
TEXT
8
TEXT
10
11.1087
20
2.0285
30
0.0
40
0.2400
1
Κουζίνα
50
0.00
72
1
73
2
11
11.1087
21
2.0285
31
0.0
0
TEXT
8
TEXT
10
11.1087
20
1.7485
30
0.0
40
0.1700
1
9,22 m2  (kath.)
50
0.00
72
1
73
2
11
11.1087
21
1.7485
31
0.0
0
TEXT
8
TEXT
10
11.1087
20
1.4885
30
0.0
40
0.1500
1
esot. 3,18x2,90
50
0.00
72
1
73
2
11
11.1087
21
1.4885
31
0.0
0
TEXT
8
TEXT
10
11.1087
20
1.2485
30
0.0
40
0.1500
1
mikt. 3,53x3,50
50
0.00
72
1
73
2
11
11.1087
21
1.2485
31
0.0
0
LINE
8
OPENINGS
10
10.6587
20
0.3000
30
0.0
11
11.5587
21
0.3000
31
0.0
0
POLYLINE
8
ROOMS
66
1
70
1
10
0.0
20
0.0
30
0.0
0
VERTEX
8
ROOMS
10
0.3000
20
6.1780
30
0.0
0
VERTEX
8
ROOMS
10
3.8737
20
6.1780
30
0.0
0
VERTEX
8
ROOMS
10
3.8737
20
9.7000
30
0.0
0
VERTEX
8
ROOMS
10
0.3000
20
9.7000
30
0.0
0
SEQEND
8
ROOMS
0
TEXT
8
TEXT
10
2.0868
20
8.2190
30
0.0
40
0.2400
1
Κύριο Υπνοδωμάτιο
50
0.00
72
1
73
2
11
2.0868
21
8.2190
31
0.0
0
TEXT
8
TEXT
10
2.0868
20
7.9390
30
0.0
40
0.1700
1
12,59 m2  (kath.)
50
0.00
72
1
73
2
11
2.0868
21
7.9390
31
0.0
0
TEXT
8
TEXT
10
2.0868
20
7.6790
30
0.0
40
0.1500
1
esot. 3,57x3,52
50
0.00
72
1
73
2
11
2.0868
21
7.6790
31
0.0
0
TEXT
8
TEXT
10
2.0868
20
7.4390
30
0.0
40
0.1500
1
mikt. 3,92x3,87
50
0.00
72
1
73
2
11
2.0868
21
7.4390
31
0.0
0
LINE
8
OPENINGS
10
1.6368
20
9.7000
30
0.0
11
2.5368
21
9.7000
31
0.0
0
LINE
8
OPENINGS
10
2.8737
20
6.1780
30
0.0
11
2.8737
21
7.0780
31
0.0
0
ARC
8
OPENINGS
10
2.8737
20
6.1780
30
0.0
40
0.9000
50
0.00
51
90.00
0
POLYLINE
8
ROOMS
66
1
70
1
10
0.0
20
0.0
30
0.0
0
VERTEX
8
ROOMS
10
3.9737
20
6.1780
30
0.0
0
VERTEX
8
ROOMS
10
7.0368
20
6.1780
30
0.0
0
VERTEX
8
ROOMS
10
7.0368
20
9.7000
30
0.0
0
VERTEX
8
ROOMS
10
3.9737
20
9.7000
30
0.0
0
SEQEND
8
ROOMS
0
TEXT
8
TEXT
10
5.5053
20
8.2190
30
0.0
40
0.2400
1
Υπνοδωμάτιο 2
50
0.00
72
1
73
2
11
5.5053
21
8.2190
31
0.0
0
TEXT
8
TEXT
10
5.5053
20
7.9390
30
0.0
40
0.1700
1
10,79 m2  (kath.)
50
0.00
72
1
73
2
11
5.5053
21
7.9390
31
0.0
0
TEXT
8
TEXT
10
5.5053
20
7.6790
30
0.0
40
0.1500
1
esot. 3,06x3,52
50
0.00
72
1
73
2
11
5.5053
21
7.6790
31
0.0
0
TEXT
8
TEXT
10
5.5053
20
7.4390
30
0.0
40
0.1500
1
mikt. 3,16x3,87
50
0.00
72
1
73
2
11
5.5053
21
7.4390
31
0.0
0
LINE
8
OPENINGS
10
5.0553
20
9.7000
30
0.0
11
5.9553
21
9.7000
31
0.0
0
LINE
8
OPENINGS
10
5.1500
20
6.1780
30
0.0
11
5.1500
21
7.0780
31
0.0
0
ARC
8
OPENINGS
10
5.1500
20
6.1780
30
0.0
40
0.9000
50
0.00
51
90.00
0
POLYLINE
8
ROOMS
66
1
70
1
10
0.0
20
0.0
30
0.0
0
VERTEX
8
ROOMS
10
7.1368
20
6.1780
30
0.0
0
VERTEX
8
ROOMS
10
10.2000
20
6.1780
30
0.0
0
VERTEX
8
ROOMS
10
10.2000
20
9.7000
30
0.0
0
VERTEX
8
ROOMS
10
7.1368
20
9.7000
30
0.0
0
SEQEND
8
ROOMS
0
TEXT
8
TEXT
10
8.6684
20
8.2190
30
0.0
40
0.2400
1
Υπνοδωμάτιο 3
50
0.00
72
1
73
2
11
8.6684
21
8.2190
31
0.0
0
TEXT
8
TEXT
10
8.6684
20
7.9390
30
0.0
40
0.1700
1
10,79 m2  (kath.)
50
0.00
72
1
73
2
11
8.6684
21
7.9390
31
0.0
0
TEXT
8
TEXT
10
8.6684
20
7.6790
30
0.0
40
0.1500
1
esot. 3,06x3,52
50
0.00
72
1
73
2
11
8.6684
21
7.6790
31
0.0
0
TEXT
8
TEXT
10
8.6684
20
7.4390
30
0.0
40
0.1500
1
mikt. 3,41x3,87
50
0.00
72
1
73
2
11
8.6684
21
7.4390
31
0.0
0
LINE
8
OPENINGS
10
10.2000
20
7.4890
30
0.0
11
10.2000
21
8.3890
31
0.0
0
LINE
8
OPENINGS
10
7.2368
20
6.1780
30
0.0
11
7.2368
21
7.0780
31
0.0
0
ARC
8
OPENINGS
10
7.2368
20
6.1780
30
0.0
40
0.9000
50
0.00
51
90.00
0
POLYLINE
8
ROOMS
66
1
70
1
10
0.0
20
0.0
30
0.0
0
VERTEX
8
ROOMS
10
0.3000
20
3.5470
30
0.0
0
VERTEX
8
ROOMS
10
2.1500
20
3.5470
30
0.0
0
VERTEX
8
ROOMS
10
2.1500
20
6.0780
30
0.0
0
VERTEX
8
ROOMS
10
0.3000
20
6.0780
30
0.0
0
SEQEND
8
ROOMS
0
TEXT
8
TEXT
10
1.2250
20
5.0925
30
0.0
40
0.2400
1
Λουτρό
50
0.00
72
1
73
2
11
1.2250
21
5.0925
31
0.0
0
TEXT
8
TEXT
10
1.2250
20
4.8125
30
0.0
40
0.1700
1
4,68 m2  (kath.)
50
0.00
72
1
73
2
11
1.2250
21
4.8125
31
0.0
0
TEXT
8
TEXT
10
1.2250
20
4.5525
30
0.0
40
0.1500
1
esot. 1,85x2,53
50
0.00
72
1
73
2
11
1.2250
21
4.5525
31
0.0
0
TEXT
8
TEXT
10
1.2250
20
4.3125
30
0.0
40
0.1500
1
mikt. 2,20x2,63
50
0.00
72
1
73
2
11
1.2250
21
4.3125
31
0.0
0
LINE
8
OPENINGS
10
0.3000
20
4.3625
30
0.0
11
0.3000
21
5.2625
31
0.0
0
LINE
8
OPENINGS
10
2.1500
20
5.2280
30
0.0
11
1.4000
21
5.2280
31
0.0
0
ARC
8
OPENINGS
10
2.1500
20
5.2280
30
0.0
40
0.7500
50
0.00
51
90.00
0
POLYLINE
8
ROOMS
66
1
70
1
10
0.0
20
0.0
30
0.0
0
VERTEX
8
ROOMS
10
2.2500
20
3.5470
30
0.0
0
VERTEX
8
ROOMS
10
5.5500
20
3.5470
30
0.0
0
VERTEX
8
ROOMS
10
5.5500
20
5.0280
30
0.0
0
VERTEX
8
ROOMS
10
2.2500
20
5.0280
30
0.0
0
SEQEND
8
ROOMS
0
TEXT
8
TEXT
10
3.9000
20
4.5675
30
0.0
40
0.2400
1
Αποθήκη
50
0.00
72
1
73
2
11
3.9000
21
4.5675
31
0.0
0
TEXT
8
TEXT
10
3.9000
20
4.2875
30
0.0
40
0.1700
1
4,89 m2  (kath.)
50
0.00
72
1
73
2
11
3.9000
21
4.2875
31
0.0
0
TEXT
8
TEXT
10
3.9000
20
4.0275
30
0.0
40
0.1500
1
esot. 3,30x1,48
50
0.00
72
1
73
2
11
3.9000
21
4.0275
31
0.0
0
TEXT
8
TEXT
10
3.9000
20
3.7875
30
0.0
40
0.1500
1
mikt. 3,40x1,58
50
0.00
72
1
73
2
11
3.9000
21
3.7875
31
0.0
0
LINE
8
OPENINGS
10
4.6500
20
5.0280
30
0.0
11
4.6500
21
4.2280
31
0.0
0
ARC
8
OPENINGS
10
4.6500
20
5.0280
30
0.0
40
0.8000
50
270.00
51
360.00
0
POLYLINE
8
ROOMS
66
1
70
1
10
0.0
20
0.0
30
0.0
0
VERTEX
8
ROOMS
10
5.6500
20
3.5470
30
0.0
0
VERTEX
8
ROOMS
10
8.9500
20
3.5470
30
0.0
0
VERTEX
8
ROOMS
10
8.9500
20
5.0280
30
0.0
0
VERTEX
8
ROOMS
10
5.6500
20
5.0280
30
0.0
0
SEQEND
8
ROOMS
0
TEXT
8
TEXT
10
7.3000
20
4.5675
30
0.0
40
0.2400
1
Χωλ
50
0.00
72
1
73
2
11
7.3000
21
4.5675
31
0.0
0
TEXT
8
TEXT
10
7.3000
20
4.2875
30
0.0
40
0.1700
1
4,89 m2  (kath.)
50
0.00
72
1
73
2
11
7.3000
21
4.2875
31
0.0
0
TEXT
8
TEXT
10
7.3000
20
4.0275
30
0.0
40
0.1500
1
esot. 3,30x1,48
50
0.00
72
1
73
2
11
7.3000
21
4.0275
31
0.0
0
TEXT
8
TEXT
10
7.3000
20
3.7875
30
0.0
40
0.1500
1
mikt. 3,40x1,58
50
0.00
72
1
73
2
11
7.3000
21
3.7875
31
0.0
0
LINE
8
OPENINGS
10
5.7500
20
5.0280
30
0.0
11
5.7500
21
4.1280
31
0.0
0
ARC
8
OPENINGS
10
5.7500
20
5.0280
30
0.0
40
0.9000
50
270.00
51
360.00
0
LINE
8
OPENINGS
10
6.8500
20
3.5470
30
0.0
11
6.8500
21
4.4470
31
0.0
0
ARC
8
OPENINGS
10
6.8500
20
3.5470
30
0.0
40
0.9000
50
0.00
51
90.00
0
POLYLINE
8
ROOMS
66
1
70
1
10
0.0
20
0.0
30
0.0
0
VERTEX
8
ROOMS
10
9.0500
20
3.5470
30
0.0
0
VERTEX
8
ROOMS
10
10.2000
20
3.5470
30
0.0
0
VERTEX
8
ROOMS
10
10.2000
20
6.0780
30
0.0
0
VERTEX
8
ROOMS
10
9.0500
20
6.0780
30
0.0
0
SEQEND
8
ROOMS
0
TEXT
8
TEXT
10
9.6250
20
5.0925
30
0.0
40
0.2400
1
WC
50
0.00
72
1
73
2
11
9.6250
21
5.0925
31
0.0
0
TEXT
8
TEXT
10
9.6250
20
4.8125
30
0.0
40
0.1700
1
2,91 m2  (kath.)
50
0.00
72
1
73
2
11
9.6250
21
4.8125
31
0.0
0
TEXT
8
TEXT
10
9.6250
20
4.5525
30
0.0
40
0.1500
1
esot. 1,15x2,53
50
0.00
72
1
73
2
11
9.6250
21
4.5525
31
0.0
0
TEXT
8
TEXT
10
9.6250
20
4.3125
30
0.0
40
0.1500
1
mikt. 1,50x2,63
50
0.00
72
1
73
2
11
9.6250
21
4.3125
31
0.0
0
LINE
8
OPENINGS
10
10.2000
20
4.3625
30
0.0
11
10.2000
21
5.2625
31
0.0
0
LINE
8
OPENINGS
10
9.0500
20
5.2530
30
0.0
11
9.7500
21
5.2530
31
0.0
0
ARC
8
OPENINGS
10
9.0500
20
5.2530
30
0.0
40
0.7000
50
0.00
51
90.00
0
POLYLINE
8
ROOMS
66
1
70
1
10
0.0
20
0.0
30
0.0
0
VERTEX
8
ROOMS
10
2.2500
20
5.1280
30
0.0
0
VERTEX
8
ROOMS
10
8.9500
20
5.1280
30
0.0
0
VERTEX
8
ROOMS
10
8.9500
20
6.0780
30
0.0
0
VERTEX
8
ROOMS
10
2.2500
20
6.0780
30
0.0
0
SEQEND
8
ROOMS
0
TEXT
8
TEXT
10
5.6000
20
5.8830
30
0.0
40
0.2400
1
Διάδρομος
50
0.00
72
1
73
2
11
5.6000
21
5.8830
31
0.0
0
TEXT
8
TEXT
10
5.6000
20
5.6030
30
0.0
40
0.1700
1
6,37 m2  (kath.)
50
0.00
72
1
73
2
11
5.6000
21
5.6030
31
0.0
0
TEXT
8
TEXT
10
5.6000
20
5.3430
30
0.0
40
0.1500
1
esot. 6,70x0,95
50
0.00
72
1
73
2
11
5.6000
21
5.3430
31
0.0
0
TEXT
8
TEXT
10
5.6000
20
5.1030
30
0.0
40
0.1500
1
mikt. 6,80x1,05
50
0.00
72
1
73
2
11
5.6000
21
5.1030
31
0.0
0
LINE
8
DIMS
10
0.0000
20
-1.2000
30
0.0
11
13.0000
21
-1.2000
31
0.0
0
LINE
8
DIMS
10
0.0000
20
-1.0500
30
0.0
11
0.0000
21
-1.3500
31
0.0
0
LINE
8
DIMS
10
13.0000
20
-1.0500
30
0.0
11
13.0000
21
-1.3500
31
0.0
0
TEXT
8
DIMS
10
6.5000
20
-1.5500
30
0.0
40
0.2800
1
13,00 m (A-D)
50
0.00
72
1
73
2
11
6.5000
21
-1.5500
31
0.0
0
LINE
8
DIMS
10
-1.2000
20
0.0000
30
0.0
11
-1.2000
21
10.0000
31
0.0
0
LINE
8
DIMS
10
-1.0500
20
0.0000
30
0.0
11
-1.3500
21
0.0000
31
0.0
0
LINE
8
DIMS
10
-1.0500
20
10.0000
30
0.0
11
-1.3500
21
10.0000
31
0.0
0
TEXT
8
DIMS
10
-1.5500
20
5.0000
30
0.0
40
0.2800
1
10,00 m (B-N)
50
90.00
72
1
73
2
11
-1.5500
21
5.0000
31
0.0
0
TEXT
8
TITLE
10
6.5000
20
10.7000
30
0.0
40
0.4000
1
Ισόγειο  -  113,74 m2 (mikto)
50
0.00
72
1
73
2
11
6.5000
21
10.7000
31
0.0
0
POLYLINE
8
NORTH
66
1
70
1
10
0.0
20
0.0
30
0.0
0
VERTEX
8
NORTH
10
14.2000
20
10.0000
30
0.0
0
VERTEX
8
NORTH
10
13.8500
20
9.1000
30
0.0
0
VERTEX
8
NORTH
10
14.2000
20
9.4000
30
0.0
0
VERTEX
8
NORTH
10
14.5500
20
9.1000
30
0.0
0
SEQEND
8
NORTH
0
TEXT
8
NORTH
10
14.2000
20
10.4000
30
0.0
40
0.4500
1
B
50
0.00
72
1
73
2
11
14.2000
21
10.4000
31
0.0
0
TEXT
8
TITLE
10
0.0000
20
12.2000
30
0.0
40
0.5000
1
Μονοκατοικία Αμαλιάδας - Πρόταση 1
50
0.00
72
0
73
2
11
0.0000
21
12.2000
31
0.0
0
TEXT
8
TITLE
10
0.0000
20
11.5000
30
0.0
40
0.3000
1
Αμαλιάδα, Π.Ε. Ηλείας  |  Eisodos: Νότος  |  Orofoi: 1
50
0.00
72
0
73
2
11
0.0000
21
11.5000
31
0.0
0
ENDSEC
0
EOF
