0
SECTION
2
HEADER
9
$ACADVER
1
AC1009
9
$DWGCODEPAGE
3
ANSI_1253
9
$INSUNITS
70
6
0
ENDSEC
0
SECTION
2
TABLES
0
TABLE
2
LAYER
70
8
0
LAYER
2
OUTLINE
70
0
62
7
6
CONTINUOUS
0
LAYER
2
WALLS
70
0
62
8
6
CONTINUOUS
0
LAYER
2
ROOMS
70
0
62
3
6
CONTINUOUS
0
LAYER
2
OPENINGS
70
0
62
1
6
CONTINUOUS
0
LAYER
2
TEXT
70
0
62
7
6
CONTINUOUS
0
LAYER
2
DIMS
70
0
62
4
6
CONTINUOUS
0
LAYER
2
NORTH
70
0
62
2
6
CONTINUOUS
0
LAYER
2
TITLE
70
0
62
5
6
CONTINUOUS
0
ENDTAB
0
ENDSEC
0
SECTION
2
ENTITIES
0
POLYLINE
8
OUTLINE
66
1
70
1
10
0.0
20
0.0
30
0.0
0
VERTEX
8
OUTLINE
10
0.0000
20
0.0000
30
0.0
0
VERTEX
8
OUTLINE
10
13.0000
20
0.0000
30
0.0
0
VERTEX
8
OUTLINE
10
13.0000
20
9.2250
30
0.0
0
VERTEX
8
OUTLINE
10
0.0000
20
9.2250
30
0.0
0
SEQEND
8
OUTLINE
0
POLYLINE
8
WALLS
66
1
70
1
10
0.0
20
0.0
30
0.0
0
VERTEX
8
WALLS
10
0.3000
20
0.3000
30
0.0
0
VERTEX
8
WALLS
10
12.7000
20
0.3000
30
0.0
0
VERTEX
8
WALLS
10
12.7000
20
3.0600
30
0.0
0
VERTEX
8
WALLS
10
0.3000
20
3.0600
30
0.0
0
SEQEND
8
WALLS
0
POLYLINE
8
WALLS
66
1
70
1
10
0.0
20
0.0
30
0.0
0
VERTEX
8
WALLS
10
0.3000
20
3.6600
30
0.0
0
VERTEX
8
WALLS
10
12.7000
20
3.6600
30
0.0
0
VERTEX
8
WALLS
10
12.7000
20
8.9250
30
0.0
0
VERTEX
8
WALLS
10
0.3000
20
8.9250
30
0.0
0
SEQEND
8
WALLS
0
POLYLINE
8
ROOMS
66
1
70
1
10
0.0
20
0.0
30
0.0
0
VERTEX
8
ROOMS
10
0.3000
20
0.3000
30
0.0
0
VERTEX
8
ROOMS
10
12.7000
20
0.3000
30
0.0
0
VERTEX
8
ROOMS
10
12.7000
20
3.3100
30
0.0
0
VERTEX
8
ROOMS
10
0.3000
20
3.3100
30
0.0
0
SEQEND
8
ROOMS
0
TEXT
8
TEXT
10
6.5000
20
2.0850
30
0.0
40
0.2400
1
Κουζίνα
50
0.00
72
1
73
2
11
6.5000
21
2.0850
31
0.0
0
TEXT
8
TEXT
10
6.5000
20
1.8050
30
0.0
40
0.1700
1
37,32 m2  (kath.)
50
0.00
72
1
73
2
11
6.5000
21
1.8050
31
0.0
0
TEXT
8
TEXT
10
6.5000
20
1.5450
30
0.0
40
0.1500
1
esot. 12,40x3,01
50
0.00
72
1
73
2
11
6.5000
21
1.5450
31
0.0
0
TEXT
8
TEXT
10
6.5000
20
1.3050
30
0.0
40
0.1500
1
mikt. 13,00x3,36
50
0.00
72
1
73
2
11
6.5000
21
1.3050
31
0.0
0
LINE
8
OPENINGS
10
5.1670
20
0.3000
30
0.0
11
7.8330
21
0.3000
31
0.0
0
LINE
8
OPENINGS
10
6.0000
20
0.3000
30
0.0
11
6.0000
21
1.3000
31
0.0
0
ARC
8
OPENINGS
10
6.0000
20
0.3000
30
0.0
40
1.0000
50
0.00
51
90.00
0
POLYLINE
8
ROOMS
66
1
70
1
10
0.0
20
0.0
30
0.0
0
VERTEX
8
ROOMS
10
0.3000
20
6.1600
30
0.0
0
VERTEX
8
ROOMS
10
4.1526
20
6.1600
30
0.0
0
VERTEX
8
ROOMS
10
4.1526
20
8.9250
30
0.0
0
VERTEX
8
ROOMS
10
0.3000
20
8.9250
30
0.0
0
SEQEND
8
ROOMS
0
TEXT
8
TEXT
10
2.2263
20
7.8225
30
0.0
40
0.2400
1
Υπνοδωμάτιο 3
50
0.00
72
1
73
2
11
2.2263
21
7.8225
31
0.0
0
TEXT
8
TEXT
10
2.2263
20
7.5425
30
0.0
40
0.1700
1
10,65 m2  (kath.)
50
0.00
72
1
73
2
11
2.2263
21
7.5425
31
0.0
0
TEXT
8
TEXT
10
2.2263
20
7.2825
30
0.0
40
0.1500
1
esot. 3,85x2,76
50
0.00
72
1
73
2
11
2.2263
21
7.2825
31
0.0
0
TEXT
8
TEXT
10
2.2263
20
7.0425
30
0.0
40
0.1500
1
mikt. 4,20x3,11
50
0.00
72
1
73
2
11
2.2263
21
7.0425
31
0.0
0
LINE
8
OPENINGS
10
1.7763
20
8.9250
30
0.0
11
2.6763
21
8.9250
31
0.0
0
LINE
8
OPENINGS
10
3.1526
20
6.1600
30
0.0
11
3.1526
21
7.0600
31
0.0
0
ARC
8
OPENINGS
10
3.1526
20
6.1600
30
0.0
40
0.9000
50
0.00
51
90.00
0
POLYLINE
8
ROOMS
66
1
70
1
10
0.0
20
0.0
30
0.0
0
VERTEX
8
ROOMS
10
4.2526
20
6.1600
30
0.0
0
VERTEX
8
ROOMS
10
8.1053
20
6.1600
30
0.0
0
VERTEX
8
ROOMS
10
8.1053
20
8.9250
30
0.0
0
VERTEX
8
ROOMS
10
4.2526
20
8.9250
30
0.0
0
SEQEND
8
ROOMS
0
TEXT
8
TEXT
10
6.1789
20
7.8225
30
0.0
40
0.2400
1
Υπνοδωμάτιο 2
50
0.00
72
1
73
2
11
6.1789
21
7.8225
31
0.0
0
TEXT
8
TEXT
10
6.1789
20
7.5425
30
0.0
40
0.1700
1
10,65 m2  (kath.)
50
0.00
72
1
73
2
11
6.1789
21
7.5425
31
0.0
0
TEXT
8
TEXT
10
6.1789
20
7.2825
30
0.0
40
0.1500
1
esot. 3,85x2,76
50
0.00
72
1
73
2
11
6.1789
21
7.2825
31
0.0
0
TEXT
8
TEXT
10
6.1789
20
7.0425
30
0.0
40
0.1500
1
mikt. 3,95x3,11
50
0.00
72
1
73
2
11
6.1789
21
7.0425
31
0.0
0
LINE
8
OPENINGS
10
5.7289
20
8.9250
30
0.0
11
6.6289
21
8.9250
31
0.0
0
LINE
8
OPENINGS
10
5.7000
20
6.1600
30
0.0
11
5.7000
21
7.0600
31
0.0
0
ARC
8
OPENINGS
10
5.7000
20
6.1600
30
0.0
40
0.9000
50
0.00
51
90.00
0
POLYLINE
8
ROOMS
66
1
70
1
10
0.0
20
0.0
30
0.0
0
VERTEX
8
ROOMS
10
8.2053
20
6.1600
30
0.0
0
VERTEX
8
ROOMS
10
12.7000
20
6.1600
30
0.0
0
VERTEX
8
ROOMS
10
12.7000
20
8.9250
30
0.0
0
VERTEX
8
ROOMS
10
8.2053
20
8.9250
30
0.0
0
SEQEND
8
ROOMS
0
TEXT
8
TEXT
10
10.4526
20
7.8225
30
0.0
40
0.2400
1
Κύριο Υπνοδωμάτιο
50
0.00
72
1
73
2
11
10.4526
21
7.8225
31
0.0
0
TEXT
8
TEXT
10
10.4526
20
7.5425
30
0.0
40
0.1700
1
12,43 m2  (kath.)
50
0.00
72
1
73
2
11
10.4526
21
7.5425
31
0.0
0
TEXT
8
TEXT
10
10.4526
20
7.2825
30
0.0
40
0.1500
1
esot. 4,49x2,76
50
0.00
72
1
73
2
11
10.4526
21
7.2825
31
0.0
0
TEXT
8
TEXT
10
10.4526
20
7.0425
30
0.0
40
0.1500
1
mikt. 4,84x3,11
50
0.00
72
1
73
2
11
10.4526
21
7.0425
31
0.0
0
LINE
8
OPENINGS
10
12.7000
20
7.0925
30
0.0
11
12.7000
21
7.9925
31
0.0
0
LINE
8
OPENINGS
10
8.3053
20
6.1600
30
0.0
11
8.3053
21
7.0600
31
0.0
0
ARC
8
OPENINGS
10
8.3053
20
6.1600
30
0.0
40
0.9000
50
0.00
51
90.00
0
POLYLINE
8
ROOMS
66
1
70
1
10
0.0
20
0.0
30
0.0
0
VERTEX
8
ROOMS
10
0.3000
20
3.4100
30
0.0
0
VERTEX
8
ROOMS
10
1.4500
20
3.4100
30
0.0
0
VERTEX
8
ROOMS
10
1.4500
20
6.0600
30
0.0
0
VERTEX
8
ROOMS
10
0.3000
20
6.0600
30
0.0
0
SEQEND
8
ROOMS
0
TEXT
8
TEXT
10
0.8750
20
5.0150
30
0.0
40
0.2400
1
WC
50
0.00
72
1
73
2
11
0.8750
21
5.0150
31
0.0
0
TEXT
8
TEXT
10
0.8750
20
4.7350
30
0.0
40
0.1700
1
3,05 m2  (kath.)
50
0.00
72
1
73
2
11
0.8750
21
4.7350
31
0.0
0
TEXT
8
TEXT
10
0.8750
20
4.4750
30
0.0
40
0.1500
1
esot. 1,15x2,65
50
0.00
72
1
73
2
11
0.8750
21
4.4750
31
0.0
0
TEXT
8
TEXT
10
0.8750
20
4.2350
30
0.0
40
0.1500
1
mikt. 1,50x2,75
50
0.00
72
1
73
2
11
0.8750
21
4.2350
31
0.0
0
LINE
8
OPENINGS
10
0.3000
20
4.2850
30
0.0
11
0.3000
21
5.1850
31
0.0
0
LINE
8
OPENINGS
10
1.4500
20
5.1850
30
0.0
11
0.7500
21
5.1850
31
0.0
0
ARC
8
OPENINGS
10
1.4500
20
5.1850
30
0.0
40
0.7000
50
0.00
51
90.00
0
POLYLINE
8
ROOMS
66
1
70
1
10
0.0
20
0.0
30
0.0
0
VERTEX
8
ROOMS
10
10.8500
20
3.4100
30
0.0
0
VERTEX
8
ROOMS
10
12.7000
20
3.4100
30
0.0
0
VERTEX
8
ROOMS
10
12.7000
20
6.0600
30
0.0
0
VERTEX
8
ROOMS
10
10.8500
20
6.0600
30
0.0
0
SEQEND
8
ROOMS
0
TEXT
8
TEXT
10
11.7750
20
5.0150
30
0.0
40
0.2400
1
Λουτρό
50
0.00
72
1
73
2
11
11.7750
21
5.0150
31
0.0
0
TEXT
8
TEXT
10
11.7750
20
4.7350
30
0.0
40
0.1700
1
4,90 m2  (kath.)
50
0.00
72
1
73
2
11
11.7750
21
4.7350
31
0.0
0
TEXT
8
TEXT
10
11.7750
20
4.4750
30
0.0
40
0.1500
1
esot. 1,85x2,65
50
0.00
72
1
73
2
11
11.7750
21
4.4750
31
0.0
0
TEXT
8
TEXT
10
11.7750
20
4.2350
30
0.0
40
0.1500
1
mikt. 2,20x2,75
50
0.00
72
1
73
2
11
11.7750
21
4.2350
31
0.0
0
LINE
8
OPENINGS
10
12.7000
20
4.2850
30
0.0
11
12.7000
21
5.1850
31
0.0
0
LINE
8
OPENINGS
10
10.8500
20
5.1350
30
0.0
11
11.6500
21
5.1350
31
0.0
0
ARC
8
OPENINGS
10
10.8500
20
5.1350
30
0.0
40
0.8000
50
0.00
51
90.00
0
POLYLINE
8
ROOMS
66
1
70
1
10
0.0
20
0.0
30
0.0
0
VERTEX
8
ROOMS
10
1.5500
20
5.0100
30
0.0
0
VERTEX
8
ROOMS
10
10.7500
20
5.0100
30
0.0
0
VERTEX
8
ROOMS
10
10.7500
20
6.0600
30
0.0
0
VERTEX
8
ROOMS
10
1.5500
20
6.0600
30
0.0
0
SEQEND
8
ROOMS
0
TEXT
8
TEXT
10
6.1500
20
5.8150
30
0.0
40
0.2400
1
Διάδρομος
50
0.00
72
1
73
2
11
6.1500
21
5.8150
31
0.0
0
TEXT
8
TEXT
10
6.1500
20
5.5350
30
0.0
40
0.1700
1
9,66 m2  (kath.)
50
0.00
72
1
73
2
11
6.1500
21
5.5350
31
0.0
0
TEXT
8
TEXT
10
6.1500
20
5.2750
30
0.0
40
0.1500
1
esot. 9,20x1,05
50
0.00
72
1
73
2
11
6.1500
21
5.2750
31
0.0
0
TEXT
8
TEXT
10
6.1500
20
5.0350
30
0.0
40
0.1500
1
mikt. 9,30x1,15
50
0.00
72
1
73
2
11
6.1500
21
5.0350
31
0.0
0
LINE
8
DIMS
10
0.0000
20
-1.2000
30
0.0
11
13.0000
21
-1.2000
31
0.0
0
LINE
8
DIMS
10
0.0000
20
-1.0500
30
0.0
11
0.0000
21
-1.3500
31
0.0
0
LINE
8
DIMS
10
13.0000
20
-1.0500
30
0.0
11
13.0000
21
-1.3500
31
0.0
0
TEXT
8
DIMS
10
6.5000
20
-1.5500
30
0.0
40
0.2800
1
13,00 m (A-D)
50
0.00
72
1
73
2
11
6.5000
21
-1.5500
31
0.0
0
LINE
8
DIMS
10
-1.2000
20
0.0000
30
0.0
11
-1.2000
21
9.2200
31
0.0
0
LINE
8
DIMS
10
-1.0500
20
0.0000
30
0.0
11
-1.3500
21
0.0000
31
0.0
0
LINE
8
DIMS
10
-1.0500
20
9.2200
30
0.0
11
-1.3500
21
9.2200
31
0.0
0
TEXT
8
DIMS
10
-1.5500
20
4.6100
30
0.0
40
0.2800
1
9,22 m (B-N)
50
90.00
72
1
73
2
11
-1.5500
21
4.6100
31
0.0
0
TEXT
8
TITLE
10
6.5000
20
9.9200
30
0.0
40
0.4000
1
Ισόγειο  -  119,92 m2 (mikto)
50
0.00
72
1
73
2
11
6.5000
21
9.9200
31
0.0
0
POLYLINE
8
NORTH
66
1
70
1
10
0.0
20
0.0
30
0.0
0
VERTEX
8
NORTH
10
14.2000
20
9.2200
30
0.0
0
VERTEX
8
NORTH
10
13.8500
20
8.3200
30
0.0
0
VERTEX
8
NORTH
10
14.2000
20
8.6200
30
0.0
0
VERTEX
8
NORTH
10
14.5500
20
8.3200
30
0.0
0
SEQEND
8
NORTH
0
TEXT
8
NORTH
10
14.2000
20
9.6200
30
0.0
40
0.4500
1
B
50
0.00
72
1
73
2
11
14.2000
21
9.6200
31
0.0
0
TEXT
8
TITLE
10
0.0000
20
11.4200
30
0.0
40
0.5000
1
Κατοικία - Πρόταση 2
50
0.00
72
0
73
2
11
0.0000
21
11.4200
31
0.0
0
TEXT
8
TITLE
10
0.0000
20
10.7200
30
0.0
40
0.3000
1
Αμαλιάδα, Π.Ε. Ηλείας  |  Eisodos: Νότος  |  Orofoi: 1
50
0.00
72
0
73
2
11
0.0000
21
10.7200
31
0.0
0
ENDSEC
0
EOF
