0
SECTION
2
HEADER
9
$ACADVER
1
AC1009
9
$DWGCODEPAGE
3
ANSI_1253
9
$INSUNITS
70
6
0
ENDSEC
0
SECTION
2
TABLES
0
TABLE
2
LAYER
70
8
0
LAYER
2
OUTLINE
70
0
62
7
6
CONTINUOUS
0
LAYER
2
WALLS
70
0
62
8
6
CONTINUOUS
0
LAYER
2
ROOMS
70
0
62
3
6
CONTINUOUS
0
LAYER
2
OPENINGS
70
0
62
1
6
CONTINUOUS
0
LAYER
2
TEXT
70
0
62
7
6
CONTINUOUS
0
LAYER
2
DIMS
70
0
62
4
6
CONTINUOUS
0
LAYER
2
NORTH
70
0
62
2
6
CONTINUOUS
0
LAYER
2
TITLE
70
0
62
5
6
CONTINUOUS
0
ENDTAB
0
ENDSEC
0
SECTION
2
ENTITIES
0
POLYLINE
8
OUTLINE
66
1
70
1
10
0.0
20
0.0
30
0.0
0
VERTEX
8
OUTLINE
10
0.0000
20
0.0000
30
0.0
0
VERTEX
8
OUTLINE
10
13.0000
20
0.0000
30
0.0
0
VERTEX
8
OUTLINE
10
13.0000
20
3.0400
30
0.0
0
VERTEX
8
OUTLINE
10
11.0250
20
3.0400
30
0.0
0
VERTEX
8
OUTLINE
10
11.0250
20
9.4560
30
0.0
0
VERTEX
8
OUTLINE
10
0.0000
20
9.4560
30
0.0
0
SEQEND
8
OUTLINE
0
POLYLINE
8
WALLS
66
1
70
1
10
0.0
20
0.0
30
0.0
0
VERTEX
8
WALLS
10
0.3000
20
0.3000
30
0.0
0
VERTEX
8
WALLS
10
12.7000
20
0.3000
30
0.0
0
VERTEX
8
WALLS
10
12.7000
20
2.7400
30
0.0
0
VERTEX
8
WALLS
10
0.3000
20
2.7400
30
0.0
0
SEQEND
8
WALLS
0
POLYLINE
8
WALLS
66
1
70
1
10
0.0
20
0.0
30
0.0
0
VERTEX
8
WALLS
10
0.3000
20
3.3400
30
0.0
0
VERTEX
8
WALLS
10
10.7250
20
3.3400
30
0.0
0
VERTEX
8
WALLS
10
10.7250
20
9.1560
30
0.0
0
VERTEX
8
WALLS
10
0.3000
20
9.1560
30
0.0
0
SEQEND
8
WALLS
0
POLYLINE
8
ROOMS
66
1
70
1
10
0.0
20
0.0
30
0.0
0
VERTEX
8
ROOMS
10
0.3000
20
0.3000
30
0.0
0
VERTEX
8
ROOMS
10
12.7000
20
0.3000
30
0.0
0
VERTEX
8
ROOMS
10
12.7000
20
2.7400
30
0.0
0
VERTEX
8
ROOMS
10
0.3000
20
2.7400
30
0.0
0
SEQEND
8
ROOMS
0
TEXT
8
TEXT
10
6.5000
20
1.8000
30
0.0
40
0.2400
1
Κουζίνα
50
0.00
72
1
73
2
11
6.5000
21
1.8000
31
0.0
0
TEXT
8
TEXT
10
6.5000
20
1.5200
30
0.0
40
0.1700
1
30,26 m2  (kath.)
50
0.00
72
1
73
2
11
6.5000
21
1.5200
31
0.0
0
TEXT
8
TEXT
10
6.5000
20
1.2600
30
0.0
40
0.1500
1
esot. 12,40x2,44
50
0.00
72
1
73
2
11
6.5000
21
1.2600
31
0.0
0
TEXT
8
TEXT
10
6.5000
20
1.0200
30
0.0
40
0.1500
1
mikt. 13,00x3,04
50
0.00
72
1
73
2
11
6.5000
21
1.0200
31
0.0
0
LINE
8
OPENINGS
10
5.4194
20
0.3000
30
0.0
11
7.5806
21
0.3000
31
0.0
0
LINE
8
OPENINGS
10
6.0000
20
0.3000
30
0.0
11
6.0000
21
1.3000
31
0.0
0
ARC
8
OPENINGS
10
6.0000
20
0.3000
30
0.0
40
1.0000
50
0.00
51
90.00
0
POLYLINE
8
ROOMS
66
1
70
1
10
0.0
20
0.0
30
0.0
0
VERTEX
8
ROOMS
10
0.3000
20
5.7900
30
0.0
0
VERTEX
8
ROOMS
10
4.0671
20
5.7900
30
0.0
0
VERTEX
8
ROOMS
10
4.0671
20
9.1560
30
0.0
0
VERTEX
8
ROOMS
10
0.3000
20
9.1560
30
0.0
0
SEQEND
8
ROOMS
0
TEXT
8
TEXT
10
2.1836
20
7.7530
30
0.0
40
0.2400
1
Κύριο Υπνοδωμάτιο
50
0.00
72
1
73
2
11
2.1836
21
7.7530
31
0.0
0
TEXT
8
TEXT
10
2.1836
20
7.4730
30
0.0
40
0.1700
1
12,68 m2  (kath.)
50
0.00
72
1
73
2
11
2.1836
21
7.4730
31
0.0
0
TEXT
8
TEXT
10
2.1836
20
7.2130
30
0.0
40
0.1500
1
esot. 3,77x3,37
50
0.00
72
1
73
2
11
2.1836
21
7.2130
31
0.0
0
TEXT
8
TEXT
10
2.1836
20
6.9730
30
0.0
40
0.1500
1
mikt. 4,12x3,72
50
0.00
72
1
73
2
11
2.1836
21
6.9730
31
0.0
0
LINE
8
OPENINGS
10
1.7307
20
9.1560
30
0.0
11
2.6364
21
9.1560
31
0.0
0
LINE
8
OPENINGS
10
3.0671
20
5.7900
30
0.0
11
3.0671
21
6.6900
31
0.0
0
ARC
8
OPENINGS
10
3.0671
20
5.7900
30
0.0
40
0.9000
50
0.00
51
90.00
0
POLYLINE
8
ROOMS
66
1
70
1
10
0.0
20
0.0
30
0.0
0
VERTEX
8
ROOMS
10
4.1671
20
5.7900
30
0.0
0
VERTEX
8
ROOMS
10
7.3961
20
5.7900
30
0.0
0
VERTEX
8
ROOMS
10
7.3961
20
9.1560
30
0.0
0
VERTEX
8
ROOMS
10
4.1671
20
9.1560
30
0.0
0
SEQEND
8
ROOMS
0
TEXT
8
TEXT
10
5.7816
20
7.7530
30
0.0
40
0.2400
1
Υπνοδωμάτιο 2
50
0.00
72
1
73
2
11
5.7816
21
7.7530
31
0.0
0
TEXT
8
TEXT
10
5.7816
20
7.4730
30
0.0
40
0.1700
1
10,87 m2  (kath.)
50
0.00
72
1
73
2
11
5.7816
21
7.4730
31
0.0
0
TEXT
8
TEXT
10
5.7816
20
7.2130
30
0.0
40
0.1500
1
esot. 3,23x3,37
50
0.00
72
1
73
2
11
5.7816
21
7.2130
31
0.0
0
TEXT
8
TEXT
10
5.7816
20
6.9730
30
0.0
40
0.1500
1
mikt. 3,33x3,72
50
0.00
72
1
73
2
11
5.7816
21
6.9730
31
0.0
0
LINE
8
OPENINGS
10
5.3316
20
9.1560
30
0.0
11
6.2316
21
9.1560
31
0.0
0
LINE
8
OPENINGS
10
4.7625
20
5.7900
30
0.0
11
4.7625
21
6.6900
31
0.0
0
ARC
8
OPENINGS
10
4.7625
20
5.7900
30
0.0
40
0.9000
50
0.00
51
90.00
0
POLYLINE
8
ROOMS
66
1
70
1
10
0.0
20
0.0
30
0.0
0
VERTEX
8
ROOMS
10
7.4961
20
5.7900
30
0.0
0
VERTEX
8
ROOMS
10
10.7250
20
5.7900
30
0.0
0
VERTEX
8
ROOMS
10
10.7250
20
9.1560
30
0.0
0
VERTEX
8
ROOMS
10
7.4961
20
9.1560
30
0.0
0
SEQEND
8
ROOMS
0
TEXT
8
TEXT
10
9.1105
20
7.7530
30
0.0
40
0.2400
1
Υπνοδωμάτιο 3
50
0.00
72
1
73
2
11
9.1105
21
7.7530
31
0.0
0
TEXT
8
TEXT
10
9.1105
20
7.4730
30
0.0
40
0.1700
1
10,87 m2  (kath.)
50
0.00
72
1
73
2
11
9.1105
21
7.4730
31
0.0
0
TEXT
8
TEXT
10
9.1105
20
7.2130
30
0.0
40
0.1500
1
esot. 3,23x3,37
50
0.00
72
1
73
2
11
9.1105
21
7.2130
31
0.0
0
TEXT
8
TEXT
10
9.1105
20
6.9730
30
0.0
40
0.1500
1
mikt. 3,58x3,72
50
0.00
72
1
73
2
11
9.1105
21
6.9730
31
0.0
0
LINE
8
OPENINGS
10
10.7250
20
7.0230
30
0.0
11
10.7250
21
7.9230
31
0.0
0
LINE
8
OPENINGS
10
7.5961
20
5.7900
30
0.0
11
7.5961
21
6.6900
31
0.0
0
ARC
8
OPENINGS
10
7.5961
20
5.7900
30
0.0
40
0.9000
50
0.00
51
90.00
0
POLYLINE
8
ROOMS
66
1
70
1
10
0.0
20
0.0
30
0.0
0
VERTEX
8
ROOMS
10
0.3000
20
3.0900
30
0.0
0
VERTEX
8
ROOMS
10
1.5500
20
3.0900
30
0.0
0
VERTEX
8
ROOMS
10
1.5500
20
5.6900
30
0.0
0
VERTEX
8
ROOMS
10
0.3000
20
5.6900
30
0.0
0
SEQEND
8
ROOMS
0
TEXT
8
TEXT
10
0.9250
20
4.6700
30
0.0
40
0.2400
1
Χωλ
50
0.00
72
1
73
2
11
0.9250
21
4.6700
31
0.0
0
TEXT
8
TEXT
10
0.9250
20
4.3900
30
0.0
40
0.1700
1
3,25 m2  (kath.)
50
0.00
72
1
73
2
11
0.9250
21
4.3900
31
0.0
0
TEXT
8
TEXT
10
0.9250
20
4.1300
30
0.0
40
0.1500
1
esot. 1,25x2,60
50
0.00
72
1
73
2
11
0.9250
21
4.1300
31
0.0
0
TEXT
8
TEXT
10
0.9250
20
3.8900
30
0.0
40
0.1500
1
mikt. 1,60x2,70
50
0.00
72
1
73
2
11
0.9250
21
3.8900
31
0.0
0
LINE
8
OPENINGS
10
1.5500
20
4.7900
30
0.0
11
0.7500
21
4.7900
31
0.0
0
ARC
8
OPENINGS
10
1.5500
20
4.7900
30
0.0
40
0.8000
50
0.00
51
90.00
0
LINE
8
OPENINGS
10
0.4750
20
3.0900
30
0.0
11
0.4750
21
3.9900
31
0.0
0
ARC
8
OPENINGS
10
0.4750
20
3.0900
30
0.0
40
0.9000
50
0.00
51
90.00
0
POLYLINE
8
ROOMS
66
1
70
1
10
0.0
20
0.0
30
0.0
0
VERTEX
8
ROOMS
10
1.6500
20
3.0900
30
0.0
0
VERTEX
8
ROOMS
10
8.7750
20
3.0900
30
0.0
0
VERTEX
8
ROOMS
10
8.7750
20
4.5900
30
0.0
0
VERTEX
8
ROOMS
10
1.6500
20
4.5900
30
0.0
0
SEQEND
8
ROOMS
0
TEXT
8
TEXT
10
5.2125
20
4.1200
30
0.0
40
0.2400
1
WC
50
0.00
72
1
73
2
11
5.2125
21
4.1200
31
0.0
0
TEXT
8
TEXT
10
5.2125
20
3.8400
30
0.0
40
0.1700
1
10,69 m2  (kath.)
50
0.00
72
1
73
2
11
5.2125
21
3.8400
31
0.0
0
TEXT
8
TEXT
10
5.2125
20
3.5800
30
0.0
40
0.1500
1
esot. 7,12x1,50
50
0.00
72
1
73
2
11
5.2125
21
3.5800
31
0.0
0
TEXT
8
TEXT
10
5.2125
20
3.3400
30
0.0
40
0.1500
1
mikt. 7,22x1,60
50
0.00
72
1
73
2
11
5.2125
21
3.3400
31
0.0
0
LINE
8
OPENINGS
10
4.8625
20
4.5900
30
0.0
11
4.8625
21
3.8900
31
0.0
0
ARC
8
OPENINGS
10
4.8625
20
4.5900
30
0.0
40
0.7000
50
270.00
51
360.00
0
POLYLINE
8
ROOMS
66
1
70
1
10
0.0
20
0.0
30
0.0
0
VERTEX
8
ROOMS
10
8.8750
20
3.0900
30
0.0
0
VERTEX
8
ROOMS
10
10.7250
20
3.0900
30
0.0
0
VERTEX
8
ROOMS
10
10.7250
20
5.6900
30
0.0
0
VERTEX
8
ROOMS
10
8.8750
20
5.6900
30
0.0
0
SEQEND
8
ROOMS
0
TEXT
8
TEXT
10
9.8000
20
4.6700
30
0.0
40
0.2400
1
Λουτρό
50
0.00
72
1
73
2
11
9.8000
21
4.6700
31
0.0
0
TEXT
8
TEXT
10
9.8000
20
4.3900
30
0.0
40
0.1700
1
4,81 m2  (kath.)
50
0.00
72
1
73
2
11
9.8000
21
4.3900
31
0.0
0
TEXT
8
TEXT
10
9.8000
20
4.1300
30
0.0
40
0.1500
1
esot. 1,85x2,60
50
0.00
72
1
73
2
11
9.8000
21
4.1300
31
0.0
0
TEXT
8
TEXT
10
9.8000
20
3.8900
30
0.0
40
0.1500
1
mikt. 2,20x2,70
50
0.00
72
1
73
2
11
9.8000
21
3.8900
31
0.0
0
LINE
8
OPENINGS
10
10.7250
20
3.9400
30
0.0
11
10.7250
21
4.8400
31
0.0
0
LINE
8
OPENINGS
10
8.8750
20
4.7900
30
0.0
11
9.6750
21
4.7900
31
0.0
0
ARC
8
OPENINGS
10
8.8750
20
4.7900
30
0.0
40
0.8000
50
0.00
51
90.00
0
POLYLINE
8
ROOMS
66
1
70
1
10
0.0
20
0.0
30
0.0
0
VERTEX
8
ROOMS
10
1.6500
20
4.6900
30
0.0
0
VERTEX
8
ROOMS
10
8.7750
20
4.6900
30
0.0
0
VERTEX
8
ROOMS
10
8.7750
20
5.6900
30
0.0
0
VERTEX
8
ROOMS
10
1.6500
20
5.6900
30
0.0
0
SEQEND
8
ROOMS
0
TEXT
8
TEXT
10
5.2125
20
5.4700
30
0.0
40
0.2400
1
Διάδρομος
50
0.00
72
1
73
2
11
5.2125
21
5.4700
31
0.0
0
TEXT
8
TEXT
10
5.2125
20
5.1900
30
0.0
40
0.1700
1
7,12 m2  (kath.)
50
0.00
72
1
73
2
11
5.2125
21
5.1900
31
0.0
0
TEXT
8
TEXT
10
5.2125
20
4.9300
30
0.0
40
0.1500
1
esot. 7,12x1,00
50
0.00
72
1
73
2
11
5.2125
21
4.9300
31
0.0
0
TEXT
8
TEXT
10
5.2125
20
4.6900
30
0.0
40
0.1500
1
mikt. 7,22x1,10
50
0.00
72
1
73
2
11
5.2125
21
4.6900
31
0.0
0
LINE
8
DIMS
10
0.0000
20
-1.2000
30
0.0
11
13.0000
21
-1.2000
31
0.0
0
LINE
8
DIMS
10
0.0000
20
-1.0500
30
0.0
11
0.0000
21
-1.3500
31
0.0
0
LINE
8
DIMS
10
13.0000
20
-1.0500
30
0.0
11
13.0000
21
-1.3500
31
0.0
0
TEXT
8
DIMS
10
6.5000
20
-1.5500
30
0.0
40
0.2800
1
13,00 m (A-D)
50
0.00
72
1
73
2
11
6.5000
21
-1.5500
31
0.0
0
LINE
8
DIMS
10
-1.2000
20
0.0000
30
0.0
11
-1.2000
21
9.4600
31
0.0
0
LINE
8
DIMS
10
-1.0500
20
0.0000
30
0.0
11
-1.3500
21
0.0000
31
0.0
0
LINE
8
DIMS
10
-1.0500
20
9.4600
30
0.0
11
-1.3500
21
9.4600
31
0.0
0
TEXT
8
DIMS
10
-1.5500
20
4.7300
30
0.0
40
0.2800
1
9,46 m (B-N)
50
90.00
72
1
73
2
11
-1.5500
21
4.7300
31
0.0
0
TEXT
8
TITLE
10
6.5000
20
10.1600
30
0.0
40
0.4000
1
Ισόγειο  -  110,26 m2 (mikto)
50
0.00
72
1
73
2
11
6.5000
21
10.1600
31
0.0
0
POLYLINE
8
NORTH
66
1
70
1
10
0.0
20
0.0
30
0.0
0
VERTEX
8
NORTH
10
14.2000
20
9.4600
30
0.0
0
VERTEX
8
NORTH
10
13.8500
20
8.5600
30
0.0
0
VERTEX
8
NORTH
10
14.2000
20
8.8600
30
0.0
0
VERTEX
8
NORTH
10
14.5500
20
8.5600
30
0.0
0
SEQEND
8
NORTH
0
TEXT
8
NORTH
10
14.2000
20
9.8600
30
0.0
40
0.4500
1
B
50
0.00
72
1
73
2
11
14.2000
21
9.8600
31
0.0
0
TEXT
8
TITLE
10
0.0000
20
11.6600
30
0.0
40
0.5000
1
Κατοικία - Πρόταση 3
50
0.00
72
0
73
2
11
0.0000
21
11.6600
31
0.0
0
TEXT
8
TITLE
10
0.0000
20
10.9600
30
0.0
40
0.3000
1
Αμαλιάδα, Π.Ε. Ηλείας  |  Eisodos: Νότος  |  Orofoi: 1
50
0.00
72
0
73
2
11
0.0000
21
10.9600
31
0.0
0
ENDSEC
0
EOF
