0
SECTION
2
HEADER
9
$ACADVER
1
AC1009
9
$DWGCODEPAGE
3
ANSI_1253
9
$INSUNITS
70
6
0
ENDSEC
0
SECTION
2
TABLES
0
TABLE
2
LAYER
70
8
0
LAYER
2
OUTLINE
70
0
62
7
6
CONTINUOUS
0
LAYER
2
WALLS
70
0
62
8
6
CONTINUOUS
0
LAYER
2
ROOMS
70
0
62
3
6
CONTINUOUS
0
LAYER
2
OPENINGS
70
0
62
1
6
CONTINUOUS
0
LAYER
2
TEXT
70
0
62
7
6
CONTINUOUS
0
LAYER
2
DIMS
70
0
62
4
6
CONTINUOUS
0
LAYER
2
NORTH
70
0
62
2
6
CONTINUOUS
0
LAYER
2
TITLE
70
0
62
5
6
CONTINUOUS
0
ENDTAB
0
ENDSEC
0
SECTION
2
ENTITIES
0
POLYLINE
8
OUTLINE
66
1
70
1
10
0.0
20
0.0
30
0.0
0
VERTEX
8
OUTLINE
10
0.0000
20
0.0000
30
0.0
0
VERTEX
8
OUTLINE
10
13.0000
20
0.0000
30
0.0
0
VERTEX
8
OUTLINE
10
13.0000
20
3.2000
30
0.0
0
VERTEX
8
OUTLINE
10
10.5000
20
3.2000
30
0.0
0
VERTEX
8
OUTLINE
10
10.5000
20
9.7680
30
0.0
0
VERTEX
8
OUTLINE
10
0.0000
20
9.7680
30
0.0
0
SEQEND
8
OUTLINE
0
POLYLINE
8
WALLS
66
1
70
1
10
0.0
20
0.0
30
0.0
0
VERTEX
8
WALLS
10
0.3000
20
0.3000
30
0.0
0
VERTEX
8
WALLS
10
12.7000
20
0.3000
30
0.0
0
VERTEX
8
WALLS
10
12.7000
20
2.9000
30
0.0
0
VERTEX
8
WALLS
10
0.3000
20
2.9000
30
0.0
0
SEQEND
8
WALLS
0
POLYLINE
8
WALLS
66
1
70
1
10
0.0
20
0.0
30
0.0
0
VERTEX
8
WALLS
10
0.3000
20
3.5000
30
0.0
0
VERTEX
8
WALLS
10
10.2000
20
3.5000
30
0.0
0
VERTEX
8
WALLS
10
10.2000
20
9.4680
30
0.0
0
VERTEX
8
WALLS
10
0.3000
20
9.4680
30
0.0
0
SEQEND
8
WALLS
0
POLYLINE
8
ROOMS
66
1
70
1
10
0.0
20
0.0
30
0.0
0
VERTEX
8
ROOMS
10
0.3000
20
0.3000
30
0.0
0
VERTEX
8
ROOMS
10
12.7000
20
0.3000
30
0.0
0
VERTEX
8
ROOMS
10
12.7000
20
2.9000
30
0.0
0
VERTEX
8
ROOMS
10
0.3000
20
2.9000
30
0.0
0
SEQEND
8
ROOMS
0
TEXT
8
TEXT
10
6.5000
20
1.8800
30
0.0
40
0.2400
1
Κουζίνα
50
0.00
72
1
73
2
11
6.5000
21
1.8800
31
0.0
0
TEXT
8
TEXT
10
6.5000
20
1.6000
30
0.0
40
0.1700
1
32,24 m2  (kath.)
50
0.00
72
1
73
2
11
6.5000
21
1.6000
31
0.0
0
TEXT
8
TEXT
10
6.5000
20
1.3400
30
0.0
40
0.1500
1
esot. 12,40x2,60
50
0.00
72
1
73
2
11
6.5000
21
1.3400
31
0.0
0
TEXT
8
TEXT
10
6.5000
20
1.1000
30
0.0
40
0.1500
1
mikt. 13,00x3,20
50
0.00
72
1
73
2
11
6.5000
21
1.1000
31
0.0
0
LINE
8
OPENINGS
10
5.3486
20
0.3000
30
0.0
11
7.6514
21
0.3000
31
0.0
0
LINE
8
OPENINGS
10
6.0000
20
0.3000
30
0.0
11
6.0000
21
1.3000
31
0.0
0
ARC
8
OPENINGS
10
6.0000
20
0.3000
30
0.0
40
1.0000
50
0.00
51
90.00
0
POLYLINE
8
ROOMS
66
1
70
1
10
0.0
20
0.0
30
0.0
0
VERTEX
8
ROOMS
10
0.3000
20
5.9000
30
0.0
0
VERTEX
8
ROOMS
10
3.8737
20
5.9000
30
0.0
0
VERTEX
8
ROOMS
10
3.8737
20
9.4680
30
0.0
0
VERTEX
8
ROOMS
10
0.3000
20
9.4680
30
0.0
0
SEQEND
8
ROOMS
0
TEXT
8
TEXT
10
2.0868
20
7.9640
30
0.0
40
0.2400
1
Κύριο Υπνοδωμάτιο
50
0.00
72
1
73
2
11
2.0868
21
7.9640
31
0.0
0
TEXT
8
TEXT
10
2.0868
20
7.6840
30
0.0
40
0.1700
1
12,75 m2  (kath.)
50
0.00
72
1
73
2
11
2.0868
21
7.6840
31
0.0
0
TEXT
8
TEXT
10
2.0868
20
7.4240
30
0.0
40
0.1500
1
esot. 3,57x3,57
50
0.00
72
1
73
2
11
2.0868
21
7.4240
31
0.0
0
TEXT
8
TEXT
10
2.0868
20
7.1840
30
0.0
40
0.1500
1
mikt. 3,92x3,92
50
0.00
72
1
73
2
11
2.0868
21
7.1840
31
0.0
0
LINE
8
OPENINGS
10
1.6315
20
9.4680
30
0.0
11
2.5422
21
9.4680
31
0.0
0
LINE
8
OPENINGS
10
2.8737
20
5.9000
30
0.0
11
2.8737
21
6.8000
31
0.0
0
ARC
8
OPENINGS
10
2.8737
20
5.9000
30
0.0
40
0.9000
50
0.00
51
90.00
0
POLYLINE
8
ROOMS
66
1
70
1
10
0.0
20
0.0
30
0.0
0
VERTEX
8
ROOMS
10
3.9737
20
5.9000
30
0.0
0
VERTEX
8
ROOMS
10
7.0368
20
5.9000
30
0.0
0
VERTEX
8
ROOMS
10
7.0368
20
9.4680
30
0.0
0
VERTEX
8
ROOMS
10
3.9737
20
9.4680
30
0.0
0
SEQEND
8
ROOMS
0
TEXT
8
TEXT
10
5.5053
20
7.9640
30
0.0
40
0.2400
1
Υπνοδωμάτιο 2
50
0.00
72
1
73
2
11
5.5053
21
7.9640
31
0.0
0
TEXT
8
TEXT
10
5.5053
20
7.6840
30
0.0
40
0.1700
1
10,93 m2  (kath.)
50
0.00
72
1
73
2
11
5.5053
21
7.6840
31
0.0
0
TEXT
8
TEXT
10
5.5053
20
7.4240
30
0.0
40
0.1500
1
esot. 3,06x3,57
50
0.00
72
1
73
2
11
5.5053
21
7.4240
31
0.0
0
TEXT
8
TEXT
10
5.5053
20
7.1840
30
0.0
40
0.1500
1
mikt. 3,16x3,92
50
0.00
72
1
73
2
11
5.5053
21
7.1840
31
0.0
0
LINE
8
OPENINGS
10
5.0553
20
9.4680
30
0.0
11
5.9553
21
9.4680
31
0.0
0
LINE
8
OPENINGS
10
4.5000
20
5.9000
30
0.0
11
4.5000
21
6.8000
31
0.0
0
ARC
8
OPENINGS
10
4.5000
20
5.9000
30
0.0
40
0.9000
50
0.00
51
90.00
0
POLYLINE
8
ROOMS
66
1
70
1
10
0.0
20
0.0
30
0.0
0
VERTEX
8
ROOMS
10
7.1368
20
5.9000
30
0.0
0
VERTEX
8
ROOMS
10
10.2000
20
5.9000
30
0.0
0
VERTEX
8
ROOMS
10
10.2000
20
9.4680
30
0.0
0
VERTEX
8
ROOMS
10
7.1368
20
9.4680
30
0.0
0
SEQEND
8
ROOMS
0
TEXT
8
TEXT
10
8.6684
20
7.9640
30
0.0
40
0.2400
1
Υπνοδωμάτιο 3
50
0.00
72
1
73
2
11
8.6684
21
7.9640
31
0.0
0
TEXT
8
TEXT
10
8.6684
20
7.6840
30
0.0
40
0.1700
1
10,93 m2  (kath.)
50
0.00
72
1
73
2
11
8.6684
21
7.6840
31
0.0
0
TEXT
8
TEXT
10
8.6684
20
7.4240
30
0.0
40
0.1500
1
esot. 3,06x3,57
50
0.00
72
1
73
2
11
8.6684
21
7.4240
31
0.0
0
TEXT
8
TEXT
10
8.6684
20
7.1840
30
0.0
40
0.1500
1
mikt. 3,41x3,92
50
0.00
72
1
73
2
11
8.6684
21
7.1840
31
0.0
0
LINE
8
OPENINGS
10
10.2000
20
7.2340
30
0.0
11
10.2000
21
8.1340
31
0.0
0
LINE
8
OPENINGS
10
7.2368
20
5.9000
30
0.0
11
7.2368
21
6.8000
31
0.0
0
ARC
8
OPENINGS
10
7.2368
20
5.9000
30
0.0
40
0.9000
50
0.00
51
90.00
0
POLYLINE
8
ROOMS
66
1
70
1
10
0.0
20
0.0
30
0.0
0
VERTEX
8
ROOMS
10
0.3000
20
3.2500
30
0.0
0
VERTEX
8
ROOMS
10
1.5500
20
3.2500
30
0.0
0
VERTEX
8
ROOMS
10
1.5500
20
5.8000
30
0.0
0
VERTEX
8
ROOMS
10
0.3000
20
5.8000
30
0.0
0
SEQEND
8
ROOMS
0
TEXT
8
TEXT
10
0.9250
20
4.8050
30
0.0
40
0.2400
1
Χωλ
50
0.00
72
1
73
2
11
0.9250
21
4.8050
31
0.0
0
TEXT
8
TEXT
10
0.9250
20
4.5250
30
0.0
40
0.1700
1
3,19 m2  (kath.)
50
0.00
72
1
73
2
11
0.9250
21
4.5250
31
0.0
0
TEXT
8
TEXT
10
0.9250
20
4.2650
30
0.0
40
0.1500
1
esot. 1,25x2,55
50
0.00
72
1
73
2
11
0.9250
21
4.2650
31
0.0
0
TEXT
8
TEXT
10
0.9250
20
4.0250
30
0.0
40
0.1500
1
mikt. 1,60x2,65
50
0.00
72
1
73
2
11
0.9250
21
4.0250
31
0.0
0
LINE
8
OPENINGS
10
1.5500
20
4.9500
30
0.0
11
0.8000
21
4.9500
31
0.0
0
ARC
8
OPENINGS
10
1.5500
20
4.9500
30
0.0
40
0.7500
50
0.00
51
90.00
0
LINE
8
OPENINGS
10
0.4750
20
3.2500
30
0.0
11
0.4750
21
4.1500
31
0.0
0
ARC
8
OPENINGS
10
0.4750
20
3.2500
30
0.0
40
0.9000
50
0.00
51
90.00
0
POLYLINE
8
ROOMS
66
1
70
1
10
0.0
20
0.0
30
0.0
0
VERTEX
8
ROOMS
10
1.6500
20
3.2500
30
0.0
0
VERTEX
8
ROOMS
10
8.2500
20
3.2500
30
0.0
0
VERTEX
8
ROOMS
10
8.2500
20
4.7500
30
0.0
0
VERTEX
8
ROOMS
10
1.6500
20
4.7500
30
0.0
0
SEQEND
8
ROOMS
0
TEXT
8
TEXT
10
4.9500
20
4.2800
30
0.0
40
0.2400
1
WC
50
0.00
72
1
73
2
11
4.9500
21
4.2800
31
0.0
0
TEXT
8
TEXT
10
4.9500
20
4.0000
30
0.0
40
0.1700
1
9,90 m2  (kath.)
50
0.00
72
1
73
2
11
4.9500
21
4.0000
31
0.0
0
TEXT
8
TEXT
10
4.9500
20
3.7400
30
0.0
40
0.1500
1
esot. 6,60x1,50
50
0.00
72
1
73
2
11
4.9500
21
3.7400
31
0.0
0
TEXT
8
TEXT
10
4.9500
20
3.5000
30
0.0
40
0.1500
1
mikt. 6,70x1,60
50
0.00
72
1
73
2
11
4.9500
21
3.5000
31
0.0
0
LINE
8
OPENINGS
10
4.6000
20
4.7500
30
0.0
11
4.6000
21
4.0500
31
0.0
0
ARC
8
OPENINGS
10
4.6000
20
4.7500
30
0.0
40
0.7000
50
270.00
51
360.00
0
POLYLINE
8
ROOMS
66
1
70
1
10
0.0
20
0.0
30
0.0
0
VERTEX
8
ROOMS
10
8.3500
20
3.2500
30
0.0
0
VERTEX
8
ROOMS
10
10.2000
20
3.2500
30
0.0
0
VERTEX
8
ROOMS
10
10.2000
20
5.8000
30
0.0
0
VERTEX
8
ROOMS
10
8.3500
20
5.8000
30
0.0
0
SEQEND
8
ROOMS
0
TEXT
8
TEXT
10
9.2750
20
4.8050
30
0.0
40
0.2400
1
Λουτρό
50
0.00
72
1
73
2
11
9.2750
21
4.8050
31
0.0
0
TEXT
8
TEXT
10
9.2750
20
4.5250
30
0.0
40
0.1700
1
4,72 m2  (kath.)
50
0.00
72
1
73
2
11
9.2750
21
4.5250
31
0.0
0
TEXT
8
TEXT
10
9.2750
20
4.2650
30
0.0
40
0.1500
1
esot. 1,85x2,55
50
0.00
72
1
73
2
11
9.2750
21
4.2650
31
0.0
0
TEXT
8
TEXT
10
9.2750
20
4.0250
30
0.0
40
0.1500
1
mikt. 2,20x2,65
50
0.00
72
1
73
2
11
9.2750
21
4.0250
31
0.0
0
LINE
8
OPENINGS
10
10.2000
20
4.0750
30
0.0
11
10.2000
21
4.9750
31
0.0
0
LINE
8
OPENINGS
10
8.3500
20
4.9500
30
0.0
11
9.1000
21
4.9500
31
0.0
0
ARC
8
OPENINGS
10
8.3500
20
4.9500
30
0.0
40
0.7500
50
0.00
51
90.00
0
POLYLINE
8
ROOMS
66
1
70
1
10
0.0
20
0.0
30
0.0
0
VERTEX
8
ROOMS
10
1.6500
20
4.8500
30
0.0
0
VERTEX
8
ROOMS
10
8.2500
20
4.8500
30
0.0
0
VERTEX
8
ROOMS
10
8.2500
20
5.8000
30
0.0
0
VERTEX
8
ROOMS
10
1.6500
20
5.8000
30
0.0
0
SEQEND
8
ROOMS
0
TEXT
8
TEXT
10
4.9500
20
5.6050
30
0.0
40
0.2400
1
Διάδρομος
50
0.00
72
1
73
2
11
4.9500
21
5.6050
31
0.0
0
TEXT
8
TEXT
10
4.9500
20
5.3250
30
0.0
40
0.1700
1
6,27 m2  (kath.)
50
0.00
72
1
73
2
11
4.9500
21
5.3250
31
0.0
0
TEXT
8
TEXT
10
4.9500
20
5.0650
30
0.0
40
0.1500
1
esot. 6,60x0,95
50
0.00
72
1
73
2
11
4.9500
21
5.0650
31
0.0
0
TEXT
8
TEXT
10
4.9500
20
4.8250
30
0.0
40
0.1500
1
mikt. 6,70x1,05
50
0.00
72
1
73
2
11
4.9500
21
4.8250
31
0.0
0
LINE
8
DIMS
10
0.0000
20
-1.2000
30
0.0
11
13.0000
21
-1.2000
31
0.0
0
LINE
8
DIMS
10
0.0000
20
-1.0500
30
0.0
11
0.0000
21
-1.3500
31
0.0
0
LINE
8
DIMS
10
13.0000
20
-1.0500
30
0.0
11
13.0000
21
-1.3500
31
0.0
0
TEXT
8
DIMS
10
6.5000
20
-1.5500
30
0.0
40
0.2800
1
13,00 m (A-D)
50
0.00
72
1
73
2
11
6.5000
21
-1.5500
31
0.0
0
LINE
8
DIMS
10
-1.2000
20
0.0000
30
0.0
11
-1.2000
21
9.7700
31
0.0
0
LINE
8
DIMS
10
-1.0500
20
0.0000
30
0.0
11
-1.3500
21
0.0000
31
0.0
0
LINE
8
DIMS
10
-1.0500
20
9.7700
30
0.0
11
-1.3500
21
9.7700
31
0.0
0
TEXT
8
DIMS
10
-1.5500
20
4.8850
30
0.0
40
0.2800
1
9,77 m (B-N)
50
90.00
72
1
73
2
11
-1.5500
21
4.8850
31
0.0
0
TEXT
8
TITLE
10
6.5000
20
10.4700
30
0.0
40
0.4000
1
Ισόγειο  -  110,56 m2 (mikto)
50
0.00
72
1
73
2
11
6.5000
21
10.4700
31
0.0
0
POLYLINE
8
NORTH
66
1
70
1
10
0.0
20
0.0
30
0.0
0
VERTEX
8
NORTH
10
14.2000
20
9.7700
30
0.0
0
VERTEX
8
NORTH
10
13.8500
20
8.8700
30
0.0
0
VERTEX
8
NORTH
10
14.2000
20
9.1700
30
0.0
0
VERTEX
8
NORTH
10
14.5500
20
8.8700
30
0.0
0
SEQEND
8
NORTH
0
TEXT
8
NORTH
10
14.2000
20
10.1700
30
0.0
40
0.4500
1
B
50
0.00
72
1
73
2
11
14.2000
21
10.1700
31
0.0
0
TEXT
8
TITLE
10
0.0000
20
11.9700
30
0.0
40
0.5000
1
Κατοικία - Πρόταση 1
50
0.00
72
0
73
2
11
0.0000
21
11.9700
31
0.0
0
TEXT
8
TITLE
10
0.0000
20
11.2700
30
0.0
40
0.3000
1
Αμαλιάδα, Π.Ε. Ηλείας  |  Eisodos: Νότος  |  Orofoi: 1
50
0.00
72
0
73
2
11
0.0000
21
11.2700
31
0.0
0
ENDSEC
0
EOF
