0
SECTION
2
HEADER
9
$ACADVER
1
AC1009
9
$DWGCODEPAGE
3
ANSI_1253
9
$INSUNITS
70
6
0
ENDSEC
0
SECTION
2
TABLES
0
TABLE
2
LAYER
70
8
0
LAYER
2
OUTLINE
70
0
62
7
6
CONTINUOUS
0
LAYER
2
WALLS
70
0
62
8
6
CONTINUOUS
0
LAYER
2
ROOMS
70
0
62
3
6
CONTINUOUS
0
LAYER
2
OPENINGS
70
0
62
1
6
CONTINUOUS
0
LAYER
2
TEXT
70
0
62
7
6
CONTINUOUS
0
LAYER
2
DIMS
70
0
62
4
6
CONTINUOUS
0
LAYER
2
NORTH
70
0
62
2
6
CONTINUOUS
0
LAYER
2
TITLE
70
0
62
5
6
CONTINUOUS
0
ENDTAB
0
ENDSEC
0
SECTION
2
ENTITIES
0
POLYLINE
8
OUTLINE
66
1
70
1
10
0.0
20
0.0
30
0.0
0
VERTEX
8
OUTLINE
10
0.0000
20
0.0000
30
0.0
0
VERTEX
8
OUTLINE
10
13.0000
20
0.0000
30
0.0
0
VERTEX
8
OUTLINE
10
13.0000
20
3.2710
30
0.0
0
VERTEX
8
OUTLINE
10
10.0000
20
3.2710
30
0.0
0
VERTEX
8
OUTLINE
10
10.0000
20
10.0000
30
0.0
0
VERTEX
8
OUTLINE
10
0.0000
20
10.0000
30
0.0
0
SEQEND
8
OUTLINE
0
POLYLINE
8
WALLS
66
1
70
1
10
0.0
20
0.0
30
0.0
0
VERTEX
8
WALLS
10
0.3000
20
0.3000
30
0.0
0
VERTEX
8
WALLS
10
12.7000
20
0.3000
30
0.0
0
VERTEX
8
WALLS
10
12.7000
20
2.9710
30
0.0
0
VERTEX
8
WALLS
10
0.3000
20
2.9710
30
0.0
0
SEQEND
8
WALLS
0
POLYLINE
8
WALLS
66
1
70
1
10
0.0
20
0.0
30
0.0
0
VERTEX
8
WALLS
10
0.3000
20
3.5710
30
0.0
0
VERTEX
8
WALLS
10
9.7000
20
3.5710
30
0.0
0
VERTEX
8
WALLS
10
9.7000
20
9.7000
30
0.0
0
VERTEX
8
WALLS
10
0.3000
20
9.7000
30
0.0
0
SEQEND
8
WALLS
0
POLYLINE
8
ROOMS
66
1
70
1
10
0.0
20
0.0
30
0.0
0
VERTEX
8
ROOMS
10
0.3000
20
0.3000
30
0.0
0
VERTEX
8
ROOMS
10
12.7000
20
0.3000
30
0.0
0
VERTEX
8
ROOMS
10
12.7000
20
2.9710
30
0.0
0
VERTEX
8
ROOMS
10
0.3000
20
2.9710
30
0.0
0
SEQEND
8
ROOMS
0
TEXT
8
TEXT
10
6.5000
20
1.9155
30
0.0
40
0.2400
1
Κουζίνα
50
0.00
72
1
73
2
11
6.5000
21
1.9155
31
0.0
0
TEXT
8
TEXT
10
6.5000
20
1.6355
30
0.0
40
0.1700
1
33,12 m2  (kath.)
50
0.00
72
1
73
2
11
6.5000
21
1.6355
31
0.0
0
TEXT
8
TEXT
10
6.5000
20
1.3755
30
0.0
40
0.1500
1
esot. 12,40x2,67
50
0.00
72
1
73
2
11
6.5000
21
1.3755
31
0.0
0
TEXT
8
TEXT
10
6.5000
20
1.1355
30
0.0
40
0.1500
1
mikt. 13,00x3,27
50
0.00
72
1
73
2
11
6.5000
21
1.1355
31
0.0
0
LINE
8
OPENINGS
10
5.3171
20
0.3000
30
0.0
11
7.6829
21
0.3000
31
0.0
0
LINE
8
OPENINGS
10
6.0000
20
0.3000
30
0.0
11
6.0000
21
1.3000
31
0.0
0
ARC
8
OPENINGS
10
6.0000
20
0.3000
30
0.0
40
1.0000
50
0.00
51
90.00
0
POLYLINE
8
ROOMS
66
1
70
1
10
0.0
20
0.0
30
0.0
0
VERTEX
8
ROOMS
10
0.3000
20
6.0290
30
0.0
0
VERTEX
8
ROOMS
10
3.3000
20
6.0290
30
0.0
0
VERTEX
8
ROOMS
10
3.3000
20
9.7000
30
0.0
0
VERTEX
8
ROOMS
10
0.3000
20
9.7000
30
0.0
0
SEQEND
8
ROOMS
0
TEXT
8
TEXT
10
1.8000
20
8.1445
30
0.0
40
0.2400
1
Υπνοδωμάτιο 3
50
0.00
72
1
73
2
11
1.8000
21
8.1445
31
0.0
0
TEXT
8
TEXT
10
1.8000
20
7.8645
30
0.0
40
0.1700
1
11,01 m2  (kath.)
50
0.00
72
1
73
2
11
1.8000
21
7.8645
31
0.0
0
TEXT
8
TEXT
10
1.8000
20
7.6045
30
0.0
40
0.1500
1
esot. 3,00x3,67
50
0.00
72
1
73
2
11
1.8000
21
7.6045
31
0.0
0
TEXT
8
TEXT
10
1.8000
20
7.3645
30
0.0
40
0.1500
1
mikt. 3,35x4,02
50
0.00
72
1
73
2
11
1.8000
21
7.3645
31
0.0
0
LINE
8
OPENINGS
10
1.3500
20
9.7000
30
0.0
11
2.2500
21
9.7000
31
0.0
0
LINE
8
OPENINGS
10
2.3000
20
6.0290
30
0.0
11
2.3000
21
6.9290
31
0.0
0
ARC
8
OPENINGS
10
2.3000
20
6.0290
30
0.0
40
0.9000
50
0.00
51
90.00
0
POLYLINE
8
ROOMS
66
1
70
1
10
0.0
20
0.0
30
0.0
0
VERTEX
8
ROOMS
10
3.4000
20
6.0290
30
0.0
0
VERTEX
8
ROOMS
10
6.4000
20
6.0290
30
0.0
0
VERTEX
8
ROOMS
10
6.4000
20
9.7000
30
0.0
0
VERTEX
8
ROOMS
10
3.4000
20
9.7000
30
0.0
0
SEQEND
8
ROOMS
0
TEXT
8
TEXT
10
4.9000
20
8.1445
30
0.0
40
0.2400
1
Υπνοδωμάτιο 2
50
0.00
72
1
73
2
11
4.9000
21
8.1445
31
0.0
0
TEXT
8
TEXT
10
4.9000
20
7.8645
30
0.0
40
0.1700
1
11,01 m2  (kath.)
50
0.00
72
1
73
2
11
4.9000
21
7.8645
31
0.0
0
TEXT
8
TEXT
10
4.9000
20
7.6045
30
0.0
40
0.1500
1
esot. 3,00x3,67
50
0.00
72
1
73
2
11
4.9000
21
7.6045
31
0.0
0
TEXT
8
TEXT
10
4.9000
20
7.3645
30
0.0
40
0.1500
1
mikt. 3,10x4,02
50
0.00
72
1
73
2
11
4.9000
21
7.3645
31
0.0
0
LINE
8
OPENINGS
10
4.4500
20
9.7000
30
0.0
11
5.3500
21
9.7000
31
0.0
0
LINE
8
OPENINGS
10
4.2500
20
6.0290
30
0.0
11
4.2500
21
6.9290
31
0.0
0
ARC
8
OPENINGS
10
4.2500
20
6.0290
30
0.0
40
0.9000
50
0.00
51
90.00
0
POLYLINE
8
ROOMS
66
1
70
1
10
0.0
20
0.0
30
0.0
0
VERTEX
8
ROOMS
10
6.5000
20
6.0290
30
0.0
0
VERTEX
8
ROOMS
10
9.7000
20
6.0290
30
0.0
0
VERTEX
8
ROOMS
10
9.7000
20
9.7000
30
0.0
0
VERTEX
8
ROOMS
10
6.5000
20
9.7000
30
0.0
0
SEQEND
8
ROOMS
0
TEXT
8
TEXT
10
8.1000
20
8.1445
30
0.0
40
0.2400
1
Κύριο Υπνοδωμάτιο
50
0.00
72
1
73
2
11
8.1000
21
8.1445
31
0.0
0
TEXT
8
TEXT
10
8.1000
20
7.8645
30
0.0
40
0.1700
1
11,75 m2  (kath.)
50
0.00
72
1
73
2
11
8.1000
21
7.8645
31
0.0
0
TEXT
8
TEXT
10
8.1000
20
7.6045
30
0.0
40
0.1500
1
esot. 3,20x3,67
50
0.00
72
1
73
2
11
8.1000
21
7.6045
31
0.0
0
TEXT
8
TEXT
10
8.1000
20
7.3645
30
0.0
40
0.1500
1
mikt. 3,55x4,02
50
0.00
72
1
73
2
11
8.1000
21
7.3645
31
0.0
0
LINE
8
OPENINGS
10
9.7000
20
7.4145
30
0.0
11
9.7000
21
8.3145
31
0.0
0
LINE
8
OPENINGS
10
6.6000
20
6.0290
30
0.0
11
6.6000
21
6.9290
31
0.0
0
ARC
8
OPENINGS
10
6.6000
20
6.0290
30
0.0
40
0.9000
50
0.00
51
90.00
0
POLYLINE
8
ROOMS
66
1
70
1
10
0.0
20
0.0
30
0.0
0
VERTEX
8
ROOMS
10
0.3000
20
3.3210
30
0.0
0
VERTEX
8
ROOMS
10
1.5500
20
3.3210
30
0.0
0
VERTEX
8
ROOMS
10
1.5500
20
5.9290
30
0.0
0
VERTEX
8
ROOMS
10
0.3000
20
5.9290
30
0.0
0
SEQEND
8
ROOMS
0
TEXT
8
TEXT
10
0.9250
20
4.9050
30
0.0
40
0.2400
1
Χωλ
50
0.00
72
1
73
2
11
0.9250
21
4.9050
31
0.0
0
TEXT
8
TEXT
10
0.9250
20
4.6250
30
0.0
40
0.1700
1
3,26 m2  (kath.)
50
0.00
72
1
73
2
11
0.9250
21
4.6250
31
0.0
0
TEXT
8
TEXT
10
0.9250
20
4.3650
30
0.0
40
0.1500
1
esot. 1,25x2,61
50
0.00
72
1
73
2
11
0.9250
21
4.3650
31
0.0
0
TEXT
8
TEXT
10
0.9250
20
4.1250
30
0.0
40
0.1500
1
mikt. 1,60x2,71
50
0.00
72
1
73
2
11
0.9250
21
4.1250
31
0.0
0
LINE
8
OPENINGS
10
1.5500
20
4.9790
30
0.0
11
0.7000
21
4.9790
31
0.0
0
ARC
8
OPENINGS
10
1.5500
20
4.9790
30
0.0
40
0.8500
50
0.00
51
90.00
0
LINE
8
OPENINGS
10
0.4750
20
3.3210
30
0.0
11
0.4750
21
4.2210
31
0.0
0
ARC
8
OPENINGS
10
0.4750
20
3.3210
30
0.0
40
0.9000
50
0.00
51
90.00
0
POLYLINE
8
ROOMS
66
1
70
1
10
0.0
20
0.0
30
0.0
0
VERTEX
8
ROOMS
10
1.6500
20
3.3210
30
0.0
0
VERTEX
8
ROOMS
10
7.7500
20
3.3210
30
0.0
0
VERTEX
8
ROOMS
10
7.7500
20
4.7790
30
0.0
0
VERTEX
8
ROOMS
10
1.6500
20
4.7790
30
0.0
0
SEQEND
8
ROOMS
0
TEXT
8
TEXT
10
4.7000
20
4.3300
30
0.0
40
0.2400
1
WC
50
0.00
72
1
73
2
11
4.7000
21
4.3300
31
0.0
0
TEXT
8
TEXT
10
4.7000
20
4.0500
30
0.0
40
0.1700
1
8,89 m2  (kath.)
50
0.00
72
1
73
2
11
4.7000
21
4.0500
31
0.0
0
TEXT
8
TEXT
10
4.7000
20
3.7900
30
0.0
40
0.1500
1
esot. 6,10x1,46
50
0.00
72
1
73
2
11
4.7000
21
3.7900
31
0.0
0
TEXT
8
TEXT
10
4.7000
20
3.5500
30
0.0
40
0.1500
1
mikt. 6,20x1,56
50
0.00
72
1
73
2
11
4.7000
21
3.5500
31
0.0
0
LINE
8
OPENINGS
10
4.3500
20
4.7790
30
0.0
11
4.3500
21
4.0790
31
0.0
0
ARC
8
OPENINGS
10
4.3500
20
4.7790
30
0.0
40
0.7000
50
270.00
51
360.00
0
POLYLINE
8
ROOMS
66
1
70
1
10
0.0
20
0.0
30
0.0
0
VERTEX
8
ROOMS
10
7.8500
20
3.3210
30
0.0
0
VERTEX
8
ROOMS
10
9.7000
20
3.3210
30
0.0
0
VERTEX
8
ROOMS
10
9.7000
20
5.9290
30
0.0
0
VERTEX
8
ROOMS
10
7.8500
20
5.9290
30
0.0
0
SEQEND
8
ROOMS
0
TEXT
8
TEXT
10
8.7750
20
4.9050
30
0.0
40
0.2400
1
Λουτρό
50
0.00
72
1
73
2
11
8.7750
21
4.9050
31
0.0
0
TEXT
8
TEXT
10
8.7750
20
4.6250
30
0.0
40
0.1700
1
4,82 m2  (kath.)
50
0.00
72
1
73
2
11
8.7750
21
4.6250
31
0.0
0
TEXT
8
TEXT
10
8.7750
20
4.3650
30
0.0
40
0.1500
1
esot. 1,85x2,61
50
0.00
72
1
73
2
11
8.7750
21
4.3650
31
0.0
0
TEXT
8
TEXT
10
8.7750
20
4.1250
30
0.0
40
0.1500
1
mikt. 2,20x2,71
50
0.00
72
1
73
2
11
8.7750
21
4.1250
31
0.0
0
LINE
8
OPENINGS
10
9.7000
20
4.1750
30
0.0
11
9.7000
21
5.0750
31
0.0
0
LINE
8
OPENINGS
10
7.8500
20
5.0040
30
0.0
11
8.6500
21
5.0040
31
0.0
0
ARC
8
OPENINGS
10
7.8500
20
5.0040
30
0.0
40
0.8000
50
0.00
51
90.00
0
POLYLINE
8
ROOMS
66
1
70
1
10
0.0
20
0.0
30
0.0
0
VERTEX
8
ROOMS
10
1.6500
20
4.8790
30
0.0
0
VERTEX
8
ROOMS
10
7.7500
20
4.8790
30
0.0
0
VERTEX
8
ROOMS
10
7.7500
20
5.9290
30
0.0
0
VERTEX
8
ROOMS
10
1.6500
20
5.9290
30
0.0
0
SEQEND
8
ROOMS
0
TEXT
8
TEXT
10
4.7000
20
5.6840
30
0.0
40
0.2400
1
Διάδρομος
50
0.00
72
1
73
2
11
4.7000
21
5.6840
31
0.0
0
TEXT
8
TEXT
10
4.7000
20
5.4040
30
0.0
40
0.1700
1
6,40 m2  (kath.)
50
0.00
72
1
73
2
11
4.7000
21
5.4040
31
0.0
0
TEXT
8
TEXT
10
4.7000
20
5.1440
30
0.0
40
0.1500
1
esot. 6,10x1,05
50
0.00
72
1
73
2
11
4.7000
21
5.1440
31
0.0
0
TEXT
8
TEXT
10
4.7000
20
4.9040
30
0.0
40
0.1500
1
mikt. 6,20x1,15
50
0.00
72
1
73
2
11
4.7000
21
4.9040
31
0.0
0
LINE
8
DIMS
10
0.0000
20
-1.2000
30
0.0
11
13.0000
21
-1.2000
31
0.0
0
LINE
8
DIMS
10
0.0000
20
-1.0500
30
0.0
11
0.0000
21
-1.3500
31
0.0
0
LINE
8
DIMS
10
13.0000
20
-1.0500
30
0.0
11
13.0000
21
-1.3500
31
0.0
0
TEXT
8
DIMS
10
6.5000
20
-1.5500
30
0.0
40
0.2800
1
13,00 m (A-D)
50
0.00
72
1
73
2
11
6.5000
21
-1.5500
31
0.0
0
LINE
8
DIMS
10
-1.2000
20
0.0000
30
0.0
11
-1.2000
21
10.0000
31
0.0
0
LINE
8
DIMS
10
-1.0500
20
0.0000
30
0.0
11
-1.3500
21
0.0000
31
0.0
0
LINE
8
DIMS
10
-1.0500
20
10.0000
30
0.0
11
-1.3500
21
10.0000
31
0.0
0
TEXT
8
DIMS
10
-1.5500
20
5.0000
30
0.0
40
0.2800
1
10,00 m (B-N)
50
90.00
72
1
73
2
11
-1.5500
21
5.0000
31
0.0
0
TEXT
8
TITLE
10
6.5000
20
10.7000
30
0.0
40
0.4000
1
Ισόγειο  -  109,81 m2 (mikto)
50
0.00
72
1
73
2
11
6.5000
21
10.7000
31
0.0
0
POLYLINE
8
NORTH
66
1
70
1
10
0.0
20
0.0
30
0.0
0
VERTEX
8
NORTH
10
14.2000
20
10.0000
30
0.0
0
VERTEX
8
NORTH
10
13.8500
20
9.1000
30
0.0
0
VERTEX
8
NORTH
10
14.2000
20
9.4000
30
0.0
0
VERTEX
8
NORTH
10
14.5500
20
9.1000
30
0.0
0
SEQEND
8
NORTH
0
TEXT
8
NORTH
10
14.2000
20
10.4000
30
0.0
40
0.4500
1
B
50
0.00
72
1
73
2
11
14.2000
21
10.4000
31
0.0
0
TEXT
8
TITLE
10
0.0000
20
12.2000
30
0.0
40
0.5000
1
Κατοικία - Πρόταση 2
50
0.00
72
0
73
2
11
0.0000
21
12.2000
31
0.0
0
TEXT
8
TITLE
10
0.0000
20
11.5000
30
0.0
40
0.3000
1
Αμαλιάδα, Π.Ε. Ηλείας  |  Eisodos: Νότος  |  Orofoi: 1
50
0.00
72
0
73
2
11
0.0000
21
11.5000
31
0.0
0
ENDSEC
0
EOF
