0
SECTION
2
HEADER
9
$ACADVER
1
AC1009
9
$DWGCODEPAGE
3
ANSI_1253
9
$INSUNITS
70
6
0
ENDSEC
0
SECTION
2
TABLES
0
TABLE
2
LAYER
70
8
0
LAYER
2
OUTLINE
70
0
62
7
6
CONTINUOUS
0
LAYER
2
WALLS
70
0
62
8
6
CONTINUOUS
0
LAYER
2
ROOMS
70
0
62
3
6
CONTINUOUS
0
LAYER
2
OPENINGS
70
0
62
1
6
CONTINUOUS
0
LAYER
2
TEXT
70
0
62
7
6
CONTINUOUS
0
LAYER
2
DIMS
70
0
62
4
6
CONTINUOUS
0
LAYER
2
NORTH
70
0
62
2
6
CONTINUOUS
0
LAYER
2
TITLE
70
0
62
5
6
CONTINUOUS
0
ENDTAB
0
ENDSEC
0
SECTION
2
ENTITIES
0
POLYLINE
8
OUTLINE
66
1
70
1
10
0.0
20
0.0
30
0.0
0
VERTEX
8
OUTLINE
10
0.0000
20
0.0000
30
0.0
0
VERTEX
8
OUTLINE
10
13.0000
20
0.0000
30
0.0
0
VERTEX
8
OUTLINE
10
13.0000
20
9.4650
30
0.0
0
VERTEX
8
OUTLINE
10
0.0000
20
9.4650
30
0.0
0
SEQEND
8
OUTLINE
0
POLYLINE
8
WALLS
66
1
70
1
10
0.0
20
0.0
30
0.0
0
VERTEX
8
WALLS
10
0.3000
20
0.3000
30
0.0
0
VERTEX
8
WALLS
10
12.7000
20
0.3000
30
0.0
0
VERTEX
8
WALLS
10
12.7000
20
3.4150
30
0.0
0
VERTEX
8
WALLS
10
0.3000
20
3.4150
30
0.0
0
SEQEND
8
WALLS
0
POLYLINE
8
WALLS
66
1
70
1
10
0.0
20
0.0
30
0.0
0
VERTEX
8
WALLS
10
0.3000
20
4.0150
30
0.0
0
VERTEX
8
WALLS
10
12.7000
20
4.0150
30
0.0
0
VERTEX
8
WALLS
10
12.7000
20
9.1650
30
0.0
0
VERTEX
8
WALLS
10
0.3000
20
9.1650
30
0.0
0
SEQEND
8
WALLS
0
POLYLINE
8
ROOMS
66
1
70
1
10
0.0
20
0.0
30
0.0
0
VERTEX
8
ROOMS
10
0.3000
20
0.3000
30
0.0
0
VERTEX
8
ROOMS
10
3.4826
20
0.3000
30
0.0
0
VERTEX
8
ROOMS
10
3.4826
20
3.6650
30
0.0
0
VERTEX
8
ROOMS
10
0.3000
20
3.6650
30
0.0
0
SEQEND
8
ROOMS
0
TEXT
8
TEXT
10
1.8913
20
2.2625
30
0.0
40
0.2400
1
Κουζίνα
50
0.00
72
1
73
2
11
1.8913
21
2.2625
31
0.0
0
TEXT
8
TEXT
10
1.8913
20
1.9825
30
0.0
40
0.1700
1
10,71 m2  (kath.)
50
0.00
72
1
73
2
11
1.8913
21
1.9825
31
0.0
0
TEXT
8
TEXT
10
1.8913
20
1.7225
30
0.0
40
0.1500
1
esot. 3,18x3,37
50
0.00
72
1
73
2
11
1.8913
21
1.7225
31
0.0
0
TEXT
8
TEXT
10
1.8913
20
1.4825
30
0.0
40
0.1500
1
mikt. 3,53x3,71
50
0.00
72
1
73
2
11
1.8913
21
1.4825
31
0.0
0
LINE
8
OPENINGS
10
1.4413
20
0.3000
30
0.0
11
2.3413
21
0.3000
31
0.0
0
POLYLINE
8
ROOMS
66
1
70
1
10
0.0
20
0.0
30
0.0
0
VERTEX
8
ROOMS
10
3.5826
20
0.3000
30
0.0
0
VERTEX
8
ROOMS
10
7.8261
20
0.3000
30
0.0
0
VERTEX
8
ROOMS
10
7.8261
20
3.6650
30
0.0
0
VERTEX
8
ROOMS
10
3.5826
20
3.6650
30
0.0
0
SEQEND
8
ROOMS
0
TEXT
8
TEXT
10
5.7043
20
2.2625
30
0.0
40
0.2400
1
Σαλόνι
50
0.00
72
1
73
2
11
5.7043
21
2.2625
31
0.0
0
TEXT
8
TEXT
10
5.7043
20
1.9825
30
0.0
40
0.1700
1
14,28 m2  (kath.)
50
0.00
72
1
73
2
11
5.7043
21
1.9825
31
0.0
0
TEXT
8
TEXT
10
5.7043
20
1.7225
30
0.0
40
0.1500
1
esot. 4,24x3,37
50
0.00
72
1
73
2
11
5.7043
21
1.7225
31
0.0
0
TEXT
8
TEXT
10
5.7043
20
1.4825
30
0.0
40
0.1500
1
mikt. 4,34x3,71
50
0.00
72
1
73
2
11
5.7043
21
1.4825
31
0.0
0
LINE
8
OPENINGS
10
5.1944
20
0.3000
30
0.0
11
6.2143
21
0.3000
31
0.0
0
POLYLINE
8
ROOMS
66
1
70
1
10
0.0
20
0.0
30
0.0
0
VERTEX
8
ROOMS
10
7.9261
20
0.3000
30
0.0
0
VERTEX
8
ROOMS
10
12.7000
20
0.3000
30
0.0
0
VERTEX
8
ROOMS
10
12.7000
20
3.6650
30
0.0
0
VERTEX
8
ROOMS
10
7.9261
20
3.6650
30
0.0
0
SEQEND
8
ROOMS
0
TEXT
8
TEXT
10
10.3130
20
2.2625
30
0.0
40
0.2400
1
Καθιστικό
50
0.00
72
1
73
2
11
10.3130
21
2.2625
31
0.0
0
TEXT
8
TEXT
10
10.3130
20
1.9825
30
0.0
40
0.1700
1
16,06 m2  (kath.)
50
0.00
72
1
73
2
11
10.3130
21
1.9825
31
0.0
0
TEXT
8
TEXT
10
10.3130
20
1.7225
30
0.0
40
0.1500
1
esot. 4,77x3,37
50
0.00
72
1
73
2
11
10.3130
21
1.7225
31
0.0
0
TEXT
8
TEXT
10
10.3130
20
1.4825
30
0.0
40
0.1500
1
mikt. 5,12x3,71
50
0.00
72
1
73
2
11
10.3130
21
1.4825
31
0.0
0
LINE
8
OPENINGS
10
9.7393
20
0.3000
30
0.0
11
10.8868
21
0.3000
31
0.0
0
LINE
8
OPENINGS
10
9.8130
20
0.3000
30
0.0
11
9.8130
21
1.3000
31
0.0
0
ARC
8
OPENINGS
10
9.8130
20
0.3000
30
0.0
40
1.0000
50
0.00
51
90.00
0
POLYLINE
8
ROOMS
66
1
70
1
10
0.0
20
0.0
30
0.0
0
VERTEX
8
ROOMS
10
0.3000
20
3.7650
30
0.0
0
VERTEX
8
ROOMS
10
6.8604
20
3.7650
30
0.0
0
VERTEX
8
ROOMS
10
6.8604
20
5.2650
30
0.0
0
VERTEX
8
ROOMS
10
0.3000
20
5.2650
30
0.0
0
SEQEND
8
ROOMS
0
TEXT
8
TEXT
10
3.5802
20
4.7950
30
0.0
40
0.2400
1
Κλιμακοστάσιο
50
0.00
72
1
73
2
11
3.5802
21
4.7950
31
0.0
0
TEXT
8
TEXT
10
3.5802
20
4.5150
30
0.0
40
0.1700
1
9,84 m2  (kath.)
50
0.00
72
1
73
2
11
3.5802
21
4.5150
31
0.0
0
TEXT
8
TEXT
10
3.5802
20
4.2550
30
0.0
40
0.1500
1
esot. 6,56x1,50
50
0.00
72
1
73
2
11
3.5802
21
4.2550
31
0.0
0
TEXT
8
TEXT
10
3.5802
20
4.0150
30
0.0
40
0.1500
1
mikt. 6,91x1,60
50
0.00
72
1
73
2
11
3.5802
21
4.0150
31
0.0
0
LINE
8
OPENINGS
10
5.8604
20
5.2650
30
0.0
11
5.8604
21
4.3650
31
0.0
0
ARC
8
OPENINGS
10
5.8604
20
5.2650
30
0.0
40
0.9000
50
270.00
51
360.00
0
POLYLINE
8
ROOMS
66
1
70
1
10
0.0
20
0.0
30
0.0
0
VERTEX
8
ROOMS
10
6.9604
20
3.7650
30
0.0
0
VERTEX
8
ROOMS
10
9.1472
20
3.7650
30
0.0
0
VERTEX
8
ROOMS
10
9.1472
20
5.2650
30
0.0
0
VERTEX
8
ROOMS
10
6.9604
20
5.2650
30
0.0
0
SEQEND
8
ROOMS
0
TEXT
8
TEXT
10
8.0538
20
4.7950
30
0.0
40
0.2400
1
WC
50
0.00
72
1
73
2
11
8.0538
21
4.7950
31
0.0
0
TEXT
8
TEXT
10
8.0538
20
4.5150
30
0.0
40
0.1700
1
3,28 m2  (kath.)
50
0.00
72
1
73
2
11
8.0538
21
4.5150
31
0.0
0
TEXT
8
TEXT
10
8.0538
20
4.2550
30
0.0
40
0.1500
1
esot. 2,19x1,50
50
0.00
72
1
73
2
11
8.0538
21
4.2550
31
0.0
0
TEXT
8
TEXT
10
8.0538
20
4.0150
30
0.0
40
0.1500
1
mikt. 2,29x1,60
50
0.00
72
1
73
2
11
8.0538
21
4.0150
31
0.0
0
LINE
8
OPENINGS
10
7.0604
20
5.2650
30
0.0
11
7.0604
21
4.5650
31
0.0
0
ARC
8
OPENINGS
10
7.0604
20
5.2650
30
0.0
40
0.7000
50
270.00
51
360.00
0
POLYLINE
8
ROOMS
66
1
70
1
10
0.0
20
0.0
30
0.0
0
VERTEX
8
ROOMS
10
9.2472
20
3.7650
30
0.0
0
VERTEX
8
ROOMS
10
12.7000
20
3.7650
30
0.0
0
VERTEX
8
ROOMS
10
12.7000
20
5.2650
30
0.0
0
VERTEX
8
ROOMS
10
9.2472
20
5.2650
30
0.0
0
SEQEND
8
ROOMS
0
TEXT
8
TEXT
10
10.9736
20
4.7950
30
0.0
40
0.2400
1
Αποθήκη
50
0.00
72
1
73
2
11
10.9736
21
4.7950
31
0.0
0
TEXT
8
TEXT
10
10.9736
20
4.5150
30
0.0
40
0.1700
1
5,18 m2  (kath.)
50
0.00
72
1
73
2
11
10.9736
21
4.5150
31
0.0
0
TEXT
8
TEXT
10
10.9736
20
4.2550
30
0.0
40
0.1500
1
esot. 3,45x1,50
50
0.00
72
1
73
2
11
10.9736
21
4.2550
31
0.0
0
TEXT
8
TEXT
10
10.9736
20
4.0150
30
0.0
40
0.1500
1
mikt. 3,80x1,60
50
0.00
72
1
73
2
11
10.9736
21
4.0150
31
0.0
0
LINE
8
OPENINGS
10
9.3472
20
5.2650
30
0.0
11
9.3472
21
4.4650
31
0.0
0
ARC
8
OPENINGS
10
9.3472
20
5.2650
30
0.0
40
0.8000
50
270.00
51
360.00
0
LINE
8
OPENINGS
10
10.5236
20
3.7650
30
0.0
11
10.5236
21
4.6650
31
0.0
0
ARC
8
OPENINGS
10
10.5236
20
3.7650
30
0.0
40
0.9000
50
0.00
51
90.00
0
POLYLINE
8
ROOMS
66
1
70
1
10
0.0
20
0.0
30
0.0
0
VERTEX
8
ROOMS
10
0.3000
20
5.3650
30
0.0
0
VERTEX
8
ROOMS
10
12.7000
20
5.3650
30
0.0
0
VERTEX
8
ROOMS
10
12.7000
20
6.4150
30
0.0
0
VERTEX
8
ROOMS
10
0.3000
20
6.4150
30
0.0
0
SEQEND
8
ROOMS
0
TEXT
8
TEXT
10
6.5000
20
6.1700
30
0.0
40
0.2400
1
Διάδρομος
50
0.00
72
1
73
2
11
6.5000
21
6.1700
31
0.0
0
TEXT
8
TEXT
10
6.5000
20
5.8900
30
0.0
40
0.1700
1
13,02 m2  (kath.)
50
0.00
72
1
73
2
11
6.5000
21
5.8900
31
0.0
0
TEXT
8
TEXT
10
6.5000
20
5.6300
30
0.0
40
0.1500
1
esot. 12,40x1,05
50
0.00
72
1
73
2
11
6.5000
21
5.6300
31
0.0
0
TEXT
8
TEXT
10
6.5000
20
5.3900
30
0.0
40
0.1500
1
mikt. 12,50x1,15
50
0.00
72
1
73
2
11
6.5000
21
5.3900
31
0.0
0
LINE
8
DIMS
10
0.0000
20
-1.2000
30
0.0
11
13.0000
21
-1.2000
31
0.0
0
LINE
8
DIMS
10
0.0000
20
-1.0500
30
0.0
11
0.0000
21
-1.3500
31
0.0
0
LINE
8
DIMS
10
13.0000
20
-1.0500
30
0.0
11
13.0000
21
-1.3500
31
0.0
0
TEXT
8
DIMS
10
6.5000
20
-1.5500
30
0.0
40
0.2800
1
13,00 m (A-D)
50
0.00
72
1
73
2
11
6.5000
21
-1.5500
31
0.0
0
LINE
8
DIMS
10
-1.2000
20
0.0000
30
0.0
11
-1.2000
21
9.4600
31
0.0
0
LINE
8
DIMS
10
-1.0500
20
0.0000
30
0.0
11
-1.3500
21
0.0000
31
0.0
0
LINE
8
DIMS
10
-1.0500
20
9.4600
30
0.0
11
-1.3500
21
9.4600
31
0.0
0
TEXT
8
DIMS
10
-1.5500
20
4.7300
30
0.0
40
0.2800
1
9,46 m (B-N)
50
90.00
72
1
73
2
11
-1.5500
21
4.7300
31
0.0
0
TEXT
8
TITLE
10
6.5000
20
10.1600
30
0.0
40
0.4000
1
Ισόγειο  -  123,05 m2 (mikto)
50
0.00
72
1
73
2
11
6.5000
21
10.1600
31
0.0
0
POLYLINE
8
NORTH
66
1
70
1
10
0.0
20
0.0
30
0.0
0
VERTEX
8
NORTH
10
14.2000
20
9.4600
30
0.0
0
VERTEX
8
NORTH
10
13.8500
20
8.5600
30
0.0
0
VERTEX
8
NORTH
10
14.2000
20
8.8600
30
0.0
0
VERTEX
8
NORTH
10
14.5500
20
8.5600
30
0.0
0
SEQEND
8
NORTH
0
TEXT
8
NORTH
10
14.2000
20
9.8600
30
0.0
40
0.4500
1
B
50
0.00
72
1
73
2
11
14.2000
21
9.8600
31
0.0
0
POLYLINE
8
OUTLINE
66
1
70
1
10
0.0
20
0.0
30
0.0
0
VERTEX
8
OUTLINE
10
17.0000
20
0.0000
30
0.0
0
VERTEX
8
OUTLINE
10
30.0000
20
0.0000
30
0.0
0
VERTEX
8
OUTLINE
10
30.0000
20
9.4600
30
0.0
0
VERTEX
8
OUTLINE
10
17.0000
20
9.4600
30
0.0
0
SEQEND
8
OUTLINE
0
POLYLINE
8
WALLS
66
1
70
1
10
0.0
20
0.0
30
0.0
0
VERTEX
8
WALLS
10
17.3000
20
0.3000
30
0.0
0
VERTEX
8
WALLS
10
29.7000
20
0.3000
30
0.0
0
VERTEX
8
WALLS
10
29.7000
20
9.1600
30
0.0
0
VERTEX
8
WALLS
10
17.3000
20
9.1600
30
0.0
0
SEQEND
8
WALLS
0
POLYLINE
8
ROOMS
66
1
70
1
10
0.0
20
0.0
30
0.0
0
VERTEX
8
ROOMS
10
17.3000
20
2.8000
30
0.0
0
VERTEX
8
ROOMS
10
21.1526
20
2.8000
30
0.0
0
VERTEX
8
ROOMS
10
21.1526
20
9.1600
30
0.0
0
VERTEX
8
ROOMS
10
17.3000
20
9.1600
30
0.0
0
SEQEND
8
ROOMS
0
TEXT
8
TEXT
10
19.2263
20
6.2600
30
0.0
40
0.2400
1
Υπνοδωμάτιο 3
50
0.00
72
1
73
2
11
19.2263
21
6.2600
31
0.0
0
TEXT
8
TEXT
10
19.2263
20
5.9800
30
0.0
40
0.1700
1
24,50 m2  (kath.)
50
0.00
72
1
73
2
11
19.2263
21
5.9800
31
0.0
0
TEXT
8
TEXT
10
19.2263
20
5.7200
30
0.0
40
0.1500
1
esot. 3,85x6,36
50
0.00
72
1
73
2
11
19.2263
21
5.7200
31
0.0
0
TEXT
8
TEXT
10
19.2263
20
5.4800
30
0.0
40
0.1500
1
mikt. 4,20x6,71
50
0.00
72
1
73
2
11
19.2263
21
5.4800
31
0.0
0
LINE
8
OPENINGS
10
18.3512
20
9.1600
30
0.0
11
20.1014
21
9.1600
31
0.0
0
LINE
8
OPENINGS
10
20.1526
20
2.8000
30
0.0
11
20.1526
21
3.7000
31
0.0
0
ARC
8
OPENINGS
10
20.1526
20
2.8000
30
0.0
40
0.9000
50
0.00
51
90.00
0
POLYLINE
8
ROOMS
66
1
70
1
10
0.0
20
0.0
30
0.0
0
VERTEX
8
ROOMS
10
21.2526
20
2.8000
30
0.0
0
VERTEX
8
ROOMS
10
25.1053
20
2.8000
30
0.0
0
VERTEX
8
ROOMS
10
25.1053
20
9.1600
30
0.0
0
VERTEX
8
ROOMS
10
21.2526
20
9.1600
30
0.0
0
SEQEND
8
ROOMS
0
TEXT
8
TEXT
10
23.1789
20
6.2600
30
0.0
40
0.2400
1
Υπνοδωμάτιο 2
50
0.00
72
1
73
2
11
23.1789
21
6.2600
31
0.0
0
TEXT
8
TEXT
10
23.1789
20
5.9800
30
0.0
40
0.1700
1
24,50 m2  (kath.)
50
0.00
72
1
73
2
11
23.1789
21
5.9800
31
0.0
0
TEXT
8
TEXT
10
23.1789
20
5.7200
30
0.0
40
0.1500
1
esot. 3,85x6,36
50
0.00
72
1
73
2
11
23.1789
21
5.7200
31
0.0
0
TEXT
8
TEXT
10
23.1789
20
5.4800
30
0.0
40
0.1500
1
mikt. 3,95x6,71
50
0.00
72
1
73
2
11
23.1789
21
5.4800
31
0.0
0
LINE
8
OPENINGS
10
22.3038
20
9.1600
30
0.0
11
24.0540
21
9.1600
31
0.0
0
LINE
8
OPENINGS
10
23.2500
20
2.8000
30
0.0
11
23.2500
21
3.7000
31
0.0
0
ARC
8
OPENINGS
10
23.2500
20
2.8000
30
0.0
40
0.9000
50
0.00
51
90.00
0
POLYLINE
8
ROOMS
66
1
70
1
10
0.0
20
0.0
30
0.0
0
VERTEX
8
ROOMS
10
25.2053
20
2.8000
30
0.0
0
VERTEX
8
ROOMS
10
29.7000
20
2.8000
30
0.0
0
VERTEX
8
ROOMS
10
29.7000
20
9.1600
30
0.0
0
VERTEX
8
ROOMS
10
25.2053
20
9.1600
30
0.0
0
SEQEND
8
ROOMS
0
TEXT
8
TEXT
10
27.4526
20
6.2600
30
0.0
40
0.2400
1
Κύριο Υπνοδωμάτιο
50
0.00
72
1
73
2
11
27.4526
21
6.2600
31
0.0
0
TEXT
8
TEXT
10
27.4526
20
5.9800
30
0.0
40
0.1700
1
28,59 m2  (kath.)
50
0.00
72
1
73
2
11
27.4526
21
5.9800
31
0.0
0
TEXT
8
TEXT
10
27.4526
20
5.7200
30
0.0
40
0.1500
1
esot. 4,49x6,36
50
0.00
72
1
73
2
11
27.4526
21
5.7200
31
0.0
0
TEXT
8
TEXT
10
27.4526
20
5.4800
30
0.0
40
0.1500
1
mikt. 4,84x6,71
50
0.00
72
1
73
2
11
27.4526
21
5.4800
31
0.0
0
LINE
8
OPENINGS
10
29.7000
20
4.9591
30
0.0
11
29.7000
21
7.0009
31
0.0
0
LINE
8
OPENINGS
10
25.3053
20
2.8000
30
0.0
11
25.3053
21
3.7000
31
0.0
0
ARC
8
OPENINGS
10
25.3053
20
2.8000
30
0.0
40
0.9000
50
0.00
51
90.00
0
POLYLINE
8
ROOMS
66
1
70
1
10
0.0
20
0.0
30
0.0
0
VERTEX
8
ROOMS
10
17.3000
20
0.0500
30
0.0
0
VERTEX
8
ROOMS
10
19.5500
20
0.0500
30
0.0
0
VERTEX
8
ROOMS
10
19.5500
20
2.7000
30
0.0
0
VERTEX
8
ROOMS
10
17.3000
20
2.7000
30
0.0
0
SEQEND
8
ROOMS
0
TEXT
8
TEXT
10
18.4250
20
1.6550
30
0.0
40
0.2400
1
Κλιμακοστάσιο
50
0.00
72
1
73
2
11
18.4250
21
1.6550
31
0.0
0
TEXT
8
TEXT
10
18.4250
20
1.3750
30
0.0
40
0.1700
1
5,96 m2  (kath.)
50
0.00
72
1
73
2
11
18.4250
21
1.3750
31
0.0
0
TEXT
8
TEXT
10
18.4250
20
1.1150
30
0.0
40
0.1500
1
esot. 2,25x2,65
50
0.00
72
1
73
2
11
18.4250
21
1.1150
31
0.0
0
TEXT
8
TEXT
10
18.4250
20
0.8750
30
0.0
40
0.1500
1
mikt. 2,60x2,75
50
0.00
72
1
73
2
11
18.4250
21
0.8750
31
0.0
0
LINE
8
OPENINGS
10
19.5500
20
1.7500
30
0.0
11
18.7000
21
1.7500
31
0.0
0
ARC
8
OPENINGS
10
19.5500
20
1.7500
30
0.0
40
0.8500
50
0.00
51
90.00
0
POLYLINE
8
ROOMS
66
1
70
1
10
0.0
20
0.0
30
0.0
0
VERTEX
8
ROOMS
10
27.8500
20
0.0500
30
0.0
0
VERTEX
8
ROOMS
10
29.7000
20
0.0500
30
0.0
0
VERTEX
8
ROOMS
10
29.7000
20
2.7000
30
0.0
0
VERTEX
8
ROOMS
10
27.8500
20
2.7000
30
0.0
0
SEQEND
8
ROOMS
0
TEXT
8
TEXT
10
28.7750
20
1.6550
30
0.0
40
0.2400
1
Λουτρό
50
0.00
72
1
73
2
11
28.7750
21
1.6550
31
0.0
0
TEXT
8
TEXT
10
28.7750
20
1.3750
30
0.0
40
0.1700
1
4,90 m2  (kath.)
50
0.00
72
1
73
2
11
28.7750
21
1.3750
31
0.0
0
TEXT
8
TEXT
10
28.7750
20
1.1150
30
0.0
40
0.1500
1
esot. 1,85x2,65
50
0.00
72
1
73
2
11
28.7750
21
1.1150
31
0.0
0
TEXT
8
TEXT
10
28.7750
20
0.8750
30
0.0
40
0.1500
1
mikt. 2,20x2,75
50
0.00
72
1
73
2
11
28.7750
21
0.8750
31
0.0
0
LINE
8
OPENINGS
10
29.7000
20
0.9250
30
0.0
11
29.7000
21
1.8250
31
0.0
0
LINE
8
OPENINGS
10
27.8500
20
1.7750
30
0.0
11
28.6500
21
1.7750
31
0.0
0
ARC
8
OPENINGS
10
27.8500
20
1.7750
30
0.0
40
0.8000
50
0.00
51
90.00
0
POLYLINE
8
ROOMS
66
1
70
1
10
0.0
20
0.0
30
0.0
0
VERTEX
8
ROOMS
10
19.6500
20
1.6500
30
0.0
0
VERTEX
8
ROOMS
10
27.7500
20
1.6500
30
0.0
0
VERTEX
8
ROOMS
10
27.7500
20
2.7000
30
0.0
0
VERTEX
8
ROOMS
10
19.6500
20
2.7000
30
0.0
0
SEQEND
8
ROOMS
0
TEXT
8
TEXT
10
23.7000
20
2.4550
30
0.0
40
0.2400
1
Διάδρομος
50
0.00
72
1
73
2
11
23.7000
21
2.4550
31
0.0
0
TEXT
8
TEXT
10
23.7000
20
2.1750
30
0.0
40
0.1700
1
8,50 m2  (kath.)
50
0.00
72
1
73
2
11
23.7000
21
2.1750
31
0.0
0
TEXT
8
TEXT
10
23.7000
20
1.9150
30
0.0
40
0.1500
1
esot. 8,10x1,05
50
0.00
72
1
73
2
11
23.7000
21
1.9150
31
0.0
0
TEXT
8
TEXT
10
23.7000
20
1.6750
30
0.0
40
0.1500
1
mikt. 8,20x1,15
50
0.00
72
1
73
2
11
23.7000
21
1.6750
31
0.0
0
LINE
8
DIMS
10
17.0000
20
-1.2000
30
0.0
11
30.0000
21
-1.2000
31
0.0
0
LINE
8
DIMS
10
17.0000
20
-1.0500
30
0.0
11
17.0000
21
-1.3500
31
0.0
0
LINE
8
DIMS
10
30.0000
20
-1.0500
30
0.0
11
30.0000
21
-1.3500
31
0.0
0
TEXT
8
DIMS
10
23.5000
20
-1.5500
30
0.0
40
0.2800
1
13,00 m (A-D)
50
0.00
72
1
73
2
11
23.5000
21
-1.5500
31
0.0
0
LINE
8
DIMS
10
15.8000
20
0.0000
30
0.0
11
15.8000
21
9.4600
31
0.0
0
LINE
8
DIMS
10
15.9500
20
0.0000
30
0.0
11
15.6500
21
0.0000
31
0.0
0
LINE
8
DIMS
10
15.9500
20
9.4600
30
0.0
11
15.6500
21
9.4600
31
0.0
0
TEXT
8
DIMS
10
15.4500
20
4.7300
30
0.0
40
0.2800
1
9,46 m (B-N)
50
90.00
72
1
73
2
11
15.4500
21
4.7300
31
0.0
0
TEXT
8
TITLE
10
23.5000
20
10.1600
30
0.0
40
0.4000
1
Α' Όροφος  -  122,98 m2 (mikto)
50
0.00
72
1
73
2
11
23.5000
21
10.1600
31
0.0
0
POLYLINE
8
NORTH
66
1
70
1
10
0.0
20
0.0
30
0.0
0
VERTEX
8
NORTH
10
31.2000
20
9.4600
30
0.0
0
VERTEX
8
NORTH
10
30.8500
20
8.5600
30
0.0
0
VERTEX
8
NORTH
10
31.2000
20
8.8600
30
0.0
0
VERTEX
8
NORTH
10
31.5500
20
8.5600
30
0.0
0
SEQEND
8
NORTH
0
TEXT
8
NORTH
10
31.2000
20
9.8600
30
0.0
40
0.4500
1
B
50
0.00
72
1
73
2
11
31.2000
21
9.8600
31
0.0
0
TEXT
8
TITLE
10
0.0000
20
11.6600
30
0.0
40
0.5000
1
Μονοκατοικία Αμαλιάδας - Πρόταση 2
50
0.00
72
0
73
2
11
0.0000
21
11.6600
31
0.0
0
TEXT
8
TITLE
10
0.0000
20
10.9600
30
0.0
40
0.3000
1
Αμαλιάδα, Π.Ε. Ηλείας  |  Eisodos: Νότος  |  Orofoi: 2
50
0.00
72
0
73
2
11
0.0000
21
10.9600
31
0.0
0
ENDSEC
0
EOF
