0
SECTION
2
HEADER
9
$ACADVER
1
AC1009
9
$DWGCODEPAGE
3
ANSI_1253
9
$INSUNITS
70
6
0
ENDSEC
0
SECTION
2
TABLES
0
TABLE
2
LAYER
70
8
0
LAYER
2
OUTLINE
70
0
62
7
6
CONTINUOUS
0
LAYER
2
WALLS
70
0
62
8
6
CONTINUOUS
0
LAYER
2
ROOMS
70
0
62
3
6
CONTINUOUS
0
LAYER
2
OPENINGS
70
0
62
1
6
CONTINUOUS
0
LAYER
2
TEXT
70
0
62
7
6
CONTINUOUS
0
LAYER
2
DIMS
70
0
62
4
6
CONTINUOUS
0
LAYER
2
NORTH
70
0
62
2
6
CONTINUOUS
0
LAYER
2
TITLE
70
0
62
5
6
CONTINUOUS
0
ENDTAB
0
ENDSEC
0
SECTION
2
ENTITIES
0
POLYLINE
8
OUTLINE
66
1
70
1
10
0.0
20
0.0
30
0.0
0
VERTEX
8
OUTLINE
10
0.0000
20
0.0000
30
0.0
0
VERTEX
8
OUTLINE
10
13.0000
20
0.0000
30
0.0
0
VERTEX
8
OUTLINE
10
13.0000
20
9.0620
30
0.0
0
VERTEX
8
OUTLINE
10
0.0000
20
9.0620
30
0.0
0
SEQEND
8
OUTLINE
0
POLYLINE
8
WALLS
66
1
70
1
10
0.0
20
0.0
30
0.0
0
VERTEX
8
WALLS
10
0.3000
20
0.3000
30
0.0
0
VERTEX
8
WALLS
10
12.7000
20
0.3000
30
0.0
0
VERTEX
8
WALLS
10
12.7000
20
3.0620
30
0.0
0
VERTEX
8
WALLS
10
0.3000
20
3.0620
30
0.0
0
SEQEND
8
WALLS
0
POLYLINE
8
WALLS
66
1
70
1
10
0.0
20
0.0
30
0.0
0
VERTEX
8
WALLS
10
0.3000
20
3.6620
30
0.0
0
VERTEX
8
WALLS
10
12.7000
20
3.6620
30
0.0
0
VERTEX
8
WALLS
10
12.7000
20
8.7620
30
0.0
0
VERTEX
8
WALLS
10
0.3000
20
8.7620
30
0.0
0
SEQEND
8
WALLS
0
POLYLINE
8
ROOMS
66
1
70
1
10
0.0
20
0.0
30
0.0
0
VERTEX
8
ROOMS
10
0.3000
20
0.3000
30
0.0
0
VERTEX
8
ROOMS
10
5.0739
20
0.3000
30
0.0
0
VERTEX
8
ROOMS
10
5.0739
20
3.3120
30
0.0
0
VERTEX
8
ROOMS
10
0.3000
20
3.3120
30
0.0
0
SEQEND
8
ROOMS
0
TEXT
8
TEXT
10
2.6870
20
2.0860
30
0.0
40
0.2400
1
Καθιστικό
50
0.00
72
1
73
2
11
2.6870
21
2.0860
31
0.0
0
TEXT
8
TEXT
10
2.6870
20
1.8060
30
0.0
40
0.1700
1
14,38 m2  (kath.)
50
0.00
72
1
73
2
11
2.6870
21
1.8060
31
0.0
0
TEXT
8
TEXT
10
2.6870
20
1.5460
30
0.0
40
0.1500
1
esot. 4,77x3,01
50
0.00
72
1
73
2
11
2.6870
21
1.5460
31
0.0
0
TEXT
8
TEXT
10
2.6870
20
1.3060
30
0.0
40
0.1500
1
mikt. 5,12x3,36
50
0.00
72
1
73
2
11
2.6870
21
1.3060
31
0.0
0
LINE
8
OPENINGS
10
2.1734
20
0.3000
30
0.0
11
3.2005
21
0.3000
31
0.0
0
LINE
8
OPENINGS
10
2.1870
20
0.3000
30
0.0
11
2.1870
21
1.3000
31
0.0
0
ARC
8
OPENINGS
10
2.1870
20
0.3000
30
0.0
40
1.0000
50
0.00
51
90.00
0
POLYLINE
8
ROOMS
66
1
70
1
10
0.0
20
0.0
30
0.0
0
VERTEX
8
ROOMS
10
5.1739
20
0.3000
30
0.0
0
VERTEX
8
ROOMS
10
9.4174
20
0.3000
30
0.0
0
VERTEX
8
ROOMS
10
9.4174
20
3.3120
30
0.0
0
VERTEX
8
ROOMS
10
5.1739
20
3.3120
30
0.0
0
SEQEND
8
ROOMS
0
TEXT
8
TEXT
10
7.2957
20
2.0860
30
0.0
40
0.2400
1
Σαλόνι
50
0.00
72
1
73
2
11
7.2957
21
2.0860
31
0.0
0
TEXT
8
TEXT
10
7.2957
20
1.8060
30
0.0
40
0.1700
1
12,78 m2  (kath.)
50
0.00
72
1
73
2
11
7.2957
21
1.8060
31
0.0
0
TEXT
8
TEXT
10
7.2957
20
1.5460
30
0.0
40
0.1500
1
esot. 4,24x3,01
50
0.00
72
1
73
2
11
7.2957
21
1.5460
31
0.0
0
TEXT
8
TEXT
10
7.2957
20
1.3060
30
0.0
40
0.1500
1
mikt. 4,34x3,36
50
0.00
72
1
73
2
11
7.2957
21
1.3060
31
0.0
0
LINE
8
OPENINGS
10
6.8392
20
0.3000
30
0.0
11
7.7521
21
0.3000
31
0.0
0
POLYLINE
8
ROOMS
66
1
70
1
10
0.0
20
0.0
30
0.0
0
VERTEX
8
ROOMS
10
9.5174
20
0.3000
30
0.0
0
VERTEX
8
ROOMS
10
12.7000
20
0.3000
30
0.0
0
VERTEX
8
ROOMS
10
12.7000
20
3.3120
30
0.0
0
VERTEX
8
ROOMS
10
9.5174
20
3.3120
30
0.0
0
SEQEND
8
ROOMS
0
TEXT
8
TEXT
10
11.1087
20
2.0860
30
0.0
40
0.2400
1
Κουζίνα
50
0.00
72
1
73
2
11
11.1087
21
2.0860
31
0.0
0
TEXT
8
TEXT
10
11.1087
20
1.8060
30
0.0
40
0.1700
1
9,59 m2  (kath.)
50
0.00
72
1
73
2
11
11.1087
21
1.8060
31
0.0
0
TEXT
8
TEXT
10
11.1087
20
1.5460
30
0.0
40
0.1500
1
esot. 3,18x3,01
50
0.00
72
1
73
2
11
11.1087
21
1.5460
31
0.0
0
TEXT
8
TEXT
10
11.1087
20
1.3060
30
0.0
40
0.1500
1
mikt. 3,53x3,36
50
0.00
72
1
73
2
11
11.1087
21
1.3060
31
0.0
0
LINE
8
OPENINGS
10
10.6587
20
0.3000
30
0.0
11
11.5587
21
0.3000
31
0.0
0
POLYLINE
8
ROOMS
66
1
70
1
10
0.0
20
0.0
30
0.0
0
VERTEX
8
ROOMS
10
0.3000
20
3.4120
30
0.0
0
VERTEX
8
ROOMS
10
2.9691
20
3.4120
30
0.0
0
VERTEX
8
ROOMS
10
2.9691
20
4.9120
30
0.0
0
VERTEX
8
ROOMS
10
0.3000
20
4.9120
30
0.0
0
SEQEND
8
ROOMS
0
TEXT
8
TEXT
10
1.6346
20
4.4420
30
0.0
40
0.2400
1
Χωλ
50
0.00
72
1
73
2
11
1.6346
21
4.4420
31
0.0
0
TEXT
8
TEXT
10
1.6346
20
4.1620
30
0.0
40
0.1700
1
4,00 m2  (kath.)
50
0.00
72
1
73
2
11
1.6346
21
4.1620
31
0.0
0
TEXT
8
TEXT
10
1.6346
20
3.9020
30
0.0
40
0.1500
1
esot. 2,67x1,50
50
0.00
72
1
73
2
11
1.6346
21
3.9020
31
0.0
0
TEXT
8
TEXT
10
1.6346
20
3.6620
30
0.0
40
0.1500
1
mikt. 3,02x1,60
50
0.00
72
1
73
2
11
1.6346
21
3.6620
31
0.0
0
LINE
8
OPENINGS
10
1.9691
20
4.9120
30
0.0
11
1.9691
21
4.0120
31
0.0
0
ARC
8
OPENINGS
10
1.9691
20
4.9120
30
0.0
40
0.9000
50
270.00
51
360.00
0
LINE
8
OPENINGS
10
1.1846
20
3.4120
30
0.0
11
1.1846
21
4.3120
31
0.0
0
ARC
8
OPENINGS
10
1.1846
20
3.4120
30
0.0
40
0.9000
50
0.00
51
90.00
0
POLYLINE
8
ROOMS
66
1
70
1
10
0.0
20
0.0
30
0.0
0
VERTEX
8
ROOMS
10
3.0691
20
3.4120
30
0.0
0
VERTEX
8
ROOMS
10
5.7382
20
3.4120
30
0.0
0
VERTEX
8
ROOMS
10
5.7382
20
4.9120
30
0.0
0
VERTEX
8
ROOMS
10
3.0691
20
4.9120
30
0.0
0
SEQEND
8
ROOMS
0
TEXT
8
TEXT
10
4.4037
20
4.4420
30
0.0
40
0.2400
1
Αποθήκη
50
0.00
72
1
73
2
11
4.4037
21
4.4420
31
0.0
0
TEXT
8
TEXT
10
4.4037
20
4.1620
30
0.0
40
0.1700
1
4,00 m2  (kath.)
50
0.00
72
1
73
2
11
4.4037
21
4.1620
31
0.0
0
TEXT
8
TEXT
10
4.4037
20
3.9020
30
0.0
40
0.1500
1
esot. 2,67x1,50
50
0.00
72
1
73
2
11
4.4037
21
3.9020
31
0.0
0
TEXT
8
TEXT
10
4.4037
20
3.6620
30
0.0
40
0.1500
1
mikt. 2,77x1,60
50
0.00
72
1
73
2
11
4.4037
21
3.6620
31
0.0
0
LINE
8
OPENINGS
10
4.8382
20
4.9120
30
0.0
11
4.8382
21
4.1120
31
0.0
0
ARC
8
OPENINGS
10
4.8382
20
4.9120
30
0.0
40
0.8000
50
270.00
51
360.00
0
POLYLINE
8
ROOMS
66
1
70
1
10
0.0
20
0.0
30
0.0
0
VERTEX
8
ROOMS
10
5.8382
20
3.4120
30
0.0
0
VERTEX
8
ROOMS
10
7.5287
20
3.4120
30
0.0
0
VERTEX
8
ROOMS
10
7.5287
20
4.9120
30
0.0
0
VERTEX
8
ROOMS
10
5.8382
20
4.9120
30
0.0
0
SEQEND
8
ROOMS
0
TEXT
8
TEXT
10
6.6835
20
4.4420
30
0.0
40
0.2400
1
WC
50
0.00
72
1
73
2
11
6.6835
21
4.4420
31
0.0
0
TEXT
8
TEXT
10
6.6835
20
4.1620
30
0.0
40
0.1700
1
2,54 m2  (kath.)
50
0.00
72
1
73
2
11
6.6835
21
4.1620
31
0.0
0
TEXT
8
TEXT
10
6.6835
20
3.9020
30
0.0
40
0.1500
1
esot. 1,69x1,50
50
0.00
72
1
73
2
11
6.6835
21
3.9020
31
0.0
0
TEXT
8
TEXT
10
6.6835
20
3.6620
30
0.0
40
0.1500
1
mikt. 1,79x1,60
50
0.00
72
1
73
2
11
6.6835
21
3.6620
31
0.0
0
LINE
8
OPENINGS
10
6.1500
20
4.9120
30
0.0
11
6.1500
21
4.2120
31
0.0
0
ARC
8
OPENINGS
10
6.1500
20
4.9120
30
0.0
40
0.7000
50
270.00
51
360.00
0
POLYLINE
8
ROOMS
66
1
70
1
10
0.0
20
0.0
30
0.0
0
VERTEX
8
ROOMS
10
7.6287
20
3.4120
30
0.0
0
VERTEX
8
ROOMS
10
12.7000
20
3.4120
30
0.0
0
VERTEX
8
ROOMS
10
12.7000
20
4.9120
30
0.0
0
VERTEX
8
ROOMS
10
7.6287
20
4.9120
30
0.0
0
SEQEND
8
ROOMS
0
TEXT
8
TEXT
10
10.1643
20
4.4420
30
0.0
40
0.2400
1
Κλιμακοστάσιο
50
0.00
72
1
73
2
11
10.1643
21
4.4420
31
0.0
0
TEXT
8
TEXT
10
10.1643
20
4.1620
30
0.0
40
0.1700
1
7,61 m2  (kath.)
50
0.00
72
1
73
2
11
10.1643
21
4.1620
31
0.0
0
TEXT
8
TEXT
10
10.1643
20
3.9020
30
0.0
40
0.1500
1
esot. 5,07x1,50
50
0.00
72
1
73
2
11
10.1643
21
3.9020
31
0.0
0
TEXT
8
TEXT
10
10.1643
20
3.6620
30
0.0
40
0.1500
1
mikt. 5,42x1,60
50
0.00
72
1
73
2
11
10.1643
21
3.6620
31
0.0
0
LINE
8
OPENINGS
10
7.7287
20
4.9120
30
0.0
11
7.7287
21
4.0120
31
0.0
0
ARC
8
OPENINGS
10
7.7287
20
4.9120
30
0.0
40
0.9000
50
270.00
51
360.00
0
POLYLINE
8
ROOMS
66
1
70
1
10
0.0
20
0.0
30
0.0
0
VERTEX
8
ROOMS
10
0.3000
20
5.0120
30
0.0
0
VERTEX
8
ROOMS
10
12.7000
20
5.0120
30
0.0
0
VERTEX
8
ROOMS
10
12.7000
20
6.0120
30
0.0
0
VERTEX
8
ROOMS
10
0.3000
20
6.0120
30
0.0
0
SEQEND
8
ROOMS
0
TEXT
8
TEXT
10
6.5000
20
5.7920
30
0.0
40
0.2400
1
Διάδρομος
50
0.00
72
1
73
2
11
6.5000
21
5.7920
31
0.0
0
TEXT
8
TEXT
10
6.5000
20
5.5120
30
0.0
40
0.1700
1
12,40 m2  (kath.)
50
0.00
72
1
73
2
11
6.5000
21
5.5120
31
0.0
0
TEXT
8
TEXT
10
6.5000
20
5.2520
30
0.0
40
0.1500
1
esot. 12,40x1,00
50
0.00
72
1
73
2
11
6.5000
21
5.2520
31
0.0
0
TEXT
8
TEXT
10
6.5000
20
5.0120
30
0.0
40
0.1500
1
mikt. 12,50x1,10
50
0.00
72
1
73
2
11
6.5000
21
5.0120
31
0.0
0
LINE
8
DIMS
10
0.0000
20
-1.2000
30
0.0
11
13.0000
21
-1.2000
31
0.0
0
LINE
8
DIMS
10
0.0000
20
-1.0500
30
0.0
11
0.0000
21
-1.3500
31
0.0
0
LINE
8
DIMS
10
13.0000
20
-1.0500
30
0.0
11
13.0000
21
-1.3500
31
0.0
0
TEXT
8
DIMS
10
6.5000
20
-1.5500
30
0.0
40
0.2800
1
13,00 m (A-D)
50
0.00
72
1
73
2
11
6.5000
21
-1.5500
31
0.0
0
LINE
8
DIMS
10
-1.2000
20
0.0000
30
0.0
11
-1.2000
21
9.0600
31
0.0
0
LINE
8
DIMS
10
-1.0500
20
0.0000
30
0.0
11
-1.3500
21
0.0000
31
0.0
0
LINE
8
DIMS
10
-1.0500
20
9.0600
30
0.0
11
-1.3500
21
9.0600
31
0.0
0
TEXT
8
DIMS
10
-1.5500
20
4.5300
30
0.0
40
0.2800
1
9,06 m (B-N)
50
90.00
72
1
73
2
11
-1.5500
21
4.5300
31
0.0
0
TEXT
8
TITLE
10
6.5000
20
9.7600
30
0.0
40
0.4000
1
Ισόγειο  -  117,81 m2 (mikto)
50
0.00
72
1
73
2
11
6.5000
21
9.7600
31
0.0
0
POLYLINE
8
NORTH
66
1
70
1
10
0.0
20
0.0
30
0.0
0
VERTEX
8
NORTH
10
14.2000
20
9.0600
30
0.0
0
VERTEX
8
NORTH
10
13.8500
20
8.1600
30
0.0
0
VERTEX
8
NORTH
10
14.2000
20
8.4600
30
0.0
0
VERTEX
8
NORTH
10
14.5500
20
8.1600
30
0.0
0
SEQEND
8
NORTH
0
TEXT
8
NORTH
10
14.2000
20
9.4600
30
0.0
40
0.4500
1
B
50
0.00
72
1
73
2
11
14.2000
21
9.4600
31
0.0
0
POLYLINE
8
OUTLINE
66
1
70
1
10
0.0
20
0.0
30
0.0
0
VERTEX
8
OUTLINE
10
17.0000
20
0.0000
30
0.0
0
VERTEX
8
OUTLINE
10
30.0000
20
0.0000
30
0.0
0
VERTEX
8
OUTLINE
10
30.0000
20
9.0600
30
0.0
0
VERTEX
8
OUTLINE
10
17.0000
20
9.0600
30
0.0
0
SEQEND
8
OUTLINE
0
POLYLINE
8
WALLS
66
1
70
1
10
0.0
20
0.0
30
0.0
0
VERTEX
8
WALLS
10
17.3000
20
0.3000
30
0.0
0
VERTEX
8
WALLS
10
29.7000
20
0.3000
30
0.0
0
VERTEX
8
WALLS
10
29.7000
20
8.7600
30
0.0
0
VERTEX
8
WALLS
10
17.3000
20
8.7600
30
0.0
0
SEQEND
8
WALLS
0
POLYLINE
8
ROOMS
66
1
70
1
10
0.0
20
0.0
30
0.0
0
VERTEX
8
ROOMS
10
17.3000
20
2.7500
30
0.0
0
VERTEX
8
ROOMS
10
21.7947
20
2.7500
30
0.0
0
VERTEX
8
ROOMS
10
21.7947
20
8.7600
30
0.0
0
VERTEX
8
ROOMS
10
17.3000
20
8.7600
30
0.0
0
SEQEND
8
ROOMS
0
TEXT
8
TEXT
10
19.5474
20
6.0350
30
0.0
40
0.2400
1
Κύριο Υπνοδωμάτιο
50
0.00
72
1
73
2
11
19.5474
21
6.0350
31
0.0
0
TEXT
8
TEXT
10
19.5474
20
5.7550
30
0.0
40
0.1700
1
27,01 m2  (kath.)
50
0.00
72
1
73
2
11
19.5474
21
5.7550
31
0.0
0
TEXT
8
TEXT
10
19.5474
20
5.4950
30
0.0
40
0.1500
1
esot. 4,49x6,01
50
0.00
72
1
73
2
11
19.5474
21
5.4950
31
0.0
0
TEXT
8
TEXT
10
19.5474
20
5.2550
30
0.0
40
0.1500
1
mikt. 4,84x6,36
50
0.00
72
1
73
2
11
19.5474
21
5.2550
31
0.0
0
LINE
8
OPENINGS
10
18.5826
20
8.7600
30
0.0
11
20.5121
21
8.7600
31
0.0
0
LINE
8
OPENINGS
10
20.7947
20
2.7500
30
0.0
11
20.7947
21
3.6500
31
0.0
0
ARC
8
OPENINGS
10
20.7947
20
2.7500
30
0.0
40
0.9000
50
0.00
51
90.00
0
POLYLINE
8
ROOMS
66
1
70
1
10
0.0
20
0.0
30
0.0
0
VERTEX
8
ROOMS
10
21.8947
20
2.7500
30
0.0
0
VERTEX
8
ROOMS
10
25.7474
20
2.7500
30
0.0
0
VERTEX
8
ROOMS
10
25.7474
20
8.7600
30
0.0
0
VERTEX
8
ROOMS
10
21.8947
20
8.7600
30
0.0
0
SEQEND
8
ROOMS
0
TEXT
8
TEXT
10
23.8211
20
6.0350
30
0.0
40
0.2400
1
Υπνοδωμάτιο 2
50
0.00
72
1
73
2
11
23.8211
21
6.0350
31
0.0
0
TEXT
8
TEXT
10
23.8211
20
5.7550
30
0.0
40
0.1700
1
23,15 m2  (kath.)
50
0.00
72
1
73
2
11
23.8211
21
5.7550
31
0.0
0
TEXT
8
TEXT
10
23.8211
20
5.4950
30
0.0
40
0.1500
1
esot. 3,85x6,01
50
0.00
72
1
73
2
11
23.8211
21
5.4950
31
0.0
0
TEXT
8
TEXT
10
23.8211
20
5.2550
30
0.0
40
0.1500
1
mikt. 3,95x6,36
50
0.00
72
1
73
2
11
23.8211
21
5.2550
31
0.0
0
LINE
8
OPENINGS
10
22.9941
20
8.7600
30
0.0
11
24.6480
21
8.7600
31
0.0
0
LINE
8
OPENINGS
10
22.8500
20
2.7500
30
0.0
11
22.8500
21
3.6500
31
0.0
0
ARC
8
OPENINGS
10
22.8500
20
2.7500
30
0.0
40
0.9000
50
0.00
51
90.00
0
POLYLINE
8
ROOMS
66
1
70
1
10
0.0
20
0.0
30
0.0
0
VERTEX
8
ROOMS
10
25.8474
20
2.7500
30
0.0
0
VERTEX
8
ROOMS
10
29.7000
20
2.7500
30
0.0
0
VERTEX
8
ROOMS
10
29.7000
20
8.7600
30
0.0
0
VERTEX
8
ROOMS
10
25.8474
20
8.7600
30
0.0
0
SEQEND
8
ROOMS
0
TEXT
8
TEXT
10
27.7737
20
6.0350
30
0.0
40
0.2400
1
Υπνοδωμάτιο 3
50
0.00
72
1
73
2
11
27.7737
21
6.0350
31
0.0
0
TEXT
8
TEXT
10
27.7737
20
5.7550
30
0.0
40
0.1700
1
23,15 m2  (kath.)
50
0.00
72
1
73
2
11
27.7737
21
5.7550
31
0.0
0
TEXT
8
TEXT
10
27.7737
20
5.4950
30
0.0
40
0.1500
1
esot. 3,85x6,01
50
0.00
72
1
73
2
11
27.7737
21
5.4950
31
0.0
0
TEXT
8
TEXT
10
27.7737
20
5.2550
30
0.0
40
0.1500
1
mikt. 4,20x6,36
50
0.00
72
1
73
2
11
27.7737
21
5.2550
31
0.0
0
LINE
8
OPENINGS
10
29.7000
20
4.9281
30
0.0
11
29.7000
21
6.5819
31
0.0
0
LINE
8
OPENINGS
10
25.9474
20
2.7500
30
0.0
11
25.9474
21
3.6500
31
0.0
0
ARC
8
OPENINGS
10
25.9474
20
2.7500
30
0.0
40
0.9000
50
0.00
51
90.00
0
POLYLINE
8
ROOMS
66
1
70
1
10
0.0
20
0.0
30
0.0
0
VERTEX
8
ROOMS
10
17.3000
20
0.0500
30
0.0
0
VERTEX
8
ROOMS
10
19.1500
20
0.0500
30
0.0
0
VERTEX
8
ROOMS
10
19.1500
20
2.6500
30
0.0
0
VERTEX
8
ROOMS
10
17.3000
20
2.6500
30
0.0
0
SEQEND
8
ROOMS
0
TEXT
8
TEXT
10
18.2250
20
1.6300
30
0.0
40
0.2400
1
Λουτρό
50
0.00
72
1
73
2
11
18.2250
21
1.6300
31
0.0
0
TEXT
8
TEXT
10
18.2250
20
1.3500
30
0.0
40
0.1700
1
4,81 m2  (kath.)
50
0.00
72
1
73
2
11
18.2250
21
1.3500
31
0.0
0
TEXT
8
TEXT
10
18.2250
20
1.0900
30
0.0
40
0.1500
1
esot. 1,85x2,60
50
0.00
72
1
73
2
11
18.2250
21
1.0900
31
0.0
0
TEXT
8
TEXT
10
18.2250
20
0.8500
30
0.0
40
0.1500
1
mikt. 2,20x2,70
50
0.00
72
1
73
2
11
18.2250
21
0.8500
31
0.0
0
LINE
8
OPENINGS
10
17.3000
20
0.9000
30
0.0
11
17.3000
21
1.8000
31
0.0
0
LINE
8
OPENINGS
10
19.1500
20
1.7500
30
0.0
11
18.3500
21
1.7500
31
0.0
0
ARC
8
OPENINGS
10
19.1500
20
1.7500
30
0.0
40
0.8000
50
0.00
51
90.00
0
POLYLINE
8
ROOMS
66
1
70
1
10
0.0
20
0.0
30
0.0
0
VERTEX
8
ROOMS
10
27.4500
20
0.0500
30
0.0
0
VERTEX
8
ROOMS
10
29.7000
20
0.0500
30
0.0
0
VERTEX
8
ROOMS
10
29.7000
20
2.6500
30
0.0
0
VERTEX
8
ROOMS
10
27.4500
20
2.6500
30
0.0
0
SEQEND
8
ROOMS
0
TEXT
8
TEXT
10
28.5750
20
1.6300
30
0.0
40
0.2400
1
Κλιμακοστάσιο
50
0.00
72
1
73
2
11
28.5750
21
1.6300
31
0.0
0
TEXT
8
TEXT
10
28.5750
20
1.3500
30
0.0
40
0.1700
1
5,85 m2  (kath.)
50
0.00
72
1
73
2
11
28.5750
21
1.3500
31
0.0
0
TEXT
8
TEXT
10
28.5750
20
1.0900
30
0.0
40
0.1500
1
esot. 2,25x2,60
50
0.00
72
1
73
2
11
28.5750
21
1.0900
31
0.0
0
TEXT
8
TEXT
10
28.5750
20
0.8500
30
0.0
40
0.1500
1
mikt. 2,60x2,70
50
0.00
72
1
73
2
11
28.5750
21
0.8500
31
0.0
0
LINE
8
OPENINGS
10
27.4500
20
1.7500
30
0.0
11
28.2500
21
1.7500
31
0.0
0
ARC
8
OPENINGS
10
27.4500
20
1.7500
30
0.0
40
0.8000
50
0.00
51
90.00
0
POLYLINE
8
ROOMS
66
1
70
1
10
0.0
20
0.0
30
0.0
0
VERTEX
8
ROOMS
10
19.2500
20
1.6500
30
0.0
0
VERTEX
8
ROOMS
10
27.3500
20
1.6500
30
0.0
0
VERTEX
8
ROOMS
10
27.3500
20
2.6500
30
0.0
0
VERTEX
8
ROOMS
10
19.2500
20
2.6500
30
0.0
0
SEQEND
8
ROOMS
0
TEXT
8
TEXT
10
23.3000
20
2.4300
30
0.0
40
0.2400
1
Διάδρομος
50
0.00
72
1
73
2
11
23.3000
21
2.4300
31
0.0
0
TEXT
8
TEXT
10
23.3000
20
2.1500
30
0.0
40
0.1700
1
8,10 m2  (kath.)
50
0.00
72
1
73
2
11
23.3000
21
2.1500
31
0.0
0
TEXT
8
TEXT
10
23.3000
20
1.8900
30
0.0
40
0.1500
1
esot. 8,10x1,00
50
0.00
72
1
73
2
11
23.3000
21
1.8900
31
0.0
0
TEXT
8
TEXT
10
23.3000
20
1.6500
30
0.0
40
0.1500
1
mikt. 8,20x1,10
50
0.00
72
1
73
2
11
23.3000
21
1.6500
31
0.0
0
LINE
8
DIMS
10
17.0000
20
-1.2000
30
0.0
11
30.0000
21
-1.2000
31
0.0
0
LINE
8
DIMS
10
17.0000
20
-1.0500
30
0.0
11
17.0000
21
-1.3500
31
0.0
0
LINE
8
DIMS
10
30.0000
20
-1.0500
30
0.0
11
30.0000
21
-1.3500
31
0.0
0
TEXT
8
DIMS
10
23.5000
20
-1.5500
30
0.0
40
0.2800
1
13,00 m (A-D)
50
0.00
72
1
73
2
11
23.5000
21
-1.5500
31
0.0
0
LINE
8
DIMS
10
15.8000
20
0.0000
30
0.0
11
15.8000
21
9.0600
31
0.0
0
LINE
8
DIMS
10
15.9500
20
0.0000
30
0.0
11
15.6500
21
0.0000
31
0.0
0
LINE
8
DIMS
10
15.9500
20
9.0600
30
0.0
11
15.6500
21
9.0600
31
0.0
0
TEXT
8
DIMS
10
15.4500
20
4.5300
30
0.0
40
0.2800
1
9,06 m (B-N)
50
90.00
72
1
73
2
11
15.4500
21
4.5300
31
0.0
0
TEXT
8
TITLE
10
23.5000
20
9.7600
30
0.0
40
0.4000
1
Α' Όροφος  -  117,78 m2 (mikto)
50
0.00
72
1
73
2
11
23.5000
21
9.7600
31
0.0
0
POLYLINE
8
NORTH
66
1
70
1
10
0.0
20
0.0
30
0.0
0
VERTEX
8
NORTH
10
31.2000
20
9.0600
30
0.0
0
VERTEX
8
NORTH
10
30.8500
20
8.1600
30
0.0
0
VERTEX
8
NORTH
10
31.2000
20
8.4600
30
0.0
0
VERTEX
8
NORTH
10
31.5500
20
8.1600
30
0.0
0
SEQEND
8
NORTH
0
TEXT
8
NORTH
10
31.2000
20
9.4600
30
0.0
40
0.4500
1
B
50
0.00
72
1
73
2
11
31.2000
21
9.4600
31
0.0
0
TEXT
8
TITLE
10
0.0000
20
11.2600
30
0.0
40
0.5000
1
Μονοκατοικία Αμαλιάδας - Πρόταση 3
50
0.00
72
0
73
2
11
0.0000
21
11.2600
31
0.0
0
TEXT
8
TITLE
10
0.0000
20
10.5600
30
0.0
40
0.3000
1
Αμαλιάδα, Π.Ε. Ηλείας  |  Eisodos: Νότος  |  Orofoi: 2
50
0.00
72
0
73
2
11
0.0000
21
10.5600
31
0.0
0
ENDSEC
0
EOF
