0
SECTION
2
HEADER
9
$ACADVER
1
AC1009
9
$DWGCODEPAGE
3
ANSI_1253
9
$INSUNITS
70
6
0
ENDSEC
0
SECTION
2
TABLES
0
TABLE
2
LAYER
70
8
0
LAYER
2
OUTLINE
70
0
62
7
6
CONTINUOUS
0
LAYER
2
WALLS
70
0
62
8
6
CONTINUOUS
0
LAYER
2
ROOMS
70
0
62
3
6
CONTINUOUS
0
LAYER
2
OPENINGS
70
0
62
1
6
CONTINUOUS
0
LAYER
2
TEXT
70
0
62
7
6
CONTINUOUS
0
LAYER
2
DIMS
70
0
62
4
6
CONTINUOUS
0
LAYER
2
NORTH
70
0
62
2
6
CONTINUOUS
0
LAYER
2
TITLE
70
0
62
5
6
CONTINUOUS
0
ENDTAB
0
ENDSEC
0
SECTION
2
ENTITIES
0
POLYLINE
8
OUTLINE
66
1
70
1
10
0.0
20
0.0
30
0.0
0
VERTEX
8
OUTLINE
10
0.0000
20
0.0000
30
0.0
0
VERTEX
8
OUTLINE
10
13.0000
20
0.0000
30
0.0
0
VERTEX
8
OUTLINE
10
13.0000
20
9.1880
30
0.0
0
VERTEX
8
OUTLINE
10
0.0000
20
9.1880
30
0.0
0
SEQEND
8
OUTLINE
0
POLYLINE
8
WALLS
66
1
70
1
10
0.0
20
0.0
30
0.0
0
VERTEX
8
WALLS
10
0.3000
20
0.3000
30
0.0
0
VERTEX
8
WALLS
10
12.7000
20
0.3000
30
0.0
0
VERTEX
8
WALLS
10
12.7000
20
3.2380
30
0.0
0
VERTEX
8
WALLS
10
0.3000
20
3.2380
30
0.0
0
SEQEND
8
WALLS
0
POLYLINE
8
WALLS
66
1
70
1
10
0.0
20
0.0
30
0.0
0
VERTEX
8
WALLS
10
0.3000
20
3.8380
30
0.0
0
VERTEX
8
WALLS
10
12.7000
20
3.8380
30
0.0
0
VERTEX
8
WALLS
10
12.7000
20
8.8880
30
0.0
0
VERTEX
8
WALLS
10
0.3000
20
8.8880
30
0.0
0
SEQEND
8
WALLS
0
POLYLINE
8
ROOMS
66
1
70
1
10
0.0
20
0.0
30
0.0
0
VERTEX
8
ROOMS
10
0.3000
20
0.3000
30
0.0
0
VERTEX
8
ROOMS
10
5.0739
20
0.3000
30
0.0
0
VERTEX
8
ROOMS
10
5.0739
20
3.4880
30
0.0
0
VERTEX
8
ROOMS
10
0.3000
20
3.4880
30
0.0
0
SEQEND
8
ROOMS
0
TEXT
8
TEXT
10
2.6870
20
2.1740
30
0.0
40
0.2400
1
Καθιστικό
50
0.00
72
1
73
2
11
2.6870
21
2.1740
31
0.0
0
TEXT
8
TEXT
10
2.6870
20
1.8940
30
0.0
40
0.1700
1
15,22 m2  (kath.)
50
0.00
72
1
73
2
11
2.6870
21
1.8940
31
0.0
0
TEXT
8
TEXT
10
2.6870
20
1.6340
30
0.0
40
0.1500
1
esot. 4,77x3,19
50
0.00
72
1
73
2
11
2.6870
21
1.6340
31
0.0
0
TEXT
8
TEXT
10
2.6870
20
1.3940
30
0.0
40
0.1500
1
mikt. 5,12x3,54
50
0.00
72
1
73
2
11
2.6870
21
1.3940
31
0.0
0
LINE
8
OPENINGS
10
2.1434
20
0.3000
30
0.0
11
3.2305
21
0.3000
31
0.0
0
LINE
8
OPENINGS
10
2.1870
20
0.3000
30
0.0
11
2.1870
21
1.3000
31
0.0
0
ARC
8
OPENINGS
10
2.1870
20
0.3000
30
0.0
40
1.0000
50
0.00
51
90.00
0
POLYLINE
8
ROOMS
66
1
70
1
10
0.0
20
0.0
30
0.0
0
VERTEX
8
ROOMS
10
5.1739
20
0.3000
30
0.0
0
VERTEX
8
ROOMS
10
9.4174
20
0.3000
30
0.0
0
VERTEX
8
ROOMS
10
9.4174
20
3.4880
30
0.0
0
VERTEX
8
ROOMS
10
5.1739
20
3.4880
30
0.0
0
SEQEND
8
ROOMS
0
TEXT
8
TEXT
10
7.2957
20
2.1740
30
0.0
40
0.2400
1
Σαλόνι
50
0.00
72
1
73
2
11
7.2957
21
2.1740
31
0.0
0
TEXT
8
TEXT
10
7.2957
20
1.8940
30
0.0
40
0.1700
1
13,53 m2  (kath.)
50
0.00
72
1
73
2
11
7.2957
21
1.8940
31
0.0
0
TEXT
8
TEXT
10
7.2957
20
1.6340
30
0.0
40
0.1500
1
esot. 4,24x3,19
50
0.00
72
1
73
2
11
7.2957
21
1.6340
31
0.0
0
TEXT
8
TEXT
10
7.2957
20
1.3940
30
0.0
40
0.1500
1
mikt. 4,34x3,54
50
0.00
72
1
73
2
11
7.2957
21
1.3940
31
0.0
0
LINE
8
OPENINGS
10
6.8125
20
0.3000
30
0.0
11
7.7788
21
0.3000
31
0.0
0
POLYLINE
8
ROOMS
66
1
70
1
10
0.0
20
0.0
30
0.0
0
VERTEX
8
ROOMS
10
9.5174
20
0.3000
30
0.0
0
VERTEX
8
ROOMS
10
12.7000
20
0.3000
30
0.0
0
VERTEX
8
ROOMS
10
12.7000
20
3.4880
30
0.0
0
VERTEX
8
ROOMS
10
9.5174
20
3.4880
30
0.0
0
SEQEND
8
ROOMS
0
TEXT
8
TEXT
10
11.1087
20
2.1740
30
0.0
40
0.2400
1
Κουζίνα
50
0.00
72
1
73
2
11
11.1087
21
2.1740
31
0.0
0
TEXT
8
TEXT
10
11.1087
20
1.8940
30
0.0
40
0.1700
1
10,15 m2  (kath.)
50
0.00
72
1
73
2
11
11.1087
21
1.8940
31
0.0
0
TEXT
8
TEXT
10
11.1087
20
1.6340
30
0.0
40
0.1500
1
esot. 3,18x3,19
50
0.00
72
1
73
2
11
11.1087
21
1.6340
31
0.0
0
TEXT
8
TEXT
10
11.1087
20
1.3940
30
0.0
40
0.1500
1
mikt. 3,53x3,54
50
0.00
72
1
73
2
11
11.1087
21
1.3940
31
0.0
0
LINE
8
OPENINGS
10
10.6587
20
0.3000
30
0.0
11
11.5587
21
0.3000
31
0.0
0
POLYLINE
8
ROOMS
66
1
70
1
10
0.0
20
0.0
30
0.0
0
VERTEX
8
ROOMS
10
0.3000
20
3.5880
30
0.0
0
VERTEX
8
ROOMS
10
2.9691
20
3.5880
30
0.0
0
VERTEX
8
ROOMS
10
2.9691
20
5.0880
30
0.0
0
VERTEX
8
ROOMS
10
0.3000
20
5.0880
30
0.0
0
SEQEND
8
ROOMS
0
TEXT
8
TEXT
10
1.6346
20
4.6180
30
0.0
40
0.2400
1
Χωλ
50
0.00
72
1
73
2
11
1.6346
21
4.6180
31
0.0
0
TEXT
8
TEXT
10
1.6346
20
4.3380
30
0.0
40
0.1700
1
4,00 m2  (kath.)
50
0.00
72
1
73
2
11
1.6346
21
4.3380
31
0.0
0
TEXT
8
TEXT
10
1.6346
20
4.0780
30
0.0
40
0.1500
1
esot. 2,67x1,50
50
0.00
72
1
73
2
11
1.6346
21
4.0780
31
0.0
0
TEXT
8
TEXT
10
1.6346
20
3.8380
30
0.0
40
0.1500
1
mikt. 3,02x1,60
50
0.00
72
1
73
2
11
1.6346
21
3.8380
31
0.0
0
LINE
8
OPENINGS
10
1.9691
20
5.0880
30
0.0
11
1.9691
21
4.1880
31
0.0
0
ARC
8
OPENINGS
10
1.9691
20
5.0880
30
0.0
40
0.9000
50
270.00
51
360.00
0
LINE
8
OPENINGS
10
1.1846
20
3.5880
30
0.0
11
1.1846
21
4.4880
31
0.0
0
ARC
8
OPENINGS
10
1.1846
20
3.5880
30
0.0
40
0.9000
50
0.00
51
90.00
0
POLYLINE
8
ROOMS
66
1
70
1
10
0.0
20
0.0
30
0.0
0
VERTEX
8
ROOMS
10
3.0691
20
3.5880
30
0.0
0
VERTEX
8
ROOMS
10
5.7382
20
3.5880
30
0.0
0
VERTEX
8
ROOMS
10
5.7382
20
5.0880
30
0.0
0
VERTEX
8
ROOMS
10
3.0691
20
5.0880
30
0.0
0
SEQEND
8
ROOMS
0
TEXT
8
TEXT
10
4.4037
20
4.6180
30
0.0
40
0.2400
1
Αποθήκη
50
0.00
72
1
73
2
11
4.4037
21
4.6180
31
0.0
0
TEXT
8
TEXT
10
4.4037
20
4.3380
30
0.0
40
0.1700
1
4,00 m2  (kath.)
50
0.00
72
1
73
2
11
4.4037
21
4.3380
31
0.0
0
TEXT
8
TEXT
10
4.4037
20
4.0780
30
0.0
40
0.1500
1
esot. 2,67x1,50
50
0.00
72
1
73
2
11
4.4037
21
4.0780
31
0.0
0
TEXT
8
TEXT
10
4.4037
20
3.8380
30
0.0
40
0.1500
1
mikt. 2,77x1,60
50
0.00
72
1
73
2
11
4.4037
21
3.8380
31
0.0
0
LINE
8
OPENINGS
10
4.8382
20
5.0880
30
0.0
11
4.8382
21
4.2880
31
0.0
0
ARC
8
OPENINGS
10
4.8382
20
5.0880
30
0.0
40
0.8000
50
270.00
51
360.00
0
POLYLINE
8
ROOMS
66
1
70
1
10
0.0
20
0.0
30
0.0
0
VERTEX
8
ROOMS
10
5.8382
20
3.5880
30
0.0
0
VERTEX
8
ROOMS
10
7.5287
20
3.5880
30
0.0
0
VERTEX
8
ROOMS
10
7.5287
20
5.0880
30
0.0
0
VERTEX
8
ROOMS
10
5.8382
20
5.0880
30
0.0
0
SEQEND
8
ROOMS
0
TEXT
8
TEXT
10
6.6835
20
4.6180
30
0.0
40
0.2400
1
WC
50
0.00
72
1
73
2
11
6.6835
21
4.6180
31
0.0
0
TEXT
8
TEXT
10
6.6835
20
4.3380
30
0.0
40
0.1700
1
2,54 m2  (kath.)
50
0.00
72
1
73
2
11
6.6835
21
4.3380
31
0.0
0
TEXT
8
TEXT
10
6.6835
20
4.0780
30
0.0
40
0.1500
1
esot. 1,69x1,50
50
0.00
72
1
73
2
11
6.6835
21
4.0780
31
0.0
0
TEXT
8
TEXT
10
6.6835
20
3.8380
30
0.0
40
0.1500
1
mikt. 1,79x1,60
50
0.00
72
1
73
2
11
6.6835
21
3.8380
31
0.0
0
LINE
8
OPENINGS
10
6.1500
20
5.0880
30
0.0
11
6.1500
21
4.3880
31
0.0
0
ARC
8
OPENINGS
10
6.1500
20
5.0880
30
0.0
40
0.7000
50
270.00
51
360.00
0
POLYLINE
8
ROOMS
66
1
70
1
10
0.0
20
0.0
30
0.0
0
VERTEX
8
ROOMS
10
7.6287
20
3.5880
30
0.0
0
VERTEX
8
ROOMS
10
12.7000
20
3.5880
30
0.0
0
VERTEX
8
ROOMS
10
12.7000
20
5.0880
30
0.0
0
VERTEX
8
ROOMS
10
7.6287
20
5.0880
30
0.0
0
SEQEND
8
ROOMS
0
TEXT
8
TEXT
10
10.1643
20
4.6180
30
0.0
40
0.2400
1
Κλιμακοστάσιο
50
0.00
72
1
73
2
11
10.1643
21
4.6180
31
0.0
0
TEXT
8
TEXT
10
10.1643
20
4.3380
30
0.0
40
0.1700
1
7,61 m2  (kath.)
50
0.00
72
1
73
2
11
10.1643
21
4.3380
31
0.0
0
TEXT
8
TEXT
10
10.1643
20
4.0780
30
0.0
40
0.1500
1
esot. 5,07x1,50
50
0.00
72
1
73
2
11
10.1643
21
4.0780
31
0.0
0
TEXT
8
TEXT
10
10.1643
20
3.8380
30
0.0
40
0.1500
1
mikt. 5,42x1,60
50
0.00
72
1
73
2
11
10.1643
21
3.8380
31
0.0
0
LINE
8
OPENINGS
10
7.7287
20
5.0880
30
0.0
11
7.7287
21
4.1880
31
0.0
0
ARC
8
OPENINGS
10
7.7287
20
5.0880
30
0.0
40
0.9000
50
270.00
51
360.00
0
POLYLINE
8
ROOMS
66
1
70
1
10
0.0
20
0.0
30
0.0
0
VERTEX
8
ROOMS
10
0.3000
20
5.1880
30
0.0
0
VERTEX
8
ROOMS
10
12.7000
20
5.1880
30
0.0
0
VERTEX
8
ROOMS
10
12.7000
20
6.1380
30
0.0
0
VERTEX
8
ROOMS
10
0.3000
20
6.1380
30
0.0
0
SEQEND
8
ROOMS
0
TEXT
8
TEXT
10
6.5000
20
5.9430
30
0.0
40
0.2400
1
Διάδρομος
50
0.00
72
1
73
2
11
6.5000
21
5.9430
31
0.0
0
TEXT
8
TEXT
10
6.5000
20
5.6630
30
0.0
40
0.1700
1
11,78 m2  (kath.)
50
0.00
72
1
73
2
11
6.5000
21
5.6630
31
0.0
0
TEXT
8
TEXT
10
6.5000
20
5.4030
30
0.0
40
0.1500
1
esot. 12,40x0,95
50
0.00
72
1
73
2
11
6.5000
21
5.4030
31
0.0
0
TEXT
8
TEXT
10
6.5000
20
5.1630
30
0.0
40
0.1500
1
mikt. 12,50x1,05
50
0.00
72
1
73
2
11
6.5000
21
5.1630
31
0.0
0
LINE
8
DIMS
10
0.0000
20
-1.2000
30
0.0
11
13.0000
21
-1.2000
31
0.0
0
LINE
8
DIMS
10
0.0000
20
-1.0500
30
0.0
11
0.0000
21
-1.3500
31
0.0
0
LINE
8
DIMS
10
13.0000
20
-1.0500
30
0.0
11
13.0000
21
-1.3500
31
0.0
0
TEXT
8
DIMS
10
6.5000
20
-1.5500
30
0.0
40
0.2800
1
13,00 m (A-D)
50
0.00
72
1
73
2
11
6.5000
21
-1.5500
31
0.0
0
LINE
8
DIMS
10
-1.2000
20
0.0000
30
0.0
11
-1.2000
21
9.1900
31
0.0
0
LINE
8
DIMS
10
-1.0500
20
0.0000
30
0.0
11
-1.3500
21
0.0000
31
0.0
0
LINE
8
DIMS
10
-1.0500
20
9.1900
30
0.0
11
-1.3500
21
9.1900
31
0.0
0
TEXT
8
DIMS
10
-1.5500
20
4.5950
30
0.0
40
0.2800
1
9,19 m (B-N)
50
90.00
72
1
73
2
11
-1.5500
21
4.5950
31
0.0
0
TEXT
8
TITLE
10
6.5000
20
9.8900
30
0.0
40
0.4000
1
Ισόγειο  -  119,44 m2 (mikto)
50
0.00
72
1
73
2
11
6.5000
21
9.8900
31
0.0
0
POLYLINE
8
NORTH
66
1
70
1
10
0.0
20
0.0
30
0.0
0
VERTEX
8
NORTH
10
14.2000
20
9.1900
30
0.0
0
VERTEX
8
NORTH
10
13.8500
20
8.2900
30
0.0
0
VERTEX
8
NORTH
10
14.2000
20
8.5900
30
0.0
0
VERTEX
8
NORTH
10
14.5500
20
8.2900
30
0.0
0
SEQEND
8
NORTH
0
TEXT
8
NORTH
10
14.2000
20
9.5900
30
0.0
40
0.4500
1
B
50
0.00
72
1
73
2
11
14.2000
21
9.5900
31
0.0
0
POLYLINE
8
OUTLINE
66
1
70
1
10
0.0
20
0.0
30
0.0
0
VERTEX
8
OUTLINE
10
17.0000
20
0.0000
30
0.0
0
VERTEX
8
OUTLINE
10
30.0000
20
0.0000
30
0.0
0
VERTEX
8
OUTLINE
10
30.0000
20
9.1900
30
0.0
0
VERTEX
8
OUTLINE
10
17.0000
20
9.1900
30
0.0
0
SEQEND
8
OUTLINE
0
POLYLINE
8
WALLS
66
1
70
1
10
0.0
20
0.0
30
0.0
0
VERTEX
8
WALLS
10
17.3000
20
0.3000
30
0.0
0
VERTEX
8
WALLS
10
29.7000
20
0.3000
30
0.0
0
VERTEX
8
WALLS
10
29.7000
20
8.8900
30
0.0
0
VERTEX
8
WALLS
10
17.3000
20
8.8900
30
0.0
0
SEQEND
8
WALLS
0
POLYLINE
8
ROOMS
66
1
70
1
10
0.0
20
0.0
30
0.0
0
VERTEX
8
ROOMS
10
17.3000
20
2.7000
30
0.0
0
VERTEX
8
ROOMS
10
21.7947
20
2.7000
30
0.0
0
VERTEX
8
ROOMS
10
21.7947
20
8.8900
30
0.0
0
VERTEX
8
ROOMS
10
17.3000
20
8.8900
30
0.0
0
SEQEND
8
ROOMS
0
TEXT
8
TEXT
10
19.5474
20
6.0750
30
0.0
40
0.2400
1
Κύριο Υπνοδωμάτιο
50
0.00
72
1
73
2
11
19.5474
21
6.0750
31
0.0
0
TEXT
8
TEXT
10
19.5474
20
5.7950
30
0.0
40
0.1700
1
27,82 m2  (kath.)
50
0.00
72
1
73
2
11
19.5474
21
5.7950
31
0.0
0
TEXT
8
TEXT
10
19.5474
20
5.5350
30
0.0
40
0.1500
1
esot. 4,49x6,19
50
0.00
72
1
73
2
11
19.5474
21
5.5350
31
0.0
0
TEXT
8
TEXT
10
19.5474
20
5.2950
30
0.0
40
0.1500
1
mikt. 4,84x6,54
50
0.00
72
1
73
2
11
19.5474
21
5.2950
31
0.0
0
LINE
8
OPENINGS
10
18.5537
20
8.8900
30
0.0
11
20.5410
21
8.8900
31
0.0
0
LINE
8
OPENINGS
10
20.7947
20
2.7000
30
0.0
11
20.7947
21
3.6000
31
0.0
0
ARC
8
OPENINGS
10
20.7947
20
2.7000
30
0.0
40
0.9000
50
0.00
51
90.00
0
POLYLINE
8
ROOMS
66
1
70
1
10
0.0
20
0.0
30
0.0
0
VERTEX
8
ROOMS
10
21.8947
20
2.7000
30
0.0
0
VERTEX
8
ROOMS
10
25.7474
20
2.7000
30
0.0
0
VERTEX
8
ROOMS
10
25.7474
20
8.8900
30
0.0
0
VERTEX
8
ROOMS
10
21.8947
20
8.8900
30
0.0
0
SEQEND
8
ROOMS
0
TEXT
8
TEXT
10
23.8211
20
6.0750
30
0.0
40
0.2400
1
Υπνοδωμάτιο 2
50
0.00
72
1
73
2
11
23.8211
21
6.0750
31
0.0
0
TEXT
8
TEXT
10
23.8211
20
5.7950
30
0.0
40
0.1700
1
23,85 m2  (kath.)
50
0.00
72
1
73
2
11
23.8211
21
5.7950
31
0.0
0
TEXT
8
TEXT
10
23.8211
20
5.5350
30
0.0
40
0.1500
1
esot. 3,85x6,19
50
0.00
72
1
73
2
11
23.8211
21
5.5350
31
0.0
0
TEXT
8
TEXT
10
23.8211
20
5.2950
30
0.0
40
0.1500
1
mikt. 3,95x6,54
50
0.00
72
1
73
2
11
23.8211
21
5.2950
31
0.0
0
LINE
8
OPENINGS
10
22.9693
20
8.8900
30
0.0
11
24.6728
21
8.8900
31
0.0
0
LINE
8
OPENINGS
10
22.8500
20
2.7000
30
0.0
11
22.8500
21
3.6000
31
0.0
0
ARC
8
OPENINGS
10
22.8500
20
2.7000
30
0.0
40
0.9000
50
0.00
51
90.00
0
POLYLINE
8
ROOMS
66
1
70
1
10
0.0
20
0.0
30
0.0
0
VERTEX
8
ROOMS
10
25.8474
20
2.7000
30
0.0
0
VERTEX
8
ROOMS
10
29.7000
20
2.7000
30
0.0
0
VERTEX
8
ROOMS
10
29.7000
20
8.8900
30
0.0
0
VERTEX
8
ROOMS
10
25.8474
20
8.8900
30
0.0
0
SEQEND
8
ROOMS
0
TEXT
8
TEXT
10
27.7737
20
6.0750
30
0.0
40
0.2400
1
Υπνοδωμάτιο 3
50
0.00
72
1
73
2
11
27.7737
21
6.0750
31
0.0
0
TEXT
8
TEXT
10
27.7737
20
5.7950
30
0.0
40
0.1700
1
23,85 m2  (kath.)
50
0.00
72
1
73
2
11
27.7737
21
5.7950
31
0.0
0
TEXT
8
TEXT
10
27.7737
20
5.5350
30
0.0
40
0.1500
1
esot. 3,85x6,19
50
0.00
72
1
73
2
11
27.7737
21
5.5350
31
0.0
0
TEXT
8
TEXT
10
27.7737
20
5.2950
30
0.0
40
0.1500
1
mikt. 4,20x6,54
50
0.00
72
1
73
2
11
27.7737
21
5.2950
31
0.0
0
LINE
8
OPENINGS
10
29.7000
20
4.9433
30
0.0
11
29.7000
21
6.6467
31
0.0
0
LINE
8
OPENINGS
10
25.9474
20
2.7000
30
0.0
11
25.9474
21
3.6000
31
0.0
0
ARC
8
OPENINGS
10
25.9474
20
2.7000
30
0.0
40
0.9000
50
0.00
51
90.00
0
POLYLINE
8
ROOMS
66
1
70
1
10
0.0
20
0.0
30
0.0
0
VERTEX
8
ROOMS
10
17.3000
20
0.0500
30
0.0
0
VERTEX
8
ROOMS
10
19.1500
20
0.0500
30
0.0
0
VERTEX
8
ROOMS
10
19.1500
20
2.6000
30
0.0
0
VERTEX
8
ROOMS
10
17.3000
20
2.6000
30
0.0
0
SEQEND
8
ROOMS
0
TEXT
8
TEXT
10
18.2250
20
1.6050
30
0.0
40
0.2400
1
Λουτρό
50
0.00
72
1
73
2
11
18.2250
21
1.6050
31
0.0
0
TEXT
8
TEXT
10
18.2250
20
1.3250
30
0.0
40
0.1700
1
4,72 m2  (kath.)
50
0.00
72
1
73
2
11
18.2250
21
1.3250
31
0.0
0
TEXT
8
TEXT
10
18.2250
20
1.0650
30
0.0
40
0.1500
1
esot. 1,85x2,55
50
0.00
72
1
73
2
11
18.2250
21
1.0650
31
0.0
0
TEXT
8
TEXT
10
18.2250
20
0.8250
30
0.0
40
0.1500
1
mikt. 2,20x2,65
50
0.00
72
1
73
2
11
18.2250
21
0.8250
31
0.0
0
LINE
8
OPENINGS
10
17.3000
20
0.8750
30
0.0
11
17.3000
21
1.7750
31
0.0
0
LINE
8
OPENINGS
10
19.1500
20
1.7500
30
0.0
11
18.4000
21
1.7500
31
0.0
0
ARC
8
OPENINGS
10
19.1500
20
1.7500
30
0.0
40
0.7500
50
0.00
51
90.00
0
POLYLINE
8
ROOMS
66
1
70
1
10
0.0
20
0.0
30
0.0
0
VERTEX
8
ROOMS
10
27.4500
20
0.0500
30
0.0
0
VERTEX
8
ROOMS
10
29.7000
20
0.0500
30
0.0
0
VERTEX
8
ROOMS
10
29.7000
20
2.6000
30
0.0
0
VERTEX
8
ROOMS
10
27.4500
20
2.6000
30
0.0
0
SEQEND
8
ROOMS
0
TEXT
8
TEXT
10
28.5750
20
1.6050
30
0.0
40
0.2400
1
Κλιμακοστάσιο
50
0.00
72
1
73
2
11
28.5750
21
1.6050
31
0.0
0
TEXT
8
TEXT
10
28.5750
20
1.3250
30
0.0
40
0.1700
1
5,74 m2  (kath.)
50
0.00
72
1
73
2
11
28.5750
21
1.3250
31
0.0
0
TEXT
8
TEXT
10
28.5750
20
1.0650
30
0.0
40
0.1500
1
esot. 2,25x2,55
50
0.00
72
1
73
2
11
28.5750
21
1.0650
31
0.0
0
TEXT
8
TEXT
10
28.5750
20
0.8250
30
0.0
40
0.1500
1
mikt. 2,60x2,65
50
0.00
72
1
73
2
11
28.5750
21
0.8250
31
0.0
0
LINE
8
OPENINGS
10
27.4500
20
1.7500
30
0.0
11
28.2000
21
1.7500
31
0.0
0
ARC
8
OPENINGS
10
27.4500
20
1.7500
30
0.0
40
0.7500
50
0.00
51
90.00
0
POLYLINE
8
ROOMS
66
1
70
1
10
0.0
20
0.0
30
0.0
0
VERTEX
8
ROOMS
10
19.2500
20
1.6500
30
0.0
0
VERTEX
8
ROOMS
10
27.3500
20
1.6500
30
0.0
0
VERTEX
8
ROOMS
10
27.3500
20
2.6000
30
0.0
0
VERTEX
8
ROOMS
10
19.2500
20
2.6000
30
0.0
0
SEQEND
8
ROOMS
0
TEXT
8
TEXT
10
23.3000
20
2.4050
30
0.0
40
0.2400
1
Διάδρομος
50
0.00
72
1
73
2
11
23.3000
21
2.4050
31
0.0
0
TEXT
8
TEXT
10
23.3000
20
2.1250
30
0.0
40
0.1700
1
7,70 m2  (kath.)
50
0.00
72
1
73
2
11
23.3000
21
2.1250
31
0.0
0
TEXT
8
TEXT
10
23.3000
20
1.8650
30
0.0
40
0.1500
1
esot. 8,10x0,95
50
0.00
72
1
73
2
11
23.3000
21
1.8650
31
0.0
0
TEXT
8
TEXT
10
23.3000
20
1.6250
30
0.0
40
0.1500
1
mikt. 8,20x1,05
50
0.00
72
1
73
2
11
23.3000
21
1.6250
31
0.0
0
LINE
8
DIMS
10
17.0000
20
-1.2000
30
0.0
11
30.0000
21
-1.2000
31
0.0
0
LINE
8
DIMS
10
17.0000
20
-1.0500
30
0.0
11
17.0000
21
-1.3500
31
0.0
0
LINE
8
DIMS
10
30.0000
20
-1.0500
30
0.0
11
30.0000
21
-1.3500
31
0.0
0
TEXT
8
DIMS
10
23.5000
20
-1.5500
30
0.0
40
0.2800
1
13,00 m (A-D)
50
0.00
72
1
73
2
11
23.5000
21
-1.5500
31
0.0
0
LINE
8
DIMS
10
15.8000
20
0.0000
30
0.0
11
15.8000
21
9.1900
31
0.0
0
LINE
8
DIMS
10
15.9500
20
0.0000
30
0.0
11
15.6500
21
0.0000
31
0.0
0
LINE
8
DIMS
10
15.9500
20
9.1900
30
0.0
11
15.6500
21
9.1900
31
0.0
0
TEXT
8
DIMS
10
15.4500
20
4.5950
30
0.0
40
0.2800
1
9,19 m (B-N)
50
90.00
72
1
73
2
11
15.4500
21
4.5950
31
0.0
0
TEXT
8
TITLE
10
23.5000
20
9.8900
30
0.0
40
0.4000
1
Α' Όροφος  -  119,47 m2 (mikto)
50
0.00
72
1
73
2
11
23.5000
21
9.8900
31
0.0
0
POLYLINE
8
NORTH
66
1
70
1
10
0.0
20
0.0
30
0.0
0
VERTEX
8
NORTH
10
31.2000
20
9.1900
30
0.0
0
VERTEX
8
NORTH
10
30.8500
20
8.2900
30
0.0
0
VERTEX
8
NORTH
10
31.2000
20
8.5900
30
0.0
0
VERTEX
8
NORTH
10
31.5500
20
8.2900
30
0.0
0
SEQEND
8
NORTH
0
TEXT
8
NORTH
10
31.2000
20
9.5900
30
0.0
40
0.4500
1
B
50
0.00
72
1
73
2
11
31.2000
21
9.5900
31
0.0
0
TEXT
8
TITLE
10
0.0000
20
11.3900
30
0.0
40
0.5000
1
Μονοκατοικία Αμαλιάδας - Πρόταση 1
50
0.00
72
0
73
2
11
0.0000
21
11.3900
31
0.0
0
TEXT
8
TITLE
10
0.0000
20
10.6900
30
0.0
40
0.3000
1
Αμαλιάδα, Π.Ε. Ηλείας  |  Eisodos: Νότος  |  Orofoi: 2
50
0.00
72
0
73
2
11
0.0000
21
10.6900
31
0.0
0
ENDSEC
0
EOF
