0
SECTION
2
HEADER
9
$ACADVER
1
AC1009
9
$DWGCODEPAGE
3
ANSI_1253
9
$INSUNITS
70
6
0
ENDSEC
0
SECTION
2
TABLES
0
TABLE
2
LAYER
70
8
0
LAYER
2
OUTLINE
70
0
62
7
6
CONTINUOUS
0
LAYER
2
WALLS
70
0
62
8
6
CONTINUOUS
0
LAYER
2
ROOMS
70
0
62
3
6
CONTINUOUS
0
LAYER
2
OPENINGS
70
0
62
1
6
CONTINUOUS
0
LAYER
2
TEXT
70
0
62
7
6
CONTINUOUS
0
LAYER
2
DIMS
70
0
62
4
6
CONTINUOUS
0
LAYER
2
NORTH
70
0
62
2
6
CONTINUOUS
0
LAYER
2
TITLE
70
0
62
5
6
CONTINUOUS
0
ENDTAB
0
ENDSEC
0
SECTION
2
ENTITIES
0
POLYLINE
8
OUTLINE
66
1
70
1
10
0.0
20
0.0
30
0.0
0
VERTEX
8
OUTLINE
10
0.0000
20
0.0000
30
0.0
0
VERTEX
8
OUTLINE
10
13.0000
20
0.0000
30
0.0
0
VERTEX
8
OUTLINE
10
13.0000
20
3.4810
30
0.0
0
VERTEX
8
OUTLINE
10
11.5000
20
3.4810
30
0.0
0
VERTEX
8
OUTLINE
10
11.5000
20
10.0000
30
0.0
0
VERTEX
8
OUTLINE
10
1.5000
20
10.0000
30
0.0
0
VERTEX
8
OUTLINE
10
1.5000
20
3.4810
30
0.0
0
VERTEX
8
OUTLINE
10
0.0000
20
3.4810
30
0.0
0
SEQEND
8
OUTLINE
0
POLYLINE
8
WALLS
66
1
70
1
10
0.0
20
0.0
30
0.0
0
VERTEX
8
WALLS
10
0.3000
20
0.3000
30
0.0
0
VERTEX
8
WALLS
10
12.7000
20
0.3000
30
0.0
0
VERTEX
8
WALLS
10
12.7000
20
3.1810
30
0.0
0
VERTEX
8
WALLS
10
0.3000
20
3.1810
30
0.0
0
SEQEND
8
WALLS
0
POLYLINE
8
WALLS
66
1
70
1
10
0.0
20
0.0
30
0.0
0
VERTEX
8
WALLS
10
1.8000
20
3.7810
30
0.0
0
VERTEX
8
WALLS
10
11.2000
20
3.7810
30
0.0
0
VERTEX
8
WALLS
10
11.2000
20
9.7000
30
0.0
0
VERTEX
8
WALLS
10
1.8000
20
9.7000
30
0.0
0
SEQEND
8
WALLS
0
POLYLINE
8
ROOMS
66
1
70
1
10
0.0
20
0.0
30
0.0
0
VERTEX
8
ROOMS
10
0.3000
20
0.3000
30
0.0
0
VERTEX
8
ROOMS
10
3.4826
20
0.3000
30
0.0
0
VERTEX
8
ROOMS
10
3.4826
20
3.1810
30
0.0
0
VERTEX
8
ROOMS
10
0.3000
20
3.1810
30
0.0
0
SEQEND
8
ROOMS
0
TEXT
8
TEXT
10
1.8913
20
2.0205
30
0.0
40
0.2400
1
Κουζίνα
50
0.00
72
1
73
2
11
1.8913
21
2.0205
31
0.0
0
TEXT
8
TEXT
10
1.8913
20
1.7405
30
0.0
40
0.1700
1
9,17 m2  (kath.)
50
0.00
72
1
73
2
11
1.8913
21
1.7405
31
0.0
0
TEXT
8
TEXT
10
1.8913
20
1.4805
30
0.0
40
0.1500
1
esot. 3,18x2,88
50
0.00
72
1
73
2
11
1.8913
21
1.4805
31
0.0
0
TEXT
8
TEXT
10
1.8913
20
1.2405
30
0.0
40
0.1500
1
mikt. 3,53x3,48
50
0.00
72
1
73
2
11
1.8913
21
1.2405
31
0.0
0
LINE
8
OPENINGS
10
1.4413
20
0.3000
30
0.0
11
2.3413
21
0.3000
31
0.0
0
POLYLINE
8
ROOMS
66
1
70
1
10
0.0
20
0.0
30
0.0
0
VERTEX
8
ROOMS
10
3.5826
20
0.3000
30
0.0
0
VERTEX
8
ROOMS
10
7.8261
20
0.3000
30
0.0
0
VERTEX
8
ROOMS
10
7.8261
20
3.4310
30
0.0
0
VERTEX
8
ROOMS
10
3.5826
20
3.4310
30
0.0
0
SEQEND
8
ROOMS
0
TEXT
8
TEXT
10
5.7043
20
2.1455
30
0.0
40
0.2400
1
Σαλόνι
50
0.00
72
1
73
2
11
5.7043
21
2.1455
31
0.0
0
TEXT
8
TEXT
10
5.7043
20
1.8655
30
0.0
40
0.1700
1
13,29 m2  (kath.)
50
0.00
72
1
73
2
11
5.7043
21
1.8655
31
0.0
0
TEXT
8
TEXT
10
5.7043
20
1.6055
30
0.0
40
0.1500
1
esot. 4,24x3,13
50
0.00
72
1
73
2
11
5.7043
21
1.6055
31
0.0
0
TEXT
8
TEXT
10
5.7043
20
1.3655
30
0.0
40
0.1500
1
mikt. 4,34x3,48
50
0.00
72
1
73
2
11
5.7043
21
1.3655
31
0.0
0
LINE
8
OPENINGS
10
5.2298
20
0.3000
30
0.0
11
6.1789
21
0.3000
31
0.0
0
POLYLINE
8
ROOMS
66
1
70
1
10
0.0
20
0.0
30
0.0
0
VERTEX
8
ROOMS
10
7.9261
20
0.3000
30
0.0
0
VERTEX
8
ROOMS
10
12.7000
20
0.3000
30
0.0
0
VERTEX
8
ROOMS
10
12.7000
20
3.1810
30
0.0
0
VERTEX
8
ROOMS
10
7.9261
20
3.1810
30
0.0
0
SEQEND
8
ROOMS
0
TEXT
8
TEXT
10
10.3130
20
2.0205
30
0.0
40
0.2400
1
Καθιστικό
50
0.00
72
1
73
2
11
10.3130
21
2.0205
31
0.0
0
TEXT
8
TEXT
10
10.3130
20
1.7405
30
0.0
40
0.1700
1
13,75 m2  (kath.)
50
0.00
72
1
73
2
11
10.3130
21
1.7405
31
0.0
0
TEXT
8
TEXT
10
10.3130
20
1.4805
30
0.0
40
0.1500
1
esot. 4,77x2,88
50
0.00
72
1
73
2
11
10.3130
21
1.4805
31
0.0
0
TEXT
8
TEXT
10
10.3130
20
1.2405
30
0.0
40
0.1500
1
mikt. 5,12x3,48
50
0.00
72
1
73
2
11
10.3130
21
1.2405
31
0.0
0
LINE
8
OPENINGS
10
9.8218
20
0.3000
30
0.0
11
10.8042
21
0.3000
31
0.0
0
LINE
8
OPENINGS
10
9.8130
20
0.3000
30
0.0
11
9.8130
21
1.3000
31
0.0
0
ARC
8
OPENINGS
10
9.8130
20
0.3000
30
0.0
40
1.0000
50
0.00
51
90.00
0
POLYLINE
8
ROOMS
66
1
70
1
10
0.0
20
0.0
30
0.0
0
VERTEX
8
ROOMS
10
1.8000
20
6.1800
30
0.0
0
VERTEX
8
ROOMS
10
4.8000
20
6.1800
30
0.0
0
VERTEX
8
ROOMS
10
4.8000
20
9.7000
30
0.0
0
VERTEX
8
ROOMS
10
1.8000
20
9.7000
30
0.0
0
SEQEND
8
ROOMS
0
TEXT
8
TEXT
10
3.3000
20
8.2200
30
0.0
40
0.2400
1
Υπνοδωμάτιο 3
50
0.00
72
1
73
2
11
3.3000
21
8.2200
31
0.0
0
TEXT
8
TEXT
10
3.3000
20
7.9400
30
0.0
40
0.1700
1
10,56 m2  (kath.)
50
0.00
72
1
73
2
11
3.3000
21
7.9400
31
0.0
0
TEXT
8
TEXT
10
3.3000
20
7.6800
30
0.0
40
0.1500
1
esot. 3,00x3,52
50
0.00
72
1
73
2
11
3.3000
21
7.6800
31
0.0
0
TEXT
8
TEXT
10
3.3000
20
7.4400
30
0.0
40
0.1500
1
mikt. 3,35x3,87
50
0.00
72
1
73
2
11
3.3000
21
7.4400
31
0.0
0
LINE
8
OPENINGS
10
2.8500
20
9.7000
30
0.0
11
3.7500
21
9.7000
31
0.0
0
LINE
8
OPENINGS
10
3.8000
20
6.1800
30
0.0
11
3.8000
21
7.0800
31
0.0
0
ARC
8
OPENINGS
10
3.8000
20
6.1800
30
0.0
40
0.9000
50
0.00
51
90.00
0
POLYLINE
8
ROOMS
66
1
70
1
10
0.0
20
0.0
30
0.0
0
VERTEX
8
ROOMS
10
4.9000
20
6.1800
30
0.0
0
VERTEX
8
ROOMS
10
7.9000
20
6.1800
30
0.0
0
VERTEX
8
ROOMS
10
7.9000
20
9.7000
30
0.0
0
VERTEX
8
ROOMS
10
4.9000
20
9.7000
30
0.0
0
SEQEND
8
ROOMS
0
TEXT
8
TEXT
10
6.4000
20
8.2200
30
0.0
40
0.2400
1
Υπνοδωμάτιο 2
50
0.00
72
1
73
2
11
6.4000
21
8.2200
31
0.0
0
TEXT
8
TEXT
10
6.4000
20
7.9400
30
0.0
40
0.1700
1
10,56 m2  (kath.)
50
0.00
72
1
73
2
11
6.4000
21
7.9400
31
0.0
0
TEXT
8
TEXT
10
6.4000
20
7.6800
30
0.0
40
0.1500
1
esot. 3,00x3,52
50
0.00
72
1
73
2
11
6.4000
21
7.6800
31
0.0
0
TEXT
8
TEXT
10
6.4000
20
7.4400
30
0.0
40
0.1500
1
mikt. 3,10x3,87
50
0.00
72
1
73
2
11
6.4000
21
7.4400
31
0.0
0
LINE
8
OPENINGS
10
5.9500
20
9.7000
30
0.0
11
6.8500
21
9.7000
31
0.0
0
LINE
8
OPENINGS
10
5.7500
20
6.1800
30
0.0
11
5.7500
21
7.0800
31
0.0
0
ARC
8
OPENINGS
10
5.7500
20
6.1800
30
0.0
40
0.9000
50
0.00
51
90.00
0
POLYLINE
8
ROOMS
66
1
70
1
10
0.0
20
0.0
30
0.0
0
VERTEX
8
ROOMS
10
8.0000
20
6.1800
30
0.0
0
VERTEX
8
ROOMS
10
11.2000
20
6.1800
30
0.0
0
VERTEX
8
ROOMS
10
11.2000
20
9.7000
30
0.0
0
VERTEX
8
ROOMS
10
8.0000
20
9.7000
30
0.0
0
SEQEND
8
ROOMS
0
TEXT
8
TEXT
10
9.6000
20
8.2200
30
0.0
40
0.2400
1
Κύριο Υπνοδωμάτιο
50
0.00
72
1
73
2
11
9.6000
21
8.2200
31
0.0
0
TEXT
8
TEXT
10
9.6000
20
7.9400
30
0.0
40
0.1700
1
11,26 m2  (kath.)
50
0.00
72
1
73
2
11
9.6000
21
7.9400
31
0.0
0
TEXT
8
TEXT
10
9.6000
20
7.6800
30
0.0
40
0.1500
1
esot. 3,20x3,52
50
0.00
72
1
73
2
11
9.6000
21
7.6800
31
0.0
0
TEXT
8
TEXT
10
9.6000
20
7.4400
30
0.0
40
0.1500
1
mikt. 3,55x3,87
50
0.00
72
1
73
2
11
9.6000
21
7.4400
31
0.0
0
LINE
8
OPENINGS
10
11.2000
20
7.4900
30
0.0
11
11.2000
21
8.3900
31
0.0
0
LINE
8
OPENINGS
10
8.1000
20
6.1800
30
0.0
11
8.1000
21
7.0800
31
0.0
0
ARC
8
OPENINGS
10
8.1000
20
6.1800
30
0.0
40
0.9000
50
0.00
51
90.00
0
POLYLINE
8
ROOMS
66
1
70
1
10
0.0
20
0.0
30
0.0
0
VERTEX
8
ROOMS
10
1.8000
20
3.5310
30
0.0
0
VERTEX
8
ROOMS
10
3.0500
20
3.5310
30
0.0
0
VERTEX
8
ROOMS
10
3.0500
20
6.0800
30
0.0
0
VERTEX
8
ROOMS
10
1.8000
20
6.0800
30
0.0
0
SEQEND
8
ROOMS
0
TEXT
8
TEXT
10
2.4250
20
5.0855
30
0.0
40
0.2400
1
Χωλ
50
0.00
72
1
73
2
11
2.4250
21
5.0855
31
0.0
0
TEXT
8
TEXT
10
2.4250
20
4.8055
30
0.0
40
0.1700
1
3,19 m2  (kath.)
50
0.00
72
1
73
2
11
2.4250
21
4.8055
31
0.0
0
TEXT
8
TEXT
10
2.4250
20
4.5455
30
0.0
40
0.1500
1
esot. 1,25x2,55
50
0.00
72
1
73
2
11
2.4250
21
4.5455
31
0.0
0
TEXT
8
TEXT
10
2.4250
20
4.3055
30
0.0
40
0.1500
1
mikt. 1,60x2,65
50
0.00
72
1
73
2
11
2.4250
21
4.3055
31
0.0
0
LINE
8
OPENINGS
10
3.0500
20
5.1300
30
0.0
11
2.2000
21
5.1300
31
0.0
0
ARC
8
OPENINGS
10
3.0500
20
5.1300
30
0.0
40
0.8500
50
0.00
51
90.00
0
LINE
8
OPENINGS
10
1.9750
20
3.5310
30
0.0
11
1.9750
21
4.4310
31
0.0
0
ARC
8
OPENINGS
10
1.9750
20
3.5310
30
0.0
40
0.9000
50
0.00
51
90.00
0
POLYLINE
8
ROOMS
66
1
70
1
10
0.0
20
0.0
30
0.0
0
VERTEX
8
ROOMS
10
3.1500
20
3.5310
30
0.0
0
VERTEX
8
ROOMS
10
5.4765
20
3.5310
30
0.0
0
VERTEX
8
ROOMS
10
5.4765
20
4.9300
30
0.0
0
VERTEX
8
ROOMS
10
3.1500
20
4.9300
30
0.0
0
SEQEND
8
ROOMS
0
TEXT
8
TEXT
10
4.3133
20
4.5105
30
0.0
40
0.2400
1
WC
50
0.00
72
1
73
2
11
4.3133
21
4.5105
31
0.0
0
TEXT
8
TEXT
10
4.3133
20
4.2305
30
0.0
40
0.1700
1
3,25 m2  (kath.)
50
0.00
72
1
73
2
11
4.3133
21
4.2305
31
0.0
0
TEXT
8
TEXT
10
4.3133
20
3.9705
30
0.0
40
0.1500
1
esot. 2,33x1,40
50
0.00
72
1
73
2
11
4.3133
21
3.9705
31
0.0
0
TEXT
8
TEXT
10
4.3133
20
3.7305
30
0.0
40
0.1500
1
mikt. 2,43x1,50
50
0.00
72
1
73
2
11
4.3133
21
3.7305
31
0.0
0
LINE
8
OPENINGS
10
4.6765
20
4.9300
30
0.0
11
4.6765
21
4.2300
31
0.0
0
ARC
8
OPENINGS
10
4.6765
20
4.9300
30
0.0
40
0.7000
50
270.00
51
360.00
0
POLYLINE
8
ROOMS
66
1
70
1
10
0.0
20
0.0
30
0.0
0
VERTEX
8
ROOMS
10
5.5765
20
3.5310
30
0.0
0
VERTEX
8
ROOMS
10
9.2500
20
3.5310
30
0.0
0
VERTEX
8
ROOMS
10
9.2500
20
4.9300
30
0.0
0
VERTEX
8
ROOMS
10
5.5765
20
4.9300
30
0.0
0
SEQEND
8
ROOMS
0
TEXT
8
TEXT
10
7.4133
20
4.5105
30
0.0
40
0.2400
1
Αποθήκη
50
0.00
72
1
73
2
11
7.4133
21
4.5105
31
0.0
0
TEXT
8
TEXT
10
7.4133
20
4.2305
30
0.0
40
0.1700
1
5,14 m2  (kath.)
50
0.00
72
1
73
2
11
7.4133
21
4.2305
31
0.0
0
TEXT
8
TEXT
10
7.4133
20
3.9705
30
0.0
40
0.1500
1
esot. 3,67x1,40
50
0.00
72
1
73
2
11
7.4133
21
3.9705
31
0.0
0
TEXT
8
TEXT
10
7.4133
20
3.7305
30
0.0
40
0.1500
1
mikt. 3,77x1,50
50
0.00
72
1
73
2
11
7.4133
21
3.7305
31
0.0
0
LINE
8
OPENINGS
10
5.8000
20
4.9300
30
0.0
11
5.8000
21
4.1300
31
0.0
0
ARC
8
OPENINGS
10
5.8000
20
4.9300
30
0.0
40
0.8000
50
270.00
51
360.00
0
POLYLINE
8
ROOMS
66
1
70
1
10
0.0
20
0.0
30
0.0
0
VERTEX
8
ROOMS
10
9.3500
20
3.5310
30
0.0
0
VERTEX
8
ROOMS
10
11.2000
20
3.5310
30
0.0
0
VERTEX
8
ROOMS
10
11.2000
20
6.0800
30
0.0
0
VERTEX
8
ROOMS
10
9.3500
20
6.0800
30
0.0
0
SEQEND
8
ROOMS
0
TEXT
8
TEXT
10
10.2750
20
5.0855
30
0.0
40
0.2400
1
Λουτρό
50
0.00
72
1
73
2
11
10.2750
21
5.0855
31
0.0
0
TEXT
8
TEXT
10
10.2750
20
4.8055
30
0.0
40
0.1700
1
4,72 m2  (kath.)
50
0.00
72
1
73
2
11
10.2750
21
4.8055
31
0.0
0
TEXT
8
TEXT
10
10.2750
20
4.5455
30
0.0
40
0.1500
1
esot. 1,85x2,55
50
0.00
72
1
73
2
11
10.2750
21
4.5455
31
0.0
0
TEXT
8
TEXT
10
10.2750
20
4.3055
30
0.0
40
0.1500
1
mikt. 2,20x2,65
50
0.00
72
1
73
2
11
10.2750
21
4.3055
31
0.0
0
LINE
8
OPENINGS
10
11.2000
20
4.3555
30
0.0
11
11.2000
21
5.2555
31
0.0
0
LINE
8
OPENINGS
10
9.3500
20
5.1550
30
0.0
11
10.1500
21
5.1550
31
0.0
0
ARC
8
OPENINGS
10
9.3500
20
5.1550
30
0.0
40
0.8000
50
0.00
51
90.00
0
POLYLINE
8
ROOMS
66
1
70
1
10
0.0
20
0.0
30
0.0
0
VERTEX
8
ROOMS
10
3.1500
20
5.0300
30
0.0
0
VERTEX
8
ROOMS
10
9.2500
20
5.0300
30
0.0
0
VERTEX
8
ROOMS
10
9.2500
20
6.0800
30
0.0
0
VERTEX
8
ROOMS
10
3.1500
20
6.0800
30
0.0
0
SEQEND
8
ROOMS
0
TEXT
8
TEXT
10
6.2000
20
5.8350
30
0.0
40
0.2400
1
Διάδρομος
50
0.00
72
1
73
2
11
6.2000
21
5.8350
31
0.0
0
TEXT
8
TEXT
10
6.2000
20
5.5550
30
0.0
40
0.1700
1
6,41 m2  (kath.)
50
0.00
72
1
73
2
11
6.2000
21
5.5550
31
0.0
0
TEXT
8
TEXT
10
6.2000
20
5.2950
30
0.0
40
0.1500
1
esot. 6,10x1,05
50
0.00
72
1
73
2
11
6.2000
21
5.2950
31
0.0
0
TEXT
8
TEXT
10
6.2000
20
5.0550
30
0.0
40
0.1500
1
mikt. 6,20x1,15
50
0.00
72
1
73
2
11
6.2000
21
5.0550
31
0.0
0
LINE
8
DIMS
10
0.0000
20
-1.2000
30
0.0
11
13.0000
21
-1.2000
31
0.0
0
LINE
8
DIMS
10
0.0000
20
-1.0500
30
0.0
11
0.0000
21
-1.3500
31
0.0
0
LINE
8
DIMS
10
13.0000
20
-1.0500
30
0.0
11
13.0000
21
-1.3500
31
0.0
0
TEXT
8
DIMS
10
6.5000
20
-1.5500
30
0.0
40
0.2800
1
13,00 m (A-D)
50
0.00
72
1
73
2
11
6.5000
21
-1.5500
31
0.0
0
LINE
8
DIMS
10
-1.2000
20
0.0000
30
0.0
11
-1.2000
21
10.0000
31
0.0
0
LINE
8
DIMS
10
-1.0500
20
0.0000
30
0.0
11
-1.3500
21
0.0000
31
0.0
0
LINE
8
DIMS
10
-1.0500
20
10.0000
30
0.0
11
-1.3500
21
10.0000
31
0.0
0
TEXT
8
DIMS
10
-1.5500
20
5.0000
30
0.0
40
0.2800
1
10,00 m (B-N)
50
90.00
72
1
73
2
11
-1.5500
21
5.0000
31
0.0
0
TEXT
8
TITLE
10
6.5000
20
10.7000
30
0.0
40
0.4000
1
Ισόγειο  -  110,44 m2 (mikto)
50
0.00
72
1
73
2
11
6.5000
21
10.7000
31
0.0
0
POLYLINE
8
NORTH
66
1
70
1
10
0.0
20
0.0
30
0.0
0
VERTEX
8
NORTH
10
14.2000
20
10.0000
30
0.0
0
VERTEX
8
NORTH
10
13.8500
20
9.1000
30
0.0
0
VERTEX
8
NORTH
10
14.2000
20
9.4000
30
0.0
0
VERTEX
8
NORTH
10
14.5500
20
9.1000
30
0.0
0
SEQEND
8
NORTH
0
TEXT
8
NORTH
10
14.2000
20
10.4000
30
0.0
40
0.4500
1
B
50
0.00
72
1
73
2
11
14.2000
21
10.4000
31
0.0
0
TEXT
8
TITLE
10
0.0000
20
12.2000
30
0.0
40
0.5000
1
Μονοκατοικία Αμαλιάδας - Πρόταση 2
50
0.00
72
0
73
2
11
0.0000
21
12.2000
31
0.0
0
TEXT
8
TITLE
10
0.0000
20
11.5000
30
0.0
40
0.3000
1
Αμαλιάδα, Π.Ε. Ηλείας  |  Eisodos: Νότος  |  Orofoi: 1
50
0.00
72
0
73
2
11
0.0000
21
11.5000
31
0.0
0
ENDSEC
0
EOF
