0
SECTION
2
HEADER
9
$ACADVER
1
AC1009
9
$DWGCODEPAGE
3
ANSI_1253
9
$INSUNITS
70
6
0
ENDSEC
0
SECTION
2
TABLES
0
TABLE
2
LAYER
70
8
0
LAYER
2
OUTLINE
70
0
62
7
6
CONTINUOUS
0
LAYER
2
WALLS
70
0
62
8
6
CONTINUOUS
0
LAYER
2
ROOMS
70
0
62
3
6
CONTINUOUS
0
LAYER
2
OPENINGS
70
0
62
1
6
CONTINUOUS
0
LAYER
2
TEXT
70
0
62
7
6
CONTINUOUS
0
LAYER
2
DIMS
70
0
62
4
6
CONTINUOUS
0
LAYER
2
NORTH
70
0
62
2
6
CONTINUOUS
0
LAYER
2
TITLE
70
0
62
5
6
CONTINUOUS
0
ENDTAB
0
ENDSEC
0
SECTION
2
ENTITIES
0
POLYLINE
8
OUTLINE
66
1
70
1
10
0.0
20
0.0
30
0.0
0
VERTEX
8
OUTLINE
10
0.0000
20
0.0000
30
0.0
0
VERTEX
8
OUTLINE
10
13.0000
20
0.0000
30
0.0
0
VERTEX
8
OUTLINE
10
13.0000
20
9.1800
30
0.0
0
VERTEX
8
OUTLINE
10
0.0000
20
9.1800
30
0.0
0
SEQEND
8
OUTLINE
0
POLYLINE
8
WALLS
66
1
70
1
10
0.0
20
0.0
30
0.0
0
VERTEX
8
WALLS
10
0.3000
20
0.3000
30
0.0
0
VERTEX
8
WALLS
10
12.7000
20
0.3000
30
0.0
0
VERTEX
8
WALLS
10
12.7000
20
8.8800
30
0.0
0
VERTEX
8
WALLS
10
0.3000
20
8.8800
30
0.0
0
SEQEND
8
WALLS
0
POLYLINE
8
ROOMS
66
1
70
1
10
0.0
20
0.0
30
0.0
0
VERTEX
8
ROOMS
10
0.3000
20
0.3000
30
0.0
0
VERTEX
8
ROOMS
10
5.1022
20
0.3000
30
0.0
0
VERTEX
8
ROOMS
10
5.1022
20
3.4500
30
0.0
0
VERTEX
8
ROOMS
10
0.3000
20
3.4500
30
0.0
0
SEQEND
8
ROOMS
0
TEXT
8
TEXT
10
2.7011
20
2.1550
30
0.0
40
0.2400
1
Καθιστικό
50
0.00
72
1
73
2
11
2.7011
21
2.1550
31
0.0
0
TEXT
8
TEXT
10
2.7011
20
1.8750
30
0.0
40
0.1700
1
15,13 m2  (kath.)
50
0.00
72
1
73
2
11
2.7011
21
1.8750
31
0.0
0
TEXT
8
TEXT
10
2.7011
20
1.6150
30
0.0
40
0.1500
1
esot. 4,80x3,15
50
0.00
72
1
73
2
11
2.7011
21
1.6150
31
0.0
0
TEXT
8
TEXT
10
2.7011
20
1.3750
30
0.0
40
0.1500
1
mikt. 5,15x3,50
50
0.00
72
1
73
2
11
2.7011
21
1.3750
31
0.0
0
LINE
8
OPENINGS
10
2.1608
20
0.3000
30
0.0
11
3.2413
21
0.3000
31
0.0
0
LINE
8
OPENINGS
10
2.2511
20
3.4500
30
0.0
11
2.2511
21
2.5500
31
0.0
0
ARC
8
OPENINGS
10
2.2511
20
3.4500
30
0.0
40
0.9000
50
270.00
51
360.00
0
LINE
8
OPENINGS
10
2.2011
20
0.3000
30
0.0
11
2.2011
21
1.3000
31
0.0
0
ARC
8
OPENINGS
10
2.2011
20
0.3000
30
0.0
40
1.0000
50
0.00
51
90.00
0
POLYLINE
8
ROOMS
66
1
70
1
10
0.0
20
0.0
30
0.0
0
VERTEX
8
ROOMS
10
5.2022
20
0.3000
30
0.0
0
VERTEX
8
ROOMS
10
9.4152
20
0.3000
30
0.0
0
VERTEX
8
ROOMS
10
9.4152
20
3.4500
30
0.0
0
VERTEX
8
ROOMS
10
5.2022
20
3.4500
30
0.0
0
SEQEND
8
ROOMS
0
TEXT
8
TEXT
10
7.3087
20
2.1550
30
0.0
40
0.2400
1
Σαλόνι
50
0.00
72
1
73
2
11
7.3087
21
2.1550
31
0.0
0
TEXT
8
TEXT
10
7.3087
20
1.8750
30
0.0
40
0.1700
1
13,27 m2  (kath.)
50
0.00
72
1
73
2
11
7.3087
21
1.8750
31
0.0
0
TEXT
8
TEXT
10
7.3087
20
1.6150
30
0.0
40
0.1500
1
esot. 4,21x3,15
50
0.00
72
1
73
2
11
7.3087
21
1.6150
31
0.0
0
TEXT
8
TEXT
10
7.3087
20
1.3750
30
0.0
40
0.1500
1
mikt. 4,31x3,50
50
0.00
72
1
73
2
11
7.3087
21
1.3750
31
0.0
0
LINE
8
OPENINGS
10
6.8347
20
0.3000
30
0.0
11
7.7827
21
0.3000
31
0.0
0
LINE
8
OPENINGS
10
6.8587
20
3.4500
30
0.0
11
6.8587
21
2.5500
31
0.0
0
ARC
8
OPENINGS
10
6.8587
20
3.4500
30
0.0
40
0.9000
50
270.00
51
360.00
0
POLYLINE
8
ROOMS
66
1
70
1
10
0.0
20
0.0
30
0.0
0
VERTEX
8
ROOMS
10
9.5152
20
0.3000
30
0.0
0
VERTEX
8
ROOMS
10
12.7000
20
0.3000
30
0.0
0
VERTEX
8
ROOMS
10
12.7000
20
3.4500
30
0.0
0
VERTEX
8
ROOMS
10
9.5152
20
3.4500
30
0.0
0
SEQEND
8
ROOMS
0
TEXT
8
TEXT
10
11.1076
20
2.1550
30
0.0
40
0.2400
1
Κουζίνα
50
0.00
72
1
73
2
11
11.1076
21
2.1550
31
0.0
0
TEXT
8
TEXT
10
11.1076
20
1.8750
30
0.0
40
0.1700
1
10,03 m2  (kath.)
50
0.00
72
1
73
2
11
11.1076
21
1.8750
31
0.0
0
TEXT
8
TEXT
10
11.1076
20
1.6150
30
0.0
40
0.1500
1
esot. 3,18x3,15
50
0.00
72
1
73
2
11
11.1076
21
1.6150
31
0.0
0
TEXT
8
TEXT
10
11.1076
20
1.3750
30
0.0
40
0.1500
1
mikt. 3,53x3,50
50
0.00
72
1
73
2
11
11.1076
21
1.3750
31
0.0
0
LINE
8
OPENINGS
10
10.6576
20
0.3000
30
0.0
11
11.5576
21
0.3000
31
0.0
0
LINE
8
OPENINGS
10
10.6576
20
3.4500
30
0.0
11
10.6576
21
2.5500
31
0.0
0
ARC
8
OPENINGS
10
10.6576
20
3.4500
30
0.0
40
0.9000
50
270.00
51
360.00
0
POLYLINE
8
ROOMS
66
1
70
1
10
0.0
20
0.0
30
0.0
0
VERTEX
8
ROOMS
10
0.3000
20
4.5500
30
0.0
0
VERTEX
8
ROOMS
10
4.2256
20
4.5500
30
0.0
0
VERTEX
8
ROOMS
10
4.2256
20
8.8800
30
0.0
0
VERTEX
8
ROOMS
10
0.3000
20
8.8800
30
0.0
0
SEQEND
8
ROOMS
0
TEXT
8
TEXT
10
2.2628
20
6.9950
30
0.0
40
0.2400
1
Κύριο Υπνοδωμάτιο
50
0.00
72
1
73
2
11
2.2628
21
6.9950
31
0.0
0
TEXT
8
TEXT
10
2.2628
20
6.7150
30
0.0
40
0.1700
1
17,00 m2  (kath.)
50
0.00
72
1
73
2
11
2.2628
21
6.7150
31
0.0
0
TEXT
8
TEXT
10
2.2628
20
6.4550
30
0.0
40
0.1500
1
esot. 3,93x4,33
50
0.00
72
1
73
2
11
2.2628
21
6.4550
31
0.0
0
TEXT
8
TEXT
10
2.2628
20
6.2150
30
0.0
40
0.1500
1
mikt. 4,28x4,68
50
0.00
72
1
73
2
11
2.2628
21
6.2150
31
0.0
0
LINE
8
OPENINGS
10
1.6557
20
8.8800
30
0.0
11
2.8698
21
8.8800
31
0.0
0
LINE
8
OPENINGS
10
1.8128
20
4.5500
30
0.0
11
1.8128
21
5.4500
31
0.0
0
ARC
8
OPENINGS
10
1.8128
20
4.5500
30
0.0
40
0.9000
50
0.00
51
90.00
0
POLYLINE
8
ROOMS
66
1
70
1
10
0.0
20
0.0
30
0.0
0
VERTEX
8
ROOMS
10
4.3256
20
4.5500
30
0.0
0
VERTEX
8
ROOMS
10
7.6332
20
4.5500
30
0.0
0
VERTEX
8
ROOMS
10
7.6332
20
8.8800
30
0.0
0
VERTEX
8
ROOMS
10
4.3256
20
8.8800
30
0.0
0
SEQEND
8
ROOMS
0
TEXT
8
TEXT
10
5.9794
20
6.9950
30
0.0
40
0.2400
1
Υπνοδωμάτιο 2
50
0.00
72
1
73
2
11
5.9794
21
6.9950
31
0.0
0
TEXT
8
TEXT
10
5.9794
20
6.7150
30
0.0
40
0.1700
1
14,32 m2  (kath.)
50
0.00
72
1
73
2
11
5.9794
21
6.7150
31
0.0
0
TEXT
8
TEXT
10
5.9794
20
6.4550
30
0.0
40
0.1500
1
esot. 3,31x4,33
50
0.00
72
1
73
2
11
5.9794
21
6.4550
31
0.0
0
TEXT
8
TEXT
10
5.9794
20
6.2150
30
0.0
40
0.1500
1
mikt. 3,41x4,68
50
0.00
72
1
73
2
11
5.9794
21
6.2150
31
0.0
0
LINE
8
OPENINGS
10
5.4679
20
8.8800
30
0.0
11
6.4909
21
8.8800
31
0.0
0
LINE
8
OPENINGS
10
5.5294
20
4.5500
30
0.0
11
5.5294
21
5.4500
31
0.0
0
ARC
8
OPENINGS
10
5.5294
20
4.5500
30
0.0
40
0.9000
50
0.00
51
90.00
0
POLYLINE
8
ROOMS
66
1
70
1
10
0.0
20
0.0
30
0.0
0
VERTEX
8
ROOMS
10
7.7332
20
4.5500
30
0.0
0
VERTEX
8
ROOMS
10
11.0408
20
4.5500
30
0.0
0
VERTEX
8
ROOMS
10
11.0408
20
8.8800
30
0.0
0
VERTEX
8
ROOMS
10
7.7332
20
8.8800
30
0.0
0
SEQEND
8
ROOMS
0
TEXT
8
TEXT
10
9.3870
20
6.9950
30
0.0
40
0.2400
1
Υπνοδωμάτιο 3
50
0.00
72
1
73
2
11
9.3870
21
6.9950
31
0.0
0
TEXT
8
TEXT
10
9.3870
20
6.7150
30
0.0
40
0.1700
1
14,32 m2  (kath.)
50
0.00
72
1
73
2
11
9.3870
21
6.7150
31
0.0
0
TEXT
8
TEXT
10
9.3870
20
6.4550
30
0.0
40
0.1500
1
esot. 3,31x4,33
50
0.00
72
1
73
2
11
9.3870
21
6.4550
31
0.0
0
TEXT
8
TEXT
10
9.3870
20
6.2150
30
0.0
40
0.1500
1
mikt. 3,41x4,68
50
0.00
72
1
73
2
11
9.3870
21
6.2150
31
0.0
0
LINE
8
OPENINGS
10
8.8755
20
8.8800
30
0.0
11
9.8985
21
8.8800
31
0.0
0
LINE
8
OPENINGS
10
8.9370
20
4.5500
30
0.0
11
8.9370
21
5.4500
31
0.0
0
ARC
8
OPENINGS
10
8.9370
20
4.5500
30
0.0
40
0.9000
50
0.00
51
90.00
0
POLYLINE
8
ROOMS
66
1
70
1
10
0.0
20
0.0
30
0.0
0
VERTEX
8
ROOMS
10
11.1408
20
4.5500
30
0.0
0
VERTEX
8
ROOMS
10
12.7000
20
4.5500
30
0.0
0
VERTEX
8
ROOMS
10
12.7000
20
5.9223
30
0.0
0
VERTEX
8
ROOMS
10
11.1408
20
5.9223
30
0.0
0
SEQEND
8
ROOMS
0
TEXT
8
TEXT
10
11.9204
20
5.5161
30
0.0
40
0.2400
1
Λουτρό
50
0.00
72
1
73
2
11
11.9204
21
5.5161
31
0.0
0
TEXT
8
TEXT
10
11.9204
20
5.2361
30
0.0
40
0.1700
1
2,14 m2  (kath.)
50
0.00
72
1
73
2
11
11.9204
21
5.2361
31
0.0
0
TEXT
8
TEXT
10
11.9204
20
4.9761
30
0.0
40
0.1500
1
esot. 1,56x1,37
50
0.00
72
1
73
2
11
11.9204
21
4.9761
31
0.0
0
TEXT
8
TEXT
10
11.9204
20
4.7361
30
0.0
40
0.1500
1
mikt. 1,91x1,47
50
0.00
72
1
73
2
11
11.9204
21
4.7361
31
0.0
0
LINE
8
OPENINGS
10
12.7000
20
4.8500
30
0.0
11
12.7000
21
5.6223
31
0.0
0
LINE
8
OPENINGS
10
11.5204
20
4.5500
30
0.0
11
11.5204
21
5.3500
31
0.0
0
ARC
8
OPENINGS
10
11.5204
20
4.5500
30
0.0
40
0.8000
50
0.00
51
90.00
0
POLYLINE
8
ROOMS
66
1
70
1
10
0.0
20
0.0
30
0.0
0
VERTEX
8
ROOMS
10
11.1408
20
6.0223
30
0.0
0
VERTEX
8
ROOMS
10
12.7000
20
6.0223
30
0.0
0
VERTEX
8
ROOMS
10
12.7000
20
7.0265
30
0.0
0
VERTEX
8
ROOMS
10
11.1408
20
7.0265
30
0.0
0
SEQEND
8
ROOMS
0
TEXT
8
TEXT
10
11.9204
20
6.8044
30
0.0
40
0.2400
1
Αποθήκη
50
0.00
72
1
73
2
11
11.9204
21
6.8044
31
0.0
0
TEXT
8
TEXT
10
11.9204
20
6.5244
30
0.0
40
0.1700
1
1,57 m2  (kath.)
50
0.00
72
1
73
2
11
11.9204
21
6.5244
31
0.0
0
TEXT
8
TEXT
10
11.9204
20
6.2644
30
0.0
40
0.1500
1
esot. 1,56x1,00
50
0.00
72
1
73
2
11
11.9204
21
6.2644
31
0.0
0
TEXT
8
TEXT
10
11.9204
20
6.0244
30
0.0
40
0.1500
1
mikt. 1,91x1,10
50
0.00
72
1
73
2
11
11.9204
21
6.0244
31
0.0
0
LINE
8
OPENINGS
10
11.5204
20
6.0223
30
0.0
11
11.5204
21
6.8223
31
0.0
0
ARC
8
OPENINGS
10
11.5204
20
6.0223
30
0.0
40
0.8000
50
0.00
51
90.00
0
POLYLINE
8
ROOMS
66
1
70
1
10
0.0
20
0.0
30
0.0
0
VERTEX
8
ROOMS
10
11.1408
20
7.1265
30
0.0
0
VERTEX
8
ROOMS
10
12.7000
20
7.1265
30
0.0
0
VERTEX
8
ROOMS
10
12.7000
20
8.1307
30
0.0
0
VERTEX
8
ROOMS
10
11.1408
20
8.1307
30
0.0
0
SEQEND
8
ROOMS
0
TEXT
8
TEXT
10
11.9204
20
7.9086
30
0.0
40
0.2400
1
Χωλ
50
0.00
72
1
73
2
11
11.9204
21
7.9086
31
0.0
0
TEXT
8
TEXT
10
11.9204
20
7.6286
30
0.0
40
0.1700
1
1,57 m2  (kath.)
50
0.00
72
1
73
2
11
11.9204
21
7.6286
31
0.0
0
TEXT
8
TEXT
10
11.9204
20
7.3686
30
0.0
40
0.1500
1
esot. 1,56x1,00
50
0.00
72
1
73
2
11
11.9204
21
7.3686
31
0.0
0
TEXT
8
TEXT
10
11.9204
20
7.1286
30
0.0
40
0.1500
1
mikt. 1,91x1,10
50
0.00
72
1
73
2
11
11.9204
21
7.1286
31
0.0
0
LINE
8
OPENINGS
10
11.4704
20
7.1265
30
0.0
11
11.4704
21
8.0265
31
0.0
0
ARC
8
OPENINGS
10
11.4704
20
7.1265
30
0.0
40
0.9000
50
0.00
51
90.00
0
POLYLINE
8
ROOMS
66
1
70
1
10
0.0
20
0.0
30
0.0
0
VERTEX
8
ROOMS
10
11.1408
20
8.2307
30
0.0
0
VERTEX
8
ROOMS
10
12.7000
20
8.2307
30
0.0
0
VERTEX
8
ROOMS
10
12.7000
20
8.8800
30
0.0
0
VERTEX
8
ROOMS
10
11.1408
20
8.8800
30
0.0
0
SEQEND
8
ROOMS
0
TEXT
8
TEXT
10
11.9204
20
8.8353
30
0.0
40
0.2400
1
WC
50
0.00
72
1
73
2
11
11.9204
21
8.8353
31
0.0
0
TEXT
8
TEXT
10
11.9204
20
8.5553
30
0.0
40
0.1700
1
1,01 m2  (kath.)
50
0.00
72
1
73
2
11
11.9204
21
8.5553
31
0.0
0
TEXT
8
TEXT
10
11.9204
20
8.2953
30
0.0
40
0.1500
1
esot. 1,56x0,65
50
0.00
72
1
73
2
11
11.9204
21
8.2953
31
0.0
0
TEXT
8
TEXT
10
11.9204
20
8.0553
30
0.0
40
0.1500
1
mikt. 1,91x1,00
50
0.00
72
1
73
2
11
11.9204
21
8.0553
31
0.0
0
LINE
8
OPENINGS
10
11.5704
20
8.2307
30
0.0
11
11.5704
21
8.9307
31
0.0
0
ARC
8
OPENINGS
10
11.5704
20
8.2307
30
0.0
40
0.7000
50
0.00
51
90.00
0
POLYLINE
8
ROOMS
66
1
70
1
10
0.0
20
0.0
30
0.0
0
VERTEX
8
ROOMS
10
0.3000
20
3.5000
30
0.0
0
VERTEX
8
ROOMS
10
12.7000
20
3.5000
30
0.0
0
VERTEX
8
ROOMS
10
12.7000
20
4.5000
30
0.0
0
VERTEX
8
ROOMS
10
0.3000
20
4.5000
30
0.0
0
SEQEND
8
ROOMS
0
TEXT
8
TEXT
10
6.5000
20
4.2800
30
0.0
40
0.2400
1
Διάδρομος
50
0.00
72
1
73
2
11
6.5000
21
4.2800
31
0.0
0
TEXT
8
TEXT
10
6.5000
20
4.0000
30
0.0
40
0.1700
1
12,40 m2  (kath.)
50
0.00
72
1
73
2
11
6.5000
21
4.0000
31
0.0
0
TEXT
8
TEXT
10
6.5000
20
3.7400
30
0.0
40
0.1500
1
esot. 12,40x1,00
50
0.00
72
1
73
2
11
6.5000
21
3.7400
31
0.0
0
TEXT
8
TEXT
10
6.5000
20
3.5000
30
0.0
40
0.1500
1
mikt. 13,00x1,10
50
0.00
72
1
73
2
11
6.5000
21
3.5000
31
0.0
0
LINE
8
DIMS
10
0.0000
20
-1.2000
30
0.0
11
13.0000
21
-1.2000
31
0.0
0
LINE
8
DIMS
10
0.0000
20
-1.0500
30
0.0
11
0.0000
21
-1.3500
31
0.0
0
LINE
8
DIMS
10
13.0000
20
-1.0500
30
0.0
11
13.0000
21
-1.3500
31
0.0
0
TEXT
8
DIMS
10
6.5000
20
-1.5500
30
0.0
40
0.2800
1
13,00 m (A-D)
50
0.00
72
1
73
2
11
6.5000
21
-1.5500
31
0.0
0
LINE
8
DIMS
10
-1.2000
20
0.0000
30
0.0
11
-1.2000
21
9.1800
31
0.0
0
LINE
8
DIMS
10
-1.0500
20
0.0000
30
0.0
11
-1.3500
21
0.0000
31
0.0
0
LINE
8
DIMS
10
-1.0500
20
9.1800
30
0.0
11
-1.3500
21
9.1800
31
0.0
0
TEXT
8
DIMS
10
-1.5500
20
4.5900
30
0.0
40
0.2800
1
9,18 m (B-N)
50
90.00
72
1
73
2
11
-1.5500
21
4.5900
31
0.0
0
TEXT
8
TITLE
10
6.5000
20
9.8800
30
0.0
40
0.4000
1
Ισόγειο  -  119,34 m2 (mikto)
50
0.00
72
1
73
2
11
6.5000
21
9.8800
31
0.0
0
POLYLINE
8
NORTH
66
1
70
1
10
0.0
20
0.0
30
0.0
0
VERTEX
8
NORTH
10
14.2000
20
9.1800
30
0.0
0
VERTEX
8
NORTH
10
13.8500
20
8.2800
30
0.0
0
VERTEX
8
NORTH
10
14.2000
20
8.5800
30
0.0
0
VERTEX
8
NORTH
10
14.5500
20
8.2800
30
0.0
0
SEQEND
8
NORTH
0
TEXT
8
NORTH
10
14.2000
20
9.5800
30
0.0
40
0.4500
1
B
50
0.00
72
1
73
2
11
14.2000
21
9.5800
31
0.0
0
TEXT
8
TITLE
10
0.0000
20
11.3800
30
0.0
40
0.5000
1
Μονοκατοικία Αμαλιάδας - Πρόταση 3
50
0.00
72
0
73
2
11
0.0000
21
11.3800
31
0.0
0
TEXT
8
TITLE
10
0.0000
20
10.6800
30
0.0
40
0.3000
1
Αμαλιάδα, Π.Ε. Ηλείας  |  Eisodos: Νότος  |  Orofoi: 1
50
0.00
72
0
73
2
11
0.0000
21
10.6800
31
0.0
0
ENDSEC
0
EOF
