0
SECTION
2
HEADER
9
$ACADVER
1
AC1009
9
$DWGCODEPAGE
3
ANSI_1253
9
$INSUNITS
70
6
0
ENDSEC
0
SECTION
2
TABLES
0
TABLE
2
LAYER
70
8
0
LAYER
2
OUTLINE
70
0
62
7
6
CONTINUOUS
0
LAYER
2
WALLS
70
0
62
8
6
CONTINUOUS
0
LAYER
2
ROOMS
70
0
62
3
6
CONTINUOUS
0
LAYER
2
OPENINGS
70
0
62
1
6
CONTINUOUS
0
LAYER
2
TEXT
70
0
62
7
6
CONTINUOUS
0
LAYER
2
DIMS
70
0
62
4
6
CONTINUOUS
0
LAYER
2
NORTH
70
0
62
2
6
CONTINUOUS
0
LAYER
2
TITLE
70
0
62
5
6
CONTINUOUS
0
ENDTAB
0
ENDSEC
0
SECTION
2
ENTITIES
0
POLYLINE
8
OUTLINE
66
1
70
1
10
0.0
20
0.0
30
0.0
0
VERTEX
8
OUTLINE
10
0.0000
20
0.0000
30
0.0
0
VERTEX
8
OUTLINE
10
13.0000
20
0.0000
30
0.0
0
VERTEX
8
OUTLINE
10
13.0000
20
9.7780
30
0.0
0
VERTEX
8
OUTLINE
10
1.9750
20
9.7780
30
0.0
0
VERTEX
8
OUTLINE
10
1.9750
20
3.3620
30
0.0
0
VERTEX
8
OUTLINE
10
0.0000
20
3.3620
30
0.0
0
SEQEND
8
OUTLINE
0
POLYLINE
8
WALLS
66
1
70
1
10
0.0
20
0.0
30
0.0
0
VERTEX
8
WALLS
10
0.3000
20
0.3000
30
0.0
0
VERTEX
8
WALLS
10
12.7000
20
0.3000
30
0.0
0
VERTEX
8
WALLS
10
12.7000
20
3.0620
30
0.0
0
VERTEX
8
WALLS
10
0.3000
20
3.0620
30
0.0
0
SEQEND
8
WALLS
0
POLYLINE
8
WALLS
66
1
70
1
10
0.0
20
0.0
30
0.0
0
VERTEX
8
WALLS
10
2.2750
20
3.6620
30
0.0
0
VERTEX
8
WALLS
10
12.7000
20
3.6620
30
0.0
0
VERTEX
8
WALLS
10
12.7000
20
9.4780
30
0.0
0
VERTEX
8
WALLS
10
2.2750
20
9.4780
30
0.0
0
SEQEND
8
WALLS
0
POLYLINE
8
ROOMS
66
1
70
1
10
0.0
20
0.0
30
0.0
0
VERTEX
8
ROOMS
10
0.3000
20
0.3000
30
0.0
0
VERTEX
8
ROOMS
10
5.0739
20
0.3000
30
0.0
0
VERTEX
8
ROOMS
10
5.0739
20
3.0620
30
0.0
0
VERTEX
8
ROOMS
10
0.3000
20
3.0620
30
0.0
0
SEQEND
8
ROOMS
0
TEXT
8
TEXT
10
2.6870
20
1.9610
30
0.0
40
0.2400
1
Καθιστικό
50
0.00
72
1
73
2
11
2.6870
21
1.9610
31
0.0
0
TEXT
8
TEXT
10
2.6870
20
1.6810
30
0.0
40
0.1700
1
13,19 m2  (kath.)
50
0.00
72
1
73
2
11
2.6870
21
1.6810
31
0.0
0
TEXT
8
TEXT
10
2.6870
20
1.4210
30
0.0
40
0.1500
1
esot. 4,77x2,76
50
0.00
72
1
73
2
11
2.6870
21
1.4210
31
0.0
0
TEXT
8
TEXT
10
2.6870
20
1.1810
30
0.0
40
0.1500
1
mikt. 5,12x3,36
50
0.00
72
1
73
2
11
2.6870
21
1.1810
31
0.0
0
LINE
8
OPENINGS
10
2.2160
20
0.3000
30
0.0
11
3.1579
21
0.3000
31
0.0
0
LINE
8
OPENINGS
10
2.1870
20
0.3000
30
0.0
11
2.1870
21
1.3000
31
0.0
0
ARC
8
OPENINGS
10
2.1870
20
0.3000
30
0.0
40
1.0000
50
0.00
51
90.00
0
POLYLINE
8
ROOMS
66
1
70
1
10
0.0
20
0.0
30
0.0
0
VERTEX
8
ROOMS
10
5.1739
20
0.3000
30
0.0
0
VERTEX
8
ROOMS
10
9.4174
20
0.3000
30
0.0
0
VERTEX
8
ROOMS
10
9.4174
20
3.3120
30
0.0
0
VERTEX
8
ROOMS
10
5.1739
20
3.3120
30
0.0
0
SEQEND
8
ROOMS
0
TEXT
8
TEXT
10
7.2957
20
2.0860
30
0.0
40
0.2400
1
Σαλόνι
50
0.00
72
1
73
2
11
7.2957
21
2.0860
31
0.0
0
TEXT
8
TEXT
10
7.2957
20
1.8060
30
0.0
40
0.1700
1
12,78 m2  (kath.)
50
0.00
72
1
73
2
11
7.2957
21
1.8060
31
0.0
0
TEXT
8
TEXT
10
7.2957
20
1.5460
30
0.0
40
0.1500
1
esot. 4,24x3,01
50
0.00
72
1
73
2
11
7.2957
21
1.5460
31
0.0
0
TEXT
8
TEXT
10
7.2957
20
1.3060
30
0.0
40
0.1500
1
mikt. 4,34x3,36
50
0.00
72
1
73
2
11
7.2957
21
1.3060
31
0.0
0
LINE
8
OPENINGS
10
6.8392
20
0.3000
30
0.0
11
7.7521
21
0.3000
31
0.0
0
POLYLINE
8
ROOMS
66
1
70
1
10
0.0
20
0.0
30
0.0
0
VERTEX
8
ROOMS
10
9.5174
20
0.3000
30
0.0
0
VERTEX
8
ROOMS
10
12.7000
20
0.3000
30
0.0
0
VERTEX
8
ROOMS
10
12.7000
20
3.3120
30
0.0
0
VERTEX
8
ROOMS
10
9.5174
20
3.3120
30
0.0
0
SEQEND
8
ROOMS
0
TEXT
8
TEXT
10
11.1087
20
2.0860
30
0.0
40
0.2400
1
Κουζίνα
50
0.00
72
1
73
2
11
11.1087
21
2.0860
31
0.0
0
TEXT
8
TEXT
10
11.1087
20
1.8060
30
0.0
40
0.1700
1
9,59 m2  (kath.)
50
0.00
72
1
73
2
11
11.1087
21
1.8060
31
0.0
0
TEXT
8
TEXT
10
11.1087
20
1.5460
30
0.0
40
0.1500
1
esot. 3,18x3,01
50
0.00
72
1
73
2
11
11.1087
21
1.5460
31
0.0
0
TEXT
8
TEXT
10
11.1087
20
1.3060
30
0.0
40
0.1500
1
mikt. 3,53x3,36
50
0.00
72
1
73
2
11
11.1087
21
1.3060
31
0.0
0
LINE
8
OPENINGS
10
10.6587
20
0.3000
30
0.0
11
11.5587
21
0.3000
31
0.0
0
POLYLINE
8
ROOMS
66
1
70
1
10
0.0
20
0.0
30
0.0
0
VERTEX
8
ROOMS
10
2.2750
20
6.1120
30
0.0
0
VERTEX
8
ROOMS
10
6.0421
20
6.1120
30
0.0
0
VERTEX
8
ROOMS
10
6.0421
20
9.4780
30
0.0
0
VERTEX
8
ROOMS
10
2.2750
20
9.4780
30
0.0
0
SEQEND
8
ROOMS
0
TEXT
8
TEXT
10
4.1586
20
8.0750
30
0.0
40
0.2400
1
Κύριο Υπνοδωμάτιο
50
0.00
72
1
73
2
11
4.1586
21
8.0750
31
0.0
0
TEXT
8
TEXT
10
4.1586
20
7.7950
30
0.0
40
0.1700
1
12,68 m2  (kath.)
50
0.00
72
1
73
2
11
4.1586
21
7.7950
31
0.0
0
TEXT
8
TEXT
10
4.1586
20
7.5350
30
0.0
40
0.1500
1
esot. 3,77x3,37
50
0.00
72
1
73
2
11
4.1586
21
7.5350
31
0.0
0
TEXT
8
TEXT
10
4.1586
20
7.2950
30
0.0
40
0.1500
1
mikt. 4,12x3,72
50
0.00
72
1
73
2
11
4.1586
21
7.2950
31
0.0
0
LINE
8
OPENINGS
10
3.7057
20
9.4780
30
0.0
11
4.6114
21
9.4780
31
0.0
0
LINE
8
OPENINGS
10
5.0421
20
6.1120
30
0.0
11
5.0421
21
7.0120
31
0.0
0
ARC
8
OPENINGS
10
5.0421
20
6.1120
30
0.0
40
0.9000
50
0.00
51
90.00
0
POLYLINE
8
ROOMS
66
1
70
1
10
0.0
20
0.0
30
0.0
0
VERTEX
8
ROOMS
10
6.1421
20
6.1120
30
0.0
0
VERTEX
8
ROOMS
10
9.3711
20
6.1120
30
0.0
0
VERTEX
8
ROOMS
10
9.3711
20
9.4780
30
0.0
0
VERTEX
8
ROOMS
10
6.1421
20
9.4780
30
0.0
0
SEQEND
8
ROOMS
0
TEXT
8
TEXT
10
7.7566
20
8.0750
30
0.0
40
0.2400
1
Υπνοδωμάτιο 2
50
0.00
72
1
73
2
11
7.7566
21
8.0750
31
0.0
0
TEXT
8
TEXT
10
7.7566
20
7.7950
30
0.0
40
0.1700
1
10,87 m2  (kath.)
50
0.00
72
1
73
2
11
7.7566
21
7.7950
31
0.0
0
TEXT
8
TEXT
10
7.7566
20
7.5350
30
0.0
40
0.1500
1
esot. 3,23x3,37
50
0.00
72
1
73
2
11
7.7566
21
7.5350
31
0.0
0
TEXT
8
TEXT
10
7.7566
20
7.2950
30
0.0
40
0.1500
1
mikt. 3,33x3,72
50
0.00
72
1
73
2
11
7.7566
21
7.2950
31
0.0
0
LINE
8
OPENINGS
10
7.3066
20
9.4780
30
0.0
11
8.2066
21
9.4780
31
0.0
0
LINE
8
OPENINGS
10
6.7375
20
6.1120
30
0.0
11
6.7375
21
7.0120
31
0.0
0
ARC
8
OPENINGS
10
6.7375
20
6.1120
30
0.0
40
0.9000
50
0.00
51
90.00
0
POLYLINE
8
ROOMS
66
1
70
1
10
0.0
20
0.0
30
0.0
0
VERTEX
8
ROOMS
10
9.4711
20
6.1120
30
0.0
0
VERTEX
8
ROOMS
10
12.7000
20
6.1120
30
0.0
0
VERTEX
8
ROOMS
10
12.7000
20
9.4780
30
0.0
0
VERTEX
8
ROOMS
10
9.4711
20
9.4780
30
0.0
0
SEQEND
8
ROOMS
0
TEXT
8
TEXT
10
11.0855
20
8.0750
30
0.0
40
0.2400
1
Υπνοδωμάτιο 3
50
0.00
72
1
73
2
11
11.0855
21
8.0750
31
0.0
0
TEXT
8
TEXT
10
11.0855
20
7.7950
30
0.0
40
0.1700
1
10,87 m2  (kath.)
50
0.00
72
1
73
2
11
11.0855
21
7.7950
31
0.0
0
TEXT
8
TEXT
10
11.0855
20
7.5350
30
0.0
40
0.1500
1
esot. 3,23x3,37
50
0.00
72
1
73
2
11
11.0855
21
7.5350
31
0.0
0
TEXT
8
TEXT
10
11.0855
20
7.2950
30
0.0
40
0.1500
1
mikt. 3,58x3,72
50
0.00
72
1
73
2
11
11.0855
21
7.2950
31
0.0
0
LINE
8
OPENINGS
10
12.7000
20
7.3450
30
0.0
11
12.7000
21
8.2450
31
0.0
0
LINE
8
OPENINGS
10
9.5711
20
6.1120
30
0.0
11
9.5711
21
7.0120
31
0.0
0
ARC
8
OPENINGS
10
9.5711
20
6.1120
30
0.0
40
0.9000
50
0.00
51
90.00
0
POLYLINE
8
ROOMS
66
1
70
1
10
0.0
20
0.0
30
0.0
0
VERTEX
8
ROOMS
10
2.2750
20
3.4120
30
0.0
0
VERTEX
8
ROOMS
10
3.5250
20
3.4120
30
0.0
0
VERTEX
8
ROOMS
10
3.5250
20
6.0120
30
0.0
0
VERTEX
8
ROOMS
10
2.2750
20
6.0120
30
0.0
0
SEQEND
8
ROOMS
0
TEXT
8
TEXT
10
2.9000
20
4.9920
30
0.0
40
0.2400
1
Χωλ
50
0.00
72
1
73
2
11
2.9000
21
4.9920
31
0.0
0
TEXT
8
TEXT
10
2.9000
20
4.7120
30
0.0
40
0.1700
1
3,25 m2  (kath.)
50
0.00
72
1
73
2
11
2.9000
21
4.7120
31
0.0
0
TEXT
8
TEXT
10
2.9000
20
4.4520
30
0.0
40
0.1500
1
esot. 1,25x2,60
50
0.00
72
1
73
2
11
2.9000
21
4.4520
31
0.0
0
TEXT
8
TEXT
10
2.9000
20
4.2120
30
0.0
40
0.1500
1
mikt. 1,60x2,70
50
0.00
72
1
73
2
11
2.9000
21
4.2120
31
0.0
0
LINE
8
OPENINGS
10
3.5250
20
5.1120
30
0.0
11
2.7250
21
5.1120
31
0.0
0
ARC
8
OPENINGS
10
3.5250
20
5.1120
30
0.0
40
0.8000
50
0.00
51
90.00
0
LINE
8
OPENINGS
10
2.4500
20
3.4120
30
0.0
11
2.4500
21
4.3120
31
0.0
0
ARC
8
OPENINGS
10
2.4500
20
3.4120
30
0.0
40
0.9000
50
0.00
51
90.00
0
POLYLINE
8
ROOMS
66
1
70
1
10
0.0
20
0.0
30
0.0
0
VERTEX
8
ROOMS
10
3.6250
20
3.4120
30
0.0
0
VERTEX
8
ROOMS
10
7.9260
20
3.4120
30
0.0
0
VERTEX
8
ROOMS
10
7.9260
20
4.9120
30
0.0
0
VERTEX
8
ROOMS
10
3.6250
20
4.9120
30
0.0
0
SEQEND
8
ROOMS
0
TEXT
8
TEXT
10
5.7755
20
4.4420
30
0.0
40
0.2400
1
Αποθήκη
50
0.00
72
1
73
2
11
5.7755
21
4.4420
31
0.0
0
TEXT
8
TEXT
10
5.7755
20
4.1620
30
0.0
40
0.1700
1
6,45 m2  (kath.)
50
0.00
72
1
73
2
11
5.7755
21
4.1620
31
0.0
0
TEXT
8
TEXT
10
5.7755
20
3.9020
30
0.0
40
0.1500
1
esot. 4,30x1,50
50
0.00
72
1
73
2
11
5.7755
21
3.9020
31
0.0
0
TEXT
8
TEXT
10
5.7755
20
3.6620
30
0.0
40
0.1500
1
mikt. 4,40x1,60
50
0.00
72
1
73
2
11
5.7755
21
3.6620
31
0.0
0
LINE
8
OPENINGS
10
6.7875
20
4.9120
30
0.0
11
6.7875
21
4.1120
31
0.0
0
ARC
8
OPENINGS
10
6.7875
20
4.9120
30
0.0
40
0.8000
50
270.00
51
360.00
0
POLYLINE
8
ROOMS
66
1
70
1
10
0.0
20
0.0
30
0.0
0
VERTEX
8
ROOMS
10
8.0260
20
3.4120
30
0.0
0
VERTEX
8
ROOMS
10
10.7500
20
3.4120
30
0.0
0
VERTEX
8
ROOMS
10
10.7500
20
4.9120
30
0.0
0
VERTEX
8
ROOMS
10
8.0260
20
4.9120
30
0.0
0
SEQEND
8
ROOMS
0
TEXT
8
TEXT
10
9.3880
20
4.4420
30
0.0
40
0.2400
1
WC
50
0.00
72
1
73
2
11
9.3880
21
4.4420
31
0.0
0
TEXT
8
TEXT
10
9.3880
20
4.1620
30
0.0
40
0.1700
1
4,09 m2  (kath.)
50
0.00
72
1
73
2
11
9.3880
21
4.1620
31
0.0
0
TEXT
8
TEXT
10
9.3880
20
3.9020
30
0.0
40
0.1500
1
esot. 2,72x1,50
50
0.00
72
1
73
2
11
9.3880
21
3.9020
31
0.0
0
TEXT
8
TEXT
10
9.3880
20
3.6620
30
0.0
40
0.1500
1
mikt. 2,82x1,60
50
0.00
72
1
73
2
11
9.3880
21
3.6620
31
0.0
0
LINE
8
OPENINGS
10
8.1260
20
4.9120
30
0.0
11
8.1260
21
4.2120
31
0.0
0
ARC
8
OPENINGS
10
8.1260
20
4.9120
30
0.0
40
0.7000
50
270.00
51
360.00
0
POLYLINE
8
ROOMS
66
1
70
1
10
0.0
20
0.0
30
0.0
0
VERTEX
8
ROOMS
10
10.8500
20
3.4120
30
0.0
0
VERTEX
8
ROOMS
10
12.7000
20
3.4120
30
0.0
0
VERTEX
8
ROOMS
10
12.7000
20
6.0120
30
0.0
0
VERTEX
8
ROOMS
10
10.8500
20
6.0120
30
0.0
0
SEQEND
8
ROOMS
0
TEXT
8
TEXT
10
11.7750
20
4.9920
30
0.0
40
0.2400
1
Λουτρό
50
0.00
72
1
73
2
11
11.7750
21
4.9920
31
0.0
0
TEXT
8
TEXT
10
11.7750
20
4.7120
30
0.0
40
0.1700
1
4,81 m2  (kath.)
50
0.00
72
1
73
2
11
11.7750
21
4.7120
31
0.0
0
TEXT
8
TEXT
10
11.7750
20
4.4520
30
0.0
40
0.1500
1
esot. 1,85x2,60
50
0.00
72
1
73
2
11
11.7750
21
4.4520
31
0.0
0
TEXT
8
TEXT
10
11.7750
20
4.2120
30
0.0
40
0.1500
1
mikt. 2,20x2,70
50
0.00
72
1
73
2
11
11.7750
21
4.2120
31
0.0
0
LINE
8
OPENINGS
10
12.7000
20
4.2620
30
0.0
11
12.7000
21
5.1620
31
0.0
0
LINE
8
OPENINGS
10
10.8500
20
5.1120
30
0.0
11
11.6500
21
5.1120
31
0.0
0
ARC
8
OPENINGS
10
10.8500
20
5.1120
30
0.0
40
0.8000
50
0.00
51
90.00
0
POLYLINE
8
ROOMS
66
1
70
1
10
0.0
20
0.0
30
0.0
0
VERTEX
8
ROOMS
10
3.6250
20
5.0120
30
0.0
0
VERTEX
8
ROOMS
10
10.7500
20
5.0120
30
0.0
0
VERTEX
8
ROOMS
10
10.7500
20
6.0120
30
0.0
0
VERTEX
8
ROOMS
10
3.6250
20
6.0120
30
0.0
0
SEQEND
8
ROOMS
0
TEXT
8
TEXT
10
7.1875
20
5.7920
30
0.0
40
0.2400
1
Διάδρομος
50
0.00
72
1
73
2
11
7.1875
21
5.7920
31
0.0
0
TEXT
8
TEXT
10
7.1875
20
5.5120
30
0.0
40
0.1700
1
7,12 m2  (kath.)
50
0.00
72
1
73
2
11
7.1875
21
5.5120
31
0.0
0
TEXT
8
TEXT
10
7.1875
20
5.2520
30
0.0
40
0.1500
1
esot. 7,12x1,00
50
0.00
72
1
73
2
11
7.1875
21
5.2520
31
0.0
0
TEXT
8
TEXT
10
7.1875
20
5.0120
30
0.0
40
0.1500
1
mikt. 7,22x1,10
50
0.00
72
1
73
2
11
7.1875
21
5.0120
31
0.0
0
LINE
8
DIMS
10
0.0000
20
-1.2000
30
0.0
11
13.0000
21
-1.2000
31
0.0
0
LINE
8
DIMS
10
0.0000
20
-1.0500
30
0.0
11
0.0000
21
-1.3500
31
0.0
0
LINE
8
DIMS
10
13.0000
20
-1.0500
30
0.0
11
13.0000
21
-1.3500
31
0.0
0
TEXT
8
DIMS
10
6.5000
20
-1.5500
30
0.0
40
0.2800
1
13,00 m (A-D)
50
0.00
72
1
73
2
11
6.5000
21
-1.5500
31
0.0
0
LINE
8
DIMS
10
-1.2000
20
0.0000
30
0.0
11
-1.2000
21
9.7800
31
0.0
0
LINE
8
DIMS
10
-1.0500
20
0.0000
30
0.0
11
-1.3500
21
0.0000
31
0.0
0
LINE
8
DIMS
10
-1.0500
20
9.7800
30
0.0
11
-1.3500
21
9.7800
31
0.0
0
TEXT
8
DIMS
10
-1.5500
20
4.8900
30
0.0
40
0.2800
1
9,78 m (B-N)
50
90.00
72
1
73
2
11
-1.5500
21
4.8900
31
0.0
0
TEXT
8
TITLE
10
6.5000
20
10.4800
30
0.0
40
0.4000
1
Ισόγειο  -  114,44 m2 (mikto)
50
0.00
72
1
73
2
11
6.5000
21
10.4800
31
0.0
0
POLYLINE
8
NORTH
66
1
70
1
10
0.0
20
0.0
30
0.0
0
VERTEX
8
NORTH
10
14.2000
20
9.7800
30
0.0
0
VERTEX
8
NORTH
10
13.8500
20
8.8800
30
0.0
0
VERTEX
8
NORTH
10
14.2000
20
9.1800
30
0.0
0
VERTEX
8
NORTH
10
14.5500
20
8.8800
30
0.0
0
SEQEND
8
NORTH
0
TEXT
8
NORTH
10
14.2000
20
10.1800
30
0.0
40
0.4500
1
B
50
0.00
72
1
73
2
11
14.2000
21
10.1800
31
0.0
0
TEXT
8
TITLE
10
0.0000
20
11.9800
30
0.0
40
0.5000
1
Μονοκατοικία Αμαλιάδας - Πρόταση 3
50
0.00
72
0
73
2
11
0.0000
21
11.9800
31
0.0
0
TEXT
8
TITLE
10
0.0000
20
11.2800
30
0.0
40
0.3000
1
Αμαλιάδα, Π.Ε. Ηλείας  |  Eisodos: Νότος  |  Orofoi: 1
50
0.00
72
0
73
2
11
0.0000
21
11.2800
31
0.0
0
ENDSEC
0
EOF
