0
SECTION
2
HEADER
9
$ACADVER
1
AC1009
9
$DWGCODEPAGE
3
ANSI_1253
9
$INSUNITS
70
6
0
ENDSEC
0
SECTION
2
TABLES
0
TABLE
2
LAYER
70
8
0
LAYER
2
OUTLINE
70
0
62
7
6
CONTINUOUS
0
LAYER
2
WALLS
70
0
62
8
6
CONTINUOUS
0
LAYER
2
ROOMS
70
0
62
3
6
CONTINUOUS
0
LAYER
2
OPENINGS
70
0
62
1
6
CONTINUOUS
0
LAYER
2
TEXT
70
0
62
7
6
CONTINUOUS
0
LAYER
2
DIMS
70
0
62
4
6
CONTINUOUS
0
LAYER
2
NORTH
70
0
62
2
6
CONTINUOUS
0
LAYER
2
TITLE
70
0
62
5
6
CONTINUOUS
0
ENDTAB
0
ENDSEC
0
SECTION
2
ENTITIES
0
POLYLINE
8
OUTLINE
66
1
70
1
10
0.0
20
0.0
30
0.0
0
VERTEX
8
OUTLINE
10
0.0000
20
0.0000
30
0.0
0
VERTEX
8
OUTLINE
10
13.0000
20
0.0000
30
0.0
0
VERTEX
8
OUTLINE
10
13.0000
20
9.3200
30
0.0
0
VERTEX
8
OUTLINE
10
0.0000
20
9.3200
30
0.0
0
SEQEND
8
OUTLINE
0
POLYLINE
8
WALLS
66
1
70
1
10
0.0
20
0.0
30
0.0
0
VERTEX
8
WALLS
10
0.3000
20
0.3000
30
0.0
0
VERTEX
8
WALLS
10
12.7000
20
0.3000
30
0.0
0
VERTEX
8
WALLS
10
12.7000
20
9.0200
30
0.0
0
VERTEX
8
WALLS
10
0.3000
20
9.0200
30
0.0
0
SEQEND
8
WALLS
0
POLYLINE
8
ROOMS
66
1
70
1
10
0.0
20
0.0
30
0.0
0
VERTEX
8
ROOMS
10
7.8978
20
0.3000
30
0.0
0
VERTEX
8
ROOMS
10
12.7000
20
0.3000
30
0.0
0
VERTEX
8
ROOMS
10
12.7000
20
4.6843
30
0.0
0
VERTEX
8
ROOMS
10
7.8978
20
4.6843
30
0.0
0
SEQEND
8
ROOMS
0
TEXT
8
TEXT
10
10.2989
20
2.7721
30
0.0
40
0.2400
1
Καθιστικό
50
0.00
72
1
73
2
11
10.2989
21
2.7721
31
0.0
0
TEXT
8
TEXT
10
10.2989
20
2.4921
30
0.0
40
0.1700
1
21,05 m2  (kath.)
50
0.00
72
1
73
2
11
10.2989
21
2.4921
31
0.0
0
TEXT
8
TEXT
10
10.2989
20
2.2321
30
0.0
40
0.1500
1
esot. 4,80x4,38
50
0.00
72
1
73
2
11
10.2989
21
2.2321
31
0.0
0
TEXT
8
TEXT
10
10.2989
20
1.9921
30
0.0
40
0.1500
1
mikt. 5,15x4,73
50
0.00
72
1
73
2
11
10.2989
21
1.9921
31
0.0
0
LINE
8
OPENINGS
10
9.5470
20
0.3000
30
0.0
11
11.0508
21
0.3000
31
0.0
0
LINE
8
OPENINGS
10
9.8489
20
4.6843
30
0.0
11
9.8489
21
3.7843
31
0.0
0
ARC
8
OPENINGS
10
9.8489
20
4.6843
30
0.0
40
0.9000
50
270.00
51
360.00
0
LINE
8
OPENINGS
10
9.7989
20
0.3000
30
0.0
11
9.7989
21
1.3000
31
0.0
0
ARC
8
OPENINGS
10
9.7989
20
0.3000
30
0.0
40
1.0000
50
0.00
51
90.00
0
POLYLINE
8
ROOMS
66
1
70
1
10
0.0
20
0.0
30
0.0
0
VERTEX
8
ROOMS
10
3.5848
20
0.3000
30
0.0
0
VERTEX
8
ROOMS
10
7.7978
20
0.3000
30
0.0
0
VERTEX
8
ROOMS
10
7.7978
20
4.6843
30
0.0
0
VERTEX
8
ROOMS
10
3.5848
20
4.6843
30
0.0
0
SEQEND
8
ROOMS
0
TEXT
8
TEXT
10
5.6913
20
2.7721
30
0.0
40
0.2400
1
Σαλόνι
50
0.00
72
1
73
2
11
5.6913
21
2.7721
31
0.0
0
TEXT
8
TEXT
10
5.6913
20
2.4921
30
0.0
40
0.1700
1
18,47 m2  (kath.)
50
0.00
72
1
73
2
11
5.6913
21
2.4921
31
0.0
0
TEXT
8
TEXT
10
5.6913
20
2.2321
30
0.0
40
0.1500
1
esot. 4,21x4,38
50
0.00
72
1
73
2
11
5.6913
21
2.2321
31
0.0
0
TEXT
8
TEXT
10
5.6913
20
1.9921
30
0.0
40
0.1500
1
mikt. 4,31x4,73
50
0.00
72
1
73
2
11
5.6913
21
1.9921
31
0.0
0
LINE
8
OPENINGS
10
5.0316
20
0.3000
30
0.0
11
6.3510
21
0.3000
31
0.0
0
LINE
8
OPENINGS
10
5.2413
20
4.6843
30
0.0
11
5.2413
21
3.7843
31
0.0
0
ARC
8
OPENINGS
10
5.2413
20
4.6843
30
0.0
40
0.9000
50
270.00
51
360.00
0
POLYLINE
8
ROOMS
66
1
70
1
10
0.0
20
0.0
30
0.0
0
VERTEX
8
ROOMS
10
0.3000
20
0.3000
30
0.0
0
VERTEX
8
ROOMS
10
3.4848
20
0.3000
30
0.0
0
VERTEX
8
ROOMS
10
3.4848
20
4.6843
30
0.0
0
VERTEX
8
ROOMS
10
0.3000
20
4.6843
30
0.0
0
SEQEND
8
ROOMS
0
TEXT
8
TEXT
10
1.8924
20
2.7721
30
0.0
40
0.2400
1
Κουζίνα
50
0.00
72
1
73
2
11
1.8924
21
2.7721
31
0.0
0
TEXT
8
TEXT
10
1.8924
20
2.4921
30
0.0
40
0.1700
1
13,96 m2  (kath.)
50
0.00
72
1
73
2
11
1.8924
21
2.4921
31
0.0
0
TEXT
8
TEXT
10
1.8924
20
2.2321
30
0.0
40
0.1500
1
esot. 3,18x4,38
50
0.00
72
1
73
2
11
1.8924
21
2.2321
31
0.0
0
TEXT
8
TEXT
10
1.8924
20
1.9921
30
0.0
40
0.1500
1
mikt. 3,53x4,73
50
0.00
72
1
73
2
11
1.8924
21
1.9921
31
0.0
0
LINE
8
OPENINGS
10
1.3937
20
0.3000
30
0.0
11
2.3911
21
0.3000
31
0.0
0
LINE
8
OPENINGS
10
1.4424
20
4.6843
30
0.0
11
1.4424
21
3.7843
31
0.0
0
ARC
8
OPENINGS
10
1.4424
20
4.6843
30
0.0
40
0.9000
50
270.00
51
360.00
0
POLYLINE
8
ROOMS
66
1
70
1
10
0.0
20
0.0
30
0.0
0
VERTEX
8
ROOMS
10
9.0684
20
5.9843
30
0.0
0
VERTEX
8
ROOMS
10
12.7000
20
5.9843
30
0.0
0
VERTEX
8
ROOMS
10
12.7000
20
9.0200
30
0.0
0
VERTEX
8
ROOMS
10
9.0684
20
9.0200
30
0.0
0
SEQEND
8
ROOMS
0
TEXT
8
TEXT
10
10.8842
20
7.7821
30
0.0
40
0.2400
1
Κύριο Υπνοδωμάτιο
50
0.00
72
1
73
2
11
10.8842
21
7.7821
31
0.0
0
TEXT
8
TEXT
10
10.8842
20
7.5021
30
0.0
40
0.1700
1
11,02 m2  (kath.)
50
0.00
72
1
73
2
11
10.8842
21
7.5021
31
0.0
0
TEXT
8
TEXT
10
10.8842
20
7.2421
30
0.0
40
0.1500
1
esot. 3,63x3,04
50
0.00
72
1
73
2
11
10.8842
21
7.2421
31
0.0
0
TEXT
8
TEXT
10
10.8842
20
7.0021
30
0.0
40
0.1500
1
mikt. 3,98x3,39
50
0.00
72
1
73
2
11
10.8842
21
7.0021
31
0.0
0
LINE
8
OPENINGS
10
12.7000
20
7.0521
30
0.0
11
12.7000
21
7.9521
31
0.0
0
LINE
8
OPENINGS
10
10.4342
20
5.9843
30
0.0
11
10.4342
21
6.8843
31
0.0
0
ARC
8
OPENINGS
10
10.4342
20
5.9843
30
0.0
40
0.9000
50
0.00
51
90.00
0
POLYLINE
8
ROOMS
66
1
70
1
10
0.0
20
0.0
30
0.0
0
VERTEX
8
ROOMS
10
5.9128
20
5.9843
30
0.0
0
VERTEX
8
ROOMS
10
8.9684
20
5.9843
30
0.0
0
VERTEX
8
ROOMS
10
8.9684
20
9.0200
30
0.0
0
VERTEX
8
ROOMS
10
5.9128
20
9.0200
30
0.0
0
SEQEND
8
ROOMS
0
TEXT
8
TEXT
10
7.4406
20
7.7821
30
0.0
40
0.2400
1
Υπνοδωμάτιο 2
50
0.00
72
1
73
2
11
7.4406
21
7.7821
31
0.0
0
TEXT
8
TEXT
10
7.4406
20
7.5021
30
0.0
40
0.1700
1
9,28 m2  (kath.)
50
0.00
72
1
73
2
11
7.4406
21
7.5021
31
0.0
0
TEXT
8
TEXT
10
7.4406
20
7.2421
30
0.0
40
0.1500
1
esot. 3,06x3,04
50
0.00
72
1
73
2
11
7.4406
21
7.2421
31
0.0
0
TEXT
8
TEXT
10
7.4406
20
7.0021
30
0.0
40
0.1500
1
mikt. 3,16x3,39
50
0.00
72
1
73
2
11
7.4406
21
7.0021
31
0.0
0
LINE
8
OPENINGS
10
6.9906
20
9.0200
30
0.0
11
7.8906
21
9.0200
31
0.0
0
LINE
8
OPENINGS
10
6.9906
20
5.9843
30
0.0
11
6.9906
21
6.8843
31
0.0
0
ARC
8
OPENINGS
10
6.9906
20
5.9843
30
0.0
40
0.9000
50
0.00
51
90.00
0
POLYLINE
8
ROOMS
66
1
70
1
10
0.0
20
0.0
30
0.0
0
VERTEX
8
ROOMS
10
2.7572
20
5.9843
30
0.0
0
VERTEX
8
ROOMS
10
5.8128
20
5.9843
30
0.0
0
VERTEX
8
ROOMS
10
5.8128
20
9.0200
30
0.0
0
VERTEX
8
ROOMS
10
2.7572
20
9.0200
30
0.0
0
SEQEND
8
ROOMS
0
TEXT
8
TEXT
10
4.2850
20
7.7821
30
0.0
40
0.2400
1
Υπνοδωμάτιο 3
50
0.00
72
1
73
2
11
4.2850
21
7.7821
31
0.0
0
TEXT
8
TEXT
10
4.2850
20
7.5021
30
0.0
40
0.1700
1
9,28 m2  (kath.)
50
0.00
72
1
73
2
11
4.2850
21
7.5021
31
0.0
0
TEXT
8
TEXT
10
4.2850
20
7.2421
30
0.0
40
0.1500
1
esot. 3,06x3,04
50
0.00
72
1
73
2
11
4.2850
21
7.2421
31
0.0
0
TEXT
8
TEXT
10
4.2850
20
7.0021
30
0.0
40
0.1500
1
mikt. 3,16x3,39
50
0.00
72
1
73
2
11
4.2850
21
7.0021
31
0.0
0
LINE
8
OPENINGS
10
3.8350
20
9.0200
30
0.0
11
4.7350
21
9.0200
31
0.0
0
LINE
8
OPENINGS
10
3.8350
20
5.9843
30
0.0
11
3.8350
21
6.8843
31
0.0
0
ARC
8
OPENINGS
10
3.8350
20
5.9843
30
0.0
40
0.9000
50
0.00
51
90.00
0
POLYLINE
8
ROOMS
66
1
70
1
10
0.0
20
0.0
30
0.0
0
VERTEX
8
ROOMS
10
1.3816
20
5.9843
30
0.0
0
VERTEX
8
ROOMS
10
2.6572
20
5.9843
30
0.0
0
VERTEX
8
ROOMS
10
2.6572
20
7.6994
30
0.0
0
VERTEX
8
ROOMS
10
1.3816
20
7.6994
30
0.0
0
SEQEND
8
ROOMS
0
TEXT
8
TEXT
10
2.0194
20
7.1219
30
0.0
40
0.2400
1
Λουτρό
50
0.00
72
1
73
2
11
2.0194
21
7.1219
31
0.0
0
TEXT
8
TEXT
10
2.0194
20
6.8419
30
0.0
40
0.1700
1
2,19 m2  (kath.)
50
0.00
72
1
73
2
11
2.0194
21
6.8419
31
0.0
0
TEXT
8
TEXT
10
2.0194
20
6.5819
30
0.0
40
0.1500
1
esot. 1,28x1,72
50
0.00
72
1
73
2
11
2.0194
21
6.5819
31
0.0
0
TEXT
8
TEXT
10
2.0194
20
6.3419
30
0.0
40
0.1500
1
mikt. 1,38x1,82
50
0.00
72
1
73
2
11
2.0194
21
6.3419
31
0.0
0
LINE
8
OPENINGS
10
1.6194
20
5.9843
30
0.0
11
1.6194
21
6.7843
31
0.0
0
ARC
8
OPENINGS
10
1.6194
20
5.9843
30
0.0
40
0.8000
50
0.00
51
90.00
0
POLYLINE
8
ROOMS
66
1
70
1
10
0.0
20
0.0
30
0.0
0
VERTEX
8
ROOMS
10
0.3000
20
5.9843
30
0.0
0
VERTEX
8
ROOMS
10
1.2816
20
5.9843
30
0.0
0
VERTEX
8
ROOMS
10
1.2816
20
7.6994
30
0.0
0
VERTEX
8
ROOMS
10
0.3000
20
7.6994
30
0.0
0
SEQEND
8
ROOMS
0
TEXT
8
TEXT
10
0.7908
20
7.1219
30
0.0
40
0.2400
1
Αποθήκη
50
0.00
72
1
73
2
11
0.7908
21
7.1219
31
0.0
0
TEXT
8
TEXT
10
0.7908
20
6.8419
30
0.0
40
0.1700
1
1,68 m2  (kath.)
50
0.00
72
1
73
2
11
0.7908
21
6.8419
31
0.0
0
TEXT
8
TEXT
10
0.7908
20
6.5819
30
0.0
40
0.1500
1
esot. 0,98x1,72
50
0.00
72
1
73
2
11
0.7908
21
6.5819
31
0.0
0
TEXT
8
TEXT
10
0.7908
20
6.3419
30
0.0
40
0.1500
1
mikt. 1,33x1,82
50
0.00
72
1
73
2
11
0.7908
21
6.3419
31
0.0
0
LINE
8
OPENINGS
10
0.4500
20
5.9843
30
0.0
11
0.4500
21
6.6659
31
0.0
0
ARC
8
OPENINGS
10
0.4500
20
5.9843
30
0.0
40
0.6816
50
0.00
51
90.00
0
POLYLINE
8
ROOMS
66
1
70
1
10
0.0
20
0.0
30
0.0
0
VERTEX
8
ROOMS
10
1.2834
20
7.7994
30
0.0
0
VERTEX
8
ROOMS
10
2.6572
20
7.7994
30
0.0
0
VERTEX
8
ROOMS
10
2.6572
20
9.0200
30
0.0
0
VERTEX
8
ROOMS
10
1.2834
20
9.0200
30
0.0
0
SEQEND
8
ROOMS
0
TEXT
8
TEXT
10
1.9703
20
8.6897
30
0.0
40
0.2400
1
Χωλ
50
0.00
72
1
73
2
11
1.9703
21
8.6897
31
0.0
0
TEXT
8
TEXT
10
1.9703
20
8.4097
30
0.0
40
0.1700
1
1,68 m2  (kath.)
50
0.00
72
1
73
2
11
1.9703
21
8.4097
31
0.0
0
TEXT
8
TEXT
10
1.9703
20
8.1497
30
0.0
40
0.1500
1
esot. 1,37x1,22
50
0.00
72
1
73
2
11
1.9703
21
8.1497
31
0.0
0
TEXT
8
TEXT
10
1.9703
20
7.9097
30
0.0
40
0.1500
1
mikt. 1,47x1,57
50
0.00
72
1
73
2
11
1.9703
21
7.9097
31
0.0
0
LINE
8
OPENINGS
10
1.5203
20
7.7994
30
0.0
11
1.5203
21
8.6994
31
0.0
0
ARC
8
OPENINGS
10
1.5203
20
7.7994
30
0.0
40
0.9000
50
0.00
51
90.00
0
POLYLINE
8
ROOMS
66
1
70
1
10
0.0
20
0.0
30
0.0
0
VERTEX
8
ROOMS
10
0.3000
20
7.7994
30
0.0
0
VERTEX
8
ROOMS
10
1.1834
20
7.7994
30
0.0
0
VERTEX
8
ROOMS
10
1.1834
20
9.0200
30
0.0
0
VERTEX
8
ROOMS
10
0.3000
20
9.0200
30
0.0
0
SEQEND
8
ROOMS
0
TEXT
8
TEXT
10
0.7417
20
8.6897
30
0.0
40
0.2400
1
WC
50
0.00
72
1
73
2
11
0.7417
21
8.6897
31
0.0
0
TEXT
8
TEXT
10
0.7417
20
8.4097
30
0.0
40
0.1700
1
1,08 m2  (kath.)
50
0.00
72
1
73
2
11
0.7417
21
8.4097
31
0.0
0
TEXT
8
TEXT
10
0.7417
20
8.1497
30
0.0
40
0.1500
1
esot. 0,88x1,22
50
0.00
72
1
73
2
11
0.7417
21
8.1497
31
0.0
0
TEXT
8
TEXT
10
0.7417
20
7.9097
30
0.0
40
0.1500
1
mikt. 1,23x1,57
50
0.00
72
1
73
2
11
0.7417
21
7.9097
31
0.0
0
LINE
8
OPENINGS
10
0.4500
20
7.7994
30
0.0
11
0.4500
21
8.3828
31
0.0
0
ARC
8
OPENINGS
10
0.4500
20
7.7994
30
0.0
40
0.5834
50
0.00
51
90.00
0
POLYLINE
8
ROOMS
66
1
70
1
10
0.0
20
0.0
30
0.0
0
VERTEX
8
ROOMS
10
0.3000
20
4.7343
30
0.0
0
VERTEX
8
ROOMS
10
12.7000
20
4.7343
30
0.0
0
VERTEX
8
ROOMS
10
12.7000
20
5.9343
30
0.0
0
VERTEX
8
ROOMS
10
0.3000
20
5.9343
30
0.0
0
SEQEND
8
ROOMS
0
TEXT
8
TEXT
10
6.5000
20
5.6143
30
0.0
40
0.2400
1
Διάδρομος
50
0.00
72
1
73
2
11
6.5000
21
5.6143
31
0.0
0
TEXT
8
TEXT
10
6.5000
20
5.3343
30
0.0
40
0.1700
1
14,88 m2  (kath.)
50
0.00
72
1
73
2
11
6.5000
21
5.3343
31
0.0
0
TEXT
8
TEXT
10
6.5000
20
5.0743
30
0.0
40
0.1500
1
esot. 12,40x1,20
50
0.00
72
1
73
2
11
6.5000
21
5.0743
31
0.0
0
TEXT
8
TEXT
10
6.5000
20
4.8343
30
0.0
40
0.1500
1
mikt. 13,00x1,30
50
0.00
72
1
73
2
11
6.5000
21
4.8343
31
0.0
0
LINE
8
DIMS
10
0.0000
20
-1.2000
30
0.0
11
13.0000
21
-1.2000
31
0.0
0
LINE
8
DIMS
10
0.0000
20
-1.0500
30
0.0
11
0.0000
21
-1.3500
31
0.0
0
LINE
8
DIMS
10
13.0000
20
-1.0500
30
0.0
11
13.0000
21
-1.3500
31
0.0
0
TEXT
8
DIMS
10
6.5000
20
-1.5500
30
0.0
40
0.2800
1
13,00 m (A-D)
50
0.00
72
1
73
2
11
6.5000
21
-1.5500
31
0.0
0
LINE
8
DIMS
10
-1.2000
20
0.0000
30
0.0
11
-1.2000
21
9.3200
31
0.0
0
LINE
8
DIMS
10
-1.0500
20
0.0000
30
0.0
11
-1.3500
21
0.0000
31
0.0
0
LINE
8
DIMS
10
-1.0500
20
9.3200
30
0.0
11
-1.3500
21
9.3200
31
0.0
0
TEXT
8
DIMS
10
-1.5500
20
4.6600
30
0.0
40
0.2800
1
9,32 m (B-N)
50
90.00
72
1
73
2
11
-1.5500
21
4.6600
31
0.0
0
TEXT
8
TITLE
10
6.5000
20
10.0200
30
0.0
40
0.4000
1
Ισόγειο  -  121,16 m2 (mikto)
50
0.00
72
1
73
2
11
6.5000
21
10.0200
31
0.0
0
POLYLINE
8
NORTH
66
1
70
1
10
0.0
20
0.0
30
0.0
0
VERTEX
8
NORTH
10
14.2000
20
9.3200
30
0.0
0
VERTEX
8
NORTH
10
13.8500
20
8.4200
30
0.0
0
VERTEX
8
NORTH
10
14.2000
20
8.7200
30
0.0
0
VERTEX
8
NORTH
10
14.5500
20
8.4200
30
0.0
0
SEQEND
8
NORTH
0
TEXT
8
NORTH
10
14.2000
20
9.7200
30
0.0
40
0.4500
1
B
50
0.00
72
1
73
2
11
14.2000
21
9.7200
31
0.0
0
TEXT
8
TITLE
10
0.0000
20
11.5200
30
0.0
40
0.5000
1
Μονοκατοικία Αμαλιάδας - Πρόταση 2
50
0.00
72
0
73
2
11
0.0000
21
11.5200
31
0.0
0
TEXT
8
TITLE
10
0.0000
20
10.8200
30
0.0
40
0.3000
1
Αμαλιάδα, Π.Ε. Ηλείας  |  Eisodos: Νότος  |  Orofoi: 1
50
0.00
72
0
73
2
11
0.0000
21
10.8200
31
0.0
0
ENDSEC
0
EOF
