0
SECTION
2
HEADER
9
$ACADVER
1
AC1009
9
$DWGCODEPAGE
3
ANSI_1253
9
$INSUNITS
70
6
0
ENDSEC
0
SECTION
2
TABLES
0
TABLE
2
LAYER
70
8
0
LAYER
2
OUTLINE
70
0
62
7
6
CONTINUOUS
0
LAYER
2
WALLS
70
0
62
8
6
CONTINUOUS
0
LAYER
2
ROOMS
70
0
62
3
6
CONTINUOUS
0
LAYER
2
OPENINGS
70
0
62
1
6
CONTINUOUS
0
LAYER
2
TEXT
70
0
62
7
6
CONTINUOUS
0
LAYER
2
DIMS
70
0
62
4
6
CONTINUOUS
0
LAYER
2
NORTH
70
0
62
2
6
CONTINUOUS
0
LAYER
2
TITLE
70
0
62
5
6
CONTINUOUS
0
ENDTAB
0
ENDSEC
0
SECTION
2
ENTITIES
0
POLYLINE
8
OUTLINE
66
1
70
1
10
0.0
20
0.0
30
0.0
0
VERTEX
8
OUTLINE
10
1.6600
20
0.0000
30
0.0
0
VERTEX
8
OUTLINE
10
13.0000
20
0.0000
30
0.0
0
VERTEX
8
OUTLINE
10
13.0000
20
3.8500
30
0.0
0
VERTEX
8
OUTLINE
10
11.3400
20
3.8500
30
0.0
0
VERTEX
8
OUTLINE
10
11.3400
20
10.4000
30
0.0
0
VERTEX
8
OUTLINE
10
0.0000
20
10.4000
30
0.0
0
VERTEX
8
OUTLINE
10
0.0000
20
3.8500
30
0.0
0
VERTEX
8
OUTLINE
10
1.6600
20
3.8500
30
0.0
0
SEQEND
8
OUTLINE
0
POLYLINE
8
WALLS
66
1
70
1
10
0.0
20
0.0
30
0.0
0
VERTEX
8
WALLS
10
1.9600
20
0.3000
30
0.0
0
VERTEX
8
WALLS
10
12.7000
20
0.3000
30
0.0
0
VERTEX
8
WALLS
10
12.7000
20
3.5500
30
0.0
0
VERTEX
8
WALLS
10
1.9600
20
3.5500
30
0.0
0
SEQEND
8
WALLS
0
POLYLINE
8
WALLS
66
1
70
1
10
0.0
20
0.0
30
0.0
0
VERTEX
8
WALLS
10
0.3000
20
4.1500
30
0.0
0
VERTEX
8
WALLS
10
11.0400
20
4.1500
30
0.0
0
VERTEX
8
WALLS
10
11.0400
20
10.1000
30
0.0
0
VERTEX
8
WALLS
10
0.3000
20
10.1000
30
0.0
0
SEQEND
8
WALLS
0
POLYLINE
8
ROOMS
66
1
70
1
10
0.0
20
0.0
30
0.0
0
VERTEX
8
ROOMS
10
1.9600
20
0.3000
30
0.0
0
VERTEX
8
ROOMS
10
5.5566
20
0.3000
30
0.0
0
VERTEX
8
ROOMS
10
5.5566
20
3.8000
30
0.0
0
VERTEX
8
ROOMS
10
1.9600
20
3.8000
30
0.0
0
SEQEND
8
ROOMS
0
TEXT
8
TEXT
10
3.7583
20
2.3300
30
0.0
40
0.2400
1
Καθιστικό
50
0.00
72
1
73
2
11
3.7583
21
2.3300
31
0.0
0
TEXT
8
TEXT
10
3.7583
20
2.0500
30
0.0
40
0.1700
1
12,59 m2  (kath.)
50
0.00
72
1
73
2
11
3.7583
21
2.0500
31
0.0
0
TEXT
8
TEXT
10
3.7583
20
1.7900
30
0.0
40
0.1500
1
esot. 3,60x3,50
50
0.00
72
1
73
2
11
3.7583
21
1.7900
31
0.0
0
TEXT
8
TEXT
10
3.7583
20
1.5500
30
0.0
40
0.1500
1
mikt. 3,95x3,85
50
0.00
72
1
73
2
11
3.7583
21
1.5500
31
0.0
0
LINE
8
OPENINGS
10
3.3083
20
0.3000
30
0.0
11
4.2083
21
0.3000
31
0.0
0
LINE
8
OPENINGS
10
3.2583
20
0.3000
30
0.0
11
3.2583
21
1.3000
31
0.0
0
ARC
8
OPENINGS
10
3.2583
20
0.3000
30
0.0
40
1.0000
50
0.00
51
90.00
0
POLYLINE
8
ROOMS
66
1
70
1
10
0.0
20
0.0
30
0.0
0
VERTEX
8
ROOMS
10
5.6566
20
0.3000
30
0.0
0
VERTEX
8
ROOMS
10
9.7515
20
0.3000
30
0.0
0
VERTEX
8
ROOMS
10
9.7515
20
3.8000
30
0.0
0
VERTEX
8
ROOMS
10
5.6566
20
3.8000
30
0.0
0
SEQEND
8
ROOMS
0
TEXT
8
TEXT
10
7.7041
20
2.3300
30
0.0
40
0.2400
1
Σαλόνι
50
0.00
72
1
73
2
11
7.7041
21
2.3300
31
0.0
0
TEXT
8
TEXT
10
7.7041
20
2.0500
30
0.0
40
0.1700
1
14,33 m2  (kath.)
50
0.00
72
1
73
2
11
7.7041
21
2.0500
31
0.0
0
TEXT
8
TEXT
10
7.7041
20
1.7900
30
0.0
40
0.1500
1
esot. 4,09x3,50
50
0.00
72
1
73
2
11
7.7041
21
1.7900
31
0.0
0
TEXT
8
TEXT
10
7.7041
20
1.5500
30
0.0
40
0.1500
1
mikt. 4,19x3,85
50
0.00
72
1
73
2
11
7.7041
21
1.5500
31
0.0
0
LINE
8
OPENINGS
10
7.1922
20
0.3000
30
0.0
11
8.2159
21
0.3000
31
0.0
0
POLYLINE
8
ROOMS
66
1
70
1
10
0.0
20
0.0
30
0.0
0
VERTEX
8
ROOMS
10
9.8515
20
0.3000
30
0.0
0
VERTEX
8
ROOMS
10
12.7000
20
0.3000
30
0.0
0
VERTEX
8
ROOMS
10
12.7000
20
3.5500
30
0.0
0
VERTEX
8
ROOMS
10
9.8515
20
3.5500
30
0.0
0
SEQEND
8
ROOMS
0
TEXT
8
TEXT
10
11.2758
20
2.2050
30
0.0
40
0.2400
1
Κουζίνα
50
0.00
72
1
73
2
11
11.2758
21
2.2050
31
0.0
0
TEXT
8
TEXT
10
11.2758
20
1.9250
30
0.0
40
0.1700
1
9,26 m2  (kath.)
50
0.00
72
1
73
2
11
11.2758
21
1.9250
31
0.0
0
TEXT
8
TEXT
10
11.2758
20
1.6650
30
0.0
40
0.1500
1
esot. 2,85x3,25
50
0.00
72
1
73
2
11
11.2758
21
1.6650
31
0.0
0
TEXT
8
TEXT
10
11.2758
20
1.4250
30
0.0
40
0.1500
1
mikt. 3,20x3,85
50
0.00
72
1
73
2
11
11.2758
21
1.4250
31
0.0
0
LINE
8
OPENINGS
10
10.8258
20
0.3000
30
0.0
11
11.7258
21
0.3000
31
0.0
0
POLYLINE
8
ROOMS
66
1
70
1
10
0.0
20
0.0
30
0.0
0
VERTEX
8
ROOMS
10
0.3000
20
6.6000
30
0.0
0
VERTEX
8
ROOMS
10
4.1832
20
6.6000
30
0.0
0
VERTEX
8
ROOMS
10
4.1832
20
10.1000
30
0.0
0
VERTEX
8
ROOMS
10
0.3000
20
10.1000
30
0.0
0
SEQEND
8
ROOMS
0
TEXT
8
TEXT
10
2.2416
20
8.6300
30
0.0
40
0.2400
1
Κύριο Υπνοδωμάτιο
50
0.00
72
1
73
2
11
2.2416
21
8.6300
31
0.0
0
TEXT
8
TEXT
10
2.2416
20
8.3500
30
0.0
40
0.1700
1
13,59 m2  (kath.)
50
0.00
72
1
73
2
11
2.2416
21
8.3500
31
0.0
0
TEXT
8
TEXT
10
2.2416
20
8.0900
30
0.0
40
0.1500
1
esot. 3,88x3,50
50
0.00
72
1
73
2
11
2.2416
21
8.0900
31
0.0
0
TEXT
8
TEXT
10
2.2416
20
7.8500
30
0.0
40
0.1500
1
mikt. 4,23x3,85
50
0.00
72
1
73
2
11
2.2416
21
7.8500
31
0.0
0
LINE
8
OPENINGS
10
1.7562
20
10.1000
30
0.0
11
2.7270
21
10.1000
31
0.0
0
LINE
8
OPENINGS
10
3.1832
20
6.6000
30
0.0
11
3.1832
21
7.5000
31
0.0
0
ARC
8
OPENINGS
10
3.1832
20
6.6000
30
0.0
40
0.9000
50
0.00
51
90.00
0
POLYLINE
8
ROOMS
66
1
70
1
10
0.0
20
0.0
30
0.0
0
VERTEX
8
ROOMS
10
4.2832
20
6.6000
30
0.0
0
VERTEX
8
ROOMS
10
7.6116
20
6.6000
30
0.0
0
VERTEX
8
ROOMS
10
7.6116
20
10.1000
30
0.0
0
VERTEX
8
ROOMS
10
4.2832
20
10.1000
30
0.0
0
SEQEND
8
ROOMS
0
TEXT
8
TEXT
10
5.9474
20
8.6300
30
0.0
40
0.2400
1
Υπνοδωμάτιο 2
50
0.00
72
1
73
2
11
5.9474
21
8.6300
31
0.0
0
TEXT
8
TEXT
10
5.9474
20
8.3500
30
0.0
40
0.1700
1
11,65 m2  (kath.)
50
0.00
72
1
73
2
11
5.9474
21
8.3500
31
0.0
0
TEXT
8
TEXT
10
5.9474
20
8.0900
30
0.0
40
0.1500
1
esot. 3,33x3,50
50
0.00
72
1
73
2
11
5.9474
21
8.0900
31
0.0
0
TEXT
8
TEXT
10
5.9474
20
7.8500
30
0.0
40
0.1500
1
mikt. 3,43x3,85
50
0.00
72
1
73
2
11
5.9474
21
7.8500
31
0.0
0
LINE
8
OPENINGS
10
5.4974
20
10.1000
30
0.0
11
6.3974
21
10.1000
31
0.0
0
LINE
8
OPENINGS
10
5.5700
20
6.6000
30
0.0
11
5.5700
21
7.5000
31
0.0
0
ARC
8
OPENINGS
10
5.5700
20
6.6000
30
0.0
40
0.9000
50
0.00
51
90.00
0
POLYLINE
8
ROOMS
66
1
70
1
10
0.0
20
0.0
30
0.0
0
VERTEX
8
ROOMS
10
7.7116
20
6.6000
30
0.0
0
VERTEX
8
ROOMS
10
11.0400
20
6.6000
30
0.0
0
VERTEX
8
ROOMS
10
11.0400
20
10.1000
30
0.0
0
VERTEX
8
ROOMS
10
7.7116
20
10.1000
30
0.0
0
SEQEND
8
ROOMS
0
TEXT
8
TEXT
10
9.3758
20
8.6300
30
0.0
40
0.2400
1
Υπνοδωμάτιο 3
50
0.00
72
1
73
2
11
9.3758
21
8.6300
31
0.0
0
TEXT
8
TEXT
10
9.3758
20
8.3500
30
0.0
40
0.1700
1
11,65 m2  (kath.)
50
0.00
72
1
73
2
11
9.3758
21
8.3500
31
0.0
0
TEXT
8
TEXT
10
9.3758
20
8.0900
30
0.0
40
0.1500
1
esot. 3,33x3,50
50
0.00
72
1
73
2
11
9.3758
21
8.0900
31
0.0
0
TEXT
8
TEXT
10
9.3758
20
7.8500
30
0.0
40
0.1500
1
mikt. 3,68x3,85
50
0.00
72
1
73
2
11
9.3758
21
7.8500
31
0.0
0
LINE
8
OPENINGS
10
11.0400
20
7.9000
30
0.0
11
11.0400
21
8.8000
31
0.0
0
LINE
8
OPENINGS
10
7.8116
20
6.6000
30
0.0
11
7.8116
21
7.5000
31
0.0
0
ARC
8
OPENINGS
10
7.8116
20
6.6000
30
0.0
40
0.9000
50
0.00
51
90.00
0
POLYLINE
8
ROOMS
66
1
70
1
10
0.0
20
0.0
30
0.0
0
VERTEX
8
ROOMS
10
0.3000
20
4.1500
30
0.0
0
VERTEX
8
ROOMS
10
2.1500
20
4.1500
30
0.0
0
VERTEX
8
ROOMS
10
2.1500
20
6.5000
30
0.0
0
VERTEX
8
ROOMS
10
0.3000
20
6.5000
30
0.0
0
SEQEND
8
ROOMS
0
TEXT
8
TEXT
10
1.2250
20
5.6050
30
0.0
40
0.2400
1
Λουτρό
50
0.00
72
1
73
2
11
1.2250
21
5.6050
31
0.0
0
TEXT
8
TEXT
10
1.2250
20
5.3250
30
0.0
40
0.1700
1
4,35 m2  (kath.)
50
0.00
72
1
73
2
11
1.2250
21
5.3250
31
0.0
0
TEXT
8
TEXT
10
1.2250
20
5.0650
30
0.0
40
0.1500
1
esot. 1,85x2,35
50
0.00
72
1
73
2
11
1.2250
21
5.0650
31
0.0
0
TEXT
8
TEXT
10
1.2250
20
4.8250
30
0.0
40
0.1500
1
mikt. 2,20x2,70
50
0.00
72
1
73
2
11
1.2250
21
4.8250
31
0.0
0
LINE
8
OPENINGS
10
0.7750
20
4.1500
30
0.0
11
1.6750
21
4.1500
31
0.0
0
LINE
8
OPENINGS
10
2.1500
20
5.6000
30
0.0
11
1.3500
21
5.6000
31
0.0
0
ARC
8
OPENINGS
10
2.1500
20
5.6000
30
0.0
40
0.8000
50
0.00
51
90.00
0
POLYLINE
8
ROOMS
66
1
70
1
10
0.0
20
0.0
30
0.0
0
VERTEX
8
ROOMS
10
2.2500
20
3.9000
30
0.0
0
VERTEX
8
ROOMS
10
3.5500
20
3.9000
30
0.0
0
VERTEX
8
ROOMS
10
3.5500
20
5.4000
30
0.0
0
VERTEX
8
ROOMS
10
2.2500
20
5.4000
30
0.0
0
SEQEND
8
ROOMS
0
TEXT
8
TEXT
10
2.9000
20
4.9300
30
0.0
40
0.2400
1
Χωλ
50
0.00
72
1
73
2
11
2.9000
21
4.9300
31
0.0
0
TEXT
8
TEXT
10
2.9000
20
4.6500
30
0.0
40
0.1700
1
1,95 m2  (kath.)
50
0.00
72
1
73
2
11
2.9000
21
4.6500
31
0.0
0
TEXT
8
TEXT
10
2.9000
20
4.3900
30
0.0
40
0.1500
1
esot. 1,30x1,50
50
0.00
72
1
73
2
11
2.9000
21
4.3900
31
0.0
0
TEXT
8
TEXT
10
2.9000
20
4.1500
30
0.0
40
0.1500
1
mikt. 1,40x1,60
50
0.00
72
1
73
2
11
2.9000
21
4.1500
31
0.0
0
LINE
8
OPENINGS
10
2.5500
20
5.4000
30
0.0
11
2.5500
21
4.5000
31
0.0
0
ARC
8
OPENINGS
10
2.5500
20
5.4000
30
0.0
40
0.9000
50
270.00
51
360.00
0
LINE
8
OPENINGS
10
2.4500
20
3.9000
30
0.0
11
2.4500
21
4.8000
31
0.0
0
ARC
8
OPENINGS
10
2.4500
20
3.9000
30
0.0
40
0.9000
50
0.00
51
90.00
0
POLYLINE
8
ROOMS
66
1
70
1
10
0.0
20
0.0
30
0.0
0
VERTEX
8
ROOMS
10
3.6500
20
3.9000
30
0.0
0
VERTEX
8
ROOMS
10
5.6500
20
3.9000
30
0.0
0
VERTEX
8
ROOMS
10
5.6500
20
5.4000
30
0.0
0
VERTEX
8
ROOMS
10
3.6500
20
5.4000
30
0.0
0
SEQEND
8
ROOMS
0
TEXT
8
TEXT
10
4.6500
20
4.9300
30
0.0
40
0.2400
1
Αποθήκη
50
0.00
72
1
73
2
11
4.6500
21
4.9300
31
0.0
0
TEXT
8
TEXT
10
4.6500
20
4.6500
30
0.0
40
0.1700
1
3,00 m2  (kath.)
50
0.00
72
1
73
2
11
4.6500
21
4.6500
31
0.0
0
TEXT
8
TEXT
10
4.6500
20
4.3900
30
0.0
40
0.1500
1
esot. 2,00x1,50
50
0.00
72
1
73
2
11
4.6500
21
4.3900
31
0.0
0
TEXT
8
TEXT
10
4.6500
20
4.1500
30
0.0
40
0.1500
1
mikt. 2,10x1,60
50
0.00
72
1
73
2
11
4.6500
21
4.1500
31
0.0
0
LINE
8
OPENINGS
10
4.7500
20
5.4000
30
0.0
11
4.7500
21
4.6000
31
0.0
0
ARC
8
OPENINGS
10
4.7500
20
5.4000
30
0.0
40
0.8000
50
270.00
51
360.00
0
POLYLINE
8
ROOMS
66
1
70
1
10
0.0
20
0.0
30
0.0
0
VERTEX
8
ROOMS
10
9.8900
20
3.9000
30
0.0
0
VERTEX
8
ROOMS
10
11.0400
20
3.9000
30
0.0
0
VERTEX
8
ROOMS
10
11.0400
20
6.5000
30
0.0
0
VERTEX
8
ROOMS
10
9.8900
20
6.5000
30
0.0
0
SEQEND
8
ROOMS
0
TEXT
8
TEXT
10
10.4650
20
5.4800
30
0.0
40
0.2400
1
WC
50
0.00
72
1
73
2
11
10.4650
21
5.4800
31
0.0
0
TEXT
8
TEXT
10
10.4650
20
5.2000
30
0.0
40
0.1700
1
2,99 m2  (kath.)
50
0.00
72
1
73
2
11
10.4650
21
5.2000
31
0.0
0
TEXT
8
TEXT
10
10.4650
20
4.9400
30
0.0
40
0.1500
1
esot. 1,15x2,60
50
0.00
72
1
73
2
11
10.4650
21
4.9400
31
0.0
0
TEXT
8
TEXT
10
10.4650
20
4.7000
30
0.0
40
0.1500
1
mikt. 1,50x2,70
50
0.00
72
1
73
2
11
10.4650
21
4.7000
31
0.0
0
LINE
8
OPENINGS
10
11.0400
20
4.7500
30
0.0
11
11.0400
21
5.6500
31
0.0
0
LINE
8
OPENINGS
10
9.8900
20
5.6500
30
0.0
11
10.5900
21
5.6500
31
0.0
0
ARC
8
OPENINGS
10
9.8900
20
5.6500
30
0.0
40
0.7000
50
0.00
51
90.00
0
POLYLINE
8
ROOMS
66
1
70
1
10
0.0
20
0.0
30
0.0
0
VERTEX
8
ROOMS
10
2.2500
20
5.5000
30
0.0
0
VERTEX
8
ROOMS
10
9.7900
20
5.5000
30
0.0
0
VERTEX
8
ROOMS
10
9.7900
20
6.5000
30
0.0
0
VERTEX
8
ROOMS
10
2.2500
20
6.5000
30
0.0
0
SEQEND
8
ROOMS
0
TEXT
8
TEXT
10
6.0200
20
6.2800
30
0.0
40
0.2400
1
Διάδρομος
50
0.00
72
1
73
2
11
6.0200
21
6.2800
31
0.0
0
TEXT
8
TEXT
10
6.0200
20
6.0000
30
0.0
40
0.1700
1
7,54 m2  (kath.)
50
0.00
72
1
73
2
11
6.0200
21
6.0000
31
0.0
0
TEXT
8
TEXT
10
6.0200
20
5.7400
30
0.0
40
0.1500
1
esot. 7,54x1,00
50
0.00
72
1
73
2
11
6.0200
21
5.7400
31
0.0
0
TEXT
8
TEXT
10
6.0200
20
5.5000
30
0.0
40
0.1500
1
mikt. 7,64x1,10
50
0.00
72
1
73
2
11
6.0200
21
5.5000
31
0.0
0
LINE
8
OPENINGS
10
5.4974
20
6.5000
30
0.0
11
5.4974
21
5.6000
31
0.0
0
ARC
8
OPENINGS
10
5.4974
20
6.5000
30
0.0
40
0.9000
50
270.00
51
360.00
0
POLYLINE
8
ROOMS
66
1
70
1
10
0.0
20
0.0
30
0.0
0
VERTEX
8
ROOMS
10
5.7000
20
3.9000
30
0.0
0
VERTEX
8
ROOMS
10
9.7900
20
3.9000
30
0.0
0
VERTEX
8
ROOMS
10
9.7900
20
5.5000
30
0.0
0
VERTEX
8
ROOMS
10
5.7000
20
5.5000
30
0.0
0
SEQEND
8
ROOMS
0
TEXT
8
TEXT
10
7.7450
20
4.9800
30
0.0
40
0.2400
1

50
0.00
72
1
73
2
11
7.7450
21
4.9800
31
0.0
0
TEXT
8
TEXT
10
7.7450
20
4.7000
30
0.0
40
0.1700
1
6,54 m2  (kath.)
50
0.00
72
1
73
2
11
7.7450
21
4.7000
31
0.0
0
TEXT
8
TEXT
10
7.7450
20
4.4400
30
0.0
40
0.1500
1
esot. 4,09x1,60
50
0.00
72
1
73
2
11
7.7450
21
4.4400
31
0.0
0
TEXT
8
TEXT
10
7.7450
20
4.2000
30
0.0
40
0.1500
1
mikt. 4,19x1,70
50
0.00
72
1
73
2
11
7.7450
21
4.2000
31
0.0
0
LINE
8
OPENINGS
10
7.2758
20
3.9000
30
0.0
11
7.2758
21
4.8000
31
0.0
0
ARC
8
OPENINGS
10
7.2758
20
3.9000
30
0.0
40
0.9000
50
0.00
51
90.00
0
LINE
8
DIMS
10
0.0000
20
-1.2000
30
0.0
11
13.0000
21
-1.2000
31
0.0
0
LINE
8
DIMS
10
0.0000
20
-1.0500
30
0.0
11
0.0000
21
-1.3500
31
0.0
0
LINE
8
DIMS
10
13.0000
20
-1.0500
30
0.0
11
13.0000
21
-1.3500
31
0.0
0
TEXT
8
DIMS
10
6.5000
20
-1.5500
30
0.0
40
0.2800
1
13,00 m (A-D)
50
0.00
72
1
73
2
11
6.5000
21
-1.5500
31
0.0
0
LINE
8
DIMS
10
-1.2000
20
0.0000
30
0.0
11
-1.2000
21
10.4000
31
0.0
0
LINE
8
DIMS
10
-1.0500
20
0.0000
30
0.0
11
-1.3500
21
0.0000
31
0.0
0
LINE
8
DIMS
10
-1.0500
20
10.4000
30
0.0
11
-1.3500
21
10.4000
31
0.0
0
TEXT
8
DIMS
10
-1.5500
20
5.2000
30
0.0
40
0.2800
1
10,40 m (B-N)
50
90.00
72
1
73
2
11
-1.5500
21
5.2000
31
0.0
0
TEXT
8
TITLE
10
6.5000
20
11.1000
30
0.0
40
0.4000
1
Ισόγειο  -  117,94 m2 (mikto)
50
0.00
72
1
73
2
11
6.5000
21
11.1000
31
0.0
0
POLYLINE
8
NORTH
66
1
70
1
10
0.0
20
0.0
30
0.0
0
VERTEX
8
NORTH
10
14.2000
20
10.4000
30
0.0
0
VERTEX
8
NORTH
10
13.8500
20
9.5000
30
0.0
0
VERTEX
8
NORTH
10
14.2000
20
9.8000
30
0.0
0
VERTEX
8
NORTH
10
14.5500
20
9.5000
30
0.0
0
SEQEND
8
NORTH
0
TEXT
8
NORTH
10
14.2000
20
10.8000
30
0.0
40
0.4500
1
B
50
0.00
72
1
73
2
11
14.2000
21
10.8000
31
0.0
0
TEXT
8
TITLE
10
0.0000
20
12.6000
30
0.0
40
0.5000
1
Μονοκατοικία Αμαλιάδας - Πρόταση 3
50
0.00
72
0
73
2
11
0.0000
21
12.6000
31
0.0
0
TEXT
8
TITLE
10
0.0000
20
11.9000
30
0.0
40
0.3000
1
Αμαλιάδα, Π.Ε. Ηλείας  |  Eisodos: Νότος  |  Orofoi: 1
50
0.00
72
0
73
2
11
0.0000
21
11.9000
31
0.0
0
ENDSEC
0
EOF
