0
SECTION
2
HEADER
9
$ACADVER
1
AC1009
9
$DWGCODEPAGE
3
ANSI_1253
9
$INSUNITS
70
6
0
ENDSEC
0
SECTION
2
TABLES
0
TABLE
2
LAYER
70
8
0
LAYER
2
OUTLINE
70
0
62
7
6
CONTINUOUS
0
LAYER
2
WALLS
70
0
62
8
6
CONTINUOUS
0
LAYER
2
ROOMS
70
0
62
3
6
CONTINUOUS
0
LAYER
2
OPENINGS
70
0
62
1
6
CONTINUOUS
0
LAYER
2
TEXT
70
0
62
7
6
CONTINUOUS
0
LAYER
2
DIMS
70
0
62
4
6
CONTINUOUS
0
LAYER
2
NORTH
70
0
62
2
6
CONTINUOUS
0
LAYER
2
TITLE
70
0
62
5
6
CONTINUOUS
0
ENDTAB
0
ENDSEC
0
SECTION
2
ENTITIES
0
POLYLINE
8
OUTLINE
66
1
70
1
10
0.0
20
0.0
30
0.0
0
VERTEX
8
OUTLINE
10
0.0000
20
0.0000
30
0.0
0
VERTEX
8
OUTLINE
10
13.0000
20
0.0000
30
0.0
0
VERTEX
8
OUTLINE
10
13.0000
20
4.0430
30
0.0
0
VERTEX
8
OUTLINE
10
11.6500
20
4.0430
30
0.0
0
VERTEX
8
OUTLINE
10
11.6500
20
10.7930
30
0.0
0
VERTEX
8
OUTLINE
10
1.3500
20
10.7930
30
0.0
0
VERTEX
8
OUTLINE
10
1.3500
20
4.0430
30
0.0
0
VERTEX
8
OUTLINE
10
0.0000
20
4.0430
30
0.0
0
SEQEND
8
OUTLINE
0
POLYLINE
8
WALLS
66
1
70
1
10
0.0
20
0.0
30
0.0
0
VERTEX
8
WALLS
10
0.3000
20
0.3000
30
0.0
0
VERTEX
8
WALLS
10
12.7000
20
0.3000
30
0.0
0
VERTEX
8
WALLS
10
12.7000
20
3.7430
30
0.0
0
VERTEX
8
WALLS
10
0.3000
20
3.7430
30
0.0
0
SEQEND
8
WALLS
0
POLYLINE
8
WALLS
66
1
70
1
10
0.0
20
0.0
30
0.0
0
VERTEX
8
WALLS
10
1.6500
20
4.3430
30
0.0
0
VERTEX
8
WALLS
10
11.3500
20
4.3430
30
0.0
0
VERTEX
8
WALLS
10
11.3500
20
10.4930
30
0.0
0
VERTEX
8
WALLS
10
1.6500
20
10.4930
30
0.0
0
SEQEND
8
WALLS
0
POLYLINE
8
ROOMS
66
1
70
1
10
0.0
20
0.0
30
0.0
0
VERTEX
8
ROOMS
10
0.3000
20
0.3000
30
0.0
0
VERTEX
8
ROOMS
10
3.2258
20
0.3000
30
0.0
0
VERTEX
8
ROOMS
10
3.2258
20
3.7430
30
0.0
0
VERTEX
8
ROOMS
10
0.3000
20
3.7430
30
0.0
0
SEQEND
8
ROOMS
0
TEXT
8
TEXT
10
1.7629
20
2.3015
30
0.0
40
0.2400
1
Κουζίνα
50
0.00
72
1
73
2
11
1.7629
21
2.3015
31
0.0
0
TEXT
8
TEXT
10
1.7629
20
2.0215
30
0.0
40
0.1700
1
10,07 m2  (kath.)
50
0.00
72
1
73
2
11
1.7629
21
2.0215
31
0.0
0
TEXT
8
TEXT
10
1.7629
20
1.7615
30
0.0
40
0.1500
1
esot. 2,93x3,44
50
0.00
72
1
73
2
11
1.7629
21
1.7615
31
0.0
0
TEXT
8
TEXT
10
1.7629
20
1.5215
30
0.0
40
0.1500
1
mikt. 3,28x4,04
50
0.00
72
1
73
2
11
1.7629
21
1.5215
31
0.0
0
LINE
8
OPENINGS
10
1.3129
20
0.3000
30
0.0
11
2.2129
21
0.3000
31
0.0
0
POLYLINE
8
ROOMS
66
1
70
1
10
0.0
20
0.0
30
0.0
0
VERTEX
8
ROOMS
10
3.3258
20
0.3000
30
0.0
0
VERTEX
8
ROOMS
10
8.3703
20
0.3000
30
0.0
0
VERTEX
8
ROOMS
10
8.3703
20
3.9930
30
0.0
0
VERTEX
8
ROOMS
10
3.3258
20
3.9930
30
0.0
0
SEQEND
8
ROOMS
0
TEXT
8
TEXT
10
5.8481
20
2.4265
30
0.0
40
0.2400
1
Σαλόνι
50
0.00
72
1
73
2
11
5.8481
21
2.4265
31
0.0
0
TEXT
8
TEXT
10
5.8481
20
2.1465
30
0.0
40
0.1700
1
18,63 m2  (kath.)
50
0.00
72
1
73
2
11
5.8481
21
2.1465
31
0.0
0
TEXT
8
TEXT
10
5.8481
20
1.8865
30
0.0
40
0.1500
1
esot. 5,04x3,69
50
0.00
72
1
73
2
11
5.8481
21
1.8865
31
0.0
0
TEXT
8
TEXT
10
5.8481
20
1.6465
30
0.0
40
0.1500
1
mikt. 5,14x4,04
50
0.00
72
1
73
2
11
5.8481
21
1.6465
31
0.0
0
LINE
8
OPENINGS
10
5.1828
20
0.3000
30
0.0
11
6.5134
21
0.3000
31
0.0
0
POLYLINE
8
ROOMS
66
1
70
1
10
0.0
20
0.0
30
0.0
0
VERTEX
8
ROOMS
10
8.4703
20
0.3000
30
0.0
0
VERTEX
8
ROOMS
10
12.7000
20
0.3000
30
0.0
0
VERTEX
8
ROOMS
10
12.7000
20
3.7430
30
0.0
0
VERTEX
8
ROOMS
10
8.4703
20
3.7430
30
0.0
0
SEQEND
8
ROOMS
0
TEXT
8
TEXT
10
10.5852
20
2.3015
30
0.0
40
0.2400
1
Καθιστικό
50
0.00
72
1
73
2
11
10.5852
21
2.3015
31
0.0
0
TEXT
8
TEXT
10
10.5852
20
2.0215
30
0.0
40
0.1700
1
14,56 m2  (kath.)
50
0.00
72
1
73
2
11
10.5852
21
2.0215
31
0.0
0
TEXT
8
TEXT
10
10.5852
20
1.7615
30
0.0
40
0.1500
1
esot. 4,23x3,44
50
0.00
72
1
73
2
11
10.5852
21
1.7615
31
0.0
0
TEXT
8
TEXT
10
10.5852
20
1.5215
30
0.0
40
0.1500
1
mikt. 4,58x4,04
50
0.00
72
1
73
2
11
10.5852
21
1.5215
31
0.0
0
LINE
8
OPENINGS
10
10.0651
20
0.3000
30
0.0
11
11.1053
21
0.3000
31
0.0
0
LINE
8
OPENINGS
10
10.0852
20
0.3000
30
0.0
11
10.0852
21
1.3000
31
0.0
0
ARC
8
OPENINGS
10
10.0852
20
0.3000
30
0.0
40
1.0000
50
0.00
51
90.00
0
POLYLINE
8
ROOMS
66
1
70
1
10
0.0
20
0.0
30
0.0
0
VERTEX
8
ROOMS
10
1.6500
20
6.8430
30
0.0
0
VERTEX
8
ROOMS
10
4.6500
20
6.8430
30
0.0
0
VERTEX
8
ROOMS
10
4.6500
20
10.4930
30
0.0
0
VERTEX
8
ROOMS
10
1.6500
20
10.4930
30
0.0
0
SEQEND
8
ROOMS
0
TEXT
8
TEXT
10
3.1500
20
8.9480
30
0.0
40
0.2400
1
Υπνοδωμάτιο 3
50
0.00
72
1
73
2
11
3.1500
21
8.9480
31
0.0
0
TEXT
8
TEXT
10
3.1500
20
8.6680
30
0.0
40
0.1700
1
10,95 m2  (kath.)
50
0.00
72
1
73
2
11
3.1500
21
8.6680
31
0.0
0
TEXT
8
TEXT
10
3.1500
20
8.4080
30
0.0
40
0.1500
1
esot. 3,00x3,65
50
0.00
72
1
73
2
11
3.1500
21
8.4080
31
0.0
0
TEXT
8
TEXT
10
3.1500
20
8.1680
30
0.0
40
0.1500
1
mikt. 3,35x4,00
50
0.00
72
1
73
2
11
3.1500
21
8.1680
31
0.0
0
LINE
8
OPENINGS
10
2.7000
20
10.4930
30
0.0
11
3.6000
21
10.4930
31
0.0
0
LINE
8
OPENINGS
10
3.6500
20
6.8430
30
0.0
11
3.6500
21
7.7430
31
0.0
0
ARC
8
OPENINGS
10
3.6500
20
6.8430
30
0.0
40
0.9000
50
0.00
51
90.00
0
POLYLINE
8
ROOMS
66
1
70
1
10
0.0
20
0.0
30
0.0
0
VERTEX
8
ROOMS
10
4.7500
20
6.8430
30
0.0
0
VERTEX
8
ROOMS
10
7.7500
20
6.8430
30
0.0
0
VERTEX
8
ROOMS
10
7.7500
20
10.4930
30
0.0
0
VERTEX
8
ROOMS
10
4.7500
20
10.4930
30
0.0
0
SEQEND
8
ROOMS
0
TEXT
8
TEXT
10
6.2500
20
8.9480
30
0.0
40
0.2400
1
Υπνοδωμάτιο 2
50
0.00
72
1
73
2
11
6.2500
21
8.9480
31
0.0
0
TEXT
8
TEXT
10
6.2500
20
8.6680
30
0.0
40
0.1700
1
10,95 m2  (kath.)
50
0.00
72
1
73
2
11
6.2500
21
8.6680
31
0.0
0
TEXT
8
TEXT
10
6.2500
20
8.4080
30
0.0
40
0.1500
1
esot. 3,00x3,65
50
0.00
72
1
73
2
11
6.2500
21
8.4080
31
0.0
0
TEXT
8
TEXT
10
6.2500
20
8.1680
30
0.0
40
0.1500
1
mikt. 3,10x4,00
50
0.00
72
1
73
2
11
6.2500
21
8.1680
31
0.0
0
LINE
8
OPENINGS
10
5.8000
20
10.4930
30
0.0
11
6.7000
21
10.4930
31
0.0
0
LINE
8
OPENINGS
10
5.7000
20
6.8430
30
0.0
11
5.7000
21
7.7430
31
0.0
0
ARC
8
OPENINGS
10
5.7000
20
6.8430
30
0.0
40
0.9000
50
0.00
51
90.00
0
POLYLINE
8
ROOMS
66
1
70
1
10
0.0
20
0.0
30
0.0
0
VERTEX
8
ROOMS
10
7.8500
20
6.8430
30
0.0
0
VERTEX
8
ROOMS
10
11.3500
20
6.8430
30
0.0
0
VERTEX
8
ROOMS
10
11.3500
20
10.4930
30
0.0
0
VERTEX
8
ROOMS
10
7.8500
20
10.4930
30
0.0
0
SEQEND
8
ROOMS
0
TEXT
8
TEXT
10
9.6000
20
8.9480
30
0.0
40
0.2400
1
Κύριο Υπνοδωμάτιο
50
0.00
72
1
73
2
11
9.6000
21
8.9480
31
0.0
0
TEXT
8
TEXT
10
9.6000
20
8.6680
30
0.0
40
0.1700
1
12,77 m2  (kath.)
50
0.00
72
1
73
2
11
9.6000
21
8.6680
31
0.0
0
TEXT
8
TEXT
10
9.6000
20
8.4080
30
0.0
40
0.1500
1
esot. 3,50x3,65
50
0.00
72
1
73
2
11
9.6000
21
8.4080
31
0.0
0
TEXT
8
TEXT
10
9.6000
20
8.1680
30
0.0
40
0.1500
1
mikt. 3,85x4,00
50
0.00
72
1
73
2
11
9.6000
21
8.1680
31
0.0
0
LINE
8
OPENINGS
10
11.3500
20
8.2118
30
0.0
11
11.3500
21
9.1242
31
0.0
0
LINE
8
OPENINGS
10
7.9500
20
6.8430
30
0.0
11
7.9500
21
7.7430
31
0.0
0
ARC
8
OPENINGS
10
7.9500
20
6.8430
30
0.0
40
0.9000
50
0.00
51
90.00
0
POLYLINE
8
ROOMS
66
1
70
1
10
0.0
20
0.0
30
0.0
0
VERTEX
8
ROOMS
10
1.6500
20
4.0930
30
0.0
0
VERTEX
8
ROOMS
10
2.8000
20
4.0930
30
0.0
0
VERTEX
8
ROOMS
10
2.8000
20
6.7430
30
0.0
0
VERTEX
8
ROOMS
10
1.6500
20
6.7430
30
0.0
0
SEQEND
8
ROOMS
0
TEXT
8
TEXT
10
2.2250
20
5.6980
30
0.0
40
0.2400
1
WC
50
0.00
72
1
73
2
11
2.2250
21
5.6980
31
0.0
0
TEXT
8
TEXT
10
2.2250
20
5.4180
30
0.0
40
0.1700
1
3,05 m2  (kath.)
50
0.00
72
1
73
2
11
2.2250
21
5.4180
31
0.0
0
TEXT
8
TEXT
10
2.2250
20
5.1580
30
0.0
40
0.1500
1
esot. 1,15x2,65
50
0.00
72
1
73
2
11
2.2250
21
5.1580
31
0.0
0
TEXT
8
TEXT
10
2.2250
20
4.9180
30
0.0
40
0.1500
1
mikt. 1,50x2,75
50
0.00
72
1
73
2
11
2.2250
21
4.9180
31
0.0
0
LINE
8
OPENINGS
10
1.6500
20
4.9680
30
0.0
11
1.6500
21
5.8680
31
0.0
0
LINE
8
OPENINGS
10
2.8000
20
5.8680
30
0.0
11
2.1000
21
5.8680
31
0.0
0
ARC
8
OPENINGS
10
2.8000
20
5.8680
30
0.0
40
0.7000
50
0.00
51
90.00
0
POLYLINE
8
ROOMS
66
1
70
1
10
0.0
20
0.0
30
0.0
0
VERTEX
8
ROOMS
10
2.9000
20
4.0930
30
0.0
0
VERTEX
8
ROOMS
10
4.9000
20
4.0930
30
0.0
0
VERTEX
8
ROOMS
10
4.9000
20
5.5930
30
0.0
0
VERTEX
8
ROOMS
10
2.9000
20
5.5930
30
0.0
0
SEQEND
8
ROOMS
0
TEXT
8
TEXT
10
3.9000
20
5.1230
30
0.0
40
0.2400
1
Αποθήκη
50
0.00
72
1
73
2
11
3.9000
21
5.1230
31
0.0
0
TEXT
8
TEXT
10
3.9000
20
4.8430
30
0.0
40
0.1700
1
3,00 m2  (kath.)
50
0.00
72
1
73
2
11
3.9000
21
4.8430
31
0.0
0
TEXT
8
TEXT
10
3.9000
20
4.5830
30
0.0
40
0.1500
1
esot. 2,00x1,50
50
0.00
72
1
73
2
11
3.9000
21
4.5830
31
0.0
0
TEXT
8
TEXT
10
3.9000
20
4.3430
30
0.0
40
0.1500
1
mikt. 2,10x1,60
50
0.00
72
1
73
2
11
3.9000
21
4.3430
31
0.0
0
LINE
8
OPENINGS
10
4.0000
20
5.5930
30
0.0
11
4.0000
21
4.7930
31
0.0
0
ARC
8
OPENINGS
10
4.0000
20
5.5930
30
0.0
40
0.8000
50
270.00
51
360.00
0
LINE
8
OPENINGS
10
3.4500
20
4.0930
30
0.0
11
3.4500
21
4.9930
31
0.0
0
ARC
8
OPENINGS
10
3.4500
20
4.0930
30
0.0
40
0.9000
50
0.00
51
90.00
0
POLYLINE
8
ROOMS
66
1
70
1
10
0.0
20
0.0
30
0.0
0
VERTEX
8
ROOMS
10
9.5000
20
4.0930
30
0.0
0
VERTEX
8
ROOMS
10
11.3500
20
4.0930
30
0.0
0
VERTEX
8
ROOMS
10
11.3500
20
6.7430
30
0.0
0
VERTEX
8
ROOMS
10
9.5000
20
6.7430
30
0.0
0
SEQEND
8
ROOMS
0
TEXT
8
TEXT
10
10.4250
20
5.6980
30
0.0
40
0.2400
1
Λουτρό
50
0.00
72
1
73
2
11
10.4250
21
5.6980
31
0.0
0
TEXT
8
TEXT
10
10.4250
20
5.4180
30
0.0
40
0.1700
1
4,90 m2  (kath.)
50
0.00
72
1
73
2
11
10.4250
21
5.4180
31
0.0
0
TEXT
8
TEXT
10
10.4250
20
5.1580
30
0.0
40
0.1500
1
esot. 1,85x2,65
50
0.00
72
1
73
2
11
10.4250
21
5.1580
31
0.0
0
TEXT
8
TEXT
10
10.4250
20
4.9180
30
0.0
40
0.1500
1
mikt. 2,20x2,75
50
0.00
72
1
73
2
11
10.4250
21
4.9180
31
0.0
0
LINE
8
OPENINGS
10
11.3500
20
4.9680
30
0.0
11
11.3500
21
5.8680
31
0.0
0
LINE
8
OPENINGS
10
9.5000
20
5.8180
30
0.0
11
10.3000
21
5.8180
31
0.0
0
ARC
8
OPENINGS
10
9.5000
20
5.8180
30
0.0
40
0.8000
50
0.00
51
90.00
0
POLYLINE
8
ROOMS
66
1
70
1
10
0.0
20
0.0
30
0.0
0
VERTEX
8
ROOMS
10
2.9000
20
5.6930
30
0.0
0
VERTEX
8
ROOMS
10
9.4000
20
5.6930
30
0.0
0
VERTEX
8
ROOMS
10
9.4000
20
6.7430
30
0.0
0
VERTEX
8
ROOMS
10
2.9000
20
6.7430
30
0.0
0
SEQEND
8
ROOMS
0
TEXT
8
TEXT
10
6.1500
20
6.4980
30
0.0
40
0.2400
1
Διάδρομος
50
0.00
72
1
73
2
11
6.1500
21
6.4980
31
0.0
0
TEXT
8
TEXT
10
6.1500
20
6.2180
30
0.0
40
0.1700
1
6,83 m2  (kath.)
50
0.00
72
1
73
2
11
6.1500
21
6.2180
31
0.0
0
TEXT
8
TEXT
10
6.1500
20
5.9580
30
0.0
40
0.1500
1
esot. 6,50x1,05
50
0.00
72
1
73
2
11
6.1500
21
5.9580
31
0.0
0
TEXT
8
TEXT
10
6.1500
20
5.7180
30
0.0
40
0.1500
1
mikt. 6,60x1,15
50
0.00
72
1
73
2
11
6.1500
21
5.7180
31
0.0
0
LINE
8
OPENINGS
10
6.7250
20
5.6930
30
0.0
11
6.7250
21
6.5930
31
0.0
0
ARC
8
OPENINGS
10
6.7250
20
5.6930
30
0.0
40
0.9000
50
0.00
51
90.00
0
POLYLINE
8
ROOMS
66
1
70
1
10
0.0
20
0.0
30
0.0
0
VERTEX
8
ROOMS
10
4.9500
20
4.0930
30
0.0
0
VERTEX
8
ROOMS
10
9.4000
20
4.0930
30
0.0
0
VERTEX
8
ROOMS
10
9.4000
20
5.6930
30
0.0
0
VERTEX
8
ROOMS
10
4.9500
20
5.6930
30
0.0
0
SEQEND
8
ROOMS
0
TEXT
8
TEXT
10
7.1750
20
5.1730
30
0.0
40
0.2400
1

50
0.00
72
1
73
2
11
7.1750
21
5.1730
31
0.0
0
TEXT
8
TEXT
10
7.1750
20
4.8930
30
0.0
40
0.1700
1
7,12 m2  (kath.)
50
0.00
72
1
73
2
11
7.1750
21
4.8930
31
0.0
0
TEXT
8
TEXT
10
7.1750
20
4.6330
30
0.0
40
0.1500
1
esot. 4,45x1,60
50
0.00
72
1
73
2
11
7.1750
21
4.6330
31
0.0
0
TEXT
8
TEXT
10
7.1750
20
4.3930
30
0.0
40
0.1500
1
mikt. 4,55x1,70
50
0.00
72
1
73
2
11
7.1750
21
4.3930
31
0.0
0
LINE
8
OPENINGS
10
6.2102
20
4.0930
30
0.0
11
6.2102
21
4.9930
31
0.0
0
ARC
8
OPENINGS
10
6.2102
20
4.0930
30
0.0
40
0.9000
50
0.00
51
90.00
0
LINE
8
DIMS
10
0.0000
20
-1.2000
30
0.0
11
13.0000
21
-1.2000
31
0.0
0
LINE
8
DIMS
10
0.0000
20
-1.0500
30
0.0
11
0.0000
21
-1.3500
31
0.0
0
LINE
8
DIMS
10
13.0000
20
-1.0500
30
0.0
11
13.0000
21
-1.3500
31
0.0
0
TEXT
8
DIMS
10
6.5000
20
-1.5500
30
0.0
40
0.2800
1
13,00 m (A-D)
50
0.00
72
1
73
2
11
6.5000
21
-1.5500
31
0.0
0
LINE
8
DIMS
10
-1.2000
20
0.0000
30
0.0
11
-1.2000
21
10.7900
31
0.0
0
LINE
8
DIMS
10
-1.0500
20
0.0000
30
0.0
11
-1.3500
21
0.0000
31
0.0
0
LINE
8
DIMS
10
-1.0500
20
10.7900
30
0.0
11
-1.3500
21
10.7900
31
0.0
0
TEXT
8
DIMS
10
-1.5500
20
5.3950
30
0.0
40
0.2800
1
10,79 m (B-N)
50
90.00
72
1
73
2
11
-1.5500
21
5.3950
31
0.0
0
TEXT
8
TITLE
10
6.5000
20
11.4900
30
0.0
40
0.4000
1
Ισόγειο  -  122,08 m2 (mikto)
50
0.00
72
1
73
2
11
6.5000
21
11.4900
31
0.0
0
POLYLINE
8
NORTH
66
1
70
1
10
0.0
20
0.0
30
0.0
0
VERTEX
8
NORTH
10
14.2000
20
10.7900
30
0.0
0
VERTEX
8
NORTH
10
13.8500
20
9.8900
30
0.0
0
VERTEX
8
NORTH
10
14.2000
20
10.1900
30
0.0
0
VERTEX
8
NORTH
10
14.5500
20
9.8900
30
0.0
0
SEQEND
8
NORTH
0
TEXT
8
NORTH
10
14.2000
20
11.1900
30
0.0
40
0.4500
1
B
50
0.00
72
1
73
2
11
14.2000
21
11.1900
31
0.0
0
TEXT
8
TITLE
10
0.0000
20
12.9900
30
0.0
40
0.5000
1
Μονοκατοικία Αμαλιάδας - Πρόταση 2
50
0.00
72
0
73
2
11
0.0000
21
12.9900
31
0.0
0
TEXT
8
TITLE
10
0.0000
20
12.2900
30
0.0
40
0.3000
1
Αμαλιάδα, Π.Ε. Ηλείας  |  Eisodos: Νότος  |  Orofoi: 1
50
0.00
72
0
73
2
11
0.0000
21
12.2900
31
0.0
0
ENDSEC
0
EOF
