0
SECTION
2
HEADER
9
$ACADVER
1
AC1009
9
$DWGCODEPAGE
3
ANSI_1253
9
$INSUNITS
70
6
0
ENDSEC
0
SECTION
2
TABLES
0
TABLE
2
LAYER
70
8
0
LAYER
2
OUTLINE
70
0
62
7
6
CONTINUOUS
0
LAYER
2
WALLS
70
0
62
8
6
CONTINUOUS
0
LAYER
2
ROOMS
70
0
62
3
6
CONTINUOUS
0
LAYER
2
OPENINGS
70
0
62
1
6
CONTINUOUS
0
LAYER
2
TEXT
70
0
62
7
6
CONTINUOUS
0
LAYER
2
DIMS
70
0
62
4
6
CONTINUOUS
0
LAYER
2
NORTH
70
0
62
2
6
CONTINUOUS
0
LAYER
2
TITLE
70
0
62
5
6
CONTINUOUS
0
ENDTAB
0
ENDSEC
0
SECTION
2
ENTITIES
0
POLYLINE
8
OUTLINE
66
1
70
1
10
0.0
20
0.0
30
0.0
0
VERTEX
8
OUTLINE
10
0.0000
20
0.0000
30
0.0
0
VERTEX
8
OUTLINE
10
13.0000
20
0.0000
30
0.0
0
VERTEX
8
OUTLINE
10
13.0000
20
3.8500
30
0.0
0
VERTEX
8
OUTLINE
10
10.8000
20
3.8500
30
0.0
0
VERTEX
8
OUTLINE
10
10.8000
20
10.3500
30
0.0
0
VERTEX
8
OUTLINE
10
0.0000
20
10.3500
30
0.0
0
SEQEND
8
OUTLINE
0
POLYLINE
8
WALLS
66
1
70
1
10
0.0
20
0.0
30
0.0
0
VERTEX
8
WALLS
10
0.3000
20
0.3000
30
0.0
0
VERTEX
8
WALLS
10
12.7000
20
0.3000
30
0.0
0
VERTEX
8
WALLS
10
12.7000
20
3.5500
30
0.0
0
VERTEX
8
WALLS
10
0.3000
20
3.5500
30
0.0
0
SEQEND
8
WALLS
0
POLYLINE
8
WALLS
66
1
70
1
10
0.0
20
0.0
30
0.0
0
VERTEX
8
WALLS
10
0.3000
20
4.1500
30
0.0
0
VERTEX
8
WALLS
10
10.5000
20
4.1500
30
0.0
0
VERTEX
8
WALLS
10
10.5000
20
10.0500
30
0.0
0
VERTEX
8
WALLS
10
0.3000
20
10.0500
30
0.0
0
SEQEND
8
WALLS
0
POLYLINE
8
ROOMS
66
1
70
1
10
0.0
20
0.0
30
0.0
0
VERTEX
8
ROOMS
10
0.3000
20
0.3000
30
0.0
0
VERTEX
8
ROOMS
10
4.5297
20
0.3000
30
0.0
0
VERTEX
8
ROOMS
10
4.5297
20
3.8000
30
0.0
0
VERTEX
8
ROOMS
10
0.3000
20
3.8000
30
0.0
0
SEQEND
8
ROOMS
0
TEXT
8
TEXT
10
2.4148
20
2.3300
30
0.0
40
0.2400
1
Καθιστικό
50
0.00
72
1
73
2
11
2.4148
21
2.3300
31
0.0
0
TEXT
8
TEXT
10
2.4148
20
2.0500
30
0.0
40
0.1700
1
14,80 m2  (kath.)
50
0.00
72
1
73
2
11
2.4148
21
2.0500
31
0.0
0
TEXT
8
TEXT
10
2.4148
20
1.7900
30
0.0
40
0.1500
1
esot. 4,23x3,50
50
0.00
72
1
73
2
11
2.4148
21
1.7900
31
0.0
0
TEXT
8
TEXT
10
2.4148
20
1.5500
30
0.0
40
0.1500
1
mikt. 4,58x3,85
50
0.00
72
1
73
2
11
2.4148
21
1.5500
31
0.0
0
LINE
8
OPENINGS
10
1.8861
20
0.3000
30
0.0
11
2.9435
21
0.3000
31
0.0
0
LINE
8
OPENINGS
10
1.9148
20
0.3000
30
0.0
11
1.9148
21
1.3000
31
0.0
0
ARC
8
OPENINGS
10
1.9148
20
0.3000
30
0.0
40
1.0000
50
0.00
51
90.00
0
POLYLINE
8
ROOMS
66
1
70
1
10
0.0
20
0.0
30
0.0
0
VERTEX
8
ROOMS
10
4.6297
20
0.3000
30
0.0
0
VERTEX
8
ROOMS
10
9.6742
20
0.3000
30
0.0
0
VERTEX
8
ROOMS
10
9.6742
20
3.8000
30
0.0
0
VERTEX
8
ROOMS
10
4.6297
20
3.8000
30
0.0
0
SEQEND
8
ROOMS
0
TEXT
8
TEXT
10
7.1519
20
2.3300
30
0.0
40
0.2400
1
Σαλόνι
50
0.00
72
1
73
2
11
7.1519
21
2.3300
31
0.0
0
TEXT
8
TEXT
10
7.1519
20
2.0500
30
0.0
40
0.1700
1
17,66 m2  (kath.)
50
0.00
72
1
73
2
11
7.1519
21
2.0500
31
0.0
0
TEXT
8
TEXT
10
7.1519
20
1.7900
30
0.0
40
0.1500
1
esot. 5,04x3,50
50
0.00
72
1
73
2
11
7.1519
21
1.7900
31
0.0
0
TEXT
8
TEXT
10
7.1519
20
1.5500
30
0.0
40
0.1500
1
mikt. 5,14x3,85
50
0.00
72
1
73
2
11
7.1519
21
1.5500
31
0.0
0
LINE
8
OPENINGS
10
6.5213
20
0.3000
30
0.0
11
7.7825
21
0.3000
31
0.0
0
POLYLINE
8
ROOMS
66
1
70
1
10
0.0
20
0.0
30
0.0
0
VERTEX
8
ROOMS
10
9.7742
20
0.3000
30
0.0
0
VERTEX
8
ROOMS
10
12.7000
20
0.3000
30
0.0
0
VERTEX
8
ROOMS
10
12.7000
20
3.5500
30
0.0
0
VERTEX
8
ROOMS
10
9.7742
20
3.5500
30
0.0
0
SEQEND
8
ROOMS
0
TEXT
8
TEXT
10
11.2371
20
2.2050
30
0.0
40
0.2400
1
Κουζίνα
50
0.00
72
1
73
2
11
11.2371
21
2.2050
31
0.0
0
TEXT
8
TEXT
10
11.2371
20
1.9250
30
0.0
40
0.1700
1
9,51 m2  (kath.)
50
0.00
72
1
73
2
11
11.2371
21
1.9250
31
0.0
0
TEXT
8
TEXT
10
11.2371
20
1.6650
30
0.0
40
0.1500
1
esot. 2,93x3,25
50
0.00
72
1
73
2
11
11.2371
21
1.6650
31
0.0
0
TEXT
8
TEXT
10
11.2371
20
1.4250
30
0.0
40
0.1500
1
mikt. 3,28x3,85
50
0.00
72
1
73
2
11
11.2371
21
1.4250
31
0.0
0
LINE
8
OPENINGS
10
10.7871
20
0.3000
30
0.0
11
11.6871
21
0.3000
31
0.0
0
POLYLINE
8
ROOMS
66
1
70
1
10
0.0
20
0.0
30
0.0
0
VERTEX
8
ROOMS
10
0.3000
20
6.5500
30
0.0
0
VERTEX
8
ROOMS
10
3.9842
20
6.5500
30
0.0
0
VERTEX
8
ROOMS
10
3.9842
20
10.0500
30
0.0
0
VERTEX
8
ROOMS
10
0.3000
20
10.0500
30
0.0
0
SEQEND
8
ROOMS
0
TEXT
8
TEXT
10
2.1421
20
8.5800
30
0.0
40
0.2400
1
Κύριο Υπνοδωμάτιο
50
0.00
72
1
73
2
11
2.1421
21
8.5800
31
0.0
0
TEXT
8
TEXT
10
2.1421
20
8.3000
30
0.0
40
0.1700
1
12,89 m2  (kath.)
50
0.00
72
1
73
2
11
2.1421
21
8.3000
31
0.0
0
TEXT
8
TEXT
10
2.1421
20
8.0400
30
0.0
40
0.1500
1
esot. 3,68x3,50
50
0.00
72
1
73
2
11
2.1421
21
8.0400
31
0.0
0
TEXT
8
TEXT
10
2.1421
20
7.8000
30
0.0
40
0.1500
1
mikt. 4,03x3,85
50
0.00
72
1
73
2
11
2.1421
21
7.8000
31
0.0
0
LINE
8
OPENINGS
10
1.6816
20
10.0500
30
0.0
11
2.6026
21
10.0500
31
0.0
0
LINE
8
OPENINGS
10
2.9842
20
6.5500
30
0.0
11
2.9842
21
7.4500
31
0.0
0
ARC
8
OPENINGS
10
2.9842
20
6.5500
30
0.0
40
0.9000
50
0.00
51
90.00
0
POLYLINE
8
ROOMS
66
1
70
1
10
0.0
20
0.0
30
0.0
0
VERTEX
8
ROOMS
10
4.0842
20
6.5500
30
0.0
0
VERTEX
8
ROOMS
10
7.2421
20
6.5500
30
0.0
0
VERTEX
8
ROOMS
10
7.2421
20
10.0500
30
0.0
0
VERTEX
8
ROOMS
10
4.0842
20
10.0500
30
0.0
0
SEQEND
8
ROOMS
0
TEXT
8
TEXT
10
5.6632
20
8.5800
30
0.0
40
0.2400
1
Υπνοδωμάτιο 2
50
0.00
72
1
73
2
11
5.6632
21
8.5800
31
0.0
0
TEXT
8
TEXT
10
5.6632
20
8.3000
30
0.0
40
0.1700
1
11,05 m2  (kath.)
50
0.00
72
1
73
2
11
5.6632
21
8.3000
31
0.0
0
TEXT
8
TEXT
10
5.6632
20
8.0400
30
0.0
40
0.1500
1
esot. 3,16x3,50
50
0.00
72
1
73
2
11
5.6632
21
8.0400
31
0.0
0
TEXT
8
TEXT
10
5.6632
20
7.8000
30
0.0
40
0.1500
1
mikt. 3,26x3,85
50
0.00
72
1
73
2
11
5.6632
21
7.8000
31
0.0
0
LINE
8
OPENINGS
10
5.2132
20
10.0500
30
0.0
11
6.1132
21
10.0500
31
0.0
0
LINE
8
OPENINGS
10
5.3000
20
6.5500
30
0.0
11
5.3000
21
7.4500
31
0.0
0
ARC
8
OPENINGS
10
5.3000
20
6.5500
30
0.0
40
0.9000
50
0.00
51
90.00
0
POLYLINE
8
ROOMS
66
1
70
1
10
0.0
20
0.0
30
0.0
0
VERTEX
8
ROOMS
10
7.3421
20
6.5500
30
0.0
0
VERTEX
8
ROOMS
10
10.5000
20
6.5500
30
0.0
0
VERTEX
8
ROOMS
10
10.5000
20
10.0500
30
0.0
0
VERTEX
8
ROOMS
10
7.3421
20
10.0500
30
0.0
0
SEQEND
8
ROOMS
0
TEXT
8
TEXT
10
8.9211
20
8.5800
30
0.0
40
0.2400
1
Υπνοδωμάτιο 3
50
0.00
72
1
73
2
11
8.9211
21
8.5800
31
0.0
0
TEXT
8
TEXT
10
8.9211
20
8.3000
30
0.0
40
0.1700
1
11,05 m2  (kath.)
50
0.00
72
1
73
2
11
8.9211
21
8.3000
31
0.0
0
TEXT
8
TEXT
10
8.9211
20
8.0400
30
0.0
40
0.1500
1
esot. 3,16x3,50
50
0.00
72
1
73
2
11
8.9211
21
8.0400
31
0.0
0
TEXT
8
TEXT
10
8.9211
20
7.8000
30
0.0
40
0.1500
1
mikt. 3,51x3,85
50
0.00
72
1
73
2
11
8.9211
21
7.8000
31
0.0
0
LINE
8
OPENINGS
10
10.5000
20
7.8500
30
0.0
11
10.5000
21
8.7500
31
0.0
0
LINE
8
OPENINGS
10
7.4421
20
6.5500
30
0.0
11
7.4421
21
7.4500
31
0.0
0
ARC
8
OPENINGS
10
7.4421
20
6.5500
30
0.0
40
0.9000
50
0.00
51
90.00
0
POLYLINE
8
ROOMS
66
1
70
1
10
0.0
20
0.0
30
0.0
0
VERTEX
8
ROOMS
10
0.3000
20
3.9000
30
0.0
0
VERTEX
8
ROOMS
10
2.1500
20
3.9000
30
0.0
0
VERTEX
8
ROOMS
10
2.1500
20
6.4500
30
0.0
0
VERTEX
8
ROOMS
10
0.3000
20
6.4500
30
0.0
0
SEQEND
8
ROOMS
0
TEXT
8
TEXT
10
1.2250
20
5.4550
30
0.0
40
0.2400
1
Λουτρό
50
0.00
72
1
73
2
11
1.2250
21
5.4550
31
0.0
0
TEXT
8
TEXT
10
1.2250
20
5.1750
30
0.0
40
0.1700
1
4,72 m2  (kath.)
50
0.00
72
1
73
2
11
1.2250
21
5.1750
31
0.0
0
TEXT
8
TEXT
10
1.2250
20
4.9150
30
0.0
40
0.1500
1
esot. 1,85x2,55
50
0.00
72
1
73
2
11
1.2250
21
4.9150
31
0.0
0
TEXT
8
TEXT
10
1.2250
20
4.6750
30
0.0
40
0.1500
1
mikt. 2,20x2,65
50
0.00
72
1
73
2
11
1.2250
21
4.6750
31
0.0
0
LINE
8
OPENINGS
10
0.3000
20
4.7250
30
0.0
11
0.3000
21
5.6250
31
0.0
0
LINE
8
OPENINGS
10
2.1500
20
5.6000
30
0.0
11
1.4000
21
5.6000
31
0.0
0
ARC
8
OPENINGS
10
2.1500
20
5.6000
30
0.0
40
0.7500
50
0.00
51
90.00
0
POLYLINE
8
ROOMS
66
1
70
1
10
0.0
20
0.0
30
0.0
0
VERTEX
8
ROOMS
10
2.2500
20
3.9000
30
0.0
0
VERTEX
8
ROOMS
10
3.5500
20
3.9000
30
0.0
0
VERTEX
8
ROOMS
10
3.5500
20
5.4000
30
0.0
0
VERTEX
8
ROOMS
10
2.2500
20
5.4000
30
0.0
0
SEQEND
8
ROOMS
0
TEXT
8
TEXT
10
2.9000
20
4.9300
30
0.0
40
0.2400
1
Χωλ
50
0.00
72
1
73
2
11
2.9000
21
4.9300
31
0.0
0
TEXT
8
TEXT
10
2.9000
20
4.6500
30
0.0
40
0.1700
1
1,95 m2  (kath.)
50
0.00
72
1
73
2
11
2.9000
21
4.6500
31
0.0
0
TEXT
8
TEXT
10
2.9000
20
4.3900
30
0.0
40
0.1500
1
esot. 1,30x1,50
50
0.00
72
1
73
2
11
2.9000
21
4.3900
31
0.0
0
TEXT
8
TEXT
10
2.9000
20
4.1500
30
0.0
40
0.1500
1
mikt. 1,40x1,60
50
0.00
72
1
73
2
11
2.9000
21
4.1500
31
0.0
0
LINE
8
OPENINGS
10
2.5500
20
5.4000
30
0.0
11
2.5500
21
4.5000
31
0.0
0
ARC
8
OPENINGS
10
2.5500
20
5.4000
30
0.0
40
0.9000
50
270.00
51
360.00
0
LINE
8
OPENINGS
10
2.4500
20
3.9000
30
0.0
11
2.4500
21
4.8000
31
0.0
0
ARC
8
OPENINGS
10
2.4500
20
3.9000
30
0.0
40
0.9000
50
0.00
51
90.00
0
POLYLINE
8
ROOMS
66
1
70
1
10
0.0
20
0.0
30
0.0
0
VERTEX
8
ROOMS
10
3.6500
20
3.9000
30
0.0
0
VERTEX
8
ROOMS
10
5.6500
20
3.9000
30
0.0
0
VERTEX
8
ROOMS
10
5.6500
20
5.4000
30
0.0
0
VERTEX
8
ROOMS
10
3.6500
20
5.4000
30
0.0
0
SEQEND
8
ROOMS
0
TEXT
8
TEXT
10
4.6500
20
4.9300
30
0.0
40
0.2400
1
Αποθήκη
50
0.00
72
1
73
2
11
4.6500
21
4.9300
31
0.0
0
TEXT
8
TEXT
10
4.6500
20
4.6500
30
0.0
40
0.1700
1
3,00 m2  (kath.)
50
0.00
72
1
73
2
11
4.6500
21
4.6500
31
0.0
0
TEXT
8
TEXT
10
4.6500
20
4.3900
30
0.0
40
0.1500
1
esot. 2,00x1,50
50
0.00
72
1
73
2
11
4.6500
21
4.3900
31
0.0
0
TEXT
8
TEXT
10
4.6500
20
4.1500
30
0.0
40
0.1500
1
mikt. 2,10x1,60
50
0.00
72
1
73
2
11
4.6500
21
4.1500
31
0.0
0
LINE
8
OPENINGS
10
4.7500
20
5.4000
30
0.0
11
4.7500
21
4.6000
31
0.0
0
ARC
8
OPENINGS
10
4.7500
20
5.4000
30
0.0
40
0.8000
50
270.00
51
360.00
0
POLYLINE
8
ROOMS
66
1
70
1
10
0.0
20
0.0
30
0.0
0
VERTEX
8
ROOMS
10
9.3500
20
3.9000
30
0.0
0
VERTEX
8
ROOMS
10
10.5000
20
3.9000
30
0.0
0
VERTEX
8
ROOMS
10
10.5000
20
6.4500
30
0.0
0
VERTEX
8
ROOMS
10
9.3500
20
6.4500
30
0.0
0
SEQEND
8
ROOMS
0
TEXT
8
TEXT
10
9.9250
20
5.4550
30
0.0
40
0.2400
1
WC
50
0.00
72
1
73
2
11
9.9250
21
5.4550
31
0.0
0
TEXT
8
TEXT
10
9.9250
20
5.1750
30
0.0
40
0.1700
1
2,93 m2  (kath.)
50
0.00
72
1
73
2
11
9.9250
21
5.1750
31
0.0
0
TEXT
8
TEXT
10
9.9250
20
4.9150
30
0.0
40
0.1500
1
esot. 1,15x2,55
50
0.00
72
1
73
2
11
9.9250
21
4.9150
31
0.0
0
TEXT
8
TEXT
10
9.9250
20
4.6750
30
0.0
40
0.1500
1
mikt. 1,50x2,65
50
0.00
72
1
73
2
11
9.9250
21
4.6750
31
0.0
0
LINE
8
OPENINGS
10
10.5000
20
4.7250
30
0.0
11
10.5000
21
5.6250
31
0.0
0
LINE
8
OPENINGS
10
9.3500
20
5.6250
30
0.0
11
10.0500
21
5.6250
31
0.0
0
ARC
8
OPENINGS
10
9.3500
20
5.6250
30
0.0
40
0.7000
50
0.00
51
90.00
0
POLYLINE
8
ROOMS
66
1
70
1
10
0.0
20
0.0
30
0.0
0
VERTEX
8
ROOMS
10
2.2500
20
5.5000
30
0.0
0
VERTEX
8
ROOMS
10
9.2500
20
5.5000
30
0.0
0
VERTEX
8
ROOMS
10
9.2500
20
6.4500
30
0.0
0
VERTEX
8
ROOMS
10
2.2500
20
6.4500
30
0.0
0
SEQEND
8
ROOMS
0
TEXT
8
TEXT
10
5.7500
20
6.2550
30
0.0
40
0.2400
1
Διάδρομος
50
0.00
72
1
73
2
11
5.7500
21
6.2550
31
0.0
0
TEXT
8
TEXT
10
5.7500
20
5.9750
30
0.0
40
0.1700
1
6,65 m2  (kath.)
50
0.00
72
1
73
2
11
5.7500
21
5.9750
31
0.0
0
TEXT
8
TEXT
10
5.7500
20
5.7150
30
0.0
40
0.1500
1
esot. 7,00x0,95
50
0.00
72
1
73
2
11
5.7500
21
5.7150
31
0.0
0
TEXT
8
TEXT
10
5.7500
20
5.4750
30
0.0
40
0.1500
1
mikt. 7,10x1,05
50
0.00
72
1
73
2
11
5.7500
21
5.4750
31
0.0
0
LINE
8
OPENINGS
10
5.2132
20
6.4500
30
0.0
11
5.2132
21
5.5500
31
0.0
0
ARC
8
OPENINGS
10
5.2132
20
6.4500
30
0.0
40
0.9000
50
270.00
51
360.00
0
POLYLINE
8
ROOMS
66
1
70
1
10
0.0
20
0.0
30
0.0
0
VERTEX
8
ROOMS
10
5.7000
20
3.9000
30
0.0
0
VERTEX
8
ROOMS
10
9.2500
20
3.9000
30
0.0
0
VERTEX
8
ROOMS
10
9.2500
20
5.5000
30
0.0
0
VERTEX
8
ROOMS
10
5.7000
20
5.5000
30
0.0
0
SEQEND
8
ROOMS
0
TEXT
8
TEXT
10
7.4750
20
4.9800
30
0.0
40
0.2400
1

50
0.00
72
1
73
2
11
7.4750
21
4.9800
31
0.0
0
TEXT
8
TEXT
10
7.4750
20
4.7000
30
0.0
40
0.1700
1
5,68 m2  (kath.)
50
0.00
72
1
73
2
11
7.4750
21
4.7000
31
0.0
0
TEXT
8
TEXT
10
7.4750
20
4.4400
30
0.0
40
0.1500
1
esot. 3,55x1,60
50
0.00
72
1
73
2
11
7.4750
21
4.4400
31
0.0
0
TEXT
8
TEXT
10
7.4750
20
4.2000
30
0.0
40
0.1500
1
mikt. 3,65x1,70
50
0.00
72
1
73
2
11
7.4750
21
4.2000
31
0.0
0
LINE
8
OPENINGS
10
7.0250
20
3.9000
30
0.0
11
7.0250
21
4.8000
31
0.0
0
ARC
8
OPENINGS
10
7.0250
20
3.9000
30
0.0
40
0.9000
50
0.00
51
90.00
0
LINE
8
DIMS
10
0.0000
20
-1.2000
30
0.0
11
13.0000
21
-1.2000
31
0.0
0
LINE
8
DIMS
10
0.0000
20
-1.0500
30
0.0
11
0.0000
21
-1.3500
31
0.0
0
LINE
8
DIMS
10
13.0000
20
-1.0500
30
0.0
11
13.0000
21
-1.3500
31
0.0
0
TEXT
8
DIMS
10
6.5000
20
-1.5500
30
0.0
40
0.2800
1
13,00 m (A-D)
50
0.00
72
1
73
2
11
6.5000
21
-1.5500
31
0.0
0
LINE
8
DIMS
10
-1.2000
20
0.0000
30
0.0
11
-1.2000
21
10.3500
31
0.0
0
LINE
8
DIMS
10
-1.0500
20
0.0000
30
0.0
11
-1.3500
21
0.0000
31
0.0
0
LINE
8
DIMS
10
-1.0500
20
10.3500
30
0.0
11
-1.3500
21
10.3500
31
0.0
0
TEXT
8
DIMS
10
-1.5500
20
5.1750
30
0.0
40
0.2800
1
10,35 m (B-N)
50
90.00
72
1
73
2
11
-1.5500
21
5.1750
31
0.0
0
TEXT
8
TITLE
10
6.5000
20
11.0500
30
0.0
40
0.4000
1
Ισόγειο  -  120,25 m2 (mikto)
50
0.00
72
1
73
2
11
6.5000
21
11.0500
31
0.0
0
POLYLINE
8
NORTH
66
1
70
1
10
0.0
20
0.0
30
0.0
0
VERTEX
8
NORTH
10
14.2000
20
10.3500
30
0.0
0
VERTEX
8
NORTH
10
13.8500
20
9.4500
30
0.0
0
VERTEX
8
NORTH
10
14.2000
20
9.7500
30
0.0
0
VERTEX
8
NORTH
10
14.5500
20
9.4500
30
0.0
0
SEQEND
8
NORTH
0
TEXT
8
NORTH
10
14.2000
20
10.7500
30
0.0
40
0.4500
1
B
50
0.00
72
1
73
2
11
14.2000
21
10.7500
31
0.0
0
TEXT
8
TITLE
10
0.0000
20
12.5500
30
0.0
40
0.5000
1
Μονοκατοικία Αμαλιάδας - Πρόταση 1
50
0.00
72
0
73
2
11
0.0000
21
12.5500
31
0.0
0
TEXT
8
TITLE
10
0.0000
20
11.8500
30
0.0
40
0.3000
1
Αμαλιάδα, Π.Ε. Ηλείας  |  Eisodos: Νότος  |  Orofoi: 1
50
0.00
72
0
73
2
11
0.0000
21
11.8500
31
0.0
0
ENDSEC
0
EOF
