0
SECTION
2
HEADER
9
$ACADVER
1
AC1009
9
$DWGCODEPAGE
3
ANSI_1253
9
$INSUNITS
70
6
0
ENDSEC
0
SECTION
2
TABLES
0
TABLE
2
LAYER
70
8
0
LAYER
2
OUTLINE
70
0
62
7
6
CONTINUOUS
0
LAYER
2
WALLS
70
0
62
8
6
CONTINUOUS
0
LAYER
2
ROOMS
70
0
62
3
6
CONTINUOUS
0
LAYER
2
OPENINGS
70
0
62
1
6
CONTINUOUS
0
LAYER
2
TEXT
70
0
62
7
6
CONTINUOUS
0
LAYER
2
DIMS
70
0
62
4
6
CONTINUOUS
0
LAYER
2
NORTH
70
0
62
2
6
CONTINUOUS
0
LAYER
2
TITLE
70
0
62
5
6
CONTINUOUS
0
ENDTAB
0
ENDSEC
0
SECTION
2
ENTITIES
0
POLYLINE
8
OUTLINE
66
1
70
1
10
0.0
20
0.0
30
0.0
0
VERTEX
8
OUTLINE
10
0.0000
20
0.0000
30
0.0
0
VERTEX
8
OUTLINE
10
13.0000
20
0.0000
30
0.0
0
VERTEX
8
OUTLINE
10
13.0000
20
9.2100
30
0.0
0
VERTEX
8
OUTLINE
10
0.0000
20
9.2100
30
0.0
0
SEQEND
8
OUTLINE
0
POLYLINE
8
WALLS
66
1
70
1
10
0.0
20
0.0
30
0.0
0
VERTEX
8
WALLS
10
0.3000
20
0.3000
30
0.0
0
VERTEX
8
WALLS
10
12.7000
20
0.3000
30
0.0
0
VERTEX
8
WALLS
10
12.7000
20
8.9100
30
0.0
0
VERTEX
8
WALLS
10
0.3000
20
8.9100
30
0.0
0
SEQEND
8
WALLS
0
POLYLINE
8
ROOMS
66
1
70
1
10
0.0
20
0.0
30
0.0
0
VERTEX
8
ROOMS
10
0.3000
20
0.3000
30
0.0
0
VERTEX
8
ROOMS
10
5.1022
20
0.3000
30
0.0
0
VERTEX
8
ROOMS
10
5.1022
20
4.1748
30
0.0
0
VERTEX
8
ROOMS
10
0.3000
20
4.1748
30
0.0
0
SEQEND
8
ROOMS
0
TEXT
8
TEXT
10
2.7011
20
2.5174
30
0.0
40
0.2400
1
Καθιστικό
50
0.00
72
1
73
2
11
2.7011
21
2.5174
31
0.0
0
TEXT
8
TEXT
10
2.7011
20
2.2374
30
0.0
40
0.1700
1
18,61 m2  (kath.)
50
0.00
72
1
73
2
11
2.7011
21
2.2374
31
0.0
0
TEXT
8
TEXT
10
2.7011
20
1.9774
30
0.0
40
0.1500
1
esot. 4,80x3,87
50
0.00
72
1
73
2
11
2.7011
21
1.9774
31
0.0
0
TEXT
8
TEXT
10
2.7011
20
1.7374
30
0.0
40
0.1500
1
mikt. 5,15x4,22
50
0.00
72
1
73
2
11
2.7011
21
1.7374
31
0.0
0
LINE
8
OPENINGS
10
2.0365
20
0.3000
30
0.0
11
3.3656
21
0.3000
31
0.0
0
LINE
8
OPENINGS
10
2.2511
20
4.1748
30
0.0
11
2.2511
21
3.2748
31
0.0
0
ARC
8
OPENINGS
10
2.2511
20
4.1748
30
0.0
40
0.9000
50
270.00
51
360.00
0
LINE
8
OPENINGS
10
2.2011
20
0.3000
30
0.0
11
2.2011
21
1.3000
31
0.0
0
ARC
8
OPENINGS
10
2.2011
20
0.3000
30
0.0
40
1.0000
50
0.00
51
90.00
0
POLYLINE
8
ROOMS
66
1
70
1
10
0.0
20
0.0
30
0.0
0
VERTEX
8
ROOMS
10
5.2022
20
0.3000
30
0.0
0
VERTEX
8
ROOMS
10
9.4152
20
0.3000
30
0.0
0
VERTEX
8
ROOMS
10
9.4152
20
4.1748
30
0.0
0
VERTEX
8
ROOMS
10
5.2022
20
4.1748
30
0.0
0
SEQEND
8
ROOMS
0
TEXT
8
TEXT
10
7.3087
20
2.5174
30
0.0
40
0.2400
1
Σαλόνι
50
0.00
72
1
73
2
11
7.3087
21
2.5174
31
0.0
0
TEXT
8
TEXT
10
7.3087
20
2.2374
30
0.0
40
0.1700
1
16,32 m2  (kath.)
50
0.00
72
1
73
2
11
7.3087
21
2.2374
31
0.0
0
TEXT
8
TEXT
10
7.3087
20
1.9774
30
0.0
40
0.1500
1
esot. 4,21x3,87
50
0.00
72
1
73
2
11
7.3087
21
1.9774
31
0.0
0
TEXT
8
TEXT
10
7.3087
20
1.7374
30
0.0
40
0.1500
1
mikt. 4,31x4,22
50
0.00
72
1
73
2
11
7.3087
21
1.7374
31
0.0
0
LINE
8
OPENINGS
10
6.7257
20
0.3000
30
0.0
11
7.8917
21
0.3000
31
0.0
0
LINE
8
OPENINGS
10
6.8587
20
4.1748
30
0.0
11
6.8587
21
3.2748
31
0.0
0
ARC
8
OPENINGS
10
6.8587
20
4.1748
30
0.0
40
0.9000
50
270.00
51
360.00
0
POLYLINE
8
ROOMS
66
1
70
1
10
0.0
20
0.0
30
0.0
0
VERTEX
8
ROOMS
10
9.5152
20
0.3000
30
0.0
0
VERTEX
8
ROOMS
10
12.7000
20
0.3000
30
0.0
0
VERTEX
8
ROOMS
10
12.7000
20
4.1748
30
0.0
0
VERTEX
8
ROOMS
10
9.5152
20
4.1748
30
0.0
0
SEQEND
8
ROOMS
0
TEXT
8
TEXT
10
11.1076
20
2.5174
30
0.0
40
0.2400
1
Κουζίνα
50
0.00
72
1
73
2
11
11.1076
21
2.5174
31
0.0
0
TEXT
8
TEXT
10
11.1076
20
2.2374
30
0.0
40
0.1700
1
12,34 m2  (kath.)
50
0.00
72
1
73
2
11
11.1076
21
2.2374
31
0.0
0
TEXT
8
TEXT
10
11.1076
20
1.9774
30
0.0
40
0.1500
1
esot. 3,18x3,87
50
0.00
72
1
73
2
11
11.1076
21
1.9774
31
0.0
0
TEXT
8
TEXT
10
11.1076
20
1.7374
30
0.0
40
0.1500
1
mikt. 3,53x4,22
50
0.00
72
1
73
2
11
11.1076
21
1.7374
31
0.0
0
LINE
8
OPENINGS
10
10.6576
20
0.3000
30
0.0
11
11.5576
21
0.3000
31
0.0
0
LINE
8
OPENINGS
10
10.6576
20
4.1748
30
0.0
11
10.6576
21
3.2748
31
0.0
0
ARC
8
OPENINGS
10
10.6576
20
4.1748
30
0.0
40
0.9000
50
270.00
51
360.00
0
POLYLINE
8
ROOMS
66
1
70
1
10
0.0
20
0.0
30
0.0
0
VERTEX
8
ROOMS
10
0.3000
20
5.4748
30
0.0
0
VERTEX
8
ROOMS
10
3.9316
20
5.4748
30
0.0
0
VERTEX
8
ROOMS
10
3.9316
20
8.9100
30
0.0
0
VERTEX
8
ROOMS
10
0.3000
20
8.9100
30
0.0
0
SEQEND
8
ROOMS
0
TEXT
8
TEXT
10
2.1158
20
7.4724
30
0.0
40
0.2400
1
Κύριο Υπνοδωμάτιο
50
0.00
72
1
73
2
11
2.1158
21
7.4724
31
0.0
0
TEXT
8
TEXT
10
2.1158
20
7.1924
30
0.0
40
0.1700
1
12,48 m2  (kath.)
50
0.00
72
1
73
2
11
2.1158
21
7.1924
31
0.0
0
TEXT
8
TEXT
10
2.1158
20
6.9324
30
0.0
40
0.1500
1
esot. 3,63x3,44
50
0.00
72
1
73
2
11
2.1158
21
6.9324
31
0.0
0
TEXT
8
TEXT
10
2.1158
20
6.6924
30
0.0
40
0.1500
1
mikt. 3,98x3,79
50
0.00
72
1
73
2
11
2.1158
21
6.6924
31
0.0
0
LINE
8
OPENINGS
10
1.6658
20
8.9100
30
0.0
11
2.5658
21
8.9100
31
0.0
0
LINE
8
OPENINGS
10
1.6658
20
5.4748
30
0.0
11
1.6658
21
6.3748
31
0.0
0
ARC
8
OPENINGS
10
1.6658
20
5.4748
30
0.0
40
0.9000
50
0.00
51
90.00
0
POLYLINE
8
ROOMS
66
1
70
1
10
0.0
20
0.0
30
0.0
0
VERTEX
8
ROOMS
10
4.0316
20
5.4748
30
0.0
0
VERTEX
8
ROOMS
10
7.0872
20
5.4748
30
0.0
0
VERTEX
8
ROOMS
10
7.0872
20
8.9100
30
0.0
0
VERTEX
8
ROOMS
10
4.0316
20
8.9100
30
0.0
0
SEQEND
8
ROOMS
0
TEXT
8
TEXT
10
5.5594
20
7.4724
30
0.0
40
0.2400
1
Υπνοδωμάτιο 2
50
0.00
72
1
73
2
11
5.5594
21
7.4724
31
0.0
0
TEXT
8
TEXT
10
5.5594
20
7.1924
30
0.0
40
0.1700
1
10,50 m2  (kath.)
50
0.00
72
1
73
2
11
5.5594
21
7.1924
31
0.0
0
TEXT
8
TEXT
10
5.5594
20
6.9324
30
0.0
40
0.1500
1
esot. 3,06x3,44
50
0.00
72
1
73
2
11
5.5594
21
6.9324
31
0.0
0
TEXT
8
TEXT
10
5.5594
20
6.6924
30
0.0
40
0.1500
1
mikt. 3,16x3,79
50
0.00
72
1
73
2
11
5.5594
21
6.6924
31
0.0
0
LINE
8
OPENINGS
10
5.1094
20
8.9100
30
0.0
11
6.0094
21
8.9100
31
0.0
0
LINE
8
OPENINGS
10
5.1094
20
5.4748
30
0.0
11
5.1094
21
6.3748
31
0.0
0
ARC
8
OPENINGS
10
5.1094
20
5.4748
30
0.0
40
0.9000
50
0.00
51
90.00
0
POLYLINE
8
ROOMS
66
1
70
1
10
0.0
20
0.0
30
0.0
0
VERTEX
8
ROOMS
10
7.1872
20
5.4748
30
0.0
0
VERTEX
8
ROOMS
10
10.2428
20
5.4748
30
0.0
0
VERTEX
8
ROOMS
10
10.2428
20
8.9100
30
0.0
0
VERTEX
8
ROOMS
10
7.1872
20
8.9100
30
0.0
0
SEQEND
8
ROOMS
0
TEXT
8
TEXT
10
8.7150
20
7.4724
30
0.0
40
0.2400
1
Υπνοδωμάτιο 3
50
0.00
72
1
73
2
11
8.7150
21
7.4724
31
0.0
0
TEXT
8
TEXT
10
8.7150
20
7.1924
30
0.0
40
0.1700
1
10,50 m2  (kath.)
50
0.00
72
1
73
2
11
8.7150
21
7.1924
31
0.0
0
TEXT
8
TEXT
10
8.7150
20
6.9324
30
0.0
40
0.1500
1
esot. 3,06x3,44
50
0.00
72
1
73
2
11
8.7150
21
6.9324
31
0.0
0
TEXT
8
TEXT
10
8.7150
20
6.6924
30
0.0
40
0.1500
1
mikt. 3,16x3,79
50
0.00
72
1
73
2
11
8.7150
21
6.6924
31
0.0
0
LINE
8
OPENINGS
10
8.2650
20
8.9100
30
0.0
11
9.1650
21
8.9100
31
0.0
0
LINE
8
OPENINGS
10
8.2650
20
5.4748
30
0.0
11
8.2650
21
6.3748
31
0.0
0
ARC
8
OPENINGS
10
8.2650
20
5.4748
30
0.0
40
0.9000
50
0.00
51
90.00
0
POLYLINE
8
ROOMS
66
1
70
1
10
0.0
20
0.0
30
0.0
0
VERTEX
8
ROOMS
10
10.3428
20
5.4748
30
0.0
0
VERTEX
8
ROOMS
10
11.6184
20
5.4748
30
0.0
0
VERTEX
8
ROOMS
10
11.6184
20
7.4249
30
0.0
0
VERTEX
8
ROOMS
10
10.3428
20
7.4249
30
0.0
0
SEQEND
8
ROOMS
0
TEXT
8
TEXT
10
10.9806
20
6.7299
30
0.0
40
0.2400
1
Λουτρό
50
0.00
72
1
73
2
11
10.9806
21
6.7299
31
0.0
0
TEXT
8
TEXT
10
10.9806
20
6.4499
30
0.0
40
0.1700
1
2,49 m2  (kath.)
50
0.00
72
1
73
2
11
10.9806
21
6.4499
31
0.0
0
TEXT
8
TEXT
10
10.9806
20
6.1899
30
0.0
40
0.1500
1
esot. 1,28x1,95
50
0.00
72
1
73
2
11
10.9806
21
6.1899
31
0.0
0
TEXT
8
TEXT
10
10.9806
20
5.9499
30
0.0
40
0.1500
1
mikt. 1,38x2,05
50
0.00
72
1
73
2
11
10.9806
21
5.9499
31
0.0
0
LINE
8
OPENINGS
10
10.5806
20
5.4748
30
0.0
11
10.5806
21
6.2748
31
0.0
0
ARC
8
OPENINGS
10
10.5806
20
5.4748
30
0.0
40
0.8000
50
0.00
51
90.00
0
POLYLINE
8
ROOMS
66
1
70
1
10
0.0
20
0.0
30
0.0
0
VERTEX
8
ROOMS
10
11.7184
20
5.4748
30
0.0
0
VERTEX
8
ROOMS
10
12.7000
20
5.4748
30
0.0
0
VERTEX
8
ROOMS
10
12.7000
20
7.4249
30
0.0
0
VERTEX
8
ROOMS
10
11.7184
20
7.4249
30
0.0
0
SEQEND
8
ROOMS
0
TEXT
8
TEXT
10
12.2092
20
6.7299
30
0.0
40
0.2400
1
Αποθήκη
50
0.00
72
1
73
2
11
12.2092
21
6.7299
31
0.0
0
TEXT
8
TEXT
10
12.2092
20
6.4499
30
0.0
40
0.1700
1
1,91 m2  (kath.)
50
0.00
72
1
73
2
11
12.2092
21
6.4499
31
0.0
0
TEXT
8
TEXT
10
12.2092
20
6.1899
30
0.0
40
0.1500
1
esot. 0,98x1,95
50
0.00
72
1
73
2
11
12.2092
21
6.1899
31
0.0
0
TEXT
8
TEXT
10
12.2092
20
5.9499
30
0.0
40
0.1500
1
mikt. 1,33x2,05
50
0.00
72
1
73
2
11
12.2092
21
5.9499
31
0.0
0
LINE
8
OPENINGS
10
11.8684
20
5.4748
30
0.0
11
11.8684
21
6.1565
31
0.0
0
ARC
8
OPENINGS
10
11.8684
20
5.4748
30
0.0
40
0.6816
50
0.00
51
90.00
0
POLYLINE
8
ROOMS
66
1
70
1
10
0.0
20
0.0
30
0.0
0
VERTEX
8
ROOMS
10
10.3428
20
7.5249
30
0.0
0
VERTEX
8
ROOMS
10
11.7166
20
7.5249
30
0.0
0
VERTEX
8
ROOMS
10
11.7166
20
8.9100
30
0.0
0
VERTEX
8
ROOMS
10
10.3428
20
8.9100
30
0.0
0
SEQEND
8
ROOMS
0
TEXT
8
TEXT
10
11.0297
20
8.4975
30
0.0
40
0.2400
1
Χωλ
50
0.00
72
1
73
2
11
11.0297
21
8.4975
31
0.0
0
TEXT
8
TEXT
10
11.0297
20
8.2175
30
0.0
40
0.1700
1
1,90 m2  (kath.)
50
0.00
72
1
73
2
11
11.0297
21
8.2175
31
0.0
0
TEXT
8
TEXT
10
11.0297
20
7.9575
30
0.0
40
0.1500
1
esot. 1,37x1,39
50
0.00
72
1
73
2
11
11.0297
21
7.9575
31
0.0
0
TEXT
8
TEXT
10
11.0297
20
7.7175
30
0.0
40
0.1500
1
mikt. 1,47x1,74
50
0.00
72
1
73
2
11
11.0297
21
7.7175
31
0.0
0
LINE
8
OPENINGS
10
10.5797
20
7.5249
30
0.0
11
10.5797
21
8.4249
31
0.0
0
ARC
8
OPENINGS
10
10.5797
20
7.5249
30
0.0
40
0.9000
50
0.00
51
90.00
0
POLYLINE
8
ROOMS
66
1
70
1
10
0.0
20
0.0
30
0.0
0
VERTEX
8
ROOMS
10
11.8166
20
7.5249
30
0.0
0
VERTEX
8
ROOMS
10
12.7000
20
7.5249
30
0.0
0
VERTEX
8
ROOMS
10
12.7000
20
8.9100
30
0.0
0
VERTEX
8
ROOMS
10
11.8166
20
8.9100
30
0.0
0
SEQEND
8
ROOMS
0
TEXT
8
TEXT
10
12.2583
20
8.4975
30
0.0
40
0.2400
1
WC
50
0.00
72
1
73
2
11
12.2583
21
8.4975
31
0.0
0
TEXT
8
TEXT
10
12.2583
20
8.2175
30
0.0
40
0.1700
1
1,22 m2  (kath.)
50
0.00
72
1
73
2
11
12.2583
21
8.2175
31
0.0
0
TEXT
8
TEXT
10
12.2583
20
7.9575
30
0.0
40
0.1500
1
esot. 0,88x1,39
50
0.00
72
1
73
2
11
12.2583
21
7.9575
31
0.0
0
TEXT
8
TEXT
10
12.2583
20
7.7175
30
0.0
40
0.1500
1
mikt. 1,23x1,74
50
0.00
72
1
73
2
11
12.2583
21
7.7175
31
0.0
0
LINE
8
OPENINGS
10
12.7000
20
7.8249
30
0.0
11
12.7000
21
8.6100
31
0.0
0
LINE
8
OPENINGS
10
11.9666
20
7.5249
30
0.0
11
11.9666
21
8.1083
31
0.0
0
ARC
8
OPENINGS
10
11.9666
20
7.5249
30
0.0
40
0.5834
50
0.00
51
90.00
0
POLYLINE
8
ROOMS
66
1
70
1
10
0.0
20
0.0
30
0.0
0
VERTEX
8
ROOMS
10
0.3000
20
4.2248
30
0.0
0
VERTEX
8
ROOMS
10
12.7000
20
4.2248
30
0.0
0
VERTEX
8
ROOMS
10
12.7000
20
5.4248
30
0.0
0
VERTEX
8
ROOMS
10
0.3000
20
5.4248
30
0.0
0
SEQEND
8
ROOMS
0
TEXT
8
TEXT
10
6.5000
20
5.1048
30
0.0
40
0.2400
1
Διάδρομος
50
0.00
72
1
73
2
11
6.5000
21
5.1048
31
0.0
0
TEXT
8
TEXT
10
6.5000
20
4.8248
30
0.0
40
0.1700
1
14,88 m2  (kath.)
50
0.00
72
1
73
2
11
6.5000
21
4.8248
31
0.0
0
TEXT
8
TEXT
10
6.5000
20
4.5648
30
0.0
40
0.1500
1
esot. 12,40x1,20
50
0.00
72
1
73
2
11
6.5000
21
4.5648
31
0.0
0
TEXT
8
TEXT
10
6.5000
20
4.3248
30
0.0
40
0.1500
1
mikt. 13,00x1,30
50
0.00
72
1
73
2
11
6.5000
21
4.3248
31
0.0
0
LINE
8
DIMS
10
0.0000
20
-1.2000
30
0.0
11
13.0000
21
-1.2000
31
0.0
0
LINE
8
DIMS
10
0.0000
20
-1.0500
30
0.0
11
0.0000
21
-1.3500
31
0.0
0
LINE
8
DIMS
10
13.0000
20
-1.0500
30
0.0
11
13.0000
21
-1.3500
31
0.0
0
TEXT
8
DIMS
10
6.5000
20
-1.5500
30
0.0
40
0.2800
1
13,00 m (A-D)
50
0.00
72
1
73
2
11
6.5000
21
-1.5500
31
0.0
0
LINE
8
DIMS
10
-1.2000
20
0.0000
30
0.0
11
-1.2000
21
9.2100
31
0.0
0
LINE
8
DIMS
10
-1.0500
20
0.0000
30
0.0
11
-1.3500
21
0.0000
31
0.0
0
LINE
8
DIMS
10
-1.0500
20
9.2100
30
0.0
11
-1.3500
21
9.2100
31
0.0
0
TEXT
8
DIMS
10
-1.5500
20
4.6050
30
0.0
40
0.2800
1
9,21 m (B-N)
50
90.00
72
1
73
2
11
-1.5500
21
4.6050
31
0.0
0
TEXT
8
TITLE
10
6.5000
20
9.9100
30
0.0
40
0.4000
1
Ισόγειο  -  119,73 m2 (mikto)
50
0.00
72
1
73
2
11
6.5000
21
9.9100
31
0.0
0
POLYLINE
8
NORTH
66
1
70
1
10
0.0
20
0.0
30
0.0
0
VERTEX
8
NORTH
10
14.2000
20
9.2100
30
0.0
0
VERTEX
8
NORTH
10
13.8500
20
8.3100
30
0.0
0
VERTEX
8
NORTH
10
14.2000
20
8.6100
30
0.0
0
VERTEX
8
NORTH
10
14.5500
20
8.3100
30
0.0
0
SEQEND
8
NORTH
0
TEXT
8
NORTH
10
14.2000
20
9.6100
30
0.0
40
0.4500
1
B
50
0.00
72
1
73
2
11
14.2000
21
9.6100
31
0.0
0
TEXT
8
TITLE
10
0.0000
20
11.4100
30
0.0
40
0.5000
1
Μονοκατοικία Αμαλιάδας - Πρόταση 1
50
0.00
72
0
73
2
11
0.0000
21
11.4100
31
0.0
0
TEXT
8
TITLE
10
0.0000
20
10.7100
30
0.0
40
0.3000
1
Αμαλιάδα, Π.Ε. Ηλείας  |  Eisodos: Νότος  |  Orofoi: 1
50
0.00
72
0
73
2
11
0.0000
21
10.7100
31
0.0
0
ENDSEC
0
EOF
